<svg width="62" height="62" viewBox="0 0 62 62" fill="none" xmlns="http://www.w3.org/2000/svg">
<g filter="url(#filter0_d_2042_598)">
<circle cx="31" cy="31" r="26" fill="white"/>
</g>
<path fill-rule="evenodd" clip-rule="evenodd" d="M34.0843 34.5868C33.979 34.6849 33.8946 34.8032 33.836 34.9346C33.7775 35.0661 33.746 35.2079 33.7434 35.3518C33.7409 35.4957 33.7674 35.6386 33.8213 35.772C33.8751 35.9054 33.9553 36.0266 34.0571 36.1283C34.1588 36.2301 34.28 36.3103 34.4134 36.3642C34.5468 36.418 34.6897 36.4445 34.8336 36.442C34.9775 36.4394 35.1193 36.4079 35.2508 36.3494C35.3822 36.2908 35.5005 36.2064 35.5986 36.1011L40.2429 31.4583L41 30.7011L40.2429 29.944L35.6 25.3011C35.398 25.1059 35.1274 24.9977 34.8465 25C34.5656 25.0023 34.2968 25.1149 34.098 25.3135C33.8993 25.512 33.7865 25.7807 33.7839 26.0616C33.7813 26.3425 33.8892 26.6132 34.0843 26.8154L36.8986 29.6297L22.0714 29.6297C21.7873 29.6297 21.5147 29.7426 21.3138 29.9435C21.1129 30.1444 21 30.417 21 30.7011C21 30.9853 21.1129 31.2578 21.3138 31.4587C21.5147 31.6597 21.7873 31.7725 22.0714 31.7725L36.8986 31.7725L34.0843 34.5868Z" fill="#AFBC34"/>
<defs>
<filter id="filter0_d_2042_598" x="0" y="0" width="62" height="62" filterUnits="userSpaceOnUse" color-interpolation-filters="sRGB">
<feFlood flood-opacity="0" result="BackgroundImageFix"/>
<feColorMatrix in="SourceAlpha" type="matrix" values="0 0 0 0 0 0 0 0 0 0 0 0 0 0 0 0 0 0 127 0" result="hardAlpha"/>
<feOffset/>
<feGaussianBlur stdDeviation="2.5"/>
<feComposite in2="hardAlpha" operator="out"/>
<feColorMatrix type="matrix" values="0 0 0 0 0 0 0 0 0 0 0 0 0 0 0 0 0 0 0.16 0"/>
<feBlend mode="normal" in2="BackgroundImageFix" result="effect1_dropShadow_2042_598"/>
<feBlend mode="normal" in="SourceGraphic" in2="effect1_dropShadow_2042_598" result="shape"/>
</filter>
</defs>
</svg>
