<svg width="517" height="155" viewBox="0 0 517 155" fill="none" xmlns="http://www.w3.org/2000/svg">
<circle cx="3.64973" cy="3.64973" r="3.64973" transform="matrix(-1 0 0 1 224.299 114)" fill="#F5A210"/>
<circle cx="3.64973" cy="3.64973" r="3.64973" transform="matrix(-1 0 0 1 235.77 114)" fill="#F5A210"/>
<circle cx="3.64973" cy="3.64973" r="3.64973" transform="matrix(-1 0 0 1 247.241 114)" fill="#F5A210"/>
<circle cx="3.64973" cy="3.64973" r="3.64973" transform="matrix(-1 0 0 1 258.711 114)" fill="#F5A210"/>
<line x1="264" y1="116.98" x2="517" y2="116.98" stroke="#AFBC34" stroke-width="2.04"/>
<mask id="path-6-outside-1_288_682" maskUnits="userSpaceOnUse" x="6" y="28" width="120" height="99" fill="black">
<rect fill="white" x="6" y="28" width="120" height="99"/>
<path d="M43.0843 125.773C35.5995 125.773 29.1752 123.879 23.8116 120.091C18.4783 116.273 14.3722 110.773 11.4934 103.591C8.64492 96.3788 7.22068 87.697 7.22068 77.5455C7.25098 67.3939 8.69038 58.7576 11.5389 51.6364C14.4176 44.4848 18.5237 39.0303 23.857 35.2727C29.2207 31.5151 35.6298 29.6364 43.0843 29.6364C50.5389 29.6364 56.948 31.5151 62.3116 35.2727C67.6752 39.0303 71.7813 44.4848 74.6298 51.6364C77.5086 58.7879 78.948 67.4242 78.948 77.5455C78.948 87.7273 77.5086 96.4242 74.6298 103.636C71.7813 110.818 67.6752 116.303 62.3116 120.091C56.9783 123.879 50.5692 125.773 43.0843 125.773ZM43.0843 111.545C48.9025 111.545 53.4934 108.682 56.857 102.955C60.251 97.197 61.948 88.7273 61.948 77.5455C61.948 70.1515 61.1752 63.9394 59.6298 58.9091C58.0843 53.8788 55.9025 50.0909 53.0843 47.5455C50.2661 44.9697 46.9328 43.6818 43.0843 43.6818C37.2964 43.6818 32.7207 46.5606 29.357 52.3182C25.9934 58.0455 24.2964 66.4545 24.2661 77.5455C24.2358 84.9697 24.9783 91.2121 26.4934 96.2727C28.0389 101.333 30.2207 105.152 33.0389 107.727C35.857 110.273 39.2055 111.545 43.0843 111.545ZM124.234 30.9091V124H107.37V47.3182H106.825L85.052 61.2273V45.7727L108.188 30.9091H124.234Z"/>
</mask>
<path d="M43.0843 125.773C35.5995 125.773 29.1752 123.879 23.8116 120.091C18.4783 116.273 14.3722 110.773 11.4934 103.591C8.64492 96.3788 7.22068 87.697 7.22068 77.5455C7.25098 67.3939 8.69038 58.7576 11.5389 51.6364C14.4176 44.4848 18.5237 39.0303 23.857 35.2727C29.2207 31.5151 35.6298 29.6364 43.0843 29.6364C50.5389 29.6364 56.948 31.5151 62.3116 35.2727C67.6752 39.0303 71.7813 44.4848 74.6298 51.6364C77.5086 58.7879 78.948 67.4242 78.948 77.5455C78.948 87.7273 77.5086 96.4242 74.6298 103.636C71.7813 110.818 67.6752 116.303 62.3116 120.091C56.9783 123.879 50.5692 125.773 43.0843 125.773ZM43.0843 111.545C48.9025 111.545 53.4934 108.682 56.857 102.955C60.251 97.197 61.948 88.7273 61.948 77.5455C61.948 70.1515 61.1752 63.9394 59.6298 58.9091C58.0843 53.8788 55.9025 50.0909 53.0843 47.5455C50.2661 44.9697 46.9328 43.6818 43.0843 43.6818C37.2964 43.6818 32.7207 46.5606 29.357 52.3182C25.9934 58.0455 24.2964 66.4545 24.2661 77.5455C24.2358 84.9697 24.9783 91.2121 26.4934 96.2727C28.0389 101.333 30.2207 105.152 33.0389 107.727C35.857 110.273 39.2055 111.545 43.0843 111.545ZM124.234 30.9091V124H107.37V47.3182H106.825L85.052 61.2273V45.7727L108.188 30.9091H124.234Z" fill="#AFBC34"/>
<path d="M23.8116 120.091L23.2295 120.904L23.2347 120.908L23.8116 120.091ZM11.4934 103.591L10.5633 103.958L10.5652 103.963L11.4934 103.591ZM7.22068 77.5455L6.22068 77.5425V77.5455H7.22068ZM11.5389 51.6364L10.6112 51.2629L10.6104 51.265L11.5389 51.6364ZM23.857 35.2727L23.2833 34.4537L23.2811 34.4552L23.857 35.2727ZM62.3116 35.2727L61.7378 36.0917L62.3116 35.2727ZM74.6298 51.6364L73.7007 52.0064L73.7021 52.0098L74.6298 51.6364ZM74.6298 103.636L73.701 103.266L73.7002 103.268L74.6298 103.636ZM62.3116 120.091L61.7347 119.274L61.7325 119.276L62.3116 120.091ZM56.857 102.955L55.9956 102.447L55.9948 102.448L56.857 102.955ZM59.6298 58.9091L60.5857 58.6154L59.6298 58.9091ZM53.0843 47.5455L52.4097 48.2836L52.414 48.2876L53.0843 47.5455ZM29.357 52.3182L30.2193 52.8246L30.2205 52.8226L29.357 52.3182ZM24.2661 77.5455L25.2661 77.5495L25.2661 77.5482L24.2661 77.5455ZM26.4934 96.2727L25.5354 96.5596L25.537 96.5648L26.4934 96.2727ZM33.0389 107.727L32.3642 108.465L32.3686 108.469L33.0389 107.727ZM43.0843 124.773C35.7761 124.773 29.5604 122.927 24.3885 119.274L23.2347 120.908C28.79 124.831 35.4229 126.773 43.0843 126.773V124.773ZM24.3937 119.278C19.2415 115.589 15.2424 110.256 12.4216 103.219L10.5652 103.963C13.502 111.29 17.715 116.956 23.2295 120.904L24.3937 119.278ZM12.4235 103.224C9.63305 96.1584 8.22068 87.6081 8.22068 77.5455H6.22068C6.22068 87.7858 7.65679 96.5992 10.5633 103.958L12.4235 103.224ZM8.22067 77.5484C8.25072 67.4845 9.6782 58.9806 12.4673 52.0078L10.6104 51.265C7.70255 58.5346 6.25125 67.3034 6.22068 77.5425L8.22067 77.5484ZM12.4665 52.0098C15.2866 45.0041 19.284 39.7179 24.433 36.0902L23.2811 34.4552C17.7634 38.3427 13.5487 43.9656 10.6112 51.2629L12.4665 52.0098ZM24.4308 36.0917C29.6037 32.4678 35.8056 30.6364 43.0843 30.6364V28.6364C35.4539 28.6364 28.8377 30.5625 23.2833 34.4537L24.4308 36.0917ZM43.0843 30.6364C50.363 30.6364 56.5649 32.4678 61.7378 36.0917L62.8854 34.4537C57.331 30.5625 50.7147 28.6364 43.0843 28.6364V30.6364ZM61.7378 36.0917C66.9155 39.719 70.9115 45.0036 73.7008 52.0064L75.5588 51.2663C72.6511 43.9661 68.435 38.3416 62.8854 34.4537L61.7378 36.0917ZM73.7021 52.0098C76.5207 59.0118 77.948 67.5142 77.948 77.5455H79.948C79.948 67.3343 78.4964 58.5639 75.5574 51.2629L73.7021 52.0098ZM77.948 77.5455C77.948 87.6378 76.5206 96.2019 73.701 103.266L75.5585 104.007C78.4965 96.6466 79.948 87.8168 79.948 77.5455H77.948ZM73.7002 103.268C70.9104 110.302 66.9135 115.617 61.7347 119.274L62.8885 120.908C68.437 116.989 72.6521 111.335 75.5593 104.005L73.7002 103.268ZM61.7325 119.276C56.592 122.927 50.3927 124.773 43.0843 124.773V126.773C50.7456 126.773 57.3645 124.831 62.8906 120.906L61.7325 119.276ZM43.0843 112.545C49.3133 112.545 54.2065 109.442 57.7193 103.461L55.9948 102.448C52.7803 107.921 48.4917 110.545 43.0843 110.545V112.545ZM57.7185 103.462C61.2452 97.4796 62.948 88.7993 62.948 77.5455H60.948C60.948 88.6553 59.2568 96.9143 55.9956 102.447L57.7185 103.462ZM62.948 77.5455C62.948 70.0889 62.1695 63.7707 60.5857 58.6154L58.6739 59.2028C60.1809 64.1081 60.948 70.2141 60.948 77.5455H62.948ZM60.5857 58.6154C59.0068 53.4762 56.7487 49.5077 53.7546 46.8034L52.414 48.2876C55.0563 50.6741 57.1619 54.2813 58.6739 59.2028L60.5857 58.6154ZM53.759 46.8073C50.7548 44.0616 47.1803 42.6818 43.0843 42.6818V44.6818C46.6853 44.6818 49.7774 45.8778 52.4097 48.2836L53.759 46.8073ZM43.0843 42.6818C36.8809 42.6818 32.004 45.805 28.4936 51.8137L30.2205 52.8226C33.4374 47.3162 37.712 44.6818 43.0843 44.6818V42.6818ZM28.4948 51.8118C25 57.7623 23.2966 66.3799 23.2661 77.5427L25.2661 77.5482C25.2962 66.5292 26.9868 58.3286 30.2193 52.8246L28.4948 51.8118ZM23.2661 77.5414C23.2356 85.0275 23.9832 91.375 25.5354 96.5595L27.4514 95.9859C25.9734 91.0493 25.2361 84.9119 25.2661 77.5495L23.2661 77.5414ZM25.537 96.5648C27.1155 101.733 29.3724 105.731 32.3642 108.465L33.7135 106.989C31.0689 104.572 28.9622 100.933 27.4498 95.9807L25.537 96.5648ZM32.3686 108.469C35.3748 111.185 38.9637 112.545 43.0843 112.545V110.545C39.4473 110.545 36.3392 109.361 33.7091 106.985L32.3686 108.469ZM124.234 30.9091H125.234V29.9091H124.234V30.9091ZM124.234 124V125H125.234V124H124.234ZM107.37 124H106.37V125H107.37V124ZM107.37 47.3182H108.37V46.3182H107.37V47.3182ZM106.825 47.3182V46.3182H106.533L106.286 46.4755L106.825 47.3182ZM85.052 61.2273H84.052V63.0527L85.5904 62.07L85.052 61.2273ZM85.052 45.7727L84.5115 44.9314L84.052 45.2266V45.7727H85.052ZM108.188 30.9091V29.9091H107.895L107.648 30.0677L108.188 30.9091ZM123.234 30.9091V124H125.234V30.9091H123.234ZM124.234 123H107.37V125H124.234V123ZM108.37 124V47.3182H106.37V124H108.37ZM107.37 46.3182H106.825V48.3182H107.37V46.3182ZM106.286 46.4755L84.5137 60.3846L85.5904 62.07L107.363 48.1609L106.286 46.4755ZM86.052 61.2273V45.7727H84.052V61.2273H86.052ZM85.5926 46.6141L108.729 31.7504L107.648 30.0677L84.5115 44.9314L85.5926 46.6141ZM108.188 31.9091H124.234V29.9091H108.188V31.9091Z" fill="white" mask="url(#path-6-outside-1_288_682)"/>
<path d="M139.002 124V107.698H144.348C145.551 107.698 146.629 107.859 147.582 108.182C148.55 108.505 149.313 109.04 149.87 109.788C150.442 110.521 150.728 111.533 150.728 112.824C150.728 114.056 150.442 115.075 149.87 115.882C149.313 116.674 148.557 117.261 147.604 117.642C146.665 118.023 145.609 118.214 144.436 118.214H142.258V124H139.002ZM142.258 115.64H144.216C145.331 115.64 146.159 115.405 146.702 114.936C147.259 114.467 147.538 113.763 147.538 112.824C147.538 111.885 147.245 111.233 146.658 110.866C146.086 110.485 145.235 110.294 144.106 110.294H142.258V115.64ZM160.144 124.308C158.706 124.308 157.438 123.971 156.338 123.296C155.252 122.607 154.402 121.624 153.786 120.348C153.17 119.072 152.862 117.547 152.862 115.772C152.862 114.012 153.17 112.509 153.786 111.262C154.402 110.015 155.252 109.062 156.338 108.402C157.438 107.742 158.706 107.412 160.144 107.412C161.596 107.412 162.864 107.749 163.95 108.424C165.035 109.084 165.886 110.037 166.502 111.284C167.118 112.516 167.426 114.012 167.426 115.772C167.426 117.547 167.118 119.072 166.502 120.348C165.886 121.624 165.035 122.607 163.95 123.296C162.864 123.971 161.596 124.308 160.144 124.308ZM160.144 121.492C160.95 121.492 161.647 121.257 162.234 120.788C162.835 120.319 163.297 119.659 163.62 118.808C163.942 117.943 164.104 116.931 164.104 115.772C164.104 114.613 163.942 113.623 163.62 112.802C163.297 111.966 162.835 111.328 162.234 110.888C161.647 110.433 160.95 110.206 160.144 110.206C159.337 110.206 158.633 110.433 158.032 110.888C157.445 111.328 156.99 111.966 156.668 112.802C156.36 113.623 156.206 114.613 156.206 115.772C156.206 116.931 156.36 117.943 156.668 118.808C156.99 119.659 157.445 120.319 158.032 120.788C158.633 121.257 159.337 121.492 160.144 121.492ZM170.606 124V107.698H173.862V124H170.606ZM177.867 124V107.698H181.189L185.919 116.388L187.569 119.908H187.679C187.591 119.057 187.496 118.126 187.393 117.114C187.291 116.102 187.239 115.134 187.239 114.21V107.698H190.319V124H186.997L182.311 115.288L180.661 111.79H180.551C180.625 112.67 180.713 113.601 180.815 114.584C180.918 115.567 180.969 116.527 180.969 117.466V124H177.867ZM197.58 124V110.426H193.004V107.698H205.434V110.426H200.836V124H197.58Z" fill="#444444"/>
</svg>
