<svg width="541" height="155" viewBox="0 0 541 155" fill="none" xmlns="http://www.w3.org/2000/svg">
<circle cx="3.64973" cy="3.64973" r="3.64973" transform="matrix(-1 0 0 1 270.299 114)" fill="#F5A210"/>
<circle cx="3.64973" cy="3.64973" r="3.64973" transform="matrix(-1 0 0 1 281.77 114)" fill="#F5A210"/>
<circle cx="3.64973" cy="3.64973" r="3.64973" transform="matrix(-1 0 0 1 293.241 114)" fill="#F5A210"/>
<circle cx="3.64973" cy="3.64973" r="3.64973" transform="matrix(-1 0 0 1 304.711 114)" fill="#F5A210"/>
<line y1="116.98" x2="253" y2="116.98" stroke="#AFBC34" stroke-width="2.04"/>
<mask id="path-6-outside-1_288_712" maskUnits="userSpaceOnUse" x="389" y="28" width="146" height="99" fill="black">
<rect fill="white" x="389" y="28" width="146" height="99"/>
<path d="M426.084 125.773C418.599 125.773 412.175 123.879 406.812 120.091C401.478 116.273 397.372 110.773 394.493 103.591C391.645 96.3788 390.221 87.697 390.221 77.5455C390.251 67.3939 391.69 58.7576 394.539 51.6364C397.418 44.4848 401.524 39.0303 406.857 35.2727C412.221 31.5151 418.63 29.6364 426.084 29.6364C433.539 29.6364 439.948 31.5151 445.312 35.2727C450.675 39.0303 454.781 44.4848 457.63 51.6364C460.509 58.7879 461.948 67.4242 461.948 77.5455C461.948 87.7273 460.509 96.4242 457.63 103.636C454.781 110.818 450.675 116.303 445.312 120.091C439.978 123.879 433.569 125.773 426.084 125.773ZM426.084 111.545C431.902 111.545 436.493 108.682 439.857 102.955C443.251 97.197 444.948 88.7273 444.948 77.5455C444.948 70.1515 444.175 63.9394 442.63 58.9091C441.084 53.8788 438.902 50.0909 436.084 47.5455C433.266 44.9697 429.933 43.6818 426.084 43.6818C420.296 43.6818 415.721 46.5606 412.357 52.3182C408.993 58.0455 407.296 66.4545 407.266 77.5455C407.236 84.9697 407.978 91.2121 409.493 96.2727C411.039 101.333 413.221 105.152 416.039 107.727C418.857 110.273 422.206 111.545 426.084 111.545ZM469.37 124V111.818L501.688 80.1364C504.779 77.0152 507.355 74.2424 509.416 71.8182C511.476 69.3939 513.022 67.0455 514.052 64.7727C515.082 62.5 515.597 60.0758 515.597 57.5C515.597 54.5606 514.931 52.0455 513.597 49.9545C512.264 47.8333 510.431 46.197 508.097 45.0455C505.764 43.8939 503.113 43.3182 500.143 43.3182C497.082 43.3182 494.401 43.9545 492.097 45.2273C489.794 46.4697 488.007 48.2424 486.734 50.5455C485.491 52.8485 484.87 55.5909 484.87 58.7727H468.825C468.825 52.8636 470.173 47.7273 472.87 43.3636C475.567 39 479.279 35.6212 484.007 33.2273C488.764 30.8333 494.219 29.6364 500.37 29.6364C506.613 29.6364 512.097 30.803 516.825 33.1364C521.552 35.4697 525.219 38.6667 527.825 42.7273C530.461 46.7879 531.779 51.4242 531.779 56.6364C531.779 60.1212 531.113 63.5455 529.779 66.9091C528.446 70.2727 526.097 74 522.734 78.0909C519.401 82.1818 514.719 87.1364 508.688 92.9545L492.643 109.273V109.909H533.188V124H469.37Z"/>
</mask>
<path d="M426.084 125.773C418.599 125.773 412.175 123.879 406.812 120.091C401.478 116.273 397.372 110.773 394.493 103.591C391.645 96.3788 390.221 87.697 390.221 77.5455C390.251 67.3939 391.69 58.7576 394.539 51.6364C397.418 44.4848 401.524 39.0303 406.857 35.2727C412.221 31.5151 418.63 29.6364 426.084 29.6364C433.539 29.6364 439.948 31.5151 445.312 35.2727C450.675 39.0303 454.781 44.4848 457.63 51.6364C460.509 58.7879 461.948 67.4242 461.948 77.5455C461.948 87.7273 460.509 96.4242 457.63 103.636C454.781 110.818 450.675 116.303 445.312 120.091C439.978 123.879 433.569 125.773 426.084 125.773ZM426.084 111.545C431.902 111.545 436.493 108.682 439.857 102.955C443.251 97.197 444.948 88.7273 444.948 77.5455C444.948 70.1515 444.175 63.9394 442.63 58.9091C441.084 53.8788 438.902 50.0909 436.084 47.5455C433.266 44.9697 429.933 43.6818 426.084 43.6818C420.296 43.6818 415.721 46.5606 412.357 52.3182C408.993 58.0455 407.296 66.4545 407.266 77.5455C407.236 84.9697 407.978 91.2121 409.493 96.2727C411.039 101.333 413.221 105.152 416.039 107.727C418.857 110.273 422.206 111.545 426.084 111.545ZM469.37 124V111.818L501.688 80.1364C504.779 77.0152 507.355 74.2424 509.416 71.8182C511.476 69.3939 513.022 67.0455 514.052 64.7727C515.082 62.5 515.597 60.0758 515.597 57.5C515.597 54.5606 514.931 52.0455 513.597 49.9545C512.264 47.8333 510.431 46.197 508.097 45.0455C505.764 43.8939 503.113 43.3182 500.143 43.3182C497.082 43.3182 494.401 43.9545 492.097 45.2273C489.794 46.4697 488.007 48.2424 486.734 50.5455C485.491 52.8485 484.87 55.5909 484.87 58.7727H468.825C468.825 52.8636 470.173 47.7273 472.87 43.3636C475.567 39 479.279 35.6212 484.007 33.2273C488.764 30.8333 494.219 29.6364 500.37 29.6364C506.613 29.6364 512.097 30.803 516.825 33.1364C521.552 35.4697 525.219 38.6667 527.825 42.7273C530.461 46.7879 531.779 51.4242 531.779 56.6364C531.779 60.1212 531.113 63.5455 529.779 66.9091C528.446 70.2727 526.097 74 522.734 78.0909C519.401 82.1818 514.719 87.1364 508.688 92.9545L492.643 109.273V109.909H533.188V124H469.37Z" fill="#AFBC34"/>
<path d="M406.812 120.091L406.229 120.904L406.235 120.908L406.812 120.091ZM394.493 103.591L393.563 103.958L393.565 103.963L394.493 103.591ZM390.221 77.5455L389.221 77.5425V77.5455H390.221ZM394.539 51.6364L393.611 51.2629L393.61 51.265L394.539 51.6364ZM406.857 35.2727L406.283 34.4537L406.281 34.4552L406.857 35.2727ZM445.312 35.2727L444.738 36.0917L445.312 35.2727ZM457.63 51.6364L456.701 52.0064L456.702 52.0098L457.63 51.6364ZM457.63 103.636L456.701 103.266L456.7 103.268L457.63 103.636ZM445.312 120.091L444.735 119.274L444.733 119.276L445.312 120.091ZM439.857 102.955L438.996 102.447L438.995 102.448L439.857 102.955ZM442.63 58.9091L443.586 58.6154L442.63 58.9091ZM436.084 47.5455L435.41 48.2836L435.414 48.2876L436.084 47.5455ZM412.357 52.3182L413.219 52.8246L413.22 52.8226L412.357 52.3182ZM407.266 77.5455L408.266 77.5495L408.266 77.5482L407.266 77.5455ZM409.493 96.2727L408.535 96.5596L408.537 96.5648L409.493 96.2727ZM416.039 107.727L415.364 108.465L415.369 108.469L416.039 107.727ZM426.084 124.773C418.776 124.773 412.56 122.927 407.388 119.274L406.235 120.908C411.79 124.831 418.423 126.773 426.084 126.773V124.773ZM407.394 119.278C402.241 115.589 398.242 110.256 395.422 103.219L393.565 103.963C396.502 111.29 400.715 116.956 406.229 120.904L407.394 119.278ZM395.423 103.224C392.633 96.1584 391.221 87.6081 391.221 77.5455H389.221C389.221 87.7858 390.657 96.5992 393.563 103.958L395.423 103.224ZM391.221 77.5484C391.251 67.4845 392.678 58.9806 395.467 52.0078L393.61 51.265C390.703 58.5346 389.251 67.3034 389.221 77.5425L391.221 77.5484ZM395.467 52.0098C398.287 45.0041 402.284 39.7179 407.433 36.0902L406.281 34.4552C400.763 38.3427 396.549 43.9656 393.611 51.2629L395.467 52.0098ZM407.431 36.0917C412.604 32.4678 418.806 30.6364 426.084 30.6364V28.6364C418.454 28.6364 411.838 30.5625 406.283 34.4537L407.431 36.0917ZM426.084 30.6364C433.363 30.6364 439.565 32.4678 444.738 36.0917L445.885 34.4537C440.331 30.5625 433.715 28.6364 426.084 28.6364V30.6364ZM444.738 36.0917C449.915 39.719 453.911 45.0036 456.701 52.0064L458.559 51.2663C455.651 43.9661 451.435 38.3416 445.885 34.4537L444.738 36.0917ZM456.702 52.0098C459.521 59.0118 460.948 67.5142 460.948 77.5455H462.948C462.948 67.3343 461.496 58.5639 458.557 51.2629L456.702 52.0098ZM460.948 77.5455C460.948 87.6378 459.521 96.2019 456.701 103.266L458.559 104.007C461.497 96.6466 462.948 87.8168 462.948 77.5455H460.948ZM456.7 103.268C453.91 110.302 449.913 115.617 444.735 119.274L445.888 120.908C451.437 116.989 455.652 111.335 458.559 104.005L456.7 103.268ZM444.733 119.276C439.592 122.927 433.393 124.773 426.084 124.773V126.773C433.746 126.773 440.364 124.831 445.891 120.906L444.733 119.276ZM426.084 112.545C432.313 112.545 437.207 109.442 440.719 103.461L438.995 102.448C435.78 107.921 431.492 110.545 426.084 110.545V112.545ZM440.719 103.462C444.245 97.4796 445.948 88.7993 445.948 77.5455H443.948C443.948 88.6553 442.257 96.9143 438.996 102.447L440.719 103.462ZM445.948 77.5455C445.948 70.0889 445.17 63.7707 443.586 58.6154L441.674 59.2028C443.181 64.1081 443.948 70.2141 443.948 77.5455H445.948ZM443.586 58.6154C442.007 53.4762 439.749 49.5077 436.755 46.8034L435.414 48.2876C438.056 50.6741 440.162 54.2813 441.674 59.2028L443.586 58.6154ZM436.759 46.8073C433.755 44.0616 430.18 42.6818 426.084 42.6818V44.6818C429.685 44.6818 432.777 45.8778 435.41 48.2836L436.759 46.8073ZM426.084 42.6818C419.881 42.6818 415.004 45.805 411.494 51.8137L413.22 52.8226C416.437 47.3162 420.712 44.6818 426.084 44.6818V42.6818ZM411.495 51.8118C408 57.7623 406.297 66.3799 406.266 77.5427L408.266 77.5482C408.296 66.5292 409.987 58.3286 413.219 52.8246L411.495 51.8118ZM406.266 77.5414C406.236 85.0275 406.983 91.375 408.535 96.5595L410.451 95.9859C408.973 91.0493 408.236 84.9119 408.266 77.5495L406.266 77.5414ZM408.537 96.5648C410.115 101.733 412.372 105.731 415.364 108.465L416.714 106.989C414.069 104.572 411.962 100.933 410.45 95.9807L408.537 96.5648ZM415.369 108.469C418.375 111.185 421.964 112.545 426.084 112.545V110.545C422.447 110.545 419.339 109.361 416.709 106.985L415.369 108.469ZM469.37 124H468.37V125H469.37V124ZM469.37 111.818L468.67 111.104L468.37 111.398V111.818H469.37ZM501.688 80.1364L502.388 80.8505L502.394 80.8453L502.399 80.84L501.688 80.1364ZM514.052 64.7727L514.963 65.1856V65.1856L514.052 64.7727ZM513.598 49.9545L512.751 50.4867L512.754 50.4922L513.598 49.9545ZM508.097 45.0455L507.655 45.9422L508.097 45.0455ZM492.097 45.2273L492.572 46.1074L492.581 46.1025L492.097 45.2273ZM486.734 50.5455L485.859 50.0617L485.854 50.0707L486.734 50.5455ZM484.87 58.7727V59.7727H485.87V58.7727H484.87ZM468.825 58.7727H467.825V59.7727H468.825V58.7727ZM472.87 43.3636L473.721 43.8894L472.87 43.3636ZM484.007 33.2273L483.557 32.334L483.555 32.3351L484.007 33.2273ZM516.825 33.1364L517.267 32.2396L516.825 33.1364ZM527.825 42.7273L526.983 43.2674L526.986 43.2718L527.825 42.7273ZM529.779 66.9091L528.85 66.5406L529.779 66.9091ZM522.734 78.0909L521.961 77.4558L521.959 77.4592L522.734 78.0909ZM508.688 92.9545L507.994 92.2349L507.985 92.244L507.975 92.2534L508.688 92.9545ZM492.643 109.273L491.93 108.572L491.643 108.863V109.273H492.643ZM492.643 109.909H491.643V110.909H492.643V109.909ZM533.188 109.909H534.188V108.909H533.188V109.909ZM533.188 124V125H534.188V124H533.188ZM470.37 124V111.818H468.37V124H470.37ZM470.07 112.532L502.388 80.8505L500.988 79.4223L468.67 111.104L470.07 112.532ZM502.399 80.84C505.502 77.707 508.096 74.9151 510.178 72.4658L508.654 71.1705C506.614 73.5698 504.057 76.3233 500.978 79.4327L502.399 80.84ZM510.178 72.4658C512.283 69.9891 513.885 67.5627 514.963 65.1856L513.141 64.3598C512.158 66.5282 510.67 68.7988 508.654 71.1705L510.178 72.4658ZM514.963 65.1856C516.054 62.779 516.598 60.2135 516.598 57.5H514.598C514.598 59.9381 514.111 62.221 513.141 64.3598L514.963 65.1856ZM516.598 57.5C516.598 54.4059 515.894 51.6961 514.441 49.4169L512.754 50.4922C513.968 52.3948 514.598 54.7153 514.598 57.5H516.598ZM514.444 49.4224C513.008 47.1384 511.032 45.3787 508.54 44.1487L507.655 45.9422C509.829 47.0152 511.52 48.5283 512.751 50.4867L514.444 49.4224ZM508.54 44.1487C506.051 42.9202 503.244 42.3182 500.143 42.3182V44.3182C502.981 44.3182 505.478 44.8676 507.655 45.9422L508.54 44.1487ZM500.143 42.3182C496.941 42.3182 494.087 42.985 491.614 44.352L492.581 46.1025C494.714 44.9241 497.224 44.3182 500.143 44.3182V42.3182ZM491.623 44.3472C489.15 45.6812 487.224 47.5919 485.859 50.0618L487.609 51.0291C488.79 48.8929 490.439 47.2582 492.572 46.1074L491.623 44.3472ZM485.854 50.0707C484.517 52.5479 483.87 55.4606 483.87 58.7727H485.87C485.87 55.7212 486.466 53.1491 487.614 51.0202L485.854 50.0707ZM484.87 57.7727H468.825V59.7727H484.87V57.7727ZM469.825 58.7727C469.825 53.0206 471.136 48.0722 473.721 43.8894L472.02 42.8379C469.211 47.3823 467.825 52.7067 467.825 58.7727H469.825ZM473.721 43.8894C476.318 39.6876 479.89 36.4331 484.458 34.1194L483.555 32.3351C478.669 34.8093 474.817 38.3124 472.02 42.8379L473.721 43.8894ZM484.456 34.1206C489.054 31.8069 494.351 30.6364 500.37 30.6364V28.6364C494.087 28.6364 488.474 29.8597 483.557 32.334L484.456 34.1206ZM500.37 30.6364C506.487 30.6364 511.816 31.7791 516.382 34.0331L517.267 32.2396C512.379 29.827 506.738 28.6364 500.37 28.6364V30.6364ZM516.382 34.0331C520.962 36.2937 524.484 39.3737 526.983 43.2674L528.666 42.1871C525.953 37.9596 522.142 34.6457 517.267 32.2396L516.382 34.0331ZM526.986 43.2718C529.509 47.1578 530.779 51.6021 530.779 56.6364H532.779C532.779 51.2464 531.413 46.4179 528.663 42.1827L526.986 43.2718ZM530.779 56.6364C530.779 59.9902 530.138 63.2897 528.85 66.5406L530.709 67.2776C532.087 63.8012 532.779 60.2522 532.779 56.6364H530.779ZM528.85 66.5406C527.568 69.7742 525.287 73.4115 521.961 77.4558L523.506 78.726C526.908 74.5885 529.324 70.7712 530.709 67.2776L528.85 66.5406ZM521.959 77.4592C518.661 81.5068 514.01 86.4304 507.994 92.2349L509.383 93.6742C515.427 87.8424 520.14 82.8569 523.509 78.7226L521.959 77.4592ZM507.975 92.2534L491.93 108.572L493.356 109.974L509.401 93.6557L507.975 92.2534ZM491.643 109.273V109.909H493.643V109.273H491.643ZM492.643 110.909H533.188V108.909H492.643V110.909ZM532.188 109.909V124H534.188V109.909H532.188ZM533.188 123H469.37V125H533.188V123Z" fill="white" mask="url(#path-6-outside-1_288_712)"/>
<path d="M317.002 124V107.698H322.348C323.551 107.698 324.629 107.859 325.582 108.182C326.55 108.505 327.313 109.04 327.87 109.788C328.442 110.521 328.728 111.533 328.728 112.824C328.728 114.056 328.442 115.075 327.87 115.882C327.313 116.674 326.557 117.261 325.604 117.642C324.665 118.023 323.609 118.214 322.436 118.214H320.258V124H317.002ZM320.258 115.64H322.216C323.331 115.64 324.159 115.405 324.702 114.936C325.259 114.467 325.538 113.763 325.538 112.824C325.538 111.885 325.245 111.233 324.658 110.866C324.086 110.485 323.235 110.294 322.106 110.294H320.258V115.64ZM338.144 124.308C336.706 124.308 335.438 123.971 334.338 123.296C333.252 122.607 332.402 121.624 331.786 120.348C331.17 119.072 330.862 117.547 330.862 115.772C330.862 114.012 331.17 112.509 331.786 111.262C332.402 110.015 333.252 109.062 334.338 108.402C335.438 107.742 336.706 107.412 338.144 107.412C339.596 107.412 340.864 107.749 341.95 108.424C343.035 109.084 343.886 110.037 344.502 111.284C345.118 112.516 345.426 114.012 345.426 115.772C345.426 117.547 345.118 119.072 344.502 120.348C343.886 121.624 343.035 122.607 341.95 123.296C340.864 123.971 339.596 124.308 338.144 124.308ZM338.144 121.492C338.95 121.492 339.647 121.257 340.234 120.788C340.835 120.319 341.297 119.659 341.62 118.808C341.942 117.943 342.104 116.931 342.104 115.772C342.104 114.613 341.942 113.623 341.62 112.802C341.297 111.966 340.835 111.328 340.234 110.888C339.647 110.433 338.95 110.206 338.144 110.206C337.337 110.206 336.633 110.433 336.032 110.888C335.445 111.328 334.99 111.966 334.668 112.802C334.36 113.623 334.206 114.613 334.206 115.772C334.206 116.931 334.36 117.943 334.668 118.808C334.99 119.659 335.445 120.319 336.032 120.788C336.633 121.257 337.337 121.492 338.144 121.492ZM348.606 124V107.698H351.862V124H348.606ZM355.867 124V107.698H359.189L363.919 116.388L365.569 119.908H365.679C365.591 119.057 365.496 118.126 365.393 117.114C365.291 116.102 365.239 115.134 365.239 114.21V107.698H368.319V124H364.997L360.311 115.288L358.661 111.79H358.551C358.625 112.67 358.713 113.601 358.815 114.584C358.918 115.567 358.969 116.527 358.969 117.466V124H355.867ZM375.58 124V110.426H371.004V107.698H383.434V110.426H378.836V124H375.58Z" fill="#444444"/>
</svg>
