<svg width="554" height="155" viewBox="0 0 554 155" fill="none" xmlns="http://www.w3.org/2000/svg">
<circle cx="3.64973" cy="3.64973" r="3.64973" transform="matrix(-1 0 0 1 251.299 114)" fill="#F5A210"/>
<circle cx="3.64973" cy="3.64973" r="3.64973" transform="matrix(-1 0 0 1 262.77 114)" fill="#F5A210"/>
<circle cx="3.64973" cy="3.64973" r="3.64973" transform="matrix(-1 0 0 1 274.241 114)" fill="#F5A210"/>
<circle cx="3.64973" cy="3.64973" r="3.64973" transform="matrix(-1 0 0 1 285.711 114)" fill="#F5A210"/>
<line x1="301" y1="116.98" x2="554" y2="116.98" stroke="#AFBC34" stroke-width="2.04"/>
<mask id="path-6-outside-1_288_696" maskUnits="userSpaceOnUse" x="6" y="28" width="150" height="99" fill="black">
<rect fill="white" x="6" y="28" width="150" height="99"/>
<path d="M43.1468 125.773C35.662 125.773 29.2377 123.879 23.8741 120.091C18.5408 116.273 14.4347 110.773 11.5559 103.591C8.70742 96.3788 7.28318 87.697 7.28318 77.5455C7.31348 67.3939 8.75288 58.7576 11.6014 51.6364C14.4801 44.4848 18.5862 39.0303 23.9195 35.2727C29.2832 31.5151 35.6923 29.6364 43.1468 29.6364C50.6014 29.6364 57.0105 31.5151 62.3741 35.2727C67.7377 39.0303 71.8438 44.4848 74.6923 51.6364C77.5711 58.7879 79.0105 67.4242 79.0105 77.5455C79.0105 87.7273 77.5711 96.4242 74.6923 103.636C71.8438 110.818 67.7377 116.303 62.3741 120.091C57.0408 123.879 50.6317 125.773 43.1468 125.773ZM43.1468 111.545C48.965 111.545 53.5559 108.682 56.9195 102.955C60.3135 97.197 62.0105 88.7273 62.0105 77.5455C62.0105 70.1515 61.2377 63.9394 59.6923 58.9091C58.1468 53.8788 55.965 50.0909 53.1468 47.5455C50.3286 44.9697 46.9953 43.6818 43.1468 43.6818C37.3589 43.6818 32.7832 46.5606 29.4195 52.3182C26.0559 58.0455 24.3589 66.4545 24.3286 77.5455C24.2983 84.9697 25.0408 91.2121 26.5559 96.2727C28.1014 101.333 30.2832 105.152 33.1014 107.727C35.9195 110.273 39.268 111.545 43.1468 111.545ZM119.842 125.273C113.296 125.273 107.478 124.152 102.387 121.909C97.3267 119.667 93.3267 116.545 90.3873 112.545C87.4479 108.545 85.8873 103.924 85.7055 98.6818H102.796C102.948 101.197 103.781 103.394 105.296 105.273C106.812 107.121 108.827 108.561 111.342 109.591C113.857 110.621 116.675 111.136 119.796 111.136C123.13 111.136 126.084 110.561 128.66 109.409C131.236 108.227 133.251 106.591 134.705 104.5C136.16 102.409 136.872 100 136.842 97.2727C136.872 94.4545 136.145 91.9697 134.66 89.8182C133.175 87.6667 131.024 85.9848 128.205 84.7727C125.418 83.5606 122.054 82.9545 118.115 82.9545H109.887V69.9545H118.115C121.357 69.9545 124.19 69.3939 126.615 68.2727C129.069 67.1515 130.993 65.5758 132.387 63.5455C133.781 61.4848 134.463 59.1061 134.433 56.4091C134.463 53.7727 133.872 51.4848 132.66 49.5455C131.478 47.5758 129.796 46.0455 127.615 44.9545C125.463 43.8636 122.933 43.3182 120.024 43.3182C117.175 43.3182 114.539 43.8333 112.115 44.8636C109.69 45.8939 107.736 47.3636 106.251 49.2727C104.766 51.1515 103.978 53.3939 103.887 56H87.66C87.7812 50.7879 89.2812 46.2121 92.16 42.2727C95.0691 38.303 98.9479 35.2121 103.796 33C108.645 30.7576 114.084 29.6364 120.115 29.6364C126.327 29.6364 131.721 30.803 136.296 33.1364C140.902 35.4394 144.463 38.5455 146.978 42.4545C149.493 46.3636 150.751 50.6818 150.751 55.4091C150.781 60.6515 149.236 65.0455 146.115 68.5909C143.024 72.1364 138.963 74.4545 133.933 75.5455V76.2727C140.478 77.1818 145.493 79.6061 148.978 83.5455C152.493 87.4545 154.236 92.3182 154.205 98.1364C154.205 103.348 152.721 108.015 149.751 112.136C146.812 116.227 142.751 119.439 137.569 121.773C132.418 124.106 126.508 125.273 119.842 125.273Z"/>
</mask>
<path d="M43.1468 125.773C35.662 125.773 29.2377 123.879 23.8741 120.091C18.5408 116.273 14.4347 110.773 11.5559 103.591C8.70742 96.3788 7.28318 87.697 7.28318 77.5455C7.31348 67.3939 8.75288 58.7576 11.6014 51.6364C14.4801 44.4848 18.5862 39.0303 23.9195 35.2727C29.2832 31.5151 35.6923 29.6364 43.1468 29.6364C50.6014 29.6364 57.0105 31.5151 62.3741 35.2727C67.7377 39.0303 71.8438 44.4848 74.6923 51.6364C77.5711 58.7879 79.0105 67.4242 79.0105 77.5455C79.0105 87.7273 77.5711 96.4242 74.6923 103.636C71.8438 110.818 67.7377 116.303 62.3741 120.091C57.0408 123.879 50.6317 125.773 43.1468 125.773ZM43.1468 111.545C48.965 111.545 53.5559 108.682 56.9195 102.955C60.3135 97.197 62.0105 88.7273 62.0105 77.5455C62.0105 70.1515 61.2377 63.9394 59.6923 58.9091C58.1468 53.8788 55.965 50.0909 53.1468 47.5455C50.3286 44.9697 46.9953 43.6818 43.1468 43.6818C37.3589 43.6818 32.7832 46.5606 29.4195 52.3182C26.0559 58.0455 24.3589 66.4545 24.3286 77.5455C24.2983 84.9697 25.0408 91.2121 26.5559 96.2727C28.1014 101.333 30.2832 105.152 33.1014 107.727C35.9195 110.273 39.268 111.545 43.1468 111.545ZM119.842 125.273C113.296 125.273 107.478 124.152 102.387 121.909C97.3267 119.667 93.3267 116.545 90.3873 112.545C87.4479 108.545 85.8873 103.924 85.7055 98.6818H102.796C102.948 101.197 103.781 103.394 105.296 105.273C106.812 107.121 108.827 108.561 111.342 109.591C113.857 110.621 116.675 111.136 119.796 111.136C123.13 111.136 126.084 110.561 128.66 109.409C131.236 108.227 133.251 106.591 134.705 104.5C136.16 102.409 136.872 100 136.842 97.2727C136.872 94.4545 136.145 91.9697 134.66 89.8182C133.175 87.6667 131.024 85.9848 128.205 84.7727C125.418 83.5606 122.054 82.9545 118.115 82.9545H109.887V69.9545H118.115C121.357 69.9545 124.19 69.3939 126.615 68.2727C129.069 67.1515 130.993 65.5758 132.387 63.5455C133.781 61.4848 134.463 59.1061 134.433 56.4091C134.463 53.7727 133.872 51.4848 132.66 49.5455C131.478 47.5758 129.796 46.0455 127.615 44.9545C125.463 43.8636 122.933 43.3182 120.024 43.3182C117.175 43.3182 114.539 43.8333 112.115 44.8636C109.69 45.8939 107.736 47.3636 106.251 49.2727C104.766 51.1515 103.978 53.3939 103.887 56H87.66C87.7812 50.7879 89.2812 46.2121 92.16 42.2727C95.0691 38.303 98.9479 35.2121 103.796 33C108.645 30.7576 114.084 29.6364 120.115 29.6364C126.327 29.6364 131.721 30.803 136.296 33.1364C140.902 35.4394 144.463 38.5455 146.978 42.4545C149.493 46.3636 150.751 50.6818 150.751 55.4091C150.781 60.6515 149.236 65.0455 146.115 68.5909C143.024 72.1364 138.963 74.4545 133.933 75.5455V76.2727C140.478 77.1818 145.493 79.6061 148.978 83.5455C152.493 87.4545 154.236 92.3182 154.205 98.1364C154.205 103.348 152.721 108.015 149.751 112.136C146.812 116.227 142.751 119.439 137.569 121.773C132.418 124.106 126.508 125.273 119.842 125.273Z" fill="#AFBC34"/>
<path d="M23.8741 120.091L23.292 120.904L23.2972 120.908L23.8741 120.091ZM11.5559 103.591L10.6258 103.958L10.6277 103.963L11.5559 103.591ZM7.28318 77.5455L6.28318 77.5425V77.5455H7.28318ZM11.6014 51.6364L10.6737 51.2629L10.6729 51.265L11.6014 51.6364ZM23.9195 35.2727L23.3458 34.4537L23.3436 34.4552L23.9195 35.2727ZM62.3741 35.2727L61.8003 36.0917L62.3741 35.2727ZM74.6923 51.6364L73.7632 52.0064L73.7646 52.0098L74.6923 51.6364ZM74.6923 103.636L73.7635 103.266L73.7627 103.268L74.6923 103.636ZM62.3741 120.091L61.7972 119.274L61.795 119.276L62.3741 120.091ZM56.9195 102.955L56.0581 102.447L56.0573 102.448L56.9195 102.955ZM59.6923 58.9091L60.6482 58.6154L59.6923 58.9091ZM53.1468 47.5455L52.4722 48.2836L52.4765 48.2876L53.1468 47.5455ZM29.4195 52.3182L30.2818 52.8246L30.283 52.8226L29.4195 52.3182ZM24.3286 77.5455L25.3286 77.5495L25.3286 77.5482L24.3286 77.5455ZM26.5559 96.2727L25.5979 96.5596L25.5995 96.5648L26.5559 96.2727ZM33.1014 107.727L32.4267 108.465L32.4311 108.469L33.1014 107.727ZM43.1468 124.773C35.8386 124.773 29.6229 122.927 24.451 119.274L23.2972 120.908C28.8525 124.831 35.4854 126.773 43.1468 126.773V124.773ZM24.4562 119.278C19.304 115.589 15.3049 110.256 12.4841 103.219L10.6277 103.963C13.5645 111.29 17.7775 116.956 23.292 120.904L24.4562 119.278ZM12.486 103.224C9.69555 96.1584 8.28318 87.6081 8.28318 77.5455H6.28318C6.28318 87.7858 7.71929 96.5992 10.6258 103.958L12.486 103.224ZM8.28317 77.5484C8.31322 67.4845 9.7407 58.9806 12.5298 52.0078L10.6729 51.265C7.76505 58.5346 6.31375 67.3034 6.28318 77.5425L8.28317 77.5484ZM12.529 52.0098C15.3491 45.0041 19.3465 39.7179 24.4955 36.0902L23.3436 34.4552C17.8259 38.3427 13.6112 43.9656 10.6737 51.2629L12.529 52.0098ZM24.4933 36.0917C29.6662 32.4678 35.8681 30.6364 43.1468 30.6364V28.6364C35.5164 28.6364 28.9002 30.5625 23.3458 34.4537L24.4933 36.0917ZM43.1468 30.6364C50.4255 30.6364 56.6274 32.4678 61.8003 36.0917L62.9479 34.4537C57.3935 30.5625 50.7772 28.6364 43.1468 28.6364V30.6364ZM61.8003 36.0917C66.978 39.719 70.974 45.0036 73.7633 52.0064L75.6213 51.2663C72.7136 43.9661 68.4975 38.3416 62.9479 34.4537L61.8003 36.0917ZM73.7646 52.0098C76.5832 59.0118 78.0105 67.5142 78.0105 77.5455H80.0105C80.0105 67.3343 78.5589 58.5639 75.6199 51.2629L73.7646 52.0098ZM78.0105 77.5455C78.0105 87.6378 76.5831 96.2019 73.7635 103.266L75.621 104.007C78.559 96.6466 80.0105 87.8168 80.0105 77.5455H78.0105ZM73.7627 103.268C70.9729 110.302 66.976 115.617 61.7972 119.274L62.951 120.908C68.4995 116.989 72.7146 111.335 75.6218 104.005L73.7627 103.268ZM61.795 119.276C56.6545 122.927 50.4552 124.773 43.1468 124.773V126.773C50.8081 126.773 57.427 124.831 62.9531 120.906L61.795 119.276ZM43.1468 112.545C49.3758 112.545 54.269 109.442 57.7818 103.461L56.0573 102.448C52.8428 107.921 48.5542 110.545 43.1468 110.545V112.545ZM57.781 103.462C61.3077 97.4796 63.0105 88.7993 63.0105 77.5455H61.0105C61.0105 88.6553 59.3193 96.9143 56.0581 102.447L57.781 103.462ZM63.0105 77.5455C63.0105 70.0889 62.232 63.7707 60.6482 58.6154L58.7364 59.2028C60.2434 64.1081 61.0105 70.2141 61.0105 77.5455H63.0105ZM60.6482 58.6154C59.0693 53.4762 56.8112 49.5077 53.8171 46.8034L52.4765 48.2876C55.1188 50.6741 57.2244 54.2813 58.7364 59.2028L60.6482 58.6154ZM53.8215 46.8073C50.8173 44.0616 47.2428 42.6818 43.1468 42.6818V44.6818C46.7478 44.6818 49.8399 45.8778 52.4722 48.2836L53.8215 46.8073ZM43.1468 42.6818C36.9434 42.6818 32.0665 45.805 28.5561 51.8137L30.283 52.8226C33.4999 47.3162 37.7745 44.6818 43.1468 44.6818V42.6818ZM28.5573 51.8118C25.0625 57.7623 23.3591 66.3799 23.3286 77.5427L25.3286 77.5482C25.3587 66.5292 27.0493 58.3286 30.2818 52.8246L28.5573 51.8118ZM23.3286 77.5414C23.2981 85.0275 24.0457 91.375 25.5979 96.5595L27.5139 95.9859C26.0359 91.0493 25.2986 84.9119 25.3286 77.5495L23.3286 77.5414ZM25.5995 96.5648C27.178 101.733 29.4349 105.731 32.4267 108.465L33.776 106.989C31.1314 104.572 29.0247 100.933 27.5123 95.9807L25.5995 96.5648ZM32.4311 108.469C35.4373 111.185 39.0262 112.545 43.1468 112.545V110.545C39.5098 110.545 36.4017 109.361 33.7716 106.985L32.4311 108.469ZM102.387 121.909L101.982 122.823L101.984 122.824L102.387 121.909ZM90.3873 112.545L91.1931 111.953L90.3873 112.545ZM85.7055 98.6818V97.6818H84.6702L84.7061 98.7165L85.7055 98.6818ZM102.796 98.6818L103.795 98.6217L103.738 97.6818H102.796V98.6818ZM105.296 105.273L104.518 105.9L104.523 105.907L105.296 105.273ZM111.342 109.591L110.963 110.516L111.342 109.591ZM128.66 109.409L129.068 110.322L129.077 110.318L128.66 109.409ZM134.705 104.5L133.885 103.929L134.705 104.5ZM136.842 97.2727L135.842 97.262L135.842 97.2729L135.842 97.2838L136.842 97.2727ZM134.66 89.8182L133.837 90.3862L134.66 89.8182ZM128.205 84.7727L127.807 85.6898L127.81 85.6914L128.205 84.7727ZM109.887 82.9545H108.887V83.9545H109.887V82.9545ZM109.887 69.9545V68.9545H108.887V69.9545H109.887ZM126.615 68.2727L126.199 67.3631L126.195 67.3651L126.615 68.2727ZM132.387 63.5455L133.212 64.1115L133.216 64.1058L132.387 63.5455ZM134.433 56.4091L133.433 56.3976L133.433 56.409L133.433 56.4203L134.433 56.4091ZM132.66 49.5455L131.803 50.06L131.807 50.0677L131.812 50.0755L132.66 49.5455ZM127.615 44.9545L127.162 45.8465L127.167 45.849L127.615 44.9545ZM112.115 44.8636L112.506 45.784L112.115 44.8636ZM106.251 49.2727L107.035 49.8928L107.04 49.8867L106.251 49.2727ZM103.887 56V57H104.853L104.887 56.0349L103.887 56ZM87.66 56L86.6603 55.9767L86.6365 57H87.66V56ZM92.16 42.2727L91.3534 41.6816L91.3526 41.6827L92.16 42.2727ZM103.796 33L104.211 33.9098L104.216 33.9076L103.796 33ZM136.296 33.1364L135.842 34.0272L135.849 34.0308L136.296 33.1364ZM146.978 42.4545L146.137 42.9956L146.978 42.4545ZM150.751 55.4091H149.751L149.751 55.4149L150.751 55.4091ZM146.115 68.5909L145.364 67.9301L145.361 67.9338L146.115 68.5909ZM133.933 75.5455L133.721 74.5682L132.933 74.7391V75.5455H133.933ZM133.933 76.2727H132.933V77.1434L133.795 77.2632L133.933 76.2727ZM148.978 83.5455L148.229 84.208L148.235 84.2141L148.978 83.5455ZM154.205 98.1364L153.205 98.1312V98.1364H154.205ZM149.751 112.136L148.94 111.552L148.939 111.553L149.751 112.136ZM137.569 121.773L137.159 120.861L137.156 120.862L137.569 121.773ZM119.842 124.273C113.411 124.273 107.734 123.171 102.79 120.994L101.984 122.824C107.223 125.132 113.182 126.273 119.842 126.273V124.273ZM102.792 120.995C97.8724 118.815 94.0178 115.797 91.1931 111.953L89.5814 113.138C92.6356 117.294 96.7809 120.519 101.982 122.823L102.792 120.995ZM91.1931 111.953C88.3798 108.125 86.8801 103.701 86.7048 98.6472L84.7061 98.7165C84.8944 104.148 86.516 108.966 89.5814 113.138L91.1931 111.953ZM85.7055 99.6818H102.796V97.6818H85.7055V99.6818ZM101.798 98.742C101.962 101.455 102.866 103.853 104.518 105.9L106.075 104.645C104.696 102.935 103.934 100.939 103.795 98.6217L101.798 98.742ZM104.523 105.907C106.157 107.9 108.315 109.432 110.963 110.516L111.721 108.666C109.338 107.689 107.466 106.342 106.07 104.639L104.523 105.907ZM110.963 110.516C113.615 111.603 116.564 112.136 119.796 112.136V110.136C116.786 110.136 114.099 109.64 111.721 108.666L110.963 110.516ZM119.796 112.136C123.245 112.136 126.343 111.54 129.068 110.322L128.252 108.496C125.826 109.581 123.014 110.136 119.796 110.136V112.136ZM129.077 110.318C131.796 109.07 133.959 107.325 135.526 105.071L133.885 103.929C132.543 105.857 130.675 107.384 128.243 108.5L129.077 110.318ZM135.526 105.071C137.108 102.797 137.874 100.181 137.842 97.2616L135.842 97.2838C135.87 99.8187 135.212 102.021 133.885 103.929L135.526 105.071ZM137.842 97.2835C137.874 94.2757 137.095 91.5852 135.483 89.2502L133.837 90.3862C135.195 92.3542 135.87 94.6333 135.842 97.262L137.842 97.2835ZM135.483 89.2502C133.874 86.9187 131.561 85.1274 128.601 83.8541L127.81 85.6914C130.486 86.8423 132.476 88.4146 133.837 90.3862L135.483 89.2502ZM128.604 83.8557C125.659 82.5752 122.152 81.9545 118.115 81.9545V83.9545C121.956 83.9545 125.176 84.546 127.807 85.6898L128.604 83.8557ZM118.115 81.9545H109.887V83.9545H118.115V81.9545ZM110.887 82.9545V69.9545H108.887V82.9545H110.887ZM109.887 70.9545H118.115V68.9545H109.887V70.9545ZM118.115 70.9545C121.472 70.9545 124.453 70.374 127.034 69.1804L126.195 67.3651C123.927 68.4139 121.242 68.9545 118.115 68.9545V70.9545ZM127.03 69.1823C129.633 67.9932 131.705 66.3054 133.212 64.1115L131.563 62.9794C130.281 64.8462 128.505 66.3098 126.199 67.3631L127.03 69.1823ZM133.216 64.1058C134.733 61.8622 135.465 59.2804 135.433 56.3979L133.433 56.4203C133.461 58.9317 132.829 61.1074 131.559 62.9851L133.216 64.1058ZM135.433 56.4206C135.465 53.6228 134.836 51.1407 133.508 49.0155L131.812 50.0755C132.908 51.829 133.461 53.9226 133.433 56.3976L135.433 56.4206ZM133.517 49.031C132.232 46.8879 130.403 45.2306 128.062 44.0601L127.167 45.849C129.19 46.8603 130.725 48.2636 131.803 50.06L133.517 49.031ZM128.067 44.0626C125.749 42.8875 123.058 42.3182 120.024 42.3182V44.3182C122.808 44.3182 125.177 44.8398 127.162 45.8464L128.067 44.0626ZM120.024 42.3182C117.052 42.3182 114.281 42.8563 111.723 43.9433L112.506 45.784C114.796 44.8104 117.299 44.3182 120.024 44.3182V42.3182ZM111.723 43.9433C109.157 45.0341 107.06 46.6036 105.462 48.6588L107.04 49.8867C108.411 48.1237 110.224 46.7538 112.506 45.784L111.723 43.9433ZM105.466 48.6527C103.837 50.7137 102.986 53.1661 102.888 55.9651L104.887 56.0349C104.971 53.6218 105.695 51.5893 107.035 49.8928L105.466 48.6527ZM103.887 55H87.66V57H103.887V55ZM88.6597 56.0233C88.7765 51.0005 90.2175 46.6258 92.9674 42.8627L91.3526 41.6827C88.3449 45.7985 86.7859 50.5753 86.6603 55.9767L88.6597 56.0233ZM92.9666 42.8638C95.7663 39.0434 99.5053 36.057 104.211 33.9098L103.381 32.0902C98.3904 34.3673 94.3719 37.5627 91.3534 41.6816L92.9666 42.8638ZM104.216 33.9076C108.917 31.7335 114.21 30.6364 120.115 30.6364V28.6364C113.958 28.6364 108.373 29.7817 103.377 32.0924L104.216 33.9076ZM120.115 30.6364C126.201 30.6364 131.434 31.7791 135.842 34.0272L136.751 32.2455C132.008 29.8269 126.452 28.6364 120.115 28.6364V30.6364ZM135.849 34.0308C140.312 36.2624 143.729 39.2534 146.137 42.9956L147.819 41.9135C145.197 37.8375 141.492 34.6164 136.744 32.2419L135.849 34.0308ZM146.137 42.9956C148.547 46.7405 149.751 50.8702 149.751 55.4091H151.751C151.751 50.4934 150.44 45.9868 147.819 41.9135L146.137 42.9956ZM149.751 55.4149C149.78 60.4411 148.305 64.5894 145.364 67.9301L146.865 69.2517C150.167 65.5015 151.782 60.862 151.751 55.4033L149.751 55.4149ZM145.361 67.9338C142.425 71.3015 138.562 73.5183 133.721 74.5682L134.145 76.5227C139.364 75.3907 143.622 72.9712 146.868 69.248L145.361 67.9338ZM132.933 75.5455V76.2727H134.933V75.5455H132.933ZM133.795 77.2632C140.167 78.1482 144.94 80.4896 148.229 84.208L149.727 82.8829C146.047 78.7225 140.79 76.2155 134.07 75.2822L133.795 77.2632ZM148.235 84.2141C151.565 87.918 153.235 92.533 153.205 98.1312L155.205 98.1416C155.237 92.1034 153.421 86.9911 149.722 82.8768L148.235 84.2141ZM153.205 98.1364C153.205 103.144 151.783 107.605 148.94 111.552L150.562 112.721C153.658 108.425 155.205 103.552 155.205 98.1364H153.205ZM148.939 111.553C146.115 115.483 142.201 118.59 137.159 120.861L137.98 122.685C143.301 120.288 147.508 116.971 150.563 112.72L148.939 111.553ZM137.156 120.862C132.156 123.127 126.391 124.273 119.842 124.273V126.273C126.626 126.273 132.679 125.085 137.982 122.684L137.156 120.862Z" fill="white" mask="url(#path-6-outside-1_288_696)"/>
<path d="M166.002 124V107.698H171.348C172.551 107.698 173.629 107.859 174.582 108.182C175.55 108.505 176.313 109.04 176.87 109.788C177.442 110.521 177.728 111.533 177.728 112.824C177.728 114.056 177.442 115.075 176.87 115.882C176.313 116.674 175.557 117.261 174.604 117.642C173.665 118.023 172.609 118.214 171.436 118.214H169.258V124H166.002ZM169.258 115.64H171.216C172.331 115.64 173.159 115.405 173.702 114.936C174.259 114.467 174.538 113.763 174.538 112.824C174.538 111.885 174.245 111.233 173.658 110.866C173.086 110.485 172.235 110.294 171.106 110.294H169.258V115.64ZM187.144 124.308C185.706 124.308 184.438 123.971 183.338 123.296C182.252 122.607 181.402 121.624 180.786 120.348C180.17 119.072 179.862 117.547 179.862 115.772C179.862 114.012 180.17 112.509 180.786 111.262C181.402 110.015 182.252 109.062 183.338 108.402C184.438 107.742 185.706 107.412 187.144 107.412C188.596 107.412 189.864 107.749 190.95 108.424C192.035 109.084 192.886 110.037 193.502 111.284C194.118 112.516 194.426 114.012 194.426 115.772C194.426 117.547 194.118 119.072 193.502 120.348C192.886 121.624 192.035 122.607 190.95 123.296C189.864 123.971 188.596 124.308 187.144 124.308ZM187.144 121.492C187.95 121.492 188.647 121.257 189.234 120.788C189.835 120.319 190.297 119.659 190.62 118.808C190.942 117.943 191.104 116.931 191.104 115.772C191.104 114.613 190.942 113.623 190.62 112.802C190.297 111.966 189.835 111.328 189.234 110.888C188.647 110.433 187.95 110.206 187.144 110.206C186.337 110.206 185.633 110.433 185.032 110.888C184.445 111.328 183.99 111.966 183.668 112.802C183.36 113.623 183.206 114.613 183.206 115.772C183.206 116.931 183.36 117.943 183.668 118.808C183.99 119.659 184.445 120.319 185.032 120.788C185.633 121.257 186.337 121.492 187.144 121.492ZM197.606 124V107.698H200.862V124H197.606ZM204.867 124V107.698H208.189L212.919 116.388L214.569 119.908H214.679C214.591 119.057 214.496 118.126 214.393 117.114C214.291 116.102 214.239 115.134 214.239 114.21V107.698H217.319V124H213.997L209.311 115.288L207.661 111.79H207.551C207.625 112.67 207.713 113.601 207.815 114.584C207.918 115.567 207.969 116.527 207.969 117.466V124H204.867ZM224.58 124V110.426H220.004V107.698H232.434V110.426H227.836V124H224.58Z" fill="#444444"/>
</svg>
