<svg width="358" height="78" viewBox="0 0 358 78" fill="none" xmlns="http://www.w3.org/2000/svg">
<path d="M81.23 55.5661H88.5161V63.2296H81.23V55.5661ZM81.23 53.4033H88.5161V45.7438H81.23V53.4033ZM91.2746 53.5556H98.5647V45.8961H91.2746V53.5556ZM91.2746 63.3779H98.5647V55.7184H91.2746V63.3779ZM184.264 63.0773H191.554V55.4178H184.264V63.0773ZM184.264 53.255H191.554V45.5916H184.264V53.255ZM194.313 53.4033H201.599V45.7438H194.313V53.4033ZM194.313 63.2296H201.599V55.5661H194.313V63.2296ZM287.427 70.9594H298.174V59.6614H287.427V70.9594ZM287.427 56.4718H298.174V45.1738H287.427V56.4718ZM302.247 56.6905H312.994V45.3964H302.247V56.6905ZM302.247 71.1819H312.994V59.8761H302.247V71.1819Z" fill="#444444"/>
<mask id="mask0_288_1898" style="mask-type:luminance" maskUnits="userSpaceOnUse" x="0" y="0" width="358" height="78">
<path d="M0 0H357.534V77.954H0V0Z" fill="white"/>
</mask>
<g mask="url(#mask0_288_1898)">
<path d="M309.631 21.9909H294.442V14.5851H298.411V0H259.633V14.5929H264.176V21.9987H91.6551L0.147461 77.9462H232.517L302.954 26.8396L346.065 70.9581H357.394L309.631 21.9909ZM109.122 69.1037H75.655L75.6706 43.2401H67.0731L93.4359 30.8334L123.034 43.2401H153.025L109.122 69.1037ZM212.063 68.5884H178.6L178.616 42.7248H170.022L196.381 30.318L225.98 42.7248H255.97L212.063 68.5884Z" fill="#006837"/>
</g>
</svg>
