<svg width="550" height="61" viewBox="0 0 550 61" fill="none" xmlns="http://www.w3.org/2000/svg">
<path d="M83.124 18.884H114.948V23.132H83.124V18.884ZM91.152 43.904H111.06V48.044H91.152V43.904ZM89.388 31.052H112.896V50.096H108.288V35.192H93.744V50.24H89.388V31.052ZM93.204 21.224L97.812 22.376C96.948 24.8 95.88 27.224 94.608 29.648C93.336 32.072 91.86 34.34 90.18 36.452C88.524 38.54 86.64 40.34 84.528 41.852C84.288 41.516 83.976 41.144 83.592 40.736C83.232 40.304 82.86 39.896 82.476 39.512C82.116 39.104 81.78 38.768 81.468 38.504C83.412 37.184 85.14 35.576 86.652 33.68C88.188 31.76 89.508 29.72 90.612 27.56C91.716 25.4 92.58 23.288 93.204 21.224ZM122.436 18.236H126.864V30.692C126.864 32.468 126.804 34.244 126.684 36.02C126.588 37.772 126.36 39.5 126 41.204C125.64 42.908 125.1 44.552 124.38 46.136C123.684 47.72 122.736 49.196 121.536 50.564C121.272 50.228 120.912 49.856 120.456 49.448C120.024 49.064 119.568 48.68 119.088 48.296C118.608 47.936 118.188 47.648 117.828 47.432C119.22 45.872 120.24 44.18 120.888 42.356C121.536 40.508 121.956 38.6 122.148 36.632C122.34 34.64 122.436 32.66 122.436 30.692V18.236ZM133.452 19.784H137.88V46.748H133.452V19.784ZM144.468 18.164H149.004V50.132H144.468V18.164ZM167.292 25.184V27.056H179.208V25.184H167.292ZM167.292 29.792V31.628H179.208V29.792H167.292ZM167.292 20.612V22.448H179.208V20.612H167.292ZM163.224 17.696H183.42V34.58H163.224V17.696ZM175.572 43.292L179.28 40.952C180.192 41.552 181.176 42.236 182.232 43.004C183.288 43.748 184.308 44.504 185.292 45.272C186.3 46.04 187.116 46.724 187.74 47.324L183.744 50.024C183.168 49.4 182.412 48.692 181.476 47.9C180.564 47.132 179.58 46.34 178.524 45.524C177.468 44.708 176.484 43.964 175.572 43.292ZM168.768 38.072H173.34V50.24H168.768V38.072ZM158.868 36.416H187.308V40.232H158.868V36.416ZM156.384 19.82H160.704V40.988H156.384V19.82ZM162.036 41.24L166.572 42.932C165.804 43.82 164.928 44.696 163.944 45.56C162.96 46.424 161.94 47.24 160.884 48.008C159.852 48.776 158.844 49.436 157.86 49.988C157.572 49.676 157.212 49.34 156.78 48.98C156.348 48.62 155.916 48.26 155.484 47.9C155.052 47.564 154.668 47.288 154.332 47.072C155.316 46.592 156.288 46.028 157.248 45.38C158.232 44.732 159.144 44.048 159.984 43.328C160.824 42.608 161.508 41.912 162.036 41.24ZM192.42 23.204H221.472V27.452H192.42V23.204ZM194.328 33.716H219.78V37.892H194.328V33.716ZM190.872 44.84H223.272V49.088H190.872V44.84ZM204.624 26.876H209.376V47.108H204.624V26.876ZM201.42 18.848L205.02 16.364C205.788 16.844 206.604 17.408 207.468 18.056C208.356 18.704 209.196 19.352 209.988 20C210.804 20.648 211.464 21.26 211.968 21.836L208.116 24.608C207.684 24.056 207.084 23.444 206.316 22.772C205.572 22.076 204.768 21.392 203.904 20.72C203.04 20.024 202.212 19.4 201.42 18.848ZM226.476 35.948H259.56V39.44H226.476V35.948ZM227.16 17.696H258.66V21.44H227.16V17.696ZM238.5 32.456L242.748 33.572C241.98 34.82 241.14 36.128 240.228 37.496C239.34 38.864 238.452 40.184 237.564 41.456C236.7 42.728 235.896 43.844 235.152 44.804L231.012 43.508C231.756 42.548 232.572 41.432 233.46 40.16C234.348 38.888 235.236 37.58 236.124 36.236C237.012 34.892 237.804 33.632 238.5 32.456ZM248.94 37.244L253.116 38.288C252.204 40.424 251.052 42.2 249.66 43.616C248.268 45.032 246.576 46.184 244.584 47.072C242.616 47.96 240.324 48.644 237.708 49.124C235.092 49.628 232.116 50.012 228.78 50.276C228.636 49.652 228.408 48.992 228.096 48.296C227.808 47.6 227.496 47.024 227.16 46.568C231.192 46.4 234.648 46.028 237.528 45.452C240.432 44.876 242.82 43.94 244.692 42.644C246.564 41.348 247.98 39.548 248.94 37.244ZM233.496 43.796L235.656 40.736C238.44 41.288 241.224 41.924 244.008 42.644C246.816 43.34 249.456 44.06 251.928 44.804C254.4 45.524 256.536 46.208 258.336 46.856L255.744 50.384C253.992 49.664 251.928 48.908 249.552 48.116C247.2 47.348 244.644 46.592 241.884 45.848C239.148 45.104 236.352 44.42 233.496 43.796ZM236.664 19.136H240.732V31.448H236.664V19.136ZM244.8 19.136H248.904V31.448H244.8V19.136ZM232.884 26.876V30.224H253.224V26.876H232.884ZM228.816 23.456H257.508V33.608H228.816V23.456ZM266.004 21.872C266.484 21.92 267.048 21.968 267.696 22.016C268.344 22.064 268.92 22.088 269.424 22.088H289.008C289.56 22.088 290.136 22.064 290.736 22.016C291.336 21.968 291.888 21.92 292.392 21.872V26.804C291.864 26.756 291.3 26.72 290.7 26.696C290.1 26.672 289.536 26.66 289.008 26.66H269.424C268.944 26.66 268.368 26.672 267.696 26.696C267.024 26.72 266.46 26.756 266.004 26.804V21.872ZM276.372 44.012V24.644H281.412V44.012H276.372ZM263.664 41.06C264.24 41.156 264.84 41.228 265.464 41.276C266.088 41.324 266.676 41.348 267.228 41.348H290.952C291.6 41.348 292.212 41.324 292.788 41.276C293.364 41.204 293.88 41.132 294.336 41.06V46.28C293.808 46.208 293.22 46.16 292.572 46.136C291.924 46.112 291.384 46.1 290.952 46.1H267.228C266.7 46.1 266.124 46.112 265.5 46.136C264.876 46.16 264.264 46.208 263.664 46.28V41.06ZM325.908 19.064C325.884 19.568 325.848 20.12 325.8 20.72C325.776 21.296 325.764 21.944 325.764 22.664C325.764 23.288 325.764 24.044 325.764 24.932C325.764 25.82 325.764 26.708 325.764 27.596C325.764 28.46 325.764 29.192 325.764 29.792C325.764 31.712 325.668 33.392 325.476 34.832C325.308 36.272 325.044 37.532 324.684 38.612C324.324 39.692 323.88 40.652 323.352 41.492C322.848 42.308 322.26 43.088 321.588 43.832C320.796 44.696 319.884 45.476 318.852 46.172C317.82 46.844 316.776 47.408 315.72 47.864C314.688 48.344 313.728 48.728 312.84 49.016L309.06 45.056C310.86 44.648 312.48 44.084 313.92 43.364C315.384 42.62 316.656 41.672 317.736 40.52C318.36 39.824 318.864 39.128 319.248 38.432C319.632 37.736 319.92 36.968 320.112 36.128C320.328 35.264 320.472 34.292 320.544 33.212C320.64 32.132 320.688 30.896 320.688 29.504C320.688 28.88 320.688 28.136 320.688 27.272C320.688 26.408 320.688 25.556 320.688 24.716C320.688 23.876 320.688 23.192 320.688 22.664C320.688 21.944 320.664 21.296 320.616 20.72C320.592 20.12 320.544 19.568 320.472 19.064H325.908ZM309.204 19.352C309.18 19.784 309.156 20.216 309.132 20.648C309.108 21.056 309.096 21.548 309.096 22.124C309.096 22.388 309.096 22.82 309.096 23.42C309.096 24.02 309.096 24.728 309.096 25.544C309.096 26.336 309.096 27.176 309.096 28.064C309.096 28.928 309.096 29.768 309.096 30.584C309.096 31.4 309.096 32.144 309.096 32.816C309.096 33.464 309.096 33.956 309.096 34.292C309.096 34.748 309.108 35.276 309.132 35.876C309.156 36.476 309.18 36.992 309.204 37.424H303.984C304.008 37.088 304.044 36.608 304.092 35.984C304.14 35.36 304.164 34.784 304.164 34.256C304.164 33.92 304.164 33.428 304.164 32.78C304.164 32.132 304.164 31.4 304.164 30.584C304.164 29.744 304.164 28.892 304.164 28.028C304.164 27.14 304.164 26.3 304.164 25.508C304.164 24.716 304.164 24.02 304.164 23.42C304.164 22.82 304.164 22.388 304.164 22.124C304.164 21.788 304.152 21.356 304.128 20.828C304.104 20.276 304.068 19.784 304.02 19.352H309.204ZM367.38 22.628C367.188 22.868 366.948 23.18 366.66 23.564C366.372 23.924 366.144 24.236 365.976 24.5C365.424 25.436 364.692 26.516 363.78 27.74C362.868 28.94 361.86 30.14 360.756 31.34C359.652 32.516 358.512 33.524 357.336 34.364L353.592 31.376C354.312 30.944 355.02 30.44 355.716 29.864C356.412 29.288 357.048 28.688 357.624 28.064C358.224 27.416 358.74 26.804 359.172 26.228C359.628 25.652 359.976 25.136 360.216 24.68C359.904 24.68 359.376 24.68 358.632 24.68C357.888 24.68 357 24.68 355.968 24.68C354.936 24.68 353.82 24.68 352.62 24.68C351.444 24.68 350.268 24.68 349.092 24.68C347.916 24.68 346.8 24.68 345.744 24.68C344.712 24.68 343.812 24.68 343.044 24.68C342.3 24.68 341.772 24.68 341.46 24.68C340.716 24.68 340.008 24.704 339.336 24.752C338.664 24.8 337.908 24.86 337.068 24.932V19.928C337.764 20.024 338.484 20.108 339.228 20.18C339.972 20.252 340.716 20.288 341.46 20.288C341.772 20.288 342.324 20.288 343.116 20.288C343.908 20.288 344.844 20.288 345.924 20.288C347.028 20.288 348.192 20.288 349.416 20.288C350.664 20.288 351.9 20.288 353.124 20.288C354.372 20.288 355.524 20.288 356.58 20.288C357.66 20.288 358.572 20.288 359.316 20.288C360.084 20.288 360.6 20.288 360.864 20.288C361.2 20.288 361.608 20.276 362.088 20.252C362.568 20.228 363.036 20.192 363.492 20.144C363.972 20.096 364.32 20.036 364.536 19.964L367.38 22.628ZM352.692 27.488C352.692 29.264 352.656 30.98 352.584 32.636C352.512 34.292 352.308 35.888 351.972 37.424C351.66 38.936 351.144 40.376 350.424 41.744C349.728 43.112 348.756 44.408 347.508 45.632C346.26 46.856 344.664 47.984 342.72 49.016L338.508 45.596C339.084 45.404 339.696 45.152 340.344 44.84C340.992 44.504 341.64 44.096 342.288 43.616C343.44 42.824 344.364 41.984 345.06 41.096C345.78 40.208 346.332 39.248 346.716 38.216C347.1 37.16 347.364 36.02 347.508 34.796C347.652 33.548 347.724 32.192 347.724 30.728C347.724 30.176 347.712 29.648 347.688 29.144C347.664 28.616 347.592 28.064 347.472 27.488H352.692ZM387.912 25.08C387.699 26.7013 387.421 28.4293 387.08 30.264C386.739 32.0987 386.28 33.9547 385.704 35.832C385.085 37.9867 384.36 39.8427 383.528 41.4C382.696 42.9573 381.779 44.1627 380.776 45.016C379.795 45.848 378.717 46.264 377.544 46.264C376.371 46.264 375.283 45.8693 374.28 45.08C373.299 44.2693 372.509 43.16 371.912 41.752C371.336 40.344 371.048 38.744 371.048 36.952C371.048 35.096 371.421 33.3467 372.168 31.704C372.915 30.0613 373.949 28.6107 375.272 27.352C376.616 26.072 378.173 25.0693 379.944 24.344C381.736 23.6187 383.667 23.256 385.736 23.256C387.72 23.256 389.501 23.576 391.08 24.216C392.68 24.856 394.045 25.7413 395.176 26.872C396.307 28.0027 397.171 29.3253 397.768 30.84C398.365 32.3547 398.664 33.9867 398.664 35.736C398.664 37.976 398.205 39.9813 397.288 41.752C396.371 43.5227 395.005 44.984 393.192 46.136C391.4 47.288 389.16 48.0773 386.472 48.504L384.072 44.696C384.691 44.632 385.235 44.5573 385.704 44.472C386.173 44.3867 386.621 44.2907 387.048 44.184C388.072 43.928 389.021 43.5653 389.896 43.096C390.792 42.6053 391.571 42.008 392.232 41.304C392.893 40.5787 393.405 39.736 393.768 38.776C394.152 37.816 394.344 36.76 394.344 35.608C394.344 34.3493 394.152 33.1973 393.768 32.152C393.384 31.1067 392.819 30.2 392.072 29.432C391.325 28.6427 390.419 28.0453 389.352 27.64C388.285 27.2133 387.059 27 385.672 27C383.965 27 382.461 27.3093 381.16 27.928C379.859 28.5253 378.76 29.304 377.864 30.264C376.968 31.224 376.285 32.2587 375.816 33.368C375.368 34.4773 375.144 35.5333 375.144 36.536C375.144 37.6027 375.272 38.4987 375.528 39.224C375.784 39.928 376.093 40.4613 376.456 40.824C376.84 41.1653 377.245 41.336 377.672 41.336C378.12 41.336 378.557 41.112 378.984 40.664C379.432 40.1947 379.869 39.4907 380.296 38.552C380.723 37.6133 381.149 36.4293 381.576 35C382.067 33.464 382.483 31.8213 382.824 30.072C383.165 28.3227 383.411 26.616 383.56 24.952L387.912 25.08Z" fill="white"/>
<path d="M408.088 19.28H439.948V23.24H408.088V19.28ZM411.544 25.58H436.672V29.324H411.544V25.58ZM408.556 31.124H439.48V38.864H435.124V35.012H412.732V38.864H408.556V31.124ZM421.588 16.472H426.088V27.668H421.588V16.472ZM425.908 36.128H430.228V44.624C430.228 45.176 430.312 45.536 430.48 45.704C430.672 45.848 431.092 45.92 431.74 45.92C431.884 45.92 432.112 45.92 432.424 45.92C432.76 45.92 433.12 45.92 433.504 45.92C433.912 45.92 434.284 45.92 434.62 45.92C434.956 45.92 435.208 45.92 435.376 45.92C435.784 45.92 436.084 45.824 436.276 45.632C436.492 45.416 436.636 45.008 436.708 44.408C436.804 43.784 436.876 42.86 436.924 41.636C437.212 41.852 437.584 42.068 438.04 42.284C438.52 42.5 439 42.692 439.48 42.86C439.984 43.004 440.428 43.136 440.812 43.256C440.668 44.984 440.416 46.316 440.056 47.252C439.696 48.212 439.18 48.872 438.508 49.232C437.836 49.616 436.924 49.808 435.772 49.808C435.556 49.808 435.232 49.808 434.8 49.808C434.392 49.808 433.936 49.808 433.432 49.808C432.952 49.808 432.496 49.808 432.064 49.808C431.656 49.808 431.344 49.808 431.128 49.808C429.736 49.808 428.656 49.652 427.888 49.34C427.144 49.028 426.628 48.488 426.34 47.72C426.052 46.976 425.908 45.956 425.908 44.66V36.128ZM417.016 36.128H421.48C421.36 37.928 421.12 39.572 420.76 41.06C420.4 42.548 419.8 43.88 418.96 45.056C418.144 46.232 416.968 47.252 415.432 48.116C413.92 49.004 411.928 49.748 409.456 50.348C409.336 49.964 409.144 49.544 408.88 49.088C408.616 48.632 408.316 48.176 407.98 47.72C407.668 47.288 407.368 46.916 407.08 46.604C409.24 46.196 410.956 45.68 412.228 45.056C413.5 44.432 414.46 43.688 415.108 42.824C415.756 41.96 416.2 40.976 416.44 39.872C416.704 38.768 416.896 37.52 417.016 36.128ZM471.232 18.56H475.444V39.764C475.444 40.748 475.336 41.576 475.12 42.248C474.928 42.896 474.52 43.4 473.896 43.76C473.32 44.144 472.624 44.384 471.808 44.48C470.992 44.576 470.044 44.624 468.964 44.624C468.916 44.216 468.82 43.736 468.676 43.184C468.532 42.632 468.364 42.092 468.172 41.564C467.98 41.036 467.788 40.58 467.596 40.196C468.22 40.22 468.832 40.232 469.432 40.232C470.056 40.232 470.476 40.232 470.692 40.232C470.884 40.232 471.016 40.196 471.088 40.124C471.184 40.028 471.232 39.872 471.232 39.656V18.56ZM462.304 18.56H473.248V22.628H466.516V50.24H462.304V18.56ZM444.268 21.512H460.072V25.436H444.268V21.512ZM443.08 30.008H461.188V34.004H443.08V30.008ZM450.172 16.4H454.384V32.132H450.172V16.4ZM443.08 42.716C444.328 42.596 445.756 42.452 447.364 42.284C448.972 42.116 450.664 41.936 452.44 41.744C454.24 41.552 456.028 41.36 457.804 41.168L457.984 44.984C455.464 45.344 452.944 45.692 450.424 46.028C447.928 46.34 445.684 46.628 443.692 46.892L443.08 42.716ZM453.628 37.568L457.12 36.164C457.768 37.22 458.404 38.372 459.028 39.62C459.676 40.844 460.252 42.044 460.756 43.22C461.26 44.372 461.632 45.416 461.872 46.352L458.056 47.936C457.864 47.048 457.528 46.016 457.048 44.84C456.568 43.64 456.028 42.404 455.428 41.132C454.852 39.86 454.252 38.672 453.628 37.568ZM448.372 32.456L452.944 33.68C452.512 34.928 452.044 36.212 451.54 37.532C451.036 38.852 450.544 40.112 450.064 41.312C449.584 42.512 449.116 43.568 448.66 44.48L445.132 43.364C445.54 42.38 445.948 41.264 446.356 40.016C446.764 38.744 447.148 37.448 447.508 36.128C447.868 34.808 448.156 33.584 448.372 32.456ZM496.792 26.876H509.68V30.8H496.792V26.876ZM496.792 35.408H509.68V39.296H496.792V35.408ZM496.792 43.904H509.68V47.828H496.792V43.904ZM494.74 18.344H511.696V49.7H507.376V22.448H498.88V49.916H494.74V18.344ZM479.62 23.852H493.444V27.92H479.62V23.852ZM484.804 16.4H488.944V50.204H484.804V16.4ZM484.588 26.624L487.144 27.524C486.856 28.988 486.496 30.5 486.064 32.06C485.632 33.596 485.14 35.108 484.588 36.596C484.036 38.06 483.436 39.44 482.788 40.736C482.14 42.008 481.456 43.1 480.736 44.012C480.544 43.412 480.244 42.728 479.836 41.96C479.428 41.168 479.044 40.508 478.684 39.98C479.332 39.188 479.956 38.264 480.556 37.208C481.156 36.152 481.708 35.036 482.212 33.86C482.74 32.66 483.208 31.448 483.616 30.224C484.024 28.976 484.348 27.776 484.588 26.624ZM488.656 29.792C488.92 30.032 489.304 30.452 489.808 31.052C490.312 31.628 490.84 32.264 491.392 32.96C491.968 33.656 492.496 34.304 492.976 34.904C493.48 35.48 493.828 35.888 494.02 36.128L491.536 39.62C491.272 39.092 490.936 38.468 490.528 37.748C490.12 37.028 489.676 36.296 489.196 35.552C488.716 34.808 488.248 34.1 487.792 33.428C487.36 32.756 486.988 32.192 486.676 31.736L488.656 29.792ZM526.132 30.944H548.956V34.58H526.132V30.944ZM530.056 36.272H544.852V39.692H530.056V36.272ZM531.424 32.276L535.132 33.212C534.244 35.276 533.032 37.184 531.496 38.936C529.984 40.664 528.376 42.092 526.672 43.22C526.456 42.98 526.168 42.692 525.808 42.356C525.472 41.996 525.112 41.66 524.728 41.348C524.368 41.036 524.044 40.784 523.756 40.592C525.436 39.68 526.948 38.504 528.292 37.064C529.66 35.6 530.704 34.004 531.424 32.276ZM544.204 36.272H548.2C548.2 36.272 548.188 36.464 548.164 36.848C548.164 37.208 548.14 37.52 548.092 37.784C547.948 40.112 547.768 42.032 547.552 43.544C547.36 45.032 547.144 46.184 546.904 47C546.664 47.84 546.376 48.44 546.04 48.8C545.704 49.208 545.332 49.496 544.924 49.664C544.54 49.832 544.108 49.952 543.628 50.024C543.22 50.072 542.692 50.108 542.044 50.132C541.42 50.156 540.736 50.144 539.992 50.096C539.968 49.592 539.872 49.004 539.704 48.332C539.536 47.684 539.308 47.144 539.02 46.712C539.596 46.76 540.112 46.796 540.568 46.82C541.024 46.82 541.372 46.82 541.612 46.82C541.852 46.82 542.044 46.796 542.188 46.748C542.356 46.7 542.512 46.592 542.656 46.424C542.872 46.184 543.064 45.728 543.232 45.056C543.424 44.36 543.592 43.352 543.736 42.032C543.904 40.712 544.06 38.996 544.204 36.884V36.272ZM533.152 24.86V26.588H542.44V24.86H533.152ZM533.152 20.324V22.016H542.44V20.324H533.152ZM529.3 17.336H546.436V29.576H529.3V17.336ZM515.62 23.996H526.6V28.064H515.62V23.996ZM519.256 16.868H523.288V39.26H519.256V16.868ZM514.792 39.98C515.728 39.644 516.808 39.224 518.032 38.72C519.28 38.216 520.6 37.676 521.992 37.1C523.384 36.5 524.764 35.9 526.132 35.3L527.068 39.008C525.268 39.944 523.432 40.88 521.56 41.816C519.688 42.752 517.972 43.604 516.412 44.372L514.792 39.98ZM540.064 36.992L542.98 38.576C542.548 40.016 541.936 41.492 541.144 43.004C540.352 44.492 539.464 45.884 538.48 47.18C537.496 48.476 536.464 49.544 535.384 50.384C535.024 49.976 534.556 49.544 533.98 49.088C533.404 48.632 532.84 48.26 532.288 47.972C533.464 47.228 534.556 46.268 535.564 45.092C536.572 43.916 537.46 42.62 538.228 41.204C539.02 39.788 539.632 38.384 540.064 36.992ZM534.628 37.028L537.436 38.684C536.836 39.932 536.044 41.192 535.06 42.464C534.1 43.736 533.044 44.924 531.892 46.028C530.74 47.132 529.588 48.044 528.436 48.764C528.1 48.332 527.668 47.876 527.14 47.396C526.636 46.916 526.132 46.52 525.628 46.208C526.804 45.608 527.968 44.816 529.12 43.832C530.296 42.848 531.364 41.768 532.324 40.592C533.284 39.392 534.052 38.204 534.628 37.028Z" fill="white"/>
<path d="M47.8765 22.3585C47.8765 12.8437 40.1364 5.10352 30.6216 5.10352C21.1068 5.10352 13.3666 12.8437 13.3666 22.3585C13.3666 31.8733 21.1068 39.6135 30.6216 39.6135C40.1364 39.6135 47.8765 31.8733 47.8765 22.3585ZM15.3969 22.3585C15.3969 13.9639 22.227 7.13381 30.6216 7.13381C39.0161 7.13381 45.8462 13.9639 45.8462 22.3585C45.8462 30.7531 39.0161 37.5832 30.6216 37.5832C22.227 37.5832 15.3969 30.7531 15.3969 22.3585Z" fill="white"/>
<path d="M39.7565 32.5092C40.316 32.5092 40.7704 32.0536 40.7704 31.4941V20.3287C40.7704 20.0389 40.6476 19.7629 40.4312 19.5693L38.7414 18.0693V12.2088C38.7414 11.6494 38.287 11.1937 37.7262 11.1937H33.6656C33.1062 11.1937 32.6518 11.6494 32.6518 12.2088V12.6556L31.2961 11.4506C30.9113 11.1076 30.3316 11.1076 29.9468 11.4506L20.813 19.5693C20.5953 19.7629 20.4713 20.0389 20.4713 20.3287V31.4941C20.4713 32.0536 20.9257 32.5092 21.4864 32.5092H39.7565ZM22.5015 20.7844L30.6215 13.567L32.991 15.6745C33.291 15.9403 33.7175 16.0049 34.0808 15.8416C34.4466 15.677 34.6808 15.315 34.6808 14.9163V13.224H36.7111V18.525C36.7111 18.8149 36.8351 19.0908 37.0516 19.2832L38.7414 20.7844V30.479H33.6656V24.3893C33.6656 23.8286 33.2112 23.3742 32.6518 23.3742H28.5912C28.0304 23.3742 27.576 23.8286 27.576 24.3893V30.479H22.5015V20.7844ZM29.6063 30.479V25.4045H31.6366V30.479H29.6063Z" fill="white"/>
<mask id="mask0_2009_8" style="mask-type:luminance" maskUnits="userSpaceOnUse" x="0" y="0" width="61" height="61">
<path d="M0 0H61V61H0V0Z" fill="white"/>
</mask>
<g mask="url(#mask0_2009_8)">
<path d="M60.8216 59.3597L49.6563 43.1199C49.4677 42.8439 49.1538 42.6794 48.8196 42.6794H42.3515C47.2336 36.8923 51.865 29.547 51.865 22.4853C51.865 8.85674 43.4983 0.0507812 30.5507 0.0507812C17.6019 0.0507812 9.23642 8.85674 9.23642 22.4853C9.23642 29.547 13.8679 36.8923 18.7499 42.6794H12.2806C11.9464 42.6794 11.6338 42.8439 11.4452 43.1199L0.279828 59.3597C0.0671789 59.6698 0.0418635 60.0736 0.217806 60.4065C0.393748 60.7394 0.739303 60.9495 1.1165 60.9495H59.9849C60.3621 60.9495 60.7077 60.7394 60.8836 60.4065C61.0583 60.0736 61.0355 59.6698 60.8216 59.3597ZM30.5507 2.08108C39.8731 2.08108 49.8347 7.44035 49.8347 22.4853C49.8347 34.2899 35.0632 47.6792 30.9659 51.1664C30.8773 51.2411 30.79 51.3145 30.7115 51.3803C30.6583 51.4246 30.5988 51.4752 30.5507 51.5157C30.5115 51.4828 30.4609 51.4411 30.4178 51.4043C30.3229 51.3246 30.2166 51.2347 30.1064 51.1411C30.0026 51.0537 29.8963 50.9613 29.7786 50.8613C29.747 50.8335 29.7077 50.7993 29.6748 50.7715C29.4052 50.5373 29.1077 50.2791 28.7812 49.9879C28.7521 49.9614 28.7204 49.9323 28.69 49.9057C23.3485 45.1363 11.2654 33.1684 11.2654 22.4853C11.2654 7.44035 21.2283 2.08108 30.5507 2.08108ZM29.8052 53.5321C29.8634 53.5789 29.9064 53.6144 29.9216 53.6245C30.29 53.9169 30.8127 53.9169 31.1811 53.6245C31.195 53.6144 31.238 53.5789 31.2963 53.5321C32.0924 52.8954 36.2214 49.5146 40.5769 44.7097H48.2867L52.0688 50.2095L25.9016 56.751L17.2981 44.7097H20.5233C24.8813 49.5146 29.0103 52.8954 29.8052 53.5321ZM45.3514 53.9815L48.8778 58.9192H25.6016L45.3514 53.9815ZM12.8148 44.7097H14.8033L17.9247 49.0804L8.2795 51.3056L12.8148 44.7097ZM6.57704 53.7827L19.2018 50.8689L23.7826 57.2813L17.2298 58.9192H3.04554L6.57704 53.7827ZM51.3726 58.9192L47.4677 53.4524L53.2966 51.9955L58.0559 58.9192H51.3726Z" fill="white"/>
</g>
</svg>
