<svg width="259" height="66" viewBox="0 0 259 66" fill="none" xmlns="http://www.w3.org/2000/svg">
<circle cx="3.64973" cy="3.64973" r="3.64973" transform="matrix(-1 0 0 1 220.417 6.80176)" fill="#F5A210"/>
<circle cx="3.64973" cy="3.64973" r="3.64973" transform="matrix(-1 0 0 1 231.888 6.80176)" fill="#F5A210"/>
<circle cx="3.64973" cy="3.64973" r="3.64973" transform="matrix(-1 0 0 1 243.358 6.80176)" fill="#F5A210"/>
<circle cx="3.64973" cy="3.64973" r="3.64973" transform="matrix(-1 0 0 1 254.829 6.80176)" fill="#F5A210"/>
<circle cx="3.64973" cy="3.64973" r="3.64973" transform="matrix(-1 0 0 1 75.4706 57.8984)" fill="#F5A210"/>
<circle cx="3.64973" cy="3.64973" r="3.64973" transform="matrix(-1 0 0 1 86.9412 57.8984)" fill="#F5A210"/>
<circle cx="3.64973" cy="3.64973" r="3.64973" transform="matrix(-1 0 0 1 98.4117 57.8984)" fill="#F5A210"/>
<circle cx="3.64973" cy="3.64973" r="3.64973" transform="matrix(-1 0 0 1 109.882 57.8984)" fill="#F5A210"/>
<path d="M77.716 48.2725V25.9097H85.8882V48.2725H77.716ZM88.21 46.3631L90.7762 40.1003C91.927 40.9048 92.9504 41.4954 93.8465 41.8722C94.7529 42.2388 95.5981 42.4221 96.3822 42.4221C96.9321 42.4221 97.3649 42.3203 97.6806 42.1166C97.9963 41.9027 98.1541 41.6176 98.1541 41.2612C98.1541 40.64 97.3649 40.1665 95.7865 39.8406C95.2773 39.7286 94.8802 39.642 94.595 39.5809C92.9249 39.1736 91.6469 38.4506 90.761 37.4119C89.875 36.3732 89.432 35.0799 89.432 33.532C89.432 31.1287 90.2925 29.1735 92.0135 27.6663C93.7345 26.1592 95.9901 25.4056 98.7804 25.4056C100.064 25.4056 101.326 25.5736 102.569 25.9097C103.811 26.2458 105.064 26.7549 106.326 27.4372L103.882 33.2876C103.108 32.7173 102.329 32.2845 101.545 31.9892C100.771 31.6837 100.018 31.5309 99.2845 31.5309C98.7244 31.5309 98.2916 31.6277 97.9861 31.8212C97.6806 32.0045 97.5278 32.2641 97.5278 32.6002C97.5278 33.2316 98.6429 33.7866 100.873 34.2652C101.23 34.3467 101.504 34.4078 101.698 34.4485C103.236 34.7947 104.447 35.5025 105.333 36.5717C106.219 37.641 106.662 38.9343 106.662 40.4516C106.662 42.9262 105.766 44.9476 103.974 46.5158C102.192 48.0841 99.87 48.8682 97.0085 48.8682C95.5421 48.8682 94.0757 48.6594 92.6093 48.2419C91.1428 47.8244 89.6764 47.1981 88.21 46.3631ZM109.366 48.2725V25.9097H117.416V33.3487H122.319V25.9097H130.354V48.2725H122.319V40.3905H117.416V48.2725H109.366ZM134.753 48.2725V25.9097H142.925V48.2725H134.753ZM147.279 48.2725V25.9097H155.161V35.4414L160.263 25.9097H169.367L162.615 36.9231L170.314 48.2725H160.583L155.161 38.9241V48.2725H147.279ZM178.898 40.1461H182.244L181.556 37.6104C181.22 36.3273 180.991 35.3395 180.869 34.6471C180.747 33.9546 180.67 33.3029 180.64 32.6919H180.502C180.472 33.3029 180.395 33.9546 180.273 34.6471C180.151 35.3395 179.922 36.3273 179.586 37.6104L178.898 40.1461ZM168.236 48.2725L176.21 25.9097H185.161L192.982 48.2725H184.336L183.618 45.4618H177.554L176.867 48.2725H168.236ZM206.73 36.9536C206.699 37.6868 206.531 38.7408 206.226 40.1156C206.175 40.3396 206.134 40.5178 206.103 40.6502L204.423 48.2725H197.412L190.874 25.9097H198.939L200.696 35.7621C200.849 36.6277 200.966 37.422 201.047 38.1451C201.129 38.8579 201.18 39.53 201.2 40.1614H201.383C201.404 39.2754 201.562 38.1094 201.857 36.6634C201.877 36.531 201.898 36.4241 201.918 36.3426L204.041 25.9097H209.708L211.831 36.3579C211.842 36.419 211.862 36.5208 211.893 36.6634C212.188 38.1196 212.346 39.2856 212.366 40.1614H212.549C212.57 39.53 212.621 38.8579 212.702 38.1451C212.784 37.422 212.901 36.6277 213.053 35.7621L214.81 25.9097H222.875L216.338 48.2725H209.326L207.646 40.6502C207.616 40.5178 207.575 40.3345 207.524 40.1003C207.218 38.7357 207.05 37.6868 207.02 36.9536H206.73ZM231.414 40.1461H234.759L234.072 37.6104C233.736 36.3273 233.507 35.3395 233.385 34.6471C233.262 33.9546 233.186 33.3029 233.156 32.6919H233.018C232.987 33.3029 232.911 33.9546 232.789 34.6471C232.667 35.3395 232.438 36.3273 232.102 37.6104L231.414 40.1461ZM220.752 48.2725L228.726 25.9097H237.677L245.498 48.2725H236.852L236.134 45.4618H230.07L229.383 48.2725H220.752Z" fill="#5B9E4D"/>
<line x1="64" y1="9.95266" x2="207.904" y2="9.95266" stroke="#AFBC34" stroke-width="2.04"/>
<line x1="115.096" y1="61.0493" x2="259" y2="61.0493" stroke="#AFBC34" stroke-width="2.04"/>
<mask id="mask0_288_13" style="mask-type:luminance" maskUnits="userSpaceOnUse" x="9" y="10" width="50" height="52">
<path d="M9.05396 10.3418H58.7379V61.8902H9.05396V10.3418Z" fill="white"/>
</mask>
<g mask="url(#mask0_288_13)">
<path d="M10.7402 24.7821L32.693 10.8279C33.5573 10.2832 34.626 10.3259 35.4256 10.8563L57.5427 24.9089C58.2932 25.3824 58.7033 26.1963 58.7033 27.023H58.7098V59.1934C58.7098 60.5869 57.5841 61.71 56.1971 61.71H11.8865C10.4917 61.71 9.36609 60.5869 9.36609 59.1934V27.023C9.36609 26.0475 9.92633 25.1987 10.7402 24.7821ZM34.0386 15.9101L14.4005 28.3868V56.6846H53.6767V28.3868L34.0386 15.9101Z" fill="#AFBC34"/>
</g>
<path d="M32.838 0.397893C34.0115 -0.355096 35.5684 -0.00656179 36.3157 1.16649C37.0617 2.33824 36.7134 3.89493 35.5398 4.64012L3.87496 24.777C2.70272 25.5222 1.14449 25.1815 0.398516 24.0097C-0.355255 22.8367 -0.00696095 21.2813 1.16658 20.5348L32.838 0.397893Z" fill="#AFBC34"/>
<path d="M32.6311 4.64012C31.4576 3.89493 31.1093 2.33824 31.863 1.16649C32.6103 -0.00656179 34.1672 -0.355096 35.3329 0.397893L67.0047 20.5348C68.1783 21.2813 68.5266 22.8367 67.7793 24.0097C67.0333 25.1815 65.4765 25.5222 64.3029 24.777L32.6311 4.64012Z" fill="#AFBC34"/>
<path fill-rule="evenodd" clip-rule="evenodd" d="M27.7936 34.0859H32.6962V38.9891H27.7936V34.0859ZM35.4689 34.0859H40.3794V38.9891H35.4689V34.0859ZM40.3794 41.7619V46.6717H35.4689V41.7619H40.3794ZM32.6962 46.6717H27.7936V41.7619H32.6962V46.6717Z" fill="#AFBC34"/>
</svg>
