<svg width="662" height="312" viewBox="0 0 662 312" fill="none" xmlns="http://www.w3.org/2000/svg">
<path d="M17.5573 23.0987H71.8373V30.336H17.5573V23.0987ZM31.2347 65.7253H65.152V72.84H31.2347V65.7253ZM28.2293 43.8907H68.3413V76.2747H60.4293V50.944H35.712V76.52H28.2293V43.8907ZM34.7307 27.0853L42.6427 29.1093C38.104 41.56 30.744 54.5013 19.9493 62.2293C18.7227 60.5733 16.3307 57.936 14.736 56.5253C24.672 49.7787 31.6027 37.696 34.7307 27.0853ZM84.5333 21.9947H92.1387V43.2773C92.1387 55.2373 91.28 67.7493 83 77.072C81.6507 75.416 78.584 72.9627 76.6827 71.7973C83.736 63.824 84.5333 53.3973 84.5333 43.216V21.9947ZM103.363 24.632H110.845V70.5707H103.363V24.632ZM122.069 21.9333H129.859V76.3973H122.069V21.9333ZM160.955 33.8933V37.0213H181.256V33.8933H160.955ZM160.955 41.6827V44.872H181.256V41.6827H160.955ZM160.955 26.104V29.1707H181.256V26.104H160.955ZM154.085 21.136H188.493V49.84H154.085V21.136ZM175.061 64.744L181.44 60.7573C185.979 63.824 192.48 68.4853 195.853 71.6133L189.045 76.152C186.101 73.0853 179.784 68.1173 175.061 64.744ZM163.469 55.7893H171.32V76.52H163.469V55.7893ZM146.664 53.0293H195.117V59.4693H146.664V53.0293ZM142.371 24.7547H149.792V60.7573H142.371V24.7547ZM152.061 61.248L159.789 64.1307C155.741 68.608 149.976 73.2693 144.885 76.152C143.352 74.5573 140.653 72.3493 138.936 71.184C143.843 68.7307 149.363 64.6213 152.061 61.248Z" fill="#F5A210"/>
<path d="M201.174 39.49C202.968 39.444 204.808 39.352 205.682 39.26C209.5 38.892 217.09 38.248 225.508 37.512C230.292 37.144 235.306 36.822 238.572 36.684L238.618 42.618C236.134 42.618 232.178 42.664 229.694 43.216C224.174 44.688 219.988 50.668 219.988 56.142C219.988 63.686 227.072 66.446 234.846 66.814L232.684 73.116C223.07 72.518 213.962 67.32 213.962 57.338C213.962 50.76 217.688 45.516 220.77 43.17C216.492 43.63 207.062 44.642 201.772 45.792L201.174 39.49ZM232.04 47.126C233.144 48.736 234.8 51.542 235.674 53.382L232.224 54.9C231.028 52.416 230.062 50.576 228.636 48.552L232.04 47.126ZM237.146 45.01C238.342 46.62 240.09 49.334 241.056 51.128L237.606 52.784C236.364 50.3 235.306 48.552 233.834 46.528L237.146 45.01Z" fill="#333333"/>
<path d="M17.84 113.976H74.032V120.504H17.84V113.976ZM41.584 108.536H49.52V117.24H41.584V108.536ZM20.4 139.832H67.184V146.168H27.888V168.824H20.4V139.832ZM64.304 139.832H72.048V160.696C72.048 164.216 71.344 166.264 68.848 167.416C66.416 168.568 63.024 168.696 58.416 168.696C58.16 166.52 57.072 163.448 56.048 161.464C58.928 161.592 62.192 161.592 63.088 161.528C64.048 161.528 64.304 161.272 64.304 160.504V139.832ZM33.648 149.112H40.304V166.392H33.648V149.112ZM36.976 149.112H58.224V163.448H36.976V158.328H51.44V154.232H36.976V149.112ZM35.632 128.12V131.96H55.792V128.12H35.632ZM28.336 123H63.536V137.144H28.336V123ZM88.944 125.048H101.68V130.232H88.944V125.048ZM91.056 108.856H98.224V118.84H91.056V108.856ZM87.792 147.32H105.008V164.92H87.792V159.096H98.48V153.144H87.792V147.32ZM80.752 113.976H108.72V124.344H102.32V119.928H86.896V124.344H80.752V113.976ZM84.336 147.32H90.736V167.608H84.336V147.32ZM100.4 125.048H101.616L102.768 124.792L107.12 126.776C102.896 138.872 93.552 147.064 82.992 151.416C82.16 149.816 80.368 147.256 79.024 145.912C88.56 142.648 97.264 135.16 100.4 126.136V125.048ZM90.864 120.568L97.136 122.168C94.256 128.76 89.2 134.712 83.952 138.488C82.928 137.272 80.496 134.968 79.088 133.944C84.144 130.872 88.56 125.944 90.864 120.568ZM85.168 135.224L89.2 130.616C95.472 134.776 104.88 140.92 109.488 144.76L105.136 150.136C100.784 146.168 91.632 139.704 85.168 135.224ZM108.848 111.16H138.992V117.752H108.848V111.16ZM117.68 137.016V140.92H130.352V137.016H117.68ZM117.68 146.296V150.264H130.352V146.296H117.68ZM117.68 127.736V131.704H130.352V127.736H117.68ZM110.832 122.04H137.648V155.96H110.832V122.04ZM120.112 114.68L128.496 115.64C127.216 119.544 125.68 123.576 124.592 126.264L118.192 125.048C118.96 122.04 119.792 117.752 120.112 114.68ZM116.08 156.216L122.288 160.12C118.896 163.384 113.328 166.84 108.592 168.696C107.44 167.288 105.264 165.176 103.664 163.832C108.272 162.104 113.52 158.84 116.08 156.216ZM125.04 160.056L130.608 156.536C134.064 158.904 138.736 162.488 141.104 164.92L135.152 168.824C133.04 166.456 128.56 162.616 125.04 160.056ZM145.648 113.784H202.288V120.76H145.648V113.784ZM151.792 124.92H196.464V131.64H151.792V124.92ZM146.544 134.84H201.52V148.536H193.776V141.688H153.904V148.536H146.544V134.84ZM169.648 108.728H177.648V128.632H169.648V108.728ZM177.328 143.736H185.072V158.776C185.072 160.824 185.456 161.08 187.696 161.08C188.784 161.08 192.944 161.08 194.16 161.08C196.272 161.08 196.72 160.056 196.912 153.464C198.512 154.68 201.776 155.896 203.824 156.344C202.992 165.624 201.008 167.992 194.928 167.992C193.328 167.992 188.144 167.992 186.672 167.992C179.184 167.992 177.328 165.816 177.328 158.904V143.736ZM161.52 143.672H169.52C168.56 156.6 165.744 164.792 148.08 169.016C147.376 166.968 145.456 163.96 143.856 162.36C159.216 159.352 160.752 153.656 161.52 143.672ZM257.904 112.504H265.456V150.2C265.456 153.656 264.88 155.96 262.704 157.304C260.592 158.648 257.776 158.84 253.872 158.84C253.616 156.6 252.528 153.016 251.44 150.904C253.744 151.032 256.176 151.032 256.944 151.032C257.648 151.032 257.904 150.776 257.904 150.008V112.504ZM242.096 112.504H261.552V119.672H249.52V168.76H242.096V112.504ZM209.968 117.752H238.128V124.664H209.968V117.752ZM207.92 132.792H240.112V139.896H207.92V132.792ZM220.528 108.664H227.952V136.632H220.528V108.664ZM207.856 155.384C214.512 154.808 224.56 153.72 234.096 152.632L234.352 159.48C225.456 160.696 216.048 161.912 208.944 162.808L207.856 155.384ZM226.672 146.296L232.88 143.8C236.272 149.432 239.984 156.92 241.264 161.848L234.544 164.728C233.328 159.864 229.936 152.184 226.672 146.296ZM217.264 137.208L225.392 139.32C223.024 146.04 220.208 153.72 217.84 158.584L211.504 156.536C213.68 151.288 216.112 143.224 217.264 137.208Z" fill="#006837"/>
<path d="M297.216 118.088C296.768 120.16 296.04 123.464 294.472 127.496C293.296 130.24 291.672 133.432 290.104 135.672C291.616 135 294.584 134.608 296.488 134.608C301.136 134.608 304.664 137.352 304.664 142.56C304.664 145.584 304.832 151.688 304.888 155.216H298.168C298.392 152.584 298.504 147.824 298.448 144.8C298.448 141.216 296.208 140.04 293.856 140.04C290.776 140.04 287.248 141.888 285.12 143.904C283.44 145.584 281.872 147.6 279.968 150.064L273.976 145.584C281.144 138.976 285.456 132.928 287.808 126.768C288.928 123.744 289.656 120.328 289.824 117.472L297.216 118.088ZM276.104 123.296C278.96 123.688 283.104 123.912 285.96 123.912C293.352 123.912 303.488 123.52 311.608 122.064L311.552 128.56C303.656 129.68 292.4 130.184 285.568 130.184C283.272 130.184 279.184 130.072 276.104 129.792V123.296ZM320.456 139.2C318.72 139.704 315.696 140.824 313.792 141.552C310.152 142.952 305.112 144.968 299.848 147.656C294.752 150.288 292.008 152.696 292.008 155.776C292.008 158.856 294.696 159.696 300.128 159.696C304.888 159.696 311.16 159.08 316.088 158.072L315.864 165.296C312.112 165.8 305.28 166.304 299.96 166.304C291.224 166.304 284.672 164.12 284.672 156.896C284.672 149.112 292.68 144.52 299.4 141.16C304.552 138.472 308.08 137.128 311.44 135.56C313.624 134.608 315.584 133.712 317.712 132.648L320.456 139.2ZM350.472 115.512H357.36V124.472H350.472V115.512ZM329.976 120.384H377.968V132.424H371.024V126.264H336.64V132.424H329.976V120.384ZM334.96 130.688H373.432V136.12H334.96V130.688ZM329.528 148.44H378.752V154.264H329.528V148.44ZM335.856 139.48H372.312V144.912H335.856V139.48ZM357.304 149.616C360.608 157.008 367.888 161.096 379.536 162.328C378.136 163.728 376.4 166.416 375.56 168.208C362.736 166.136 355.568 160.816 351.256 150.848L357.304 149.616ZM350.304 127.496H357.08V143.064C357.08 152.92 352.992 162.552 332.608 168.04C331.88 166.584 329.92 164.008 328.464 162.608C347.84 158.184 350.304 150.512 350.304 143.008V127.496ZM384.296 118.368H404.008V124.584H384.296V118.368ZM384.8 134.384H403.392V140.544H384.8V134.384ZM382.952 153.816C388.384 152.584 396.504 150.4 404.232 148.272L405.128 154.152C398.072 156.28 390.456 158.464 384.632 160.2L382.952 153.816ZM412.408 131.584V135.056H427.136V131.584H412.408ZM412.408 140.208V143.624H427.136V140.208H412.408ZM412.408 123.072V126.488H427.136V123.072H412.408ZM406.192 117.584H433.688V149.168H406.192V117.584ZM420.304 146.704H426.744V160.144C426.744 161.824 426.912 161.992 427.808 161.992C428.2 161.992 429.656 161.992 430.16 161.992C431.112 161.992 431.336 161.096 431.448 155.496C432.736 156.504 435.424 157.568 437.104 157.96C436.544 165.632 434.976 167.76 430.888 167.76C429.88 167.76 427.584 167.76 426.632 167.76C421.424 167.76 420.304 165.856 420.304 160.2V146.704ZM410.392 148.328H416.944C416.104 157.904 413.696 164.68 401.264 168.432C400.592 166.752 398.912 164.176 397.568 162.888C408.208 160.2 409.664 155.44 410.392 148.328ZM391.072 120.832H397.568V153.76L391.072 154.712V120.832ZM474.568 117.864C474.4 118.816 474.232 121.784 474.176 122.68C474.008 126.376 474.12 137.8 474.176 142.28L467.176 139.928C467.176 136.456 467.176 125.704 466.952 122.736C466.784 120.496 466.56 118.592 466.448 117.864H474.568ZM442.872 124.864C451.216 124.864 466 124.416 473 124.416C478.712 124.416 487.224 124.36 490.36 124.416L490.248 131.024C486.776 130.856 481.064 130.688 472.832 130.688C462.64 130.688 451.496 131.136 443.04 131.584L442.872 124.864ZM473.224 141.44C473.224 150.568 469.864 155.104 463.424 155.104C459.112 155.104 453.736 151.688 453.736 144.856C453.736 138.528 458.888 134.384 464.936 134.384C472.328 134.384 476.192 139.816 476.192 146.76C476.192 154.096 471.88 163.336 458.216 167.2L452.28 161.264C461.8 159.192 469.248 155.44 469.248 145.64C469.248 142 467.288 140.264 464.824 140.264C462.64 140.264 460.456 141.776 460.456 144.744C460.456 147.264 462.528 148.888 464.824 148.888C467.456 148.888 469.752 146.648 467.96 139.984L473.224 141.44ZM506.32 120.384C507.888 120.552 509.792 120.664 511.36 120.664C514.384 120.664 526.312 120.384 529.504 120.104C531.856 119.936 533.144 119.712 533.816 119.488L537.4 124.528C536.112 125.368 534.768 126.152 533.536 127.104C530.512 129.232 524.632 134.16 521.048 136.96C522.952 136.456 524.632 136.344 526.368 136.344C535.888 136.344 543.112 142.28 543.112 150.4C543.112 159.248 536.392 166.248 522.84 166.248C515.056 166.248 509.176 162.72 509.176 157.064C509.176 152.528 513.32 148.384 519.256 148.384C526.928 148.384 531.184 153.536 531.352 159.696L524.8 160.536C524.688 156.504 522.56 153.704 519.256 153.704C517.184 153.704 515.784 154.992 515.784 156.448C515.784 158.52 518.08 159.92 521.496 159.92C530.96 159.92 535.776 156.336 535.776 150.344C535.776 145.248 530.736 141.832 524.184 141.832C515.56 141.832 510.016 146.424 504.024 153.2L498.928 147.936C502.904 144.8 509.68 139.088 512.928 136.344C516.064 133.768 521.944 129.064 524.688 126.6C521.832 126.712 514.104 126.992 511.08 127.216C509.568 127.328 507.832 127.44 506.544 127.664L506.32 120.384ZM554.592 126.32C557 126.6 560.024 126.712 562.04 126.712C568.984 126.712 576.544 125.536 581.976 123.8L582.144 130.296C577.328 131.64 569.264 133.096 562.096 133.04C559.856 133.04 557.504 132.984 555.096 132.872L554.592 126.32ZM576.376 117.92C575.648 120.888 574.304 126.376 572.792 131.136C570.216 139.2 565.176 149.616 560.416 156.224L553.64 152.752C558.68 146.592 563.72 136.792 565.904 130.744C567.248 126.712 568.48 121.504 568.648 117.192L576.376 117.92ZM589.536 135.392C589.368 137.744 589.424 140.096 589.48 142.56C589.592 145.864 590.096 154.208 590.096 157.344C590.096 162.552 587.296 166.64 579.288 166.64C572.344 166.64 566.856 163.504 566.856 157.344C566.856 151.912 571.448 147.656 579.232 147.656C589.032 147.656 596.76 152.584 601.408 156.784L597.712 162.832C593.68 159.08 587.296 153.312 578.84 153.312C575.592 153.312 573.464 154.712 573.464 156.672C573.464 158.744 575.256 160.2 578.336 160.2C582.144 160.2 583.376 158.072 583.376 154.936C583.376 151.576 582.76 141.272 582.48 135.392H589.536ZM599.168 138.36C595.92 135.728 589.536 132.088 585.672 130.352L589.312 124.864C593.344 126.6 600.232 130.352 603.144 132.424L599.168 138.36ZM624.648 117.92C629.968 119.6 642.176 121.784 647.104 122.288L645.424 129.176C639.712 128.392 627.28 125.816 622.912 124.696L624.648 117.92ZM625.04 129.176C624.256 132.312 623.304 139.088 622.912 142.336C627.952 138.64 633.552 136.96 639.432 136.96C649.232 136.96 654.944 143.008 654.944 149.784C654.944 160.032 646.824 167.872 623.584 165.856L621.4 158.52C638.256 160.872 647.104 156.784 647.104 149.616C647.104 145.976 643.688 143.344 638.76 143.344C632.432 143.344 626.776 145.696 623.248 149.952C622.24 151.128 621.624 152.024 621.176 153.144L614.68 151.576C615.8 146.088 617.144 135.112 617.48 128.168L625.04 129.176Z" fill="#333333"/>
<path d="M5 239L561 239" stroke="#F5EC10" stroke-width="9" stroke-linecap="round"/>
<path d="M5 304L411 304" stroke="#F5EC10" stroke-width="9" stroke-linecap="round"/>
<path d="M41.765 195.795H46.85V227.565H41.765V195.795ZM28.445 213.885L51.755 203.985L53.735 208.575L30.47 218.655L28.445 213.885ZM32.9 200.16H38.03V229.32C38.03 231.975 38.435 232.335 41.225 232.335C42.575 232.335 48.56 232.335 49.955 232.335C52.43 232.335 52.88 231.345 53.24 226.71C54.41 227.52 56.525 228.375 57.965 228.645C57.29 235.035 55.67 237.15 50.405 237.15C48.92 237.15 42.17 237.15 40.775 237.15C34.61 237.15 32.9 235.53 32.9 229.275V200.16ZM50.72 204.57H50.405L51.35 203.895L52.295 203.22L56.075 204.57L55.85 205.47C55.85 214.065 55.76 219.51 55.58 221.355C55.4 223.425 54.635 224.505 53.24 225.09C51.935 225.72 50 225.72 48.56 225.72C48.38 224.37 47.975 222.345 47.39 221.22C48.155 221.265 49.19 221.265 49.595 221.265C50.135 221.265 50.405 221.13 50.54 220.32C50.72 219.42 50.72 214.515 50.72 204.57ZM15.53 206.235H30.38V211.32H15.53V206.235ZM20.75 196.425H25.79V226.26H20.75V196.425ZM14.9 226.305C18.635 224.955 24.485 222.525 29.975 220.185L31.19 224.955C26.42 227.385 21.245 229.815 17.06 231.705L14.9 226.305ZM60.575 206.55H73.085V211.635H60.575V206.55ZM64.625 196.425H69.62V226.575H64.625V196.425ZM60.17 227.25C63.32 225.855 68.135 223.425 72.725 220.995L74.3 225.765C70.295 228.15 65.885 230.67 62.195 232.65L60.17 227.25ZM73.76 202.005H102.155V206.865H73.76V202.005ZM72.365 228.15C76.325 227.43 82.265 226.08 87.98 224.775L88.475 229.275C83.345 230.67 77.9 232.11 73.625 233.19L72.365 228.15ZM88.115 195.84H93.245C92.93 213.93 95.405 232.965 98.375 232.965C98.96 232.965 99.365 231.345 99.455 227.34C100.49 228.555 102.02 229.68 103.1 230.265C102.38 236.295 101.075 238.05 97.655 238.05C89.825 238.05 88.205 216 88.115 195.84ZM94.1 198.405L97.115 195.795C98.87 197.055 101.075 198.9 102.11 200.205L98.915 203.13C97.925 201.78 95.855 199.8 94.1 198.405ZM96.71 209.835L101.525 210.735C98.69 222.75 93.47 232.065 85.505 237.78C84.74 236.88 82.715 235.125 81.635 234.36C89.555 229.365 94.37 220.815 96.71 209.835ZM79.025 214.02V219.51H82.49V214.02H79.025ZM75.065 209.88H86.675V223.695H75.065V209.88ZM107.105 203.175C108.86 203.13 110.66 203.04 111.515 202.95C115.25 202.59 122.675 201.96 130.91 201.24C135.59 200.88 140.495 200.565 143.69 200.43L143.735 206.235C141.305 206.235 137.435 206.28 135.005 206.82C129.605 208.26 125.51 214.11 125.51 219.465C125.51 226.845 132.44 229.545 140.045 229.905L137.93 236.07C128.525 235.485 119.615 230.4 119.615 220.635C119.615 214.2 123.26 209.07 126.275 206.775C122.09 207.225 112.865 208.215 107.69 209.34L107.105 203.175ZM137.3 210.645C138.38 212.22 140 214.965 140.855 216.765L137.48 218.25C136.31 215.82 135.365 214.02 133.97 212.04L137.3 210.645ZM142.295 208.575C143.465 210.15 145.175 212.805 146.12 214.56L142.745 216.18C141.53 213.75 140.495 212.04 139.055 210.06L142.295 208.575ZM175.595 203.175C174.965 207.765 174.065 213.03 172.49 218.34C169.79 227.43 165.92 233.01 161.015 233.01C155.975 233.01 151.835 227.475 151.835 219.87C151.835 209.52 160.88 200.61 172.535 200.61C183.65 200.61 190.715 208.35 190.715 218.205C190.715 227.655 184.91 234.36 173.57 236.115L170.15 230.805C171.905 230.58 173.165 230.355 174.38 230.085C180.095 228.69 184.595 224.595 184.595 217.98C184.595 210.915 180.185 205.875 172.4 205.875C162.86 205.875 157.64 213.66 157.64 219.33C157.64 223.875 159.44 226.08 161.15 226.08C163.085 226.08 164.795 223.2 166.685 217.125C167.99 212.895 168.98 207.72 169.43 202.995L175.595 203.175ZM213.665 195.84H219.2V203.04H213.665V195.84ZM197.195 199.755H235.76V209.43H230.18V204.48H202.55V209.43H197.195V199.755ZM201.2 208.035H232.115V212.4H201.2V208.035ZM196.835 222.3H236.39V226.98H196.835V222.3ZM201.92 215.1H231.215V219.465H201.92V215.1ZM219.155 223.245C221.81 229.185 227.66 232.47 237.02 233.46C235.895 234.585 234.5 236.745 233.825 238.185C223.52 236.52 217.76 232.245 214.295 224.235L219.155 223.245ZM213.53 205.47H218.975V217.98C218.975 225.9 215.69 233.64 199.31 238.05C198.725 236.88 197.15 234.81 195.98 233.685C211.55 230.13 213.53 223.965 213.53 217.935V205.47ZM266.675 195.795H272.03V210.195H266.675V195.795ZM257.585 197.865H281.435V201.15H257.585V197.865ZM258.665 202.68H280.4V205.785H258.665V202.68ZM256.46 207.315H282.335V210.69H256.46V207.315ZM264.11 220.5V222.435H275.045V220.5H264.11ZM264.11 225.495V227.43H275.045V225.495H264.11ZM264.11 215.55V217.395H275.045V215.55H264.11ZM259.25 212.22H280.13V230.76H259.25V212.22ZM270.86 232.83L274.46 230.22C277.385 231.975 280.985 234.135 283.01 235.575L278.33 238.095C276.62 236.745 273.515 234.495 270.86 232.83ZM264.29 229.995L268.475 232.785C265.73 234.9 261.23 237.105 257.585 238.275C256.775 237.285 255.29 235.8 254.255 234.9C257.855 233.865 262.13 231.75 264.29 229.995ZM247.055 195.84L251.735 197.46C249.89 200.97 247.82 204.975 246.11 207.495L242.51 206.01C244.085 203.31 246.02 198.945 247.055 195.84ZM252.14 201.15L256.505 203.175C253.22 208.215 248.855 214.47 245.39 218.34L242.285 216.585C245.66 212.535 249.755 205.965 252.14 201.15ZM240.08 206.325L242.735 202.725C245.075 204.84 247.82 207.765 248.9 209.88L245.975 214.02C244.985 211.815 242.33 208.62 240.08 206.325ZM250.88 211.815L254.66 210.285C256.37 213.3 258.08 217.215 258.575 219.78L254.525 221.58C254.03 219.015 252.5 214.92 250.88 211.815ZM239.945 215.55C243.995 215.325 249.8 215.01 255.425 214.65L255.47 219.015C250.115 219.51 244.58 219.87 240.305 220.185L239.945 215.55ZM251.96 223.065L255.695 221.895C256.775 224.415 257.72 227.7 257.99 229.86L253.985 231.165C253.805 229.005 252.95 225.63 251.96 223.065ZM241.88 222.255L246.2 222.975C245.75 227.295 244.805 231.75 243.5 234.63C242.6 234.045 240.62 233.19 239.585 232.74C240.845 230.085 241.52 226.035 241.88 222.255ZM246.83 217.935H251.465V238.05H246.83V217.935ZM317.32 210.68C316.08 211.4 314.8 212.12 313.32 212.84C310.84 214.08 305.84 216.44 302.16 218.8C298.84 220.96 296.6 223.28 296.6 226.04C296.6 228.92 299.4 230.48 304.96 230.48C309.04 230.48 314.44 229.84 318 229L317.96 234.76C314.52 235.32 310.32 235.76 305.12 235.76C297.12 235.76 291.08 233.52 291.08 226.64C291.08 221.56 294.8 218 299.56 214.88C303.36 212.36 308.4 209.88 310.84 208.48C312.36 207.6 313.48 206.92 314.52 206.08L317.32 210.68ZM297.2 202.12C299.12 207.44 301.64 212.24 303.52 215.6L298.96 218.24C296.76 214.6 294.36 209.36 292.16 204.2L297.2 202.12ZM361.44 204.525L366.57 205.56C365.445 209.34 364.23 213.57 363.105 216.27L358.965 215.235C359.955 212.355 360.99 207.81 361.44 204.525ZM344.295 205.83L348.615 204.885C349.605 208.215 350.46 212.49 350.685 215.325L346.095 216.36C346.005 213.525 345.195 209.16 344.295 205.83ZM343.845 198.045H366.795V203.04H343.845V198.045ZM342.315 217.53H367.605V222.66H342.315V217.53ZM352.26 199.8H357.57V238.005H352.26V199.8ZM327.51 209.61H341.415V213.66H327.51V209.61ZM327.645 197.19H341.325V201.285H327.645V197.19ZM327.51 215.73H341.415V219.825H327.51V215.73ZM325.305 203.265H343.035V207.54H325.305V203.265ZM329.985 221.985H341.37V235.665H329.985V231.39H336.735V226.26H329.985V221.985ZM327.375 221.985H331.92V237.465H327.375V221.985ZM405.36 196.695H410.715V231.525C410.715 234.675 410.085 236.16 408.24 237.06C406.35 237.915 403.38 238.095 399.24 238.095C398.97 236.565 398.115 234.045 397.35 232.515C400.32 232.65 403.2 232.65 404.145 232.605C405 232.605 405.36 232.335 405.36 231.48V196.695ZM371.34 209.79H392.715V214.785H371.34V209.79ZM370.305 219.555H393.48V224.64H370.305V219.555ZM371.07 199.53L375.48 198.18C376.875 201.06 378.135 204.795 378.63 207.27L373.95 208.8C373.59 206.325 372.33 202.41 371.07 199.53ZM379.395 195.795H384.66V238.05H379.395V195.795ZM394.74 201.285H400.005V226.755H394.74V201.285ZM388.62 197.865L393.885 199.08C392.49 202.545 390.915 206.235 389.565 208.71L385.335 207.45C386.55 204.885 387.9 200.79 388.62 197.865ZM434.43 198.81C434.16 199.98 433.89 201.42 433.665 202.545C433.215 204.57 432.675 207.36 432.18 209.655C430.695 216 427.095 228.825 422.37 236.43L416.475 234.09C421.83 226.89 425.205 215.01 426.465 209.34C427.32 205.29 427.815 201.465 427.77 198.09L434.43 198.81ZM449.955 203.31C452.7 207.225 456.48 215.595 457.875 219.87L452.16 222.525C450.99 217.53 447.795 209.61 444.555 205.605L449.955 203.31ZM416.205 208.035C417.825 208.125 419.355 208.08 421.02 208.035C424.62 207.945 433.17 206.955 436.5 206.955C441.27 206.955 444.645 209.07 444.645 215.595C444.645 220.905 443.97 228.195 442.08 232.065C440.595 235.215 438.075 236.205 434.7 236.205C432.945 236.205 430.83 235.935 429.3 235.575L428.31 229.635C430.065 230.13 432.63 230.58 433.8 230.58C435.33 230.58 436.5 230.13 437.175 228.645C438.435 226.125 439.02 220.635 439.02 216.225C439.02 212.625 437.49 212.085 434.655 212.085C432 212.085 424.215 213.075 421.74 213.39C420.435 213.57 418.095 213.885 416.745 214.11L416.205 208.035ZM449.145 197.1C450.27 198.72 451.845 201.6 452.7 203.265L449.1 204.795C448.155 202.95 446.76 200.295 445.545 198.54L449.145 197.1ZM454.455 195.03C455.625 196.74 457.29 199.62 458.1 201.195L454.5 202.725C453.6 200.835 452.115 198.225 450.9 196.515L454.455 195.03ZM469.8 208.035H493.74V212.31H469.8V208.035ZM478.35 195.66H484.02V202.41H478.35V195.66ZM461.925 232.38C467.19 231.75 475.155 230.535 482.535 229.365L482.895 234.405C476.01 235.575 468.585 236.745 463.185 237.6L461.925 232.38ZM482.49 218.16C485.415 226.35 491.805 231.48 502.65 233.235C501.48 234.405 499.995 236.7 499.23 238.14C487.44 235.71 481.185 229.635 477.45 219.33L482.49 218.16ZM496.395 218.925L500.625 222.21C497.025 225 492.255 227.97 488.655 229.77L485.055 226.71C488.61 224.865 493.425 221.58 496.395 218.925ZM469.575 199.98H497.115V220.59H469.575V215.865H491.58V204.66H469.575V199.98ZM466.695 199.98H472.23V233.19L466.695 233.64V199.98ZM515.655 201.87C515.34 203.445 515.115 206.1 515.115 207.36C515.115 210.285 515.115 213.615 515.385 216.9C516.015 223.38 517.365 227.835 520.2 227.835C522.36 227.835 524.115 222.525 524.97 218.97L529.515 224.415C526.5 232.29 523.71 234.99 520.11 234.99C515.115 234.99 510.84 230.58 509.58 218.52C509.13 214.38 509.085 209.07 509.085 206.325C509.085 205.11 509.04 203.175 508.725 201.78L515.655 201.87ZM538.155 202.86C542.43 208.035 545.895 219.285 546.39 226.17L540.45 228.51C539.775 221.22 537.345 210.33 532.44 204.75L538.155 202.86ZM16.88 263.81H56.12V269.345H16.88V263.81ZM38.615 278.885L42.8 275.375C47.615 278.885 54.545 284.06 57.83 287.66L53.24 291.8C50.27 288.245 43.61 282.71 38.615 278.885ZM36.815 265.835L42.845 267.95C37.715 277.445 29.525 286.625 19.175 292.025C18.32 290.585 16.61 288.335 15.485 287.12C25.115 282.575 33.08 273.845 36.815 265.835ZM33.53 276.725L39.47 270.83V302.96H33.53V276.725ZM61.61 289.91H82.625V293.735H61.61V289.91ZM60.575 268.49H83.075V272.405H60.575V268.49ZM69.53 265.295H74.39V297.56H69.53V265.295ZM60.35 297.065C65.93 296.66 74.525 296.03 82.625 295.31L82.67 299.405C75.02 300.215 66.83 301.025 60.98 301.565L60.35 297.065ZM66.065 282.71V284.78H77.945V282.71H66.065ZM66.065 277.535V279.56H77.945V277.535H66.065ZM61.745 274.16H82.4V288.155H61.745V274.16ZM80.195 261.02L82.58 265.07C76.82 266.24 68.63 266.915 61.88 267.05C61.7 265.97 61.205 264.26 60.71 263.225C67.415 262.91 75.245 262.1 80.195 261.02ZM83.075 270.965H98.645V275.915H83.075V270.965ZM96.485 270.965H101.66C101.66 270.965 101.615 272.72 101.615 273.35C101.21 291.89 100.85 298.46 99.365 300.485C98.375 302.015 97.34 302.51 95.855 302.78C94.46 303.05 92.345 303.05 90.23 302.96C90.095 301.475 89.51 299.27 88.655 297.83C90.59 298.01 92.3 298.01 93.2 298.01C93.875 298.01 94.325 297.875 94.73 297.245C95.765 295.895 96.125 289.55 96.485 272.135V270.965ZM87.395 261.56H92.57C92.525 280.775 92.48 295.22 82.085 303.41C81.32 302.105 79.565 300.26 78.35 299.36C87.845 292.115 87.35 279.515 87.395 261.56ZM119.39 282.08H144.23V286.22H119.39V282.08ZM118.445 289.64H142.925V293.735H118.445V289.64ZM114.935 297.695H146.615V302.195H114.935V297.695ZM127.895 278.75H133.205V300.485H127.895V278.75ZM119.57 278.525L124.385 279.65C122.99 283.61 120.56 287.48 118.175 289.955C117.185 289.19 115.115 287.93 113.9 287.39C116.375 285.23 118.49 281.855 119.57 278.525ZM111.92 273.44H146.975V278.075H111.92V273.44ZM108.59 264.08H144.68V268.67H108.59V264.08ZM123.89 260.75H129.29V266.78H123.89V260.75ZM108.95 273.44H114.125V280.775C114.125 287.12 113.315 296.75 109.04 302.96C108.23 301.97 105.98 300.125 104.9 299.495C108.59 294.005 108.95 286.13 108.95 280.73V273.44ZM115.475 268.94L120.335 267.635C121.325 269.345 122.27 271.595 122.585 273.125L117.365 274.52C117.14 273.035 116.33 270.695 115.475 268.94ZM133.025 267.185L139.19 268.49C137.84 270.785 136.49 273.035 135.5 274.52L131.045 273.215C131.765 271.46 132.62 268.985 133.025 267.185ZM153.14 296.435C161.195 296.21 173.705 295.76 185.045 295.265L184.865 300.215C173.84 300.845 161.96 301.385 153.86 301.7L153.14 296.435ZM152.915 283.025H190.355V288.065H152.915V283.025ZM160.925 274.385H182.03V279.335H160.925V274.385ZM163.94 286.31L170.105 288.02C167.99 292.25 165.56 296.93 163.535 299.945L158.81 298.37C160.655 295.085 162.815 290.09 163.94 286.31ZM175.1 290.945L179.87 288.47C183.92 291.935 188.105 296.66 190.175 300.08L185.18 303.095C183.29 299.675 178.97 294.545 175.1 290.945ZM171.455 266.06C167.81 271.19 160.79 276.95 153.32 280.505C152.69 279.2 151.25 277.175 150.125 276.005C157.82 272.63 165.02 266.195 168.35 260.885H174.065C178.835 267.5 185.99 272.63 193.145 275.195C191.84 276.545 190.625 278.48 189.635 280.1C182.885 276.95 175.28 271.28 171.455 266.06ZM212.405 296.48H238.055V301.79H212.405V296.48ZM214.25 274.745H236.975V279.92H214.25V274.745ZM222.845 261.245H228.38V299.045H222.845V261.245ZM196.25 269.12H211.01V274.025H196.25V269.12ZM202.685 284.51L208.04 278.12V303.095H202.685V284.51ZM202.685 260.84H208.04V271.415H202.685V260.84ZM207.5 279.65C209.075 280.73 214.16 285.23 215.375 286.355L212.09 290.72C210.335 288.38 206.555 284.24 204.53 282.26L207.5 279.65ZM209.03 269.12H210.11L211.055 268.94L214.07 270.92C210.65 279.695 203.855 287.57 197.15 291.8C196.655 290.36 195.395 287.705 194.585 286.67C200.705 283.34 206.645 276.725 209.03 270.11V269.12ZM259.115 267.545C264.65 268.31 273.65 268.085 278.465 267.5V273.305C272.975 273.845 264.785 273.845 259.16 273.305L259.115 267.545ZM262.715 286.76C262.355 288.29 262.175 289.37 262.175 290.54C262.175 292.565 263.93 293.78 268.52 293.78C272.525 293.78 275.855 293.42 279.77 292.565L279.905 298.64C276.98 299.225 273.335 299.54 268.25 299.54C260.51 299.54 256.775 296.75 256.775 292.16C256.775 290.36 257.045 288.605 257.585 286.31L262.715 286.76ZM252.185 264.53C251.87 265.475 251.285 267.77 251.105 268.58C250.475 271.55 248.9 280.55 248.9 285.05C248.9 285.95 248.945 287.075 249.08 287.975C249.755 286.445 250.475 284.915 251.15 283.385L253.94 285.59C252.635 289.37 251.15 294.23 250.7 296.615C250.565 297.29 250.43 298.28 250.43 298.73C250.475 299.225 250.475 299.99 250.52 300.62L245.345 300.935C244.445 297.875 243.59 292.385 243.59 286.265C243.59 279.47 244.94 271.91 245.435 268.4C245.615 267.185 245.84 265.475 245.885 264.035L252.185 264.53ZM304.655 264.845L308.21 260.705C311.855 262.415 316.625 265.25 318.92 267.455L315.05 272.09C312.98 269.84 308.345 266.78 304.655 264.845ZM301.685 283.115H325.04V288.29H301.685V283.115ZM298.445 296.48H327.65V301.61H298.445V296.48ZM300.065 270.605H326.705V275.735H300.065V270.605ZM310.325 272.315H315.95V298.775H310.325V272.315ZM288.23 264.98L291.155 261.02C294.035 262.055 297.86 263.99 299.75 265.61L296.6 270.02C294.845 268.4 291.155 266.24 288.23 264.98ZM285.215 277.22L288.005 273.125C290.93 274.115 294.845 275.96 296.78 277.445L293.81 281.945C292.01 280.415 288.185 278.39 285.215 277.22ZM287.15 298.865C289.535 295.49 293 289.865 295.7 284.69L299.66 288.245C297.275 293.015 294.395 298.145 291.695 302.51L287.15 298.865ZM339.215 273.665H363.65V278.75H339.215V273.665ZM339.215 284.105H363.65V289.19H339.215V284.105ZM339.215 294.5H363.65V299.765H339.215V294.5ZM335.3 263.225H367.385V302.555H361.67V268.535H340.745V302.555H335.3V263.225ZM394.16 287.435L392.99 272.045L392.765 265.34H400.19L399.965 272.045L398.795 287.435H394.16ZM396.5 299.45C394.16 299.45 392.495 297.785 392.495 295.445C392.495 293.105 394.205 291.485 396.5 291.485C398.75 291.485 400.46 293.105 400.46 295.445C400.46 297.785 398.75 299.45 396.5 299.45Z" fill="#333333"/>
</svg>
