<svg width="716" height="162" viewBox="0 0 716 162" fill="none" xmlns="http://www.w3.org/2000/svg">
<path d="M283.645 41.5591H78V78.1182H283.645V41.5591Z" fill="white"/>
<path d="M283.86 83.1182H78.2148V119.677H283.86V83.1182Z" fill="white"/>
<path d="M283.86 124.677H78.2148V161.236H283.86V124.677Z" fill="white"/>
<path d="M279.989 0H81.6559C79.6368 0 78 1.63681 78 3.65591V32.9032C78 34.9223 79.6368 36.5591 81.6559 36.5591H279.989C282.008 36.5591 283.645 34.9223 283.645 32.9032V3.65591C283.645 1.63681 282.008 0 279.989 0Z" fill="#5B9E4D"/>
<path d="M499.645 42H294V78.5591H499.645V42Z" fill="white"/>
<path d="M499.645 83H294V119.559H499.645V83Z" fill="white"/>
<path d="M499.72 124.677H294.075V161.236H499.72V124.677Z" fill="white"/>
<path d="M495.849 0H297.516C295.497 0 293.86 1.63681 293.86 3.65591V32.9032C293.86 34.9223 295.497 36.5591 297.516 36.5591H495.849C497.868 36.5591 499.505 34.9223 499.505 32.9032V3.65591C499.505 1.63681 497.868 0 495.849 0Z" fill="#5B9E4D"/>
<path d="M715.365 41.5591H509.72V78.1182H715.365V41.5591Z" fill="white"/>
<path d="M715.58 83.1182H509.935V119.677H715.58V83.1182Z" fill="white"/>
<path d="M715.58 124.677H509.935V161.236H715.58V124.677Z" fill="white"/>
<path d="M711.709 0H513.376C511.357 0 509.72 1.63681 509.72 3.65591V32.9032C509.72 34.9223 511.357 36.5591 513.376 36.5591H711.709C713.728 36.5591 715.365 34.9223 715.365 32.9032V3.65591C715.365 1.63681 713.728 0 711.709 0Z" fill="#5B9E4D"/>
<path d="M368.977 55.8182V66H367.744V57.1108H367.685L365.199 58.7614V57.5085L367.744 55.8182H368.977ZM373.074 64.608L372.994 65.1449C372.938 65.5227 372.852 65.9271 372.736 66.358C372.623 66.7888 372.505 67.1948 372.383 67.576C372.26 67.9571 372.159 68.2604 372.08 68.4858H371.185C371.228 68.2737 371.284 67.9936 371.354 67.6456C371.423 67.2976 371.493 66.9081 371.562 66.4773C371.635 66.0497 371.695 65.6122 371.741 65.1648L371.801 64.608H373.074ZM374.989 63.9119V62.8977L379.464 55.8182H380.199V57.3892H379.702L376.322 62.7386V62.8182H382.347V63.9119H374.989ZM379.782 66V63.6037V63.1314V55.8182H380.955V66H379.782ZM387.531 66.1392C386.782 66.1392 386.144 65.9354 385.617 65.5277C385.09 65.1167 384.688 64.5218 384.409 63.7429C384.131 62.9607 383.991 62.0161 383.991 60.9091C383.991 59.8087 384.131 58.8691 384.409 58.0902C384.691 57.308 385.095 56.7114 385.622 56.3004C386.152 55.8861 386.789 55.679 387.531 55.679C388.274 55.679 388.908 55.8861 389.435 56.3004C389.966 56.7114 390.37 57.308 390.648 58.0902C390.93 58.8691 391.071 59.8087 391.071 60.9091C391.071 62.0161 390.932 62.9607 390.653 63.7429C390.375 64.5218 389.972 65.1167 389.445 65.5277C388.918 65.9354 388.28 66.1392 387.531 66.1392ZM387.531 65.0455C388.274 65.0455 388.85 64.6875 389.261 63.9716C389.672 63.2557 389.878 62.2348 389.878 60.9091C389.878 60.0275 389.783 59.2768 389.594 58.657C389.409 58.0372 389.14 57.5649 388.789 57.2401C388.441 56.9152 388.022 56.7528 387.531 56.7528C386.795 56.7528 386.22 57.1158 385.806 57.8416C385.392 58.5642 385.185 59.5866 385.185 60.9091C385.185 61.7907 385.277 62.5398 385.463 63.1562C385.649 63.7727 385.915 64.2417 386.263 64.5632C386.615 64.8847 387.037 65.0455 387.531 65.0455ZM396.281 66.1392C395.532 66.1392 394.894 65.9354 394.367 65.5277C393.84 65.1167 393.438 64.5218 393.159 63.7429C392.881 62.9607 392.741 62.0161 392.741 60.9091C392.741 59.8087 392.881 58.8691 393.159 58.0902C393.441 57.308 393.845 56.7114 394.372 56.3004C394.902 55.8861 395.539 55.679 396.281 55.679C397.024 55.679 397.658 55.8861 398.185 56.3004C398.716 56.7114 399.12 57.308 399.398 58.0902C399.68 58.8691 399.821 59.8087 399.821 60.9091C399.821 62.0161 399.682 62.9607 399.403 63.7429C399.125 64.5218 398.722 65.1167 398.195 65.5277C397.668 65.9354 397.03 66.1392 396.281 66.1392ZM396.281 65.0455C397.024 65.0455 397.6 64.6875 398.011 63.9716C398.422 63.2557 398.628 62.2348 398.628 60.9091C398.628 60.0275 398.533 59.2768 398.344 58.657C398.159 58.0372 397.89 57.5649 397.539 57.2401C397.191 56.9152 396.772 56.7528 396.281 56.7528C395.545 56.7528 394.97 57.1158 394.556 57.8416C394.142 58.5642 393.935 59.5866 393.935 60.9091C393.935 61.7907 394.027 62.5398 394.213 63.1562C394.399 63.7727 394.665 64.2417 395.013 64.5632C395.365 64.8847 395.787 65.0455 396.281 65.0455ZM401.524 55.304H413.788V56.326H401.524V55.304ZM405.892 59.196H411.786V60.218H405.892V59.196ZM411.422 59.196H412.514C412.514 59.196 412.5 59.56 412.486 59.714C412.248 64.236 412.01 65.93 411.464 66.518C411.142 66.882 410.792 66.98 410.246 67.022C409.728 67.064 408.734 67.036 407.782 66.98C407.754 66.672 407.614 66.238 407.404 65.944C408.454 66.056 409.476 66.056 409.854 66.056C410.176 66.056 410.358 66.028 410.512 65.874C410.974 65.468 411.212 63.718 411.422 59.378V59.196ZM405.318 56.13H406.396C406.284 60.106 406.032 64.852 401.888 67.148C401.72 66.882 401.398 66.546 401.118 66.336C405.094 64.236 405.22 59.77 405.318 56.13ZM415.916 55.192H426.892V56.242H416.966V67.134H415.916V55.192ZM426.416 55.192H427.48V65.734C427.48 66.406 427.312 66.742 426.836 66.924C426.374 67.092 425.576 67.12 424.316 67.12C424.26 66.826 424.078 66.35 423.91 66.056C424.876 66.098 425.786 66.084 426.066 66.07C426.332 66.07 426.416 65.986 426.416 65.734V55.192ZM416.49 60.372H426.906V61.408H416.49V60.372ZM421.082 55.724H422.132V60.876H421.082V55.724Z" fill="black"/>
<path d="M607.414 141.938C607.848 141.98 608.576 142.022 609.374 142.022C610.396 142.022 616.01 142.022 617.046 142.022C617.746 142.022 618.236 141.966 618.558 141.938V143.31C618.264 143.296 617.676 143.254 617.06 143.254C615.996 143.254 610.41 143.254 609.374 143.254C608.604 143.254 607.862 143.282 607.414 143.31V141.938Z" fill="black"/>
<path d="M373.44 149.139C373.022 149.133 372.604 149.053 372.187 148.901C371.769 148.748 371.388 148.491 371.043 148.13C370.699 147.765 370.422 147.273 370.213 146.653C370.004 146.03 369.9 145.248 369.9 144.307C369.9 143.405 369.984 142.607 370.153 141.911C370.322 141.211 370.568 140.623 370.889 140.146C371.211 139.665 371.598 139.3 372.052 139.052C372.51 138.803 373.025 138.679 373.599 138.679C374.169 138.679 374.676 138.793 375.12 139.022C375.567 139.247 375.932 139.562 376.214 139.967C376.495 140.371 376.678 140.837 376.761 141.364H375.547C375.435 140.906 375.216 140.527 374.891 140.225C374.566 139.924 374.136 139.773 373.599 139.773C372.81 139.773 372.188 140.116 371.734 140.802C371.284 141.488 371.056 142.451 371.053 143.69H371.133C371.318 143.409 371.539 143.168 371.794 142.969C372.052 142.767 372.338 142.612 372.649 142.502C372.961 142.393 373.29 142.338 373.638 142.338C374.222 142.338 374.755 142.484 375.239 142.776C375.723 143.064 376.111 143.463 376.403 143.974C376.694 144.481 376.84 145.062 376.84 145.719C376.84 146.348 376.699 146.925 376.418 147.449C376.136 147.969 375.74 148.384 375.229 148.692C374.722 148.997 374.126 149.146 373.44 149.139ZM373.44 148.045C373.857 148.045 374.232 147.941 374.563 147.732C374.898 147.523 375.161 147.243 375.354 146.892C375.549 146.541 375.647 146.15 375.647 145.719C375.647 145.298 375.552 144.915 375.364 144.57C375.178 144.222 374.921 143.946 374.593 143.74C374.268 143.535 373.897 143.432 373.479 143.432C373.164 143.432 372.871 143.495 372.599 143.621C372.328 143.743 372.089 143.912 371.883 144.128C371.681 144.343 371.522 144.59 371.406 144.869C371.29 145.144 371.232 145.434 371.232 145.739C371.232 146.143 371.327 146.521 371.516 146.872C371.708 147.223 371.97 147.507 372.301 147.722C372.636 147.938 373.015 148.045 373.44 148.045ZM382.176 149.139C381.758 149.133 381.341 149.053 380.923 148.901C380.505 148.748 380.124 148.491 379.78 148.13C379.435 147.765 379.158 147.273 378.949 146.653C378.741 146.03 378.636 145.248 378.636 144.307C378.636 143.405 378.721 142.607 378.89 141.911C379.059 141.211 379.304 140.623 379.625 140.146C379.947 139.665 380.335 139.3 380.789 139.052C381.246 138.803 381.762 138.679 382.335 138.679C382.905 138.679 383.412 138.793 383.856 139.022C384.304 139.247 384.668 139.562 384.95 139.967C385.232 140.371 385.414 140.837 385.497 141.364H384.284C384.171 140.906 383.952 140.527 383.628 140.225C383.303 139.924 382.872 139.773 382.335 139.773C381.546 139.773 380.925 140.116 380.471 140.802C380.02 141.488 379.793 142.451 379.79 143.69H379.869C380.055 143.409 380.275 143.168 380.53 142.969C380.789 142.767 381.074 142.612 381.385 142.502C381.697 142.393 382.027 142.338 382.375 142.338C382.958 142.338 383.492 142.484 383.976 142.776C384.459 143.064 384.847 143.463 385.139 143.974C385.431 144.481 385.576 145.062 385.576 145.719C385.576 146.348 385.436 146.925 385.154 147.449C384.872 147.969 384.476 148.384 383.966 148.692C383.459 148.997 382.862 149.146 382.176 149.139ZM382.176 148.045C382.593 148.045 382.968 147.941 383.299 147.732C383.634 147.523 383.898 147.243 384.09 146.892C384.285 146.541 384.383 146.15 384.383 145.719C384.383 145.298 384.289 144.915 384.1 144.57C383.914 144.222 383.657 143.946 383.329 143.74C383.004 143.535 382.633 143.432 382.216 143.432C381.901 143.432 381.607 143.495 381.336 143.621C381.064 143.743 380.825 143.912 380.62 144.128C380.418 144.343 380.258 144.59 380.142 144.869C380.026 145.144 379.968 145.434 379.968 145.739C379.968 146.143 380.063 146.521 380.252 146.872C380.444 147.223 380.706 147.507 381.037 147.722C381.372 147.938 381.752 148.045 382.176 148.045ZM390.713 149.139C390.13 149.139 389.605 149.023 389.137 148.791C388.67 148.559 388.295 148.241 388.014 147.837C387.732 147.432 387.578 146.972 387.551 146.455H388.745C388.791 146.915 389 147.296 389.371 147.598C389.746 147.896 390.193 148.045 390.713 148.045C391.131 148.045 391.502 147.948 391.827 147.752C392.155 147.557 392.412 147.288 392.598 146.947C392.786 146.602 392.881 146.213 392.881 145.778C392.881 145.334 392.783 144.938 392.588 144.59C392.395 144.239 392.13 143.962 391.792 143.76C391.454 143.558 391.068 143.455 390.634 143.452C390.322 143.448 390.002 143.496 389.674 143.596C389.346 143.692 389.076 143.816 388.864 143.969L387.71 143.83L388.327 138.818H393.617V139.912H389.361L389.003 142.915H389.063C389.272 142.749 389.533 142.612 389.848 142.502C390.163 142.393 390.491 142.338 390.833 142.338C391.456 142.338 392.011 142.487 392.498 142.786C392.989 143.08 393.373 143.485 393.652 143.999C393.933 144.512 394.074 145.099 394.074 145.759C394.074 146.408 393.928 146.988 393.637 147.499C393.348 148.006 392.951 148.407 392.443 148.702C391.936 148.993 391.36 149.139 390.713 149.139ZM395.863 138.304H408.127V139.326H395.863V138.304ZM400.231 142.196H406.125V143.218H400.231V142.196ZM405.761 142.196H406.853C406.853 142.196 406.839 142.56 406.825 142.714C406.587 147.236 406.349 148.93 405.803 149.518C405.481 149.882 405.131 149.98 404.585 150.022C404.067 150.064 403.073 150.036 402.121 149.98C402.093 149.672 401.953 149.238 401.743 148.944C402.793 149.056 403.815 149.056 404.193 149.056C404.515 149.056 404.697 149.028 404.851 148.874C405.313 148.468 405.551 146.718 405.761 142.378V142.196ZM399.657 139.13H400.735C400.623 143.106 400.371 147.852 396.227 150.148C396.059 149.882 395.737 149.546 395.457 149.336C399.433 147.236 399.559 142.77 399.657 139.13ZM410.255 138.192H421.231V139.242H411.305V150.134H410.255V138.192ZM420.755 138.192H421.819V148.734C421.819 149.406 421.651 149.742 421.175 149.924C420.713 150.092 419.915 150.12 418.655 150.12C418.599 149.826 418.417 149.35 418.249 149.056C419.215 149.098 420.125 149.084 420.405 149.07C420.671 149.07 420.755 148.986 420.755 148.734V138.192ZM410.829 143.372H421.245V144.408H410.829V143.372ZM415.421 138.724H416.471V143.876H415.421V138.724Z" fill="black"/>
<path d="M355.812 13.22H368.202V14.76H355.812V13.22ZM357.156 15.67H366.928V17.126H357.156V15.67ZM355.994 17.826H368.02V20.836H366.326V19.338H357.618V20.836H355.994V17.826ZM361.062 12.128H362.812V16.482H361.062V12.128ZM362.742 19.772H364.422V23.076C364.422 23.2907 364.455 23.4307 364.52 23.496C364.595 23.552 364.758 23.58 365.01 23.58C365.066 23.58 365.155 23.58 365.276 23.58C365.407 23.58 365.547 23.58 365.696 23.58C365.855 23.58 365.999 23.58 366.13 23.58C366.261 23.58 366.359 23.58 366.424 23.58C366.583 23.58 366.699 23.5427 366.774 23.468C366.858 23.384 366.914 23.2253 366.942 22.992C366.979 22.7493 367.007 22.39 367.026 21.914C367.138 21.998 367.283 22.082 367.46 22.166C367.647 22.25 367.833 22.3247 368.02 22.39C368.216 22.446 368.389 22.4973 368.538 22.544C368.482 23.216 368.384 23.734 368.244 24.098C368.104 24.4713 367.903 24.728 367.642 24.868C367.381 25.0173 367.026 25.092 366.578 25.092C366.494 25.092 366.368 25.092 366.2 25.092C366.041 25.092 365.864 25.092 365.668 25.092C365.481 25.092 365.304 25.092 365.136 25.092C364.977 25.092 364.856 25.092 364.772 25.092C364.231 25.092 363.811 25.0313 363.512 24.91C363.223 24.7887 363.022 24.5787 362.91 24.28C362.798 23.9907 362.742 23.594 362.742 23.09V19.772ZM359.284 19.772H361.02C360.973 20.472 360.88 21.1113 360.74 21.69C360.6 22.2687 360.367 22.7867 360.04 23.244C359.723 23.7013 359.265 24.098 358.668 24.434C358.08 24.7793 357.305 25.0687 356.344 25.302C356.297 25.1527 356.223 24.9893 356.12 24.812C356.017 24.6347 355.901 24.4573 355.77 24.28C355.649 24.112 355.532 23.9673 355.42 23.846C356.26 23.6873 356.927 23.4867 357.422 23.244C357.917 23.0013 358.29 22.712 358.542 22.376C358.794 22.04 358.967 21.6573 359.06 21.228C359.163 20.7987 359.237 20.3133 359.284 19.772ZM380.368 12.94H382.006V21.186C382.006 21.5687 381.964 21.8907 381.88 22.152C381.805 22.404 381.647 22.6 381.404 22.74C381.18 22.8893 380.909 22.9827 380.592 23.02C380.275 23.0573 379.906 23.076 379.486 23.076C379.467 22.9173 379.43 22.7307 379.374 22.516C379.318 22.3013 379.253 22.0913 379.178 21.886C379.103 21.6807 379.029 21.5033 378.954 21.354C379.197 21.3633 379.435 21.368 379.668 21.368C379.911 21.368 380.074 21.368 380.158 21.368C380.233 21.368 380.284 21.354 380.312 21.326C380.349 21.2887 380.368 21.228 380.368 21.144V12.94ZM376.896 12.94H381.152V14.522H378.534V25.26H376.896V12.94ZM369.882 14.088H376.028V15.614H369.882V14.088ZM369.42 17.392H376.462V18.946H369.42V17.392ZM372.178 12.1H373.816V18.218H372.178V12.1ZM369.42 22.334C369.905 22.2873 370.461 22.2313 371.086 22.166C371.711 22.1007 372.369 22.0307 373.06 21.956C373.76 21.8813 374.455 21.8067 375.146 21.732L375.216 23.216C374.236 23.356 373.256 23.4913 372.276 23.622C371.305 23.7433 370.433 23.8553 369.658 23.958L369.42 22.334ZM373.522 20.332L374.88 19.786C375.132 20.1967 375.379 20.6447 375.622 21.13C375.874 21.606 376.098 22.0727 376.294 22.53C376.49 22.978 376.635 23.384 376.728 23.748L375.244 24.364C375.169 24.0187 375.039 23.6173 374.852 23.16C374.665 22.6933 374.455 22.2127 374.222 21.718C373.998 21.2233 373.765 20.7613 373.522 20.332ZM371.478 18.344L373.256 18.82C373.088 19.3053 372.906 19.8047 372.71 20.318C372.514 20.8313 372.323 21.3213 372.136 21.788C371.949 22.2547 371.767 22.6653 371.59 23.02L370.218 22.586C370.377 22.2033 370.535 21.7693 370.694 21.284C370.853 20.7893 371.002 20.2853 371.142 19.772C371.282 19.2587 371.394 18.7827 371.478 18.344ZM387.424 13.472H396.37V14.984H387.424V13.472ZM387.564 16.734H396.3V24.868H394.676V18.204H389.104V24.952H387.564V16.734ZM389.832 13.668H391.414V17.826H389.832V13.668ZM392.338 13.654H393.92V17.812H392.338V13.654ZM388.264 22.712H395.866V24.154H388.264V22.712ZM389.986 17.812H391.4V23.832H389.986V17.812ZM392.338 17.798H393.752V23.818H392.338V17.798ZM386.22 12.142L387.732 12.618C387.452 13.3833 387.116 14.1533 386.724 14.928C386.332 15.7027 385.907 16.4353 385.45 17.126C384.993 17.8073 384.521 18.4093 384.036 18.932C383.98 18.8013 383.901 18.6287 383.798 18.414C383.705 18.1993 383.597 17.9847 383.476 17.77C383.364 17.546 383.261 17.3687 383.168 17.238C383.579 16.8273 383.971 16.3513 384.344 15.81C384.727 15.2593 385.077 14.6713 385.394 14.046C385.711 13.4207 385.987 12.786 386.22 12.142ZM384.876 16.048L386.444 14.466L386.458 14.494V25.246H384.876V16.048ZM404.854 13.584H408.55V15.026H404.854V13.584ZM403.412 19.996H409.516V25.218H407.892V21.41H404.966V25.26H403.412V19.996ZM404.028 23.328H408.788V24.77H404.028V23.328ZM405.008 12.086L406.618 12.534C406.357 13.1687 406.049 13.7893 405.694 14.396C405.339 15.0027 404.952 15.5673 404.532 16.09C404.121 16.6127 403.697 17.07 403.258 17.462C403.174 17.3593 403.053 17.238 402.894 17.098C402.735 16.9487 402.572 16.804 402.404 16.664C402.245 16.524 402.101 16.412 401.97 16.328C402.614 15.8333 403.202 15.2127 403.734 14.466C404.275 13.71 404.7 12.9167 405.008 12.086ZM408.116 13.584H408.41L408.69 13.528L409.754 14.018C409.455 14.9047 409.068 15.7167 408.592 16.454C408.125 17.1913 407.584 17.8493 406.968 18.428C406.352 19.0067 405.68 19.5153 404.952 19.954C404.233 20.3927 403.477 20.7567 402.684 21.046C402.581 20.85 402.437 20.6167 402.25 20.346C402.073 20.0753 401.9 19.856 401.732 19.688C402.46 19.4733 403.155 19.1793 403.818 18.806C404.49 18.4233 405.106 17.9847 405.666 17.49C406.235 16.986 406.73 16.4307 407.15 15.824C407.57 15.208 407.892 14.5547 408.116 13.864V13.584ZM404.924 14.564C405.213 15.18 405.629 15.8053 406.17 16.44C406.711 17.0653 407.369 17.6347 408.144 18.148C408.928 18.6613 409.81 19.058 410.79 19.338C410.687 19.4407 410.566 19.576 410.426 19.744C410.295 19.912 410.169 20.0847 410.048 20.262C409.936 20.4393 409.843 20.5933 409.768 20.724C408.76 20.3693 407.855 19.898 407.052 19.31C406.259 18.7127 405.577 18.0547 405.008 17.336C404.448 16.6173 404 15.908 403.664 15.208L404.924 14.564ZM397.63 14.998H402.628V16.552H397.63V14.998ZM399.478 12.1H401.06V25.246H399.478V12.1ZM399.45 16.076L400.416 16.398C400.304 16.958 400.169 17.5413 400.01 18.148C399.861 18.7453 399.683 19.3333 399.478 19.912C399.273 20.4813 399.053 21.0133 398.82 21.508C398.587 22.0027 398.339 22.4273 398.078 22.782C398.003 22.558 397.887 22.3013 397.728 22.012C397.569 21.7227 397.425 21.4753 397.294 21.27C397.537 20.962 397.765 20.6027 397.98 20.192C398.195 19.7813 398.395 19.3473 398.582 18.89C398.778 18.4233 398.946 17.952 399.086 17.476C399.235 16.9907 399.357 16.524 399.45 16.076ZM401.004 16.832C401.088 16.9067 401.209 17.0373 401.368 17.224C401.536 17.4107 401.713 17.616 401.9 17.84C402.087 18.064 402.255 18.2693 402.404 18.456C402.563 18.6427 402.675 18.7733 402.74 18.848L401.83 20.122C401.746 19.9447 401.634 19.7393 401.494 19.506C401.363 19.2727 401.219 19.03 401.06 18.778C400.911 18.526 400.761 18.288 400.612 18.064C400.472 17.84 400.351 17.658 400.248 17.518L401.004 16.832ZM418.308 16.174H423.32V17.7H418.308V16.174ZM418.308 19.492H423.32V21.004H418.308V19.492ZM418.308 22.796H423.32V24.322H418.308V22.796ZM417.51 12.856H424.104V25.05H422.424V14.452H419.12V25.134H417.51V12.856ZM411.63 14.998H417.006V16.58H411.63V14.998ZM413.646 12.1H415.256V25.246H413.646V12.1ZM413.562 16.076L414.556 16.426C414.444 16.9953 414.304 17.5833 414.136 18.19C413.968 18.7873 413.777 19.3753 413.562 19.954C413.347 20.5233 413.114 21.06 412.862 21.564C412.61 22.0587 412.344 22.4833 412.064 22.838C411.989 22.6047 411.873 22.3387 411.714 22.04C411.555 21.732 411.406 21.4753 411.266 21.27C411.518 20.962 411.761 20.6027 411.994 20.192C412.227 19.7813 412.442 19.3473 412.638 18.89C412.843 18.4233 413.025 17.952 413.184 17.476C413.343 16.9907 413.469 16.524 413.562 16.076ZM415.144 17.308C415.247 17.4013 415.396 17.5647 415.592 17.798C415.788 18.022 415.993 18.2693 416.208 18.54C416.432 18.8107 416.637 19.0627 416.824 19.296C417.02 19.52 417.155 19.6787 417.23 19.772L416.264 21.13C416.161 20.9247 416.031 20.682 415.872 20.402C415.713 20.122 415.541 19.8373 415.354 19.548C415.167 19.2587 414.985 18.9833 414.808 18.722C414.64 18.4607 414.495 18.2413 414.374 18.064L415.144 17.308ZM429.718 17.756H438.594V19.17H429.718V17.756ZM431.244 19.828H436.998V21.158H431.244V19.828ZM431.776 18.274L433.218 18.638C432.873 19.4407 432.401 20.1827 431.804 20.864C431.216 21.536 430.591 22.0913 429.928 22.53C429.844 22.4367 429.732 22.3247 429.592 22.194C429.461 22.054 429.321 21.9233 429.172 21.802C429.032 21.6807 428.906 21.5827 428.794 21.508C429.447 21.1533 430.035 20.696 430.558 20.136C431.09 19.5667 431.496 18.946 431.776 18.274ZM436.746 19.828H438.3C438.3 19.828 438.295 19.9027 438.286 20.052C438.286 20.192 438.277 20.3133 438.258 20.416C438.202 21.3213 438.132 22.068 438.048 22.656C437.973 23.2347 437.889 23.6827 437.796 24C437.703 24.3267 437.591 24.56 437.46 24.7C437.329 24.8587 437.185 24.9707 437.026 25.036C436.877 25.1013 436.709 25.148 436.522 25.176C436.363 25.1947 436.158 25.2087 435.906 25.218C435.663 25.2273 435.397 25.2227 435.108 25.204C435.099 25.008 435.061 24.7793 434.996 24.518C434.931 24.266 434.842 24.056 434.73 23.888C434.954 23.9067 435.155 23.9207 435.332 23.93C435.509 23.93 435.645 23.93 435.738 23.93C435.831 23.93 435.906 23.9207 435.962 23.902C436.027 23.8833 436.088 23.8413 436.144 23.776C436.228 23.6827 436.303 23.5053 436.368 23.244C436.443 22.9733 436.508 22.5813 436.564 22.068C436.629 21.5547 436.69 20.8873 436.746 20.066V19.828ZM432.448 15.39V16.062H436.06V15.39H432.448ZM432.448 13.626V14.284H436.06V13.626H432.448ZM430.95 12.464H437.614V17.224H430.95V12.464ZM425.63 15.054H429.9V16.636H425.63V15.054ZM427.044 12.282H428.612V20.99H427.044V12.282ZM425.308 21.27C425.672 21.1393 426.092 20.976 426.568 20.78C427.053 20.584 427.567 20.374 428.108 20.15C428.649 19.9167 429.186 19.6833 429.718 19.45L430.082 20.892C429.382 21.256 428.668 21.62 427.94 21.984C427.212 22.348 426.545 22.6793 425.938 22.978L425.308 21.27ZM435.136 20.108L436.27 20.724C436.102 21.284 435.864 21.858 435.556 22.446C435.248 23.0247 434.903 23.566 434.52 24.07C434.137 24.574 433.736 24.9893 433.316 25.316C433.176 25.1573 432.994 24.9893 432.77 24.812C432.546 24.6347 432.327 24.49 432.112 24.378C432.569 24.0887 432.994 23.7153 433.386 23.258C433.778 22.8007 434.123 22.2967 434.422 21.746C434.73 21.1953 434.968 20.6493 435.136 20.108ZM433.022 20.122L434.114 20.766C433.881 21.2513 433.573 21.7413 433.19 22.236C432.817 22.7307 432.406 23.1927 431.958 23.622C431.51 24.0513 431.062 24.406 430.614 24.686C430.483 24.518 430.315 24.3407 430.11 24.154C429.914 23.9673 429.718 23.8133 429.522 23.692C429.979 23.4587 430.432 23.1507 430.88 22.768C431.337 22.3853 431.753 21.9653 432.126 21.508C432.499 21.0413 432.798 20.5793 433.022 20.122Z" fill="white"/>
<path d="M592.994 15.824H598.034V16.986H592.994V15.824ZM594.758 16.174H596.284V19.002H594.758V16.174ZM592.658 18.68C593.115 18.6147 593.633 18.5447 594.212 18.47C594.8 18.3953 595.421 18.3113 596.074 18.218C596.737 18.1247 597.39 18.0313 598.034 17.938L598.104 19.198C597.18 19.338 596.256 19.478 595.332 19.618C594.408 19.758 593.582 19.884 592.854 19.996L592.658 18.68ZM598.664 15.754H600.19V17.196C600.19 17.6067 600.129 18.0127 600.008 18.414C599.896 18.806 599.677 19.1793 599.35 19.534C599.023 19.8793 598.547 20.1733 597.922 20.416C597.857 20.3133 597.754 20.192 597.614 20.052C597.474 19.9027 597.329 19.7627 597.18 19.632C597.031 19.492 596.905 19.3847 596.802 19.31C597.353 19.114 597.759 18.904 598.02 18.68C598.291 18.4467 598.463 18.1993 598.538 17.938C598.622 17.6767 598.664 17.4153 598.664 17.154V15.754ZM602.234 15.754H603.816V18.232C603.816 18.344 603.816 18.4373 603.816 18.512C603.816 18.5867 603.825 18.6333 603.844 18.652C603.863 18.6893 603.909 18.708 603.984 18.708C604.012 18.708 604.045 18.708 604.082 18.708C604.129 18.708 604.166 18.708 604.194 18.708C604.231 18.708 604.264 18.708 604.292 18.708C604.32 18.6987 604.348 18.6893 604.376 18.68C604.413 18.652 604.446 18.5587 604.474 18.4C604.493 18.3253 604.502 18.204 604.502 18.036C604.511 17.8587 604.521 17.6533 604.53 17.42C604.651 17.532 604.819 17.644 605.034 17.756C605.249 17.8587 605.445 17.9427 605.622 18.008C605.603 18.2693 605.575 18.5307 605.538 18.792C605.51 19.044 605.477 19.2307 605.44 19.352C605.337 19.604 605.179 19.7813 604.964 19.884C604.871 19.94 604.754 19.982 604.614 20.01C604.474 20.0287 604.343 20.038 604.222 20.038C604.11 20.038 603.989 20.038 603.858 20.038C603.727 20.038 603.615 20.038 603.522 20.038C603.354 20.038 603.181 20.01 603.004 19.954C602.836 19.898 602.691 19.814 602.57 19.702C602.449 19.5807 602.36 19.4267 602.304 19.24C602.257 19.044 602.234 18.7267 602.234 18.288V15.754ZM592.644 20.668H605.384V21.984H592.644V20.668ZM598.174 19.828H599.812V25.204H598.174V19.828ZM597.698 21.438L598.958 21.984C598.641 22.32 598.272 22.642 597.852 22.95C597.432 23.2487 596.979 23.524 596.494 23.776C596.009 24.028 595.505 24.2473 594.982 24.434C594.459 24.63 593.937 24.7933 593.414 24.924C593.293 24.7187 593.129 24.4807 592.924 24.21C592.728 23.9393 592.546 23.72 592.378 23.552C592.882 23.468 593.391 23.356 593.904 23.216C594.427 23.076 594.921 22.9173 595.388 22.74C595.864 22.5533 596.298 22.3527 596.69 22.138C597.091 21.9233 597.427 21.69 597.698 21.438ZM600.232 21.522C600.531 21.7553 600.876 21.9747 601.268 22.18C601.669 22.376 602.108 22.558 602.584 22.726C603.069 22.894 603.569 23.0387 604.082 23.16C604.595 23.2813 605.113 23.3793 605.636 23.454C605.515 23.566 605.384 23.7107 605.244 23.888C605.104 24.056 604.973 24.2287 604.852 24.406C604.74 24.5833 604.642 24.742 604.558 24.882C604.045 24.77 603.527 24.6207 603.004 24.434C602.491 24.2567 601.991 24.0467 601.506 23.804C601.03 23.552 600.582 23.2767 600.162 22.978C599.742 22.6793 599.369 22.3573 599.042 22.012L600.232 21.522ZM594.38 13.094H598.804V14.41H594.38V13.094ZM600.05 13.094H605.482V14.41H600.05V13.094ZM594.45 11.988L596.004 12.422C595.733 13.0287 595.388 13.626 594.968 14.214C594.557 14.7927 594.147 15.278 593.736 15.67C593.643 15.5767 593.512 15.474 593.344 15.362C593.176 15.2407 593.003 15.1287 592.826 15.026C592.658 14.914 592.509 14.8207 592.378 14.746C592.807 14.41 593.204 13.9993 593.568 13.514C593.941 13.0193 594.235 12.5107 594.45 11.988ZM600.148 11.988L601.744 12.38C601.483 13.0147 601.142 13.626 600.722 14.214C600.311 14.7927 599.896 15.278 599.476 15.67C599.355 15.586 599.205 15.4927 599.028 15.39C598.851 15.2873 598.669 15.1893 598.482 15.096C598.295 14.9933 598.132 14.914 597.992 14.858C598.459 14.522 598.879 14.0973 599.252 13.584C599.635 13.0707 599.933 12.5387 600.148 11.988ZM594.912 14.158L596.186 13.808C596.354 14.032 596.513 14.284 596.662 14.564C596.821 14.844 596.942 15.0867 597.026 15.292L595.668 15.684C595.603 15.4787 595.5 15.2313 595.36 14.942C595.22 14.6527 595.071 14.3913 594.912 14.158ZM601.156 14.144L602.514 13.78C602.71 13.9947 602.906 14.242 603.102 14.522C603.307 14.802 603.457 15.0493 603.55 15.264L602.122 15.67C602.038 15.4647 601.903 15.2173 601.716 14.928C601.539 14.6387 601.352 14.3773 601.156 14.144ZM599.896 18.022L600.862 17.182C601.049 17.3033 601.245 17.448 601.45 17.616C601.665 17.7747 601.861 17.9333 602.038 18.092C602.215 18.2413 602.36 18.386 602.472 18.526L601.45 19.464C601.291 19.2493 601.063 19.0067 600.764 18.736C600.465 18.4653 600.176 18.2273 599.896 18.022ZM599.224 15.754H603.032V16.846H599.224V15.754ZM609.472 12.044L611.194 12.492C610.942 13.1827 610.643 13.8593 610.298 14.522C609.962 15.1847 609.593 15.8007 609.192 16.37C608.8 16.93 608.394 17.42 607.974 17.84C607.862 17.7467 607.717 17.63 607.54 17.49C607.363 17.3407 607.181 17.2007 606.994 17.07C606.817 16.9393 606.658 16.832 606.518 16.748C606.947 16.384 607.349 15.9547 607.722 15.46C608.095 14.956 608.431 14.4147 608.73 13.836C609.029 13.248 609.276 12.6507 609.472 12.044ZM609.78 13.64H618.684V15.264H608.968L609.78 13.64ZM608.786 16.958H618.348V18.526H610.466V21.466H608.786V16.958ZM606.56 20.64H619.44V22.25H606.56V20.64ZM612.902 14.48H614.638V25.26H612.902V14.48ZM620.406 19.408H627.49V20.766H620.406V19.408ZM620.574 14.466H627.448V15.796H620.574V14.466ZM622.94 18.414L624.494 18.736C624.261 19.2213 624.009 19.7207 623.738 20.234C623.477 20.7473 623.215 21.2467 622.954 21.732C622.693 22.208 622.45 22.6327 622.226 23.006L620.756 22.558C620.98 22.2033 621.218 21.788 621.47 21.312C621.731 20.836 621.988 20.346 622.24 19.842C622.501 19.3287 622.735 18.8527 622.94 18.414ZM624.914 20.346L626.468 20.486C626.337 21.2233 626.141 21.858 625.88 22.39C625.628 22.9127 625.287 23.3607 624.858 23.734C624.438 24.098 623.925 24.4013 623.318 24.644C622.711 24.896 621.988 25.106 621.148 25.274C621.101 25.0407 621.013 24.7933 620.882 24.532C620.751 24.2707 620.616 24.056 620.476 23.888C621.4 23.7667 622.161 23.5753 622.758 23.314C623.365 23.0527 623.841 22.684 624.186 22.208C624.531 21.732 624.774 21.1113 624.914 20.346ZM625.908 12.268L627.322 12.842C627.098 13.15 626.874 13.458 626.65 13.766C626.435 14.0647 626.239 14.3213 626.062 14.536L624.984 14.06C625.143 13.8173 625.311 13.528 625.488 13.192C625.665 12.8467 625.805 12.5387 625.908 12.268ZM623.248 12.086H624.788V18.61H623.248V12.086ZM620.924 12.842L622.128 12.338C622.315 12.5993 622.487 12.8933 622.646 13.22C622.805 13.5467 622.917 13.8313 622.982 14.074L621.694 14.634C621.647 14.3913 621.549 14.102 621.4 13.766C621.251 13.43 621.092 13.122 620.924 12.842ZM623.29 15.124L624.368 15.782C624.144 16.1553 623.85 16.5287 623.486 16.902C623.131 17.2753 622.749 17.6253 622.338 17.952C621.937 18.2693 621.54 18.54 621.148 18.764C621.055 18.5867 620.924 18.3767 620.756 18.134C620.597 17.8913 620.443 17.6953 620.294 17.546C620.667 17.3873 621.045 17.182 621.428 16.93C621.811 16.6687 622.165 16.384 622.492 16.076C622.828 15.7587 623.094 15.4413 623.29 15.124ZM624.648 15.53C624.779 15.5953 624.956 15.6933 625.18 15.824C625.413 15.9547 625.661 16.0993 625.922 16.258C626.193 16.4073 626.435 16.5473 626.65 16.678C626.874 16.8087 627.033 16.9067 627.126 16.972L626.244 18.134C626.113 18.0127 625.945 17.8633 625.74 17.686C625.535 17.5087 625.315 17.3267 625.082 17.14C624.849 16.9533 624.625 16.776 624.41 16.608C624.195 16.44 624.009 16.3047 623.85 16.202L624.648 15.53ZM628.414 14.634H633.566V16.188H628.414V14.634ZM628.568 12.086L630.276 12.338C630.127 13.2993 629.935 14.2327 629.702 15.138C629.469 16.034 629.184 16.8647 628.848 17.63C628.521 18.386 628.139 19.0533 627.7 19.632C627.616 19.52 627.495 19.3893 627.336 19.24C627.177 19.0907 627.009 18.946 626.832 18.806C626.655 18.6567 626.505 18.5353 626.384 18.442C626.776 17.9567 627.112 17.3827 627.392 16.72C627.681 16.048 627.924 15.32 628.12 14.536C628.316 13.7427 628.465 12.926 628.568 12.086ZM631.116 15.586L632.838 15.754C632.633 17.35 632.315 18.7547 631.886 19.968C631.466 21.1813 630.883 22.2267 630.136 23.104C629.389 23.9813 628.428 24.714 627.252 25.302C627.196 25.1713 627.112 25.008 627 24.812C626.888 24.616 626.767 24.42 626.636 24.224C626.505 24.0373 626.384 23.888 626.272 23.776C627.336 23.3093 628.195 22.7027 628.848 21.956C629.511 21.2093 630.019 20.3087 630.374 19.254C630.729 18.19 630.976 16.9673 631.116 15.586ZM629.366 15.88C629.562 17.056 629.837 18.162 630.192 19.198C630.547 20.234 631.013 21.144 631.592 21.928C632.171 22.712 632.885 23.328 633.734 23.776C633.613 23.8787 633.477 24.014 633.328 24.182C633.179 24.3593 633.034 24.5413 632.894 24.728C632.763 24.9147 632.656 25.0827 632.572 25.232C631.629 24.672 630.85 23.9487 630.234 23.062C629.627 22.1753 629.137 21.1487 628.764 19.982C628.391 18.806 628.087 17.5227 627.854 16.132L629.366 15.88ZM621.988 22.572L622.884 21.438C623.435 21.6433 623.981 21.8813 624.522 22.152C625.073 22.4227 625.581 22.7027 626.048 22.992C626.524 23.272 626.921 23.5427 627.238 23.804L626.062 24.994C625.773 24.7327 625.409 24.4573 624.97 24.168C624.531 23.8787 624.055 23.5987 623.542 23.328C623.029 23.048 622.511 22.796 621.988 22.572Z" fill="white"/>
<path d="M599.317 66V65.1051L602.677 61.4261C603.072 60.9953 603.397 60.6207 603.652 60.3026C603.907 59.9811 604.096 59.6795 604.219 59.3977C604.345 59.1127 604.408 58.8144 604.408 58.5028C604.408 58.1449 604.321 57.835 604.149 57.5732C603.98 57.3113 603.748 57.1091 603.453 56.9666C603.158 56.8241 602.827 56.7528 602.459 56.7528C602.068 56.7528 601.726 56.834 601.435 56.9964C601.146 57.1555 600.922 57.3793 600.763 57.6676C600.608 57.956 600.53 58.294 600.53 58.6818H599.356C599.356 58.0852 599.494 57.5616 599.769 57.1108C600.044 56.66 600.419 56.3087 600.893 56.0568C601.37 55.8049 601.905 55.679 602.498 55.679C603.095 55.679 603.624 55.8049 604.084 56.0568C604.545 56.3087 604.906 56.6484 605.168 57.076C605.43 57.5036 605.561 57.9792 605.561 58.5028C605.561 58.8774 605.493 59.2436 605.357 59.6016C605.225 59.9562 604.993 60.3523 604.661 60.7898C604.333 61.224 603.877 61.7543 603.294 62.3807L601.007 64.8267V64.9062H605.74V66H599.317ZM608.111 66L612.665 56.9915V56.9119H607.415V55.8182H613.938V56.9716L609.404 66H608.111ZM618.615 54.198L619.665 54.464C618.895 56.536 617.649 58.482 616.347 59.742C616.137 59.56 615.703 59.21 615.437 59.07C616.767 57.908 617.929 56.088 618.615 54.198ZM618.391 55.934H627.421V56.956H617.887L618.391 55.934ZM617.705 59.112H627.113V60.092H618.755V63.41H617.705V59.112ZM615.395 62.878H628.079V63.9H615.395V62.878ZM621.905 56.466H622.983V67.134H621.905V56.466Z" fill="black"/>
<path d="M607.414 99.938C607.848 99.98 608.576 100.022 609.374 100.022C610.396 100.022 616.01 100.022 617.046 100.022C617.746 100.022 618.236 99.966 618.558 99.938V101.31C618.264 101.296 617.676 101.254 617.06 101.254C615.996 101.254 610.41 101.254 609.374 101.254C608.604 101.254 607.862 101.282 607.414 101.31V99.938Z" fill="black"/>
<path d="M390.414 99.938C390.848 99.98 391.576 100.022 392.374 100.022C393.396 100.022 399.01 100.022 400.046 100.022C400.746 100.022 401.236 99.966 401.558 99.938V101.31C401.264 101.296 400.676 101.254 400.06 101.254C398.996 101.254 393.41 101.254 392.374 101.254C391.604 101.254 390.862 101.282 390.414 101.31V99.938Z" fill="black"/>
<path d="M160.952 55.08H173.076V56.102H160.952V55.08ZM162.926 61.59H171.396V62.57H162.926V61.59ZM163.01 57.628H172.012V63.34H170.948V58.608H163.01V57.628ZM162.31 57.628H163.374V60.806C163.374 62.752 163.066 65.44 161.288 67.19C161.134 66.966 160.7 66.602 160.462 66.462C162.128 64.824 162.31 62.556 162.31 60.792V57.628ZM178.382 57.208H187.44V58.062H178.382V57.208ZM179.208 60.988H186.516V61.786H179.208V60.988ZM178.578 62.906H187.132V63.774H178.578V62.906ZM182.26 54.352H183.282V65.258H182.26V54.352ZM179.39 55.374H186.39V59.938H179.292V59.098H185.354V56.214H179.39V55.374ZM174.574 55.136H177.598V56.074H174.574V55.136ZM177.22 55.136H177.374L177.542 55.08L178.256 55.304C177.612 56.774 176.562 58.944 175.708 60.61L174.756 60.344C175.624 58.706 176.702 56.438 177.22 55.262V55.136ZM175.848 59.126H178.144V60.064H175.722L175.848 59.126ZM177.71 59.126H177.92L178.116 59.098L178.718 59.252C178.298 63.326 177.08 65.832 175.26 67.148C175.092 66.938 174.7 66.56 174.462 66.42C176.24 65.23 177.36 62.948 177.71 59.336V59.126ZM175.89 61.184C177.024 65.048 179.628 65.748 183.184 65.748C183.772 65.748 186.796 65.748 187.538 65.734C187.37 65.972 187.174 66.448 187.104 66.756H183.156C179.11 66.756 176.408 65.902 175.05 61.506L175.89 61.184ZM189.176 56.704C189.708 56.69 190.156 56.662 190.436 56.634C191.346 56.536 193.978 56.284 196.568 56.06C198.094 55.934 199.396 55.85 200.334 55.822L200.348 56.942C199.536 56.928 198.318 56.956 197.604 57.152C195.602 57.796 194.384 59.938 194.384 61.59C194.384 64.32 196.946 65.188 199.214 65.286L198.822 66.434C196.218 66.336 193.278 64.964 193.278 61.828C193.278 59.644 194.608 57.866 195.896 57.11C194.384 57.264 190.828 57.614 189.302 57.936L189.176 56.704Z" fill="black"/>
<path d="M158.992 98.124C158.852 98.278 158.726 98.432 158.642 98.558C157.592 100.28 155.66 102.744 153.182 104.536L152.314 103.752C154.554 102.198 156.36 99.93 157.102 98.6C155.842 98.6 149.668 98.6 148.87 98.6C148.31 98.6 147.708 98.642 147.442 98.67V97.424C147.82 97.48 148.38 97.522 148.87 97.522C149.584 97.522 155.814 97.522 157.214 97.522C157.592 97.522 157.914 97.494 158.11 97.424L158.992 98.124ZM152.398 104.774C151.558 103.934 149.948 102.548 149.206 102.016L150.102 101.288C150.746 101.75 152.37 103.08 153.378 104.06C154.26 104.942 155.352 106.09 155.954 106.818L154.932 107.63C154.414 106.916 153.294 105.684 152.398 104.774ZM163.178 96.752C164.158 97.41 165.964 98.866 166.734 99.636L165.866 100.532C165.152 99.804 163.416 98.292 162.366 97.606L163.178 96.752ZM161.974 106.132C164.41 105.768 166.23 104.914 167.56 104.088C169.73 102.73 171.424 100.658 172.236 98.922L172.908 100.126C171.956 101.862 170.332 103.766 168.218 105.096C166.804 105.978 165.04 106.846 162.702 107.28L161.974 106.132ZM178.2 96.248C179.026 96.71 180.636 97.788 181.252 98.236L180.594 99.188C179.922 98.67 178.396 97.662 177.584 97.2L178.2 96.248ZM176.1 106.258C177.64 105.992 179.376 105.432 180.804 104.634C183.128 103.304 184.976 101.47 186.096 99.496L186.782 100.658C185.564 102.534 183.632 104.34 181.392 105.656C179.978 106.482 178.046 107.126 176.758 107.392L176.1 106.258ZM176.1 99.398C176.926 99.846 178.564 100.854 179.166 101.288L178.522 102.268C177.836 101.764 176.324 100.798 175.47 100.35L176.1 99.398ZM191.108 99.328C191.374 99.356 192.172 99.37 192.55 99.37C193.334 99.37 196.82 99.37 197.954 99.37C198.276 99.37 198.626 99.356 198.822 99.356C198.808 99.51 198.808 99.804 198.808 100.07C198.808 100.56 198.808 105.852 198.808 107.042C198.808 107.266 198.822 107.588 198.822 107.798H197.716C197.73 107.63 197.73 107.294 197.73 107C197.73 105.53 197.73 100.798 197.73 100.378C197.268 100.378 193.32 100.378 192.55 100.378C192.172 100.378 191.374 100.406 191.108 100.406V99.328ZM191.416 102.646C191.696 102.674 192.2 102.702 192.676 102.702C193.39 102.702 197.87 102.702 198.276 102.702V103.71C197.87 103.71 193.39 103.71 192.676 103.71C192.2 103.71 191.696 103.71 191.416 103.738V102.646ZM190.954 106.132C191.178 106.16 191.612 106.188 192.102 106.188C192.9 106.188 197.674 106.188 198.29 106.188V107.224C197.59 107.224 192.9 107.224 192.102 107.224C191.668 107.224 191.178 107.252 190.954 107.252V106.132ZM205.178 96.752C206.158 97.41 207.964 98.866 208.734 99.636L207.866 100.532C207.152 99.804 205.416 98.292 204.366 97.606L205.178 96.752ZM203.974 106.132C206.41 105.768 208.23 104.914 209.56 104.088C211.73 102.73 213.424 100.658 214.236 98.922L214.908 100.126C213.956 101.862 212.332 103.766 210.218 105.096C208.804 105.978 207.04 106.846 204.702 107.28L203.974 106.132Z" fill="black"/>
<path d="M168.624 141.748H179.39V142.784H168.624V141.748ZM167.728 148.468H180.286V149.504H167.728V148.468ZM173.412 137.296H174.518V149.126H173.412V137.296ZM189.89 137.24H190.884V146.998H189.89V137.24ZM185.48 143.022L193.026 139.844L193.418 140.74L185.886 143.946L185.48 143.022ZM186.992 138.556H188V147.922C188 148.692 188.168 148.86 189.106 148.86C189.568 148.86 191.92 148.86 192.48 148.86C193.306 148.86 193.446 148.482 193.544 146.872C193.796 147.04 194.202 147.208 194.496 147.264C194.328 149.196 193.992 149.812 192.522 149.812C192.144 149.812 189.428 149.812 189.078 149.812C187.468 149.812 186.992 149.434 186.992 147.908V138.556ZM192.844 139.984H192.718L192.97 139.774L193.152 139.62L193.894 139.9L193.852 140.096C193.852 142.728 193.81 144.828 193.712 145.374C193.628 145.934 193.362 146.2 192.956 146.298C192.578 146.396 192.018 146.396 191.64 146.396C191.598 146.116 191.514 145.724 191.388 145.486C191.71 145.5 192.172 145.5 192.326 145.5C192.536 145.5 192.676 145.444 192.746 145.122C192.83 144.758 192.844 142.77 192.844 139.984ZM181.574 140.614H186.026V141.608H181.574V140.614ZM183.38 137.408H184.374V146.494H183.38V137.408ZM181.448 146.858C182.582 146.438 184.304 145.71 185.97 144.996L186.194 145.934C184.696 146.648 183.114 147.362 181.868 147.894L181.448 146.858Z" fill="black"/>
<path d="M160.224 12.1L161.75 12.394C161.573 13.1687 161.358 13.9247 161.106 14.662C160.854 15.39 160.565 16.0713 160.238 16.706C159.911 17.3313 159.557 17.882 159.174 18.358C159.09 18.2647 158.969 18.162 158.81 18.05C158.651 17.9287 158.488 17.812 158.32 17.7C158.161 17.5787 158.026 17.4807 157.914 17.406C158.287 16.9953 158.619 16.51 158.908 15.95C159.207 15.39 159.463 14.7833 159.678 14.13C159.902 13.4673 160.084 12.7907 160.224 12.1ZM164.928 14.284H166.524C166.524 14.284 166.519 14.3353 166.51 14.438C166.51 14.5313 166.51 14.6387 166.51 14.76C166.51 14.8813 166.505 14.9747 166.496 15.04C166.431 16.6173 166.361 17.9567 166.286 19.058C166.221 20.1593 166.146 21.0693 166.062 21.788C165.987 22.4973 165.899 23.0573 165.796 23.468C165.693 23.8693 165.577 24.1587 165.446 24.336C165.278 24.5693 165.11 24.7373 164.942 24.84C164.774 24.9427 164.573 25.0173 164.34 25.064C164.144 25.1013 163.906 25.12 163.626 25.12C163.346 25.1293 163.052 25.1247 162.744 25.106C162.725 24.8633 162.674 24.588 162.59 24.28C162.515 23.972 162.413 23.7013 162.282 23.468C162.543 23.496 162.786 23.5147 163.01 23.524C163.234 23.524 163.411 23.524 163.542 23.524C163.654 23.524 163.743 23.5053 163.808 23.468C163.883 23.4307 163.962 23.3607 164.046 23.258C164.139 23.146 164.228 22.9127 164.312 22.558C164.396 22.194 164.475 21.676 164.55 21.004C164.625 20.332 164.69 19.478 164.746 18.442C164.811 17.3967 164.872 16.132 164.928 14.648V14.284ZM160.644 14.284H165.642V15.838H159.888L160.644 14.284ZM161.638 14.788L162.856 15.39C162.669 16.1927 162.413 17.014 162.086 17.854C161.759 18.6847 161.377 19.464 160.938 20.192C160.509 20.92 160.042 21.522 159.538 21.998C159.379 21.8487 159.179 21.6853 158.936 21.508C158.693 21.3213 158.46 21.172 158.236 21.06C158.647 20.7427 159.029 20.3507 159.384 19.884C159.739 19.408 160.061 18.89 160.35 18.33C160.639 17.7607 160.891 17.1773 161.106 16.58C161.321 15.9733 161.498 15.376 161.638 14.788ZM163.584 14.956L164.886 15.558C164.709 16.4633 164.485 17.3687 164.214 18.274C163.953 19.1793 163.635 20.0473 163.262 20.878C162.898 21.7087 162.478 22.474 162.002 23.174C161.526 23.8647 160.994 24.448 160.406 24.924C160.247 24.7653 160.037 24.5927 159.776 24.406C159.524 24.2193 159.281 24.0653 159.048 23.944C159.655 23.5053 160.201 22.964 160.686 22.32C161.181 21.6667 161.615 20.9433 161.988 20.15C162.361 19.3473 162.679 18.5073 162.94 17.63C163.201 16.7433 163.416 15.852 163.584 14.956ZM153.378 19.744C153.835 19.632 154.353 19.5013 154.932 19.352C155.52 19.2027 156.136 19.0393 156.78 18.862C157.433 18.6753 158.082 18.4933 158.726 18.316L158.936 19.786C158.059 20.066 157.163 20.346 156.248 20.626C155.343 20.8967 154.521 21.1393 153.784 21.354L153.378 19.744ZM155.884 12.114H157.424V25.26H155.884V12.114ZM154.036 12.912L155.45 13.136C155.385 13.752 155.305 14.3727 155.212 14.998C155.119 15.614 155.007 16.1973 154.876 16.748C154.745 17.2987 154.596 17.784 154.428 18.204C154.344 18.1387 154.227 18.0593 154.078 17.966C153.929 17.8633 153.779 17.7653 153.63 17.672C153.481 17.5693 153.35 17.4947 153.238 17.448C153.387 17.0653 153.513 16.6313 153.616 16.146C153.728 15.6513 153.817 15.1287 153.882 14.578C153.957 14.018 154.008 13.4627 154.036 12.912ZM154.428 14.816H158.6V16.412H154.106L154.428 14.816ZM175.218 12.282H176.926V25.246H175.218V12.282ZM172.838 12.884L174.462 13.206C174.331 13.8407 174.173 14.4707 173.986 15.096C173.799 15.7213 173.589 16.3093 173.356 16.86C173.132 17.4013 172.894 17.8773 172.642 18.288C172.539 18.204 172.395 18.1107 172.208 18.008C172.031 17.9053 171.849 17.8073 171.662 17.714C171.485 17.6113 171.326 17.5367 171.186 17.49C171.438 17.1167 171.671 16.6827 171.886 16.188C172.101 15.684 172.287 15.152 172.446 14.592C172.605 14.0227 172.735 13.4533 172.838 12.884ZM173.384 14.816H179.866V16.468H172.964L173.384 14.816ZM171.424 18.89H180.524V20.528H171.424V18.89ZM170.388 12.156L171.984 12.66C171.685 13.444 171.335 14.2373 170.934 15.04C170.533 15.8333 170.094 16.5847 169.618 17.294C169.151 18.0033 168.666 18.6287 168.162 19.17C168.106 19.03 168.027 18.8527 167.924 18.638C167.821 18.414 167.709 18.19 167.588 17.966C167.467 17.742 167.355 17.56 167.252 17.42C167.672 16.9907 168.073 16.496 168.456 15.936C168.848 15.376 169.207 14.774 169.534 14.13C169.87 13.486 170.155 12.828 170.388 12.156ZM169.002 16.034L170.598 14.438V14.452V25.232H169.002V16.034ZM189.68 13.304H191.29V24.378H189.68V13.304ZM186.516 14.55H194.328V15.852H186.516V14.55ZM186.096 23.706H194.622V25.022H186.096V23.706ZM186.894 21.774H194.09V23.062H186.894V21.774ZM193.334 12.226L194.3 13.458C193.796 13.5607 193.245 13.6493 192.648 13.724C192.051 13.7893 191.435 13.8453 190.8 13.892C190.165 13.9387 189.526 13.976 188.882 14.004C188.238 14.0227 187.622 14.0367 187.034 14.046C187.015 13.8687 186.969 13.6587 186.894 13.416C186.819 13.1733 186.745 12.968 186.67 12.8C187.249 12.7813 187.841 12.758 188.448 12.73C189.064 12.6927 189.666 12.6507 190.254 12.604C190.842 12.5573 191.397 12.5013 191.92 12.436C192.452 12.3707 192.923 12.3007 193.334 12.226ZM188.434 19.282V19.982H192.578V19.282H188.434ZM188.434 17.588V18.288H192.578V17.588H188.434ZM186.978 16.426H194.104V21.144H186.978V16.426ZM183.59 13.416H185.214V25.246H183.59V13.416ZM181.574 16.048H186.712V17.602H181.574V16.048ZM183.674 16.678L184.654 17.098C184.523 17.602 184.365 18.1247 184.178 18.666C183.991 19.2073 183.786 19.744 183.562 20.276C183.338 20.7987 183.1 21.2933 182.848 21.76C182.596 22.2267 182.335 22.6327 182.064 22.978C181.98 22.7353 181.859 22.4647 181.7 22.166C181.551 21.858 181.411 21.5967 181.28 21.382C181.523 21.102 181.761 20.7753 181.994 20.402C182.237 20.0193 182.465 19.6133 182.68 19.184C182.895 18.7547 183.086 18.3253 183.254 17.896C183.422 17.4667 183.562 17.0607 183.674 16.678ZM185.76 12.254L186.894 13.542C186.418 13.7193 185.895 13.8827 185.326 14.032C184.757 14.1813 184.173 14.312 183.576 14.424C182.988 14.5267 182.423 14.6153 181.882 14.69C181.845 14.5033 181.779 14.2887 181.686 14.046C181.593 13.794 181.499 13.5793 181.406 13.402C181.919 13.318 182.442 13.22 182.974 13.108C183.515 12.9867 184.024 12.8513 184.5 12.702C184.985 12.5527 185.405 12.4033 185.76 12.254ZM185.186 17.994C185.27 18.0593 185.396 18.1807 185.564 18.358C185.741 18.526 185.928 18.7127 186.124 18.918C186.329 19.1233 186.511 19.3147 186.67 19.492C186.829 19.66 186.945 19.7813 187.02 19.856L186.054 21.186C185.97 21.0087 185.858 20.808 185.718 20.584C185.587 20.36 185.443 20.1267 185.284 19.884C185.135 19.6413 184.985 19.4127 184.836 19.198C184.687 18.974 184.556 18.792 184.444 18.652L185.186 17.994ZM203.022 13.808H204.646V21.732H203.022V13.808ZM206.326 12.394H207.992V23.216C207.992 23.7107 207.931 24.0887 207.81 24.35C207.698 24.6113 207.497 24.812 207.208 24.952C206.919 25.0827 206.541 25.1667 206.074 25.204C205.607 25.2507 205.052 25.274 204.408 25.274C204.389 25.106 204.347 24.9147 204.282 24.7C204.217 24.4947 204.142 24.2847 204.058 24.07C203.983 23.8647 203.904 23.6873 203.82 23.538C204.277 23.5473 204.711 23.5567 205.122 23.566C205.533 23.566 205.808 23.566 205.948 23.566C206.079 23.566 206.172 23.5427 206.228 23.496C206.293 23.44 206.326 23.3467 206.326 23.216V12.394ZM198.052 18.792H201.272V20.262H198.052V18.792ZM200.53 18.792H202.084C202.084 18.792 202.079 18.834 202.07 18.918C202.07 18.9927 202.07 19.0813 202.07 19.184C202.07 19.2773 202.07 19.352 202.07 19.408C202.023 20.5373 201.972 21.4613 201.916 22.18C201.86 22.8893 201.79 23.4353 201.706 23.818C201.631 24.1913 201.529 24.462 201.398 24.63C201.258 24.8073 201.104 24.9333 200.936 25.008C200.768 25.0827 200.572 25.134 200.348 25.162C200.161 25.19 199.914 25.2087 199.606 25.218C199.298 25.2273 198.981 25.2227 198.654 25.204C198.645 24.98 198.598 24.728 198.514 24.448C198.43 24.1773 198.327 23.944 198.206 23.748C198.495 23.776 198.766 23.7947 199.018 23.804C199.279 23.8133 199.471 23.818 199.592 23.818C199.695 23.818 199.779 23.8087 199.844 23.79C199.919 23.762 199.989 23.7107 200.054 23.636C200.138 23.5427 200.208 23.3373 200.264 23.02C200.32 22.6933 200.371 22.2127 200.418 21.578C200.465 20.934 200.502 20.0893 200.53 19.044V18.792ZM197.702 14.242V16.16H200.334V14.242H197.702ZM196.176 12.758H201.958V17.644H196.176V12.758ZM197.604 17.196H199.242C199.205 17.9333 199.144 18.68 199.06 19.436C198.976 20.1827 198.836 20.9107 198.64 21.62C198.453 22.32 198.183 22.9827 197.828 23.608C197.483 24.224 197.025 24.7747 196.456 25.26C196.335 25.0547 196.167 24.8353 195.952 24.602C195.737 24.3687 195.527 24.182 195.322 24.042C195.826 23.6407 196.223 23.174 196.512 22.642C196.801 22.11 197.021 21.5407 197.17 20.934C197.319 20.3273 197.422 19.7067 197.478 19.072C197.534 18.4373 197.576 17.812 197.604 17.196Z" fill="white"/>
<path d="M10 161C4.47715 161 5.33895e-08 156.523 1.19249e-07 151L1.80066e-06 10C1.86652e-06 4.47716 4.47716 5.33895e-08 10 1.19249e-07L68 8.10892e-07L68 161L10 161Z" fill="#006837"/>
<path d="M32.92 53.112C32.856 53.384 32.792 53.688 32.728 54.024C32.664 54.344 32.6 54.648 32.536 54.936C32.472 55.272 32.392 55.672 32.296 56.136C32.2 56.584 32.104 57.048 32.008 57.528C31.928 57.992 31.84 58.448 31.744 58.896C31.584 59.568 31.376 60.352 31.12 61.248C30.88 62.144 30.6 63.104 30.28 64.128C29.976 65.152 29.624 66.184 29.224 67.224C28.84 68.264 28.416 69.288 27.952 70.296C27.504 71.288 27.024 72.192 26.512 73.008L23.704 71.904C24.264 71.152 24.784 70.312 25.264 69.384C25.744 68.456 26.184 67.496 26.584 66.504C26.984 65.512 27.344 64.536 27.664 63.576C27.984 62.616 28.256 61.728 28.48 60.912C28.704 60.08 28.88 59.36 29.008 58.752C29.232 57.712 29.408 56.688 29.536 55.68C29.68 54.656 29.744 53.688 29.728 52.776L32.92 53.112ZM41.2 55.44C41.568 55.952 41.96 56.592 42.376 57.36C42.792 58.128 43.2 58.936 43.6 59.784C44 60.632 44.36 61.456 44.68 62.256C45 63.04 45.256 63.72 45.448 64.296L42.736 65.544C42.576 64.888 42.352 64.152 42.064 63.336C41.776 62.52 41.448 61.688 41.08 60.84C40.712 59.992 40.32 59.192 39.904 58.44C39.488 57.688 39.064 57.056 38.632 56.544L41.2 55.44ZM23.488 58.128C23.904 58.16 24.312 58.176 24.712 58.176C25.112 58.16 25.52 58.144 25.936 58.128C26.32 58.112 26.792 58.088 27.352 58.056C27.912 58.008 28.512 57.96 29.152 57.912C29.808 57.864 30.456 57.816 31.096 57.768C31.736 57.704 32.328 57.656 32.872 57.624C33.416 57.576 33.864 57.552 34.216 57.552C35.032 57.552 35.752 57.688 36.376 57.96C37 58.232 37.496 58.696 37.864 59.352C38.232 59.992 38.416 60.88 38.416 62.016C38.416 62.944 38.368 63.96 38.272 65.064C38.192 66.168 38.056 67.224 37.864 68.232C37.672 69.24 37.4 70.08 37.048 70.752C36.664 71.584 36.152 72.152 35.512 72.456C34.872 72.76 34.112 72.912 33.232 72.912C32.784 72.912 32.296 72.872 31.768 72.792C31.24 72.728 30.776 72.656 30.376 72.576L29.92 69.744C30.24 69.824 30.584 69.904 30.952 69.984C31.32 70.064 31.672 70.128 32.008 70.176C32.36 70.208 32.64 70.224 32.848 70.224C33.264 70.224 33.624 70.152 33.928 70.008C34.248 69.864 34.512 69.576 34.72 69.144C34.96 68.664 35.152 68.048 35.296 67.296C35.456 66.528 35.568 65.704 35.632 64.824C35.712 63.944 35.752 63.104 35.752 62.304C35.752 61.632 35.656 61.136 35.464 60.816C35.288 60.496 35.016 60.28 34.648 60.168C34.296 60.056 33.864 60 33.352 60C32.984 60 32.48 60.032 31.84 60.096C31.2 60.144 30.512 60.208 29.776 60.288C29.04 60.352 28.36 60.424 27.736 60.504C27.112 60.584 26.624 60.648 26.272 60.696C25.952 60.744 25.536 60.8 25.024 60.864C24.528 60.928 24.104 60.992 23.752 61.056L23.488 58.128ZM39.76 80.608C39.76 81.2 39.76 81.832 39.76 82.504C39.76 83.176 39.76 83.832 39.76 84.472C39.76 85.112 39.76 85.688 39.76 86.2C39.76 87 39.776 87.784 39.808 88.552C39.84 89.32 39.872 90.056 39.904 90.76C39.952 91.448 39.992 92.104 40.024 92.728C40.056 93.352 40.072 93.928 40.072 94.456C40.072 95.496 39.72 96.328 39.016 96.952C38.328 97.56 37.248 97.864 35.776 97.864C34.864 97.864 34.032 97.728 33.28 97.456C32.544 97.2 31.952 96.8 31.504 96.256C31.072 95.712 30.856 95.024 30.856 94.192C30.856 93.536 31.032 92.936 31.384 92.392C31.736 91.832 32.272 91.384 32.992 91.048C33.712 90.712 34.608 90.544 35.68 90.544C36.848 90.544 37.912 90.68 38.872 90.952C39.832 91.208 40.696 91.536 41.464 91.936C42.232 92.32 42.904 92.728 43.48 93.16C44.072 93.592 44.552 93.976 44.92 94.312L43.504 96.664C42.752 95.88 41.936 95.184 41.056 94.576C40.176 93.952 39.272 93.464 38.344 93.112C37.432 92.744 36.52 92.56 35.608 92.56C34.872 92.56 34.296 92.696 33.88 92.968C33.48 93.24 33.28 93.592 33.28 94.024C33.28 94.504 33.472 94.872 33.856 95.128C34.256 95.368 34.784 95.488 35.44 95.488C35.968 95.488 36.376 95.408 36.664 95.248C36.968 95.072 37.184 94.84 37.312 94.552C37.44 94.248 37.504 93.904 37.504 93.52C37.504 93.152 37.488 92.696 37.456 92.152C37.44 91.592 37.416 90.976 37.384 90.304C37.352 89.632 37.32 88.952 37.288 88.264C37.272 87.576 37.264 86.92 37.264 86.296C37.264 85.656 37.264 84.976 37.264 84.256C37.264 83.52 37.264 82.824 37.264 82.168C37.264 81.512 37.264 80.992 37.264 80.608H39.76ZM31.72 84.976C33.208 85.072 34.672 85.12 36.112 85.12C37.552 85.12 38.928 85.072 40.24 84.976C41.568 84.88 42.8 84.76 43.936 84.616V87.112C42.896 87.224 41.712 87.32 40.384 87.4C39.056 87.48 37.656 87.528 36.184 87.544C34.712 87.56 33.232 87.528 31.744 87.448L31.72 84.976ZM32.08 79.36C33.136 79.456 34.184 79.512 35.224 79.528C36.264 79.528 37.272 79.512 38.248 79.48C39.224 79.448 40.144 79.392 41.008 79.312C41.888 79.232 42.696 79.144 43.432 79.048V81.424C42.712 81.504 41.912 81.576 41.032 81.64C40.168 81.704 39.248 81.752 38.272 81.784C37.296 81.816 36.288 81.832 35.248 81.832C34.208 81.832 33.152 81.808 32.08 81.76V79.36ZM28.576 78.544C28.512 78.704 28.44 78.912 28.36 79.168C28.296 79.424 28.232 79.68 28.168 79.936C28.12 80.192 28.08 80.392 28.048 80.536C27.968 80.904 27.88 81.384 27.784 81.976C27.688 82.552 27.584 83.192 27.472 83.896C27.376 84.6 27.288 85.32 27.208 86.056C27.128 86.792 27.056 87.496 26.992 88.168C26.944 88.84 26.92 89.424 26.92 89.92C26.92 90.24 26.928 90.592 26.944 90.976C26.976 91.344 27.008 91.704 27.04 92.056C27.152 91.736 27.272 91.416 27.4 91.096C27.544 90.76 27.688 90.432 27.832 90.112C27.976 89.792 28.112 89.488 28.24 89.2L29.56 90.28C29.352 90.904 29.128 91.576 28.888 92.296C28.664 93 28.456 93.672 28.264 94.312C28.088 94.936 27.952 95.464 27.856 95.896C27.824 96.056 27.792 96.248 27.76 96.472C27.728 96.68 27.72 96.856 27.736 97C27.736 97.112 27.736 97.256 27.736 97.432C27.752 97.608 27.768 97.776 27.784 97.936L25.312 98.128C25.056 97.28 24.832 96.2 24.64 94.888C24.464 93.576 24.376 92.104 24.376 90.472C24.376 89.576 24.408 88.64 24.472 87.664C24.552 86.688 24.648 85.744 24.76 84.832C24.872 83.904 24.984 83.064 25.096 82.312C25.208 81.544 25.296 80.928 25.36 80.464C25.408 80.144 25.448 79.792 25.48 79.408C25.528 79.008 25.56 78.64 25.576 78.304L28.576 78.544ZM39.424 104.576C39.072 104.832 38.712 105.104 38.344 105.392C37.992 105.68 37.688 105.936 37.432 106.16C37.032 106.48 36.552 106.864 35.992 107.312C35.432 107.76 34.84 108.232 34.216 108.728C33.608 109.224 33.016 109.704 32.44 110.168C31.864 110.632 31.368 111.04 30.952 111.392C30.52 111.776 30.232 112.088 30.088 112.328C29.944 112.568 29.944 112.808 30.088 113.048C30.248 113.288 30.56 113.608 31.024 114.008C31.408 114.328 31.88 114.712 32.44 115.16C33 115.608 33.6 116.104 34.24 116.648C34.896 117.192 35.56 117.752 36.232 118.328C36.904 118.888 37.552 119.448 38.176 120.008C38.816 120.552 39.384 121.072 39.88 121.568L37.384 123.848C36.76 123.144 36.104 122.448 35.416 121.76C35.032 121.36 34.544 120.888 33.952 120.344C33.36 119.8 32.712 119.232 32.008 118.64C31.32 118.032 30.632 117.44 29.944 116.864C29.272 116.272 28.664 115.744 28.12 115.28C27.336 114.608 26.824 114.008 26.584 113.48C26.36 112.952 26.392 112.424 26.68 111.896C26.984 111.352 27.528 110.76 28.312 110.12C28.776 109.752 29.312 109.32 29.92 108.824C30.544 108.312 31.184 107.784 31.84 107.24C32.496 106.68 33.112 106.144 33.688 105.632C34.28 105.12 34.776 104.664 35.176 104.264C35.496 103.96 35.816 103.632 36.136 103.28C36.472 102.928 36.728 102.616 36.904 102.344L39.424 104.576ZM32.56 126.576H35.32V131.328H32.56V126.576ZM32.584 132.144H35.272V149.136H32.584V132.144ZM23.08 129.792H44.992V132.312H23.08V129.792ZM25.408 135.048H41.224V137.544H28V146.16H25.408V135.048ZM40.24 135.048H42.904V143.28C42.904 143.92 42.816 144.432 42.64 144.816C42.48 145.2 42.168 145.496 41.704 145.704C41.224 145.896 40.632 146.016 39.928 146.064C39.24 146.112 38.408 146.136 37.432 146.136C37.384 145.752 37.272 145.328 37.096 144.864C36.92 144.384 36.744 143.968 36.568 143.616C37.016 143.632 37.448 143.648 37.864 143.664C38.296 143.664 38.68 143.664 39.016 143.664C39.352 143.664 39.584 143.664 39.712 143.664C39.904 143.648 40.04 143.616 40.12 143.568C40.2 143.504 40.24 143.392 40.24 143.232V135.048Z" fill="white"/>
<path d="M33.7985 11.3144C39.8337 11.3144 46.2827 14.7839 46.2827 24.5237C46.2827 32.1658 36.7198 40.8338 34.0673 43.0914C34.0099 43.1397 33.9534 43.1872 33.9026 43.2299C33.8682 43.2585 33.8297 43.2913 33.7985 43.3175C33.7731 43.2962 33.7403 43.2692 33.7125 43.2454C33.651 43.1938 33.5822 43.1356 33.5109 43.075C33.4437 43.0184 33.3749 42.9586 33.2987 42.8939C33.2782 42.8759 33.2528 42.8537 33.2315 42.8357C33.0569 42.6841 32.8644 42.5169 32.6529 42.3285C32.6341 42.3113 32.6136 42.2924 32.5939 42.2752C29.1359 39.1876 21.3136 31.4398 21.3136 24.5237C21.3136 14.7839 27.7634 11.3144 33.7985 11.3144Z" fill="#F5A210"/>
<path d="M44.9307 23.7599C44.9307 17.6002 39.9198 12.5894 33.7601 12.5894C27.6004 12.5894 22.5895 17.6002 22.5895 23.7599C22.5895 29.9197 27.6004 34.9305 33.7601 34.9305C39.9198 34.9305 44.9307 29.9197 44.9307 23.7599ZM23.9039 23.7599C23.9039 18.3254 28.3256 13.9037 33.7601 13.9037C39.1946 13.9037 43.6163 18.3254 43.6163 23.7599C43.6163 29.1944 39.1946 33.6161 33.7601 33.6161C28.3256 33.6161 23.9039 29.1944 23.9039 23.7599Z" fill="white"/>
<path d="M39.6738 30.3313C40.036 30.3313 40.3301 30.0363 40.3301 29.6741V22.4458C40.3301 22.2582 40.2507 22.0795 40.1105 21.9542L39.0166 20.9831V17.1891C39.0166 16.8269 38.7224 16.5319 38.3594 16.5319H35.7306C35.3684 16.5319 35.0743 16.8269 35.0743 17.1891V17.4784L34.1966 16.6983C33.9475 16.4762 33.5722 16.4762 33.3231 16.6983L27.4101 21.9542C27.2691 22.0795 27.1888 22.2582 27.1888 22.4458V29.6741C27.1888 30.0363 27.483 30.3313 27.846 30.3313H39.6738ZM28.5032 22.7408L33.7599 18.0684L35.2939 19.4328C35.4881 19.6048 35.7642 19.6466 35.9994 19.5409C36.2362 19.4344 36.3878 19.2 36.3878 18.9419V17.8463H37.7022V21.2781C37.7022 21.4658 37.7825 21.6444 37.9226 21.769L39.0166 22.7408V29.0169H35.7306V25.0746C35.7306 24.7116 35.4365 24.4174 35.0743 24.4174H32.4455C32.0825 24.4174 31.7883 24.7116 31.7883 25.0746V29.0169H28.5032V22.7408ZM33.1027 29.0169V25.7318H34.4171V29.0169H33.1027Z" fill="white"/>
</svg>
