<svg width="340" height="192" viewBox="0 0 340 192" fill="none" xmlns="http://www.w3.org/2000/svg">
<path d="M117.553 84.0957H0V116.649H117.553V84.0957Z" fill="white"/>
<path d="M117.553 121.17H0V154.627H117.553V121.17Z" fill="white"/>
<path d="M117.553 159.149H0V191.702H117.553V159.149Z" fill="white"/>
<path d="M115.463 46.1167H2.08983C0.935651 46.1167 0 47.6146 0 49.4624V76.2284C0 78.0762 0.935651 79.5741 2.08983 79.5741H115.463C116.618 79.5741 117.553 78.0762 117.553 76.2284V49.4624C117.553 47.6146 116.618 46.1167 115.463 46.1167Z" fill="#5B9E4D"/>
<path d="M252.287 84.0957H122.074V117.553H252.287V84.0957Z" fill="white"/>
<path d="M252.287 121.17H122.074V154.627H252.287V121.17Z" fill="white"/>
<path d="M252.287 159.149H122.074V191.702H252.287V159.149Z" fill="white"/>
<path d="M249.972 46.1167H124.389C123.111 46.1167 122.074 47.6146 122.074 49.4624V76.2284C122.074 78.0762 123.111 79.5741 124.389 79.5741H249.972C251.251 79.5741 252.287 78.0762 252.287 76.2284V49.4624C252.287 47.6146 251.251 46.1167 249.972 46.1167Z" fill="#5B9E4D"/>
<path d="M340 84.0957H256.808V116.649H340V84.0957Z" fill="white"/>
<path d="M340 121.17H256.808V154.627H340V121.17Z" fill="white"/>
<path d="M340 159.149H256.808V191.702H340V159.149Z" fill="white"/>
<path d="M338.521 46.1167H258.287C257.471 46.1167 256.808 47.6146 256.808 49.4624V76.2284C256.808 78.0762 257.471 79.5741 258.287 79.5741H338.521C339.338 79.5741 340 78.0762 340 76.2284V49.4624C340 47.6146 339.338 46.1167 338.521 46.1167Z" fill="#5B9E4D"/>
<path d="M162.049 97.0269V106.234H160.934V98.1958H160.88L158.632 99.6883V98.5554L160.934 97.0269H162.049ZM165.753 104.975L165.681 105.461C165.63 105.802 165.552 106.168 165.447 106.558C165.345 106.947 165.239 107.314 165.128 107.659C165.017 108.004 164.926 108.278 164.854 108.482H164.045C164.084 108.29 164.135 108.037 164.197 107.722C164.26 107.407 164.323 107.055 164.386 106.665C164.452 106.279 164.506 105.883 164.548 105.479L164.602 104.975H165.753ZM167.485 104.346V103.429L171.531 97.0269H172.196V98.4475H171.747L168.69 103.285V103.357H174.138V104.346H167.485ZM171.819 106.234V104.067V103.64V97.0269H172.88V106.234H171.819ZM178.826 106.36C178.149 106.36 177.572 106.175 177.095 105.807C176.619 105.435 176.255 104.897 176.003 104.193C175.751 103.486 175.625 102.631 175.625 101.63C175.625 100.635 175.751 99.7857 176.003 99.0814C176.258 98.3741 176.623 97.8346 177.1 97.463C177.579 97.0884 178.155 96.901 178.826 96.901C179.497 96.901 180.071 97.0884 180.548 97.463C181.027 97.8346 181.393 98.3741 181.645 99.0814C181.9 99.7857 182.027 100.635 182.027 101.63C182.027 102.631 181.901 103.486 181.649 104.193C181.398 104.897 181.033 105.435 180.557 105.807C180.08 106.175 179.503 106.36 178.826 106.36ZM178.826 105.371C179.497 105.371 180.019 105.047 180.391 104.4C180.762 103.752 180.948 102.829 180.948 101.63C180.948 100.833 180.863 100.154 180.692 99.5939C180.524 99.0335 180.281 98.6064 179.963 98.3127C179.649 98.0189 179.27 97.8721 178.826 97.8721C178.161 97.8721 177.641 98.2003 177.266 98.8566C176.892 99.51 176.704 100.435 176.704 101.63C176.704 102.428 176.788 103.105 176.956 103.662C177.124 104.22 177.365 104.644 177.68 104.935C177.997 105.225 178.38 105.371 178.826 105.371ZM186.738 106.36C186.061 106.36 185.484 106.175 185.008 105.807C184.531 105.435 184.167 104.897 183.915 104.193C183.663 103.486 183.537 102.631 183.537 101.63C183.537 100.635 183.663 99.7857 183.915 99.0814C184.17 98.3741 184.536 97.8346 185.012 97.463C185.492 97.0884 186.067 96.901 186.738 96.901C187.41 96.901 187.984 97.0884 188.46 97.463C188.94 97.8346 189.305 98.3741 189.557 99.0814C189.812 99.7857 189.939 100.635 189.939 101.63C189.939 102.631 189.813 103.486 189.562 104.193C189.31 104.897 188.946 105.435 188.469 105.807C187.993 106.175 187.416 106.36 186.738 106.36ZM186.738 105.371C187.41 105.371 187.931 105.047 188.303 104.4C188.674 103.752 188.86 102.829 188.86 101.63C188.86 100.833 188.775 100.154 188.604 99.5939C188.436 99.0335 188.193 98.6064 187.876 98.3127C187.561 98.0189 187.182 97.8721 186.738 97.8721C186.073 97.8721 185.553 98.2003 185.178 98.8566C184.804 99.51 184.616 100.435 184.616 101.63C184.616 102.428 184.7 103.105 184.868 103.662C185.036 104.22 185.277 104.644 185.592 104.935C185.91 105.225 186.292 105.371 186.738 105.371ZM191.479 96.562H202.569V97.4861H191.479V96.562ZM195.429 100.081H200.759V101.005H195.429V100.081ZM200.43 100.081H201.417C201.417 100.081 201.404 100.41 201.392 100.55C201.177 104.639 200.961 106.171 200.468 106.702C200.176 107.031 199.86 107.12 199.366 107.158C198.898 107.196 197.999 107.171 197.138 107.12C197.113 106.842 196.986 106.449 196.796 106.183C197.746 106.285 198.67 106.285 199.012 106.285C199.303 106.285 199.468 106.259 199.607 106.12C200.025 105.753 200.24 104.17 200.43 100.246V100.081ZM194.91 97.3089H195.885C195.784 100.904 195.556 105.196 191.809 107.272C191.657 107.031 191.365 106.728 191.112 106.538C194.708 104.639 194.821 100.6 194.91 97.3089ZM204.493 96.4607H214.419V97.4102H205.443V107.259H204.493V96.4607ZM213.988 96.4607H214.95V105.993C214.95 106.601 214.798 106.905 214.368 107.069C213.95 107.221 213.229 107.247 212.089 107.247C212.039 106.981 211.874 106.55 211.722 106.285C212.596 106.323 213.418 106.31 213.672 106.297C213.912 106.297 213.988 106.221 213.988 105.993V96.4607ZM205.012 101.145H214.431V102.082H205.012V101.145ZM209.165 96.9418H210.114V101.6H209.165V96.9418Z" fill="black"/>
<path d="M293.523 174.806C293.916 174.843 294.574 174.881 295.296 174.881C296.22 174.881 301.296 174.881 302.233 174.881C302.866 174.881 303.309 174.831 303.6 174.806V176.046C303.334 176.033 302.803 175.996 302.246 175.996C301.284 175.996 296.232 175.996 295.296 175.996C294.599 175.996 293.928 176.021 293.523 176.046V174.806Z" fill="black"/>
<path d="M167.458 181.464C165.673 181.464 164.344 179.933 164.344 176.869C164.344 173.236 165.977 171.843 167.775 171.843C168.737 171.843 169.446 172.248 169.952 172.793L169.306 173.501C168.952 173.071 168.382 172.805 167.825 172.805C166.521 172.805 165.433 173.831 165.433 176.869C165.433 179.249 166.154 180.553 167.458 180.553C168.344 180.553 169.028 179.705 169.028 178.451C169.028 177.185 168.471 176.388 167.357 176.388C166.762 176.388 166.015 176.742 165.395 177.666L165.357 176.742C165.926 175.995 166.787 175.54 167.534 175.54C169.104 175.54 170.117 176.502 170.117 178.451C170.117 180.249 168.889 181.464 167.458 181.464ZM174.48 181.464C172.695 181.464 171.366 179.933 171.366 176.869C171.366 173.236 172.999 171.843 174.797 171.843C175.759 171.843 176.468 172.248 176.974 172.793L176.329 173.501C175.974 173.071 175.404 172.805 174.847 172.805C173.543 172.805 172.455 173.831 172.455 176.869C172.455 179.249 173.176 180.553 174.48 180.553C175.366 180.553 176.05 179.705 176.05 178.451C176.05 177.185 175.493 176.388 174.379 176.388C173.784 176.388 173.037 176.742 172.417 177.666L172.379 176.742C172.948 175.995 173.809 175.54 174.556 175.54C176.126 175.54 177.139 176.502 177.139 178.451C177.139 180.249 175.911 181.464 174.48 181.464ZM180.996 181.464C179.553 181.464 178.667 180.857 178.034 180.224L178.616 179.464C179.135 180.008 179.819 180.502 180.882 180.502C181.983 180.502 182.857 179.654 182.857 178.312C182.857 176.983 182.097 176.185 180.945 176.185C180.325 176.185 179.933 176.388 179.401 176.742L178.781 176.35L179.072 172.008H183.591V172.995H180.085L179.844 175.679C180.262 175.451 180.68 175.312 181.237 175.312C182.781 175.312 184.034 176.223 184.034 178.274C184.034 180.3 182.553 181.464 180.996 181.464ZM185.499 171.615H196.589V172.539H185.499V171.615ZM189.449 175.135H194.778V176.059H189.449V175.135ZM194.449 175.135H195.437C195.437 175.135 195.424 175.464 195.411 175.603C195.196 179.692 194.981 181.224 194.487 181.756C194.196 182.085 193.88 182.173 193.386 182.211C192.917 182.249 192.019 182.224 191.158 182.173C191.132 181.895 191.006 181.502 190.816 181.236C191.765 181.338 192.69 181.338 193.031 181.338C193.322 181.338 193.487 181.312 193.626 181.173C194.044 180.806 194.259 179.224 194.449 175.299V175.135ZM188.93 172.362H189.904C189.803 175.957 189.575 180.249 185.828 182.325C185.676 182.085 185.385 181.781 185.132 181.591C188.727 179.692 188.841 175.654 188.93 172.362ZM198.513 171.514H208.438V172.463H199.462V182.313H198.513V171.514ZM208.008 171.514H208.97V181.047C208.97 181.654 208.818 181.958 208.387 182.123C207.97 182.275 207.248 182.3 206.109 182.3C206.058 182.034 205.893 181.604 205.742 181.338C206.615 181.376 207.438 181.363 207.691 181.35C207.932 181.35 208.008 181.274 208.008 181.047V171.514ZM199.032 176.198H208.451V177.135H199.032V176.198ZM203.184 171.995H204.134V176.654H203.184V171.995Z" fill="black"/>
<path d="M149.958 58.5075H161.161V59.9001H149.958V58.5075ZM151.173 60.7229H160.009V62.0395H151.173V60.7229ZM150.122 62.6725H160.997V65.3943H159.465V64.0397H151.591V65.3943H150.122V62.6725ZM154.705 57.5201H156.287V61.4572H154.705V57.5201ZM156.224 64.4322H157.743V67.4198C157.743 67.614 157.773 67.7405 157.832 67.7996C157.899 67.8503 158.047 67.8756 158.275 67.8756C158.326 67.8756 158.406 67.8756 158.516 67.8756C158.634 67.8756 158.76 67.8756 158.895 67.8756C159.039 67.8756 159.17 67.8756 159.288 67.8756C159.406 67.8756 159.495 67.8756 159.554 67.8756C159.697 67.8756 159.803 67.8418 159.87 67.7743C159.946 67.6983 159.997 67.5549 160.022 67.3439C160.056 67.1244 160.081 66.7995 160.098 66.3691C160.199 66.4451 160.33 66.521 160.49 66.597C160.659 66.6729 160.828 66.7404 160.997 66.7995C161.174 66.8502 161.33 66.8966 161.465 66.9388C161.415 67.5464 161.326 68.0148 161.199 68.344C161.073 68.6816 160.891 68.9137 160.655 69.0403C160.419 69.1753 160.098 69.2428 159.693 69.2428C159.617 69.2428 159.503 69.2428 159.351 69.2428C159.208 69.2428 159.047 69.2428 158.87 69.2428C158.701 69.2428 158.541 69.2428 158.389 69.2428C158.245 69.2428 158.136 69.2428 158.06 69.2428C157.57 69.2428 157.191 69.188 156.92 69.0782C156.659 68.9685 156.477 68.7786 156.376 68.5086C156.275 68.2469 156.224 67.8882 156.224 67.4325V64.4322ZM153.097 64.4322H154.667C154.625 65.0652 154.54 65.6433 154.414 66.1665C154.287 66.6898 154.076 67.1582 153.781 67.5718C153.494 67.9853 153.08 68.344 152.54 68.6478C152.009 68.9601 151.308 69.2217 150.439 69.4327C150.397 69.2977 150.329 69.15 150.236 68.9896C150.143 68.8293 150.038 68.6689 149.92 68.5086C149.81 68.3566 149.704 68.2258 149.603 68.1161C150.363 67.9726 150.966 67.7912 151.414 67.5718C151.861 67.3523 152.198 67.0907 152.426 66.7869C152.654 66.483 152.81 66.137 152.895 65.7488C152.988 65.3605 153.055 64.9217 153.097 64.4322ZM172.163 58.2543H173.644V65.7108C173.644 66.0568 173.606 66.348 173.53 66.5843C173.462 66.8122 173.319 66.9894 173.099 67.116C172.897 67.251 172.652 67.3354 172.365 67.3692C172.078 67.403 171.745 67.4198 171.365 67.4198C171.348 67.2764 171.314 67.1076 171.264 66.9135C171.213 66.7193 171.154 66.5294 171.087 66.3438C171.019 66.1581 170.951 65.9977 170.884 65.8627C171.103 65.8712 171.319 65.8754 171.53 65.8754C171.749 65.8754 171.897 65.8754 171.973 65.8754C172.04 65.8754 172.087 65.8627 172.112 65.8374C172.146 65.8036 172.163 65.7488 172.163 65.6728V58.2543ZM169.023 58.2543H172.872V59.6848H170.504V69.3947H169.023V58.2543ZM162.681 59.2924H168.238V60.6723H162.681V59.2924ZM162.263 62.2801H168.631V63.6853H162.263V62.2801ZM164.757 57.4947H166.238V63.027H164.757V57.4947ZM162.263 66.7489C162.702 66.7067 163.204 66.656 163.769 66.597C164.335 66.5379 164.93 66.4746 165.554 66.4071C166.187 66.3396 166.816 66.272 167.441 66.2045L167.504 67.5464C166.618 67.673 165.732 67.7954 164.845 67.9136C163.968 68.0233 163.178 68.1246 162.478 68.2174L162.263 66.7489ZM165.972 64.9386L167.2 64.4448C167.428 64.8162 167.652 65.2213 167.871 65.6602C168.099 66.0906 168.301 66.5126 168.479 66.9261C168.656 67.3312 168.787 67.6983 168.871 68.0275L167.529 68.5845C167.462 68.2723 167.343 67.9093 167.175 67.4958C167.006 67.0738 166.816 66.6392 166.605 66.1919C166.402 65.7446 166.191 65.3268 165.972 64.9386ZM164.124 63.1409L165.732 63.5713C165.58 64.0102 165.415 64.4617 165.238 64.9259C165.061 65.3901 164.888 65.8332 164.719 66.2552C164.55 66.6771 164.385 67.0485 164.225 67.3692L162.984 66.9768C163.128 66.6307 163.271 66.2383 163.415 65.7994C163.558 65.3521 163.693 64.8964 163.82 64.4322C163.947 63.968 164.048 63.5376 164.124 63.1409ZM178.543 58.7354H186.632V60.1026H178.543V58.7354ZM178.67 61.6851H186.569V69.0403H185.101V63.0143H180.062V69.1162H178.67V61.6851ZM180.72 58.9126H182.151V62.6725H180.72V58.9126ZM182.987 58.8999H184.417V62.6598H182.987V58.8999ZM179.303 67.0907H186.177V68.3946H179.303V67.0907ZM180.86 62.6598H182.138V68.1035H180.86V62.6598ZM182.987 62.6472H184.265V68.0908H182.987V62.6472ZM177.454 57.5327L178.822 57.9631C178.568 58.6552 178.264 59.3515 177.91 60.052C177.556 60.7525 177.172 61.415 176.758 62.0395C176.344 62.6556 175.918 63.2 175.479 63.6726C175.429 63.5544 175.357 63.3983 175.264 63.2042C175.18 63.0101 175.083 62.816 174.973 62.6219C174.872 62.4193 174.779 62.259 174.694 62.1408C175.066 61.7694 175.42 61.339 175.758 60.8495C176.104 60.3516 176.42 59.8199 176.707 59.2544C176.994 58.689 177.243 58.1151 177.454 57.5327ZM176.239 61.0647L177.657 59.6342L177.669 59.6595V69.3821H176.239V61.0647ZM194.304 58.8366H197.646V60.1406H194.304V58.8366ZM193 64.6347H198.52V69.3568H197.051V65.9133H194.405V69.3947H193V64.6347ZM193.557 67.6477H197.862V68.9516H193.557V67.6477ZM194.443 57.4821L195.899 57.8872C195.663 58.4611 195.384 59.0223 195.064 59.5709C194.743 60.1195 194.393 60.6301 194.013 61.1027C193.642 61.5753 193.258 61.9889 192.861 62.3433C192.785 62.2505 192.675 62.1408 192.532 62.0142C192.388 61.8792 192.241 61.7483 192.089 61.6218C191.945 61.4952 191.814 61.3939 191.696 61.3179C192.279 60.8706 192.81 60.3094 193.291 59.6342C193.781 58.9506 194.165 58.2332 194.443 57.4821ZM197.254 58.8366H197.52L197.773 58.786L198.735 59.2291C198.465 60.0309 198.115 60.7651 197.684 61.4319C197.262 62.0986 196.773 62.6936 196.216 63.2169C195.659 63.7401 195.051 64.2001 194.393 64.5968C193.743 64.9934 193.059 65.3226 192.342 65.5842C192.249 65.407 192.118 65.196 191.949 64.9512C191.789 64.7065 191.633 64.5081 191.481 64.3562C192.139 64.1621 192.768 63.8963 193.367 63.5587C193.975 63.2126 194.532 62.816 195.038 62.3687C195.553 61.9129 196.001 61.4108 196.38 60.8622C196.76 60.3052 197.051 59.7144 197.254 59.0898V58.8366ZM194.367 59.7228C194.629 60.2798 195.005 60.8453 195.494 61.4192C195.984 61.9847 196.579 62.4995 197.279 62.9637C197.988 63.4279 198.786 63.7865 199.672 64.0397C199.579 64.1326 199.469 64.2549 199.343 64.4069C199.225 64.5588 199.111 64.7149 199.001 64.8753C198.9 65.0356 198.815 65.1749 198.748 65.293C197.836 64.9723 197.018 64.5461 196.292 64.0144C195.574 63.4743 194.958 62.8793 194.443 62.2294C193.937 61.5796 193.532 60.9381 193.228 60.3052L194.367 59.7228ZM187.772 60.1153H192.291V61.5205H187.772V60.1153ZM189.443 57.4947H190.873V69.3821H189.443V57.4947ZM189.418 61.0901L190.291 61.3812C190.19 61.8876 190.067 62.4151 189.924 62.9637C189.789 63.5038 189.629 64.0355 189.443 64.5588C189.257 65.0736 189.059 65.5547 188.848 66.002C188.637 66.4493 188.413 66.8333 188.177 67.154C188.109 66.9514 188.004 66.7193 187.86 66.4577C187.717 66.1961 187.586 65.9724 187.468 65.7868C187.687 65.5082 187.894 65.1833 188.088 64.812C188.282 64.4406 188.464 64.0482 188.633 63.6346C188.81 63.2126 188.962 62.7864 189.088 62.356C189.223 61.9171 189.333 61.4952 189.418 61.0901ZM190.823 61.7737C190.899 61.8412 191.008 61.9593 191.152 62.1281C191.304 62.2969 191.464 62.4826 191.633 62.6852C191.802 62.8877 191.954 63.0734 192.089 63.2422C192.232 63.411 192.333 63.5291 192.393 63.5966L191.57 64.7487C191.494 64.5883 191.392 64.4026 191.266 64.1916C191.148 63.9807 191.017 63.7612 190.873 63.5333C190.738 63.3055 190.603 63.0903 190.468 62.8877C190.342 62.6852 190.232 62.5206 190.139 62.394L190.823 61.7737ZM206.47 61.1787H211.002V62.5586H206.47V61.1787ZM206.47 64.179H211.002V65.5462H206.47V64.179ZM206.47 67.1666H211.002V68.5465H206.47V67.1666ZM205.748 58.1783H211.711V69.2048H210.192V59.6215H207.204V69.2808H205.748V58.1783ZM200.431 60.1153H205.293V61.5458H200.431V60.1153ZM202.254 57.4947H203.71V69.3821H202.254V57.4947ZM202.178 61.0901L203.077 61.4065C202.976 61.9214 202.849 62.4531 202.697 63.0016C202.546 63.5418 202.373 64.0735 202.178 64.5968C201.984 65.1116 201.773 65.5969 201.545 66.0526C201.318 66.4999 201.077 66.8839 200.824 67.2046C200.756 66.9936 200.651 66.7531 200.507 66.483C200.364 66.2045 200.229 65.9724 200.102 65.7868C200.33 65.5082 200.55 65.1833 200.761 64.812C200.972 64.4406 201.166 64.0482 201.343 63.6346C201.529 63.2126 201.693 62.7864 201.837 62.356C201.98 61.9171 202.094 61.4952 202.178 61.0901ZM203.609 62.2041C203.702 62.2885 203.837 62.4362 204.014 62.6472C204.191 62.8497 204.377 63.0734 204.571 63.3181C204.774 63.5629 204.959 63.7908 205.128 64.0018C205.305 64.2043 205.428 64.3478 205.495 64.4322L204.622 65.6602C204.529 65.4745 204.411 65.2551 204.267 65.0019C204.124 64.7487 203.968 64.4913 203.799 64.2296C203.63 63.968 203.465 63.719 203.305 63.4827C203.153 63.2464 203.022 63.0481 202.913 62.8877L203.609 62.2041ZM216.788 62.6092H224.814V63.8878H216.788V62.6092ZM218.167 64.4828H223.371V65.6855H218.167V64.4828ZM218.649 63.0776L219.952 63.4068C219.64 64.1326 219.214 64.8035 218.674 65.4196C218.142 66.0273 217.577 66.5294 216.977 66.9261C216.902 66.8417 216.8 66.7404 216.674 66.6223C216.555 66.4957 216.429 66.3775 216.294 66.2678C216.167 66.1581 216.053 66.0695 215.952 66.002C216.543 65.6813 217.075 65.2677 217.547 64.7613C218.028 64.2465 218.395 63.6853 218.649 63.0776ZM223.143 64.4828H224.548C224.548 64.4828 224.544 64.5503 224.535 64.6854C224.535 64.812 224.527 64.9217 224.51 65.0145C224.459 65.8332 224.396 66.5083 224.32 67.0401C224.253 67.5633 224.177 67.9684 224.092 68.2554C224.008 68.5508 223.906 68.7618 223.788 68.8883C223.67 69.0318 223.539 69.1331 223.396 69.1922C223.261 69.2513 223.109 69.2935 222.94 69.3188C222.797 69.3357 222.611 69.3483 222.383 69.3568C222.164 69.3652 221.923 69.361 221.662 69.3441C221.653 69.1669 221.619 68.9601 221.56 68.7238C221.501 68.4959 221.421 68.306 221.32 68.1541C221.522 68.171 221.704 68.1836 221.864 68.1921C222.024 68.1921 222.147 68.1921 222.231 68.1921C222.316 68.1921 222.383 68.1836 222.434 68.1668C222.493 68.1499 222.548 68.1119 222.598 68.0528C222.674 67.9684 222.742 67.8081 222.801 67.5718C222.868 67.327 222.927 66.9725 222.978 66.5083C223.037 66.0442 223.092 65.4407 223.143 64.698V64.4828ZM219.256 60.4697V61.0774H222.522V60.4697H219.256ZM219.256 58.8746V59.4696H222.522V58.8746H219.256ZM217.902 57.8239H223.928V62.1281H217.902V57.8239ZM213.091 60.1659H216.952V61.5964H213.091V60.1659ZM214.37 57.6593H215.787V65.5336H214.37V57.6593ZM212.8 65.7868C213.129 65.6686 213.509 65.5209 213.939 65.3437C214.378 65.1664 214.842 64.9765 215.332 64.774C215.821 64.563 216.307 64.352 216.788 64.141L217.117 65.4449C216.484 65.7741 215.838 66.1032 215.18 66.4324C214.522 66.7615 213.918 67.0612 213.369 67.3312L212.8 65.7868ZM221.687 64.736L222.712 65.293C222.56 65.7994 222.345 66.3185 222.067 66.8502C221.788 67.3734 221.476 67.8629 221.13 68.3187C220.784 68.7744 220.421 69.15 220.041 69.4454C219.914 69.3019 219.75 69.15 219.547 68.9896C219.345 68.8293 219.146 68.6985 218.952 68.5972C219.366 68.3355 219.75 67.998 220.104 67.5844C220.459 67.1709 220.771 66.7151 221.041 66.2172C221.32 65.7192 221.535 65.2255 221.687 64.736ZM219.775 64.7487L220.763 65.331C220.552 65.7699 220.273 66.213 219.927 66.6603C219.59 67.1076 219.218 67.5253 218.813 67.9136C218.408 68.3018 218.003 68.6225 217.598 68.8757C217.48 68.7238 217.328 68.5634 217.142 68.3946C216.965 68.2258 216.788 68.0866 216.61 67.9769C217.024 67.7659 217.433 67.4874 217.838 67.1413C218.252 66.7953 218.627 66.4155 218.965 66.002C219.303 65.58 219.573 65.1622 219.775 64.7487Z" fill="white"/>
<path d="M280.324 60.8622H284.882V61.9129H280.324V60.8622ZM281.919 61.1787H283.299V63.7359H281.919V61.1787ZM280.021 63.4447C280.434 63.3857 280.903 63.3224 281.426 63.2548C281.957 63.1873 282.519 63.1114 283.109 63.027C283.709 62.9426 284.299 62.8582 284.882 62.7738L284.945 63.9131C284.11 64.0397 283.274 64.1663 282.439 64.2929C281.603 64.4195 280.856 64.5335 280.198 64.6347L280.021 63.4447ZM285.452 60.7989H286.831V62.1028C286.831 62.4742 286.777 62.8413 286.667 63.2042C286.566 63.5587 286.367 63.8963 286.072 64.217C285.776 64.5292 285.346 64.7951 284.781 65.0145C284.721 64.9217 284.629 64.812 284.502 64.6854C284.375 64.5503 284.245 64.4237 284.11 64.3056C283.975 64.179 283.861 64.0819 283.768 64.0144C284.266 63.8372 284.633 63.6473 284.869 63.4447C285.114 63.2337 285.27 63.0101 285.338 62.7738C285.414 62.5375 285.452 62.3012 285.452 62.0648V60.7989ZM288.68 60.7989H290.11V63.0396C290.11 63.1409 290.11 63.2253 290.11 63.2928C290.11 63.3603 290.119 63.4025 290.136 63.4194C290.152 63.4532 290.195 63.4701 290.262 63.4701C290.287 63.4701 290.317 63.4701 290.351 63.4701C290.393 63.4701 290.427 63.4701 290.452 63.4701C290.486 63.4701 290.515 63.4701 290.541 63.4701C290.566 63.4616 290.591 63.4532 290.617 63.4447C290.65 63.4194 290.68 63.335 290.705 63.1915C290.722 63.124 290.731 63.0143 290.731 62.8624C290.739 62.702 290.747 62.5164 290.756 62.3054C290.866 62.4066 291.018 62.5079 291.212 62.6092C291.406 62.702 291.583 62.778 291.743 62.8371C291.726 63.0734 291.701 63.3097 291.667 63.546C291.642 63.7739 291.613 63.9427 291.579 64.0524C291.486 64.2803 291.342 64.4406 291.148 64.5335C291.064 64.5841 290.958 64.6221 290.832 64.6474C290.705 64.6643 290.587 64.6727 290.477 64.6727C290.376 64.6727 290.266 64.6727 290.148 64.6727C290.03 64.6727 289.929 64.6727 289.844 64.6727C289.692 64.6727 289.536 64.6474 289.376 64.5968C289.224 64.5461 289.093 64.4702 288.984 64.3689C288.874 64.2592 288.794 64.1199 288.743 63.9511C288.701 63.7739 288.68 63.4869 288.68 63.0903V60.7989ZM280.008 65.2424H291.528V66.4324H280.008V65.2424ZM285.008 64.4828H286.49V69.3441H285.008V64.4828ZM284.578 65.9387L285.717 66.4324C285.43 66.7362 285.097 67.0274 284.717 67.3059C284.337 67.576 283.928 67.8249 283.489 68.0528C283.05 68.2807 282.595 68.479 282.122 68.6478C281.649 68.8251 281.177 68.9727 280.704 69.0909C280.594 68.9052 280.447 68.69 280.261 68.4453C280.084 68.2005 279.919 68.0022 279.767 67.8503C280.223 67.7743 280.683 67.673 281.147 67.5464C281.62 67.4198 282.067 67.2764 282.489 67.116C282.92 66.9472 283.312 66.7658 283.667 66.5716C284.029 66.3775 284.333 66.1665 284.578 65.9387ZM286.869 66.0146C287.139 66.2256 287.452 66.424 287.806 66.6096C288.169 66.7869 288.566 66.9514 288.996 67.1033C289.435 67.2553 289.887 67.3861 290.351 67.4958C290.815 67.6055 291.283 67.6941 291.756 67.7616C291.646 67.8629 291.528 67.9937 291.402 68.1541C291.275 68.306 291.157 68.4621 291.047 68.6225C290.946 68.7829 290.857 68.9263 290.781 69.0529C290.317 68.9516 289.849 68.8166 289.376 68.6478C288.912 68.4875 288.46 68.2976 288.021 68.0781C287.591 67.8503 287.186 67.6013 286.806 67.3312C286.426 67.0612 286.089 66.77 285.793 66.4577L286.869 66.0146ZM281.578 58.3936H285.578V59.5836H281.578V58.3936ZM286.705 58.3936H291.617V59.5836H286.705V58.3936ZM281.641 57.3935L283.046 57.7859C282.801 58.3345 282.489 58.8746 282.109 59.4063C281.738 59.9296 281.367 60.3685 280.995 60.7229C280.911 60.6385 280.793 60.5457 280.641 60.4444C280.489 60.3347 280.333 60.2334 280.172 60.1406C280.021 60.0393 279.886 59.9549 279.767 59.8874C280.156 59.5836 280.514 59.2122 280.843 58.7733C281.181 58.326 281.447 57.8661 281.641 57.3935ZM286.793 57.3935L288.237 57.7479C288 58.3218 287.692 58.8746 287.312 59.4063C286.941 59.9296 286.566 60.3685 286.186 60.7229C286.076 60.647 285.941 60.5626 285.781 60.4697C285.62 60.3769 285.456 60.2883 285.287 60.2039C285.118 60.111 284.97 60.0393 284.844 59.9887C285.266 59.6848 285.646 59.3008 285.983 58.8366C286.329 58.3725 286.599 57.8914 286.793 57.3935ZM282.059 59.3557L283.211 59.0392C283.363 59.2418 283.506 59.4696 283.641 59.7228C283.785 59.976 283.894 60.1954 283.97 60.3811L282.742 60.7356C282.683 60.5499 282.59 60.3263 282.464 60.0646C282.337 59.803 282.202 59.5667 282.059 59.3557ZM287.705 59.343L288.933 59.0139C289.11 59.208 289.287 59.4316 289.465 59.6848C289.65 59.938 289.785 60.1617 289.87 60.3558L288.578 60.7229C288.502 60.5372 288.38 60.3136 288.211 60.052C288.051 59.7903 287.882 59.554 287.705 59.343ZM286.566 62.8497L287.439 62.0902C287.608 62.1999 287.785 62.3307 287.971 62.4826C288.165 62.6261 288.342 62.7696 288.502 62.913C288.663 63.0481 288.794 63.1789 288.895 63.3055L287.971 64.1537C287.827 63.9596 287.621 63.7401 287.35 63.4954C287.08 63.2506 286.819 63.0354 286.566 62.8497ZM285.958 60.7989H289.401V61.7863H285.958V60.7989ZM295.225 57.4441L296.782 57.8492C296.554 58.4737 296.284 59.0856 295.972 59.6848C295.668 60.2841 295.334 60.8411 294.972 61.3559C294.617 61.8623 294.25 62.3054 293.87 62.6852C293.769 62.6008 293.638 62.4953 293.478 62.3687C293.317 62.2336 293.153 62.107 292.984 61.9889C292.824 61.8707 292.68 61.7737 292.554 61.6977C292.942 61.3686 293.305 60.9803 293.642 60.533C293.98 60.0773 294.284 59.5878 294.554 59.0645C294.824 58.5328 295.047 57.9927 295.225 57.4441ZM295.503 58.8873H303.555V60.3558H294.769L295.503 58.8873ZM294.604 61.8876H303.251V63.3055H296.124V65.964H294.604V61.8876ZM292.592 65.2171H304.238V66.6729H292.592V65.2171ZM298.326 59.6469H299.896V69.3947H298.326V59.6469ZM305.112 64.103H311.518V65.331H305.112V64.103ZM305.264 59.6342H311.48V60.8369H305.264V59.6342ZM307.403 63.2042L308.808 63.4954C308.597 63.9342 308.37 64.3858 308.125 64.8499C307.888 65.3141 307.652 65.7657 307.416 66.2045C307.18 66.6349 306.96 67.019 306.758 67.3565L305.428 66.9514C305.631 66.6307 305.846 66.2552 306.074 65.8247C306.31 65.3943 306.542 64.9512 306.77 64.4955C307.007 64.0313 307.218 63.6009 307.403 63.2042ZM309.188 64.9512L310.593 65.0778C310.475 65.7446 310.298 66.3185 310.062 66.7995C309.834 67.2721 309.526 67.6773 309.138 68.0148C308.758 68.344 308.294 68.6183 307.745 68.8377C307.196 69.0656 306.542 69.2555 305.783 69.4074C305.741 69.1964 305.66 68.9727 305.542 68.7364C305.424 68.5001 305.302 68.306 305.175 68.1541C306.011 68.0444 306.698 67.8714 307.239 67.6351C307.787 67.3987 308.218 67.0654 308.53 66.6349C308.842 66.2045 309.062 65.6433 309.188 64.9512ZM310.087 57.6466L311.366 58.1657C311.163 58.4442 310.961 58.7227 310.758 59.0012C310.564 59.2713 310.387 59.5034 310.226 59.6975L309.252 59.2671C309.395 59.0476 309.547 58.786 309.707 58.4822C309.868 58.1699 309.994 57.8914 310.087 57.6466ZM307.682 57.4821H309.074V63.3814H307.682V57.4821ZM305.58 58.1657L306.669 57.7099C306.838 57.9463 306.994 58.2121 307.137 58.5075C307.281 58.8029 307.382 59.0603 307.441 59.2797L306.277 59.7861C306.234 59.5667 306.146 59.3051 306.011 59.0012C305.876 58.6974 305.732 58.4189 305.58 58.1657ZM307.72 60.2292L308.694 60.8242C308.492 61.1618 308.226 61.4994 307.897 61.837C307.576 62.1746 307.23 62.491 306.859 62.7864C306.496 63.0734 306.137 63.3181 305.783 63.5207C305.698 63.3603 305.58 63.1704 305.428 62.951C305.285 62.7316 305.146 62.5543 305.011 62.4193C305.348 62.2758 305.69 62.0902 306.036 61.8623C306.382 61.626 306.703 61.3686 306.998 61.0901C307.302 60.8031 307.542 60.5162 307.72 60.2292ZM308.948 60.5963C309.066 60.6554 309.226 60.744 309.429 60.8622C309.64 60.9803 309.863 61.1112 310.1 61.2546C310.344 61.3897 310.564 61.5163 310.758 61.6344C310.961 61.7526 311.104 61.8412 311.188 61.9003L310.391 62.951C310.273 62.8413 310.121 62.7063 309.935 62.5459C309.749 62.3855 309.551 62.221 309.34 62.0522C309.129 61.8834 308.927 61.723 308.732 61.5711C308.538 61.4192 308.37 61.2968 308.226 61.204L308.948 60.5963ZM312.353 59.7861H317.012V61.1913H312.353V59.7861ZM312.492 57.4821L314.037 57.7099C313.902 58.5792 313.729 59.4232 313.518 60.2419C313.307 61.0521 313.049 61.8032 312.746 62.4953C312.45 63.1789 312.104 63.7823 311.707 64.3056C311.632 64.2043 311.522 64.0862 311.378 63.9511C311.235 63.8161 311.083 63.6853 310.923 63.5587C310.762 63.4236 310.627 63.3139 310.517 63.2295C310.872 62.7907 311.176 62.2716 311.429 61.6724C311.691 61.0647 311.91 60.4064 312.087 59.6975C312.264 58.9801 312.4 58.2416 312.492 57.4821ZM314.796 60.647L316.354 60.7989C316.168 62.2421 315.881 63.5122 315.493 64.6094C315.113 65.7066 314.585 66.6518 313.91 67.4452C313.235 68.2385 312.366 68.901 311.302 69.4327C311.252 69.3146 311.176 69.1669 311.074 68.9896C310.973 68.8124 310.864 68.6352 310.745 68.4579C310.627 68.2891 310.517 68.1541 310.416 68.0528C311.378 67.6308 312.155 67.0823 312.746 66.4071C313.345 65.7319 313.805 64.9175 314.125 63.9638C314.446 63.0016 314.67 61.896 314.796 60.647ZM313.214 60.9128C313.391 61.9762 313.64 62.9763 313.961 63.9131C314.282 64.8499 314.704 65.6728 315.227 66.3818C315.75 67.0907 316.396 67.6477 317.164 68.0528C317.054 68.1457 316.932 68.268 316.797 68.4199C316.662 68.5803 316.531 68.7449 316.404 68.9137C316.286 69.0825 316.189 69.2344 316.113 69.3694C315.261 68.863 314.556 68.209 313.999 67.4072C313.45 66.6054 313.007 65.677 312.67 64.6221C312.332 63.5587 312.058 62.3982 311.847 61.1407L313.214 60.9128ZM306.542 66.9641L307.353 65.9387C307.851 66.1243 308.344 66.3396 308.834 66.5843C309.332 66.8291 309.792 67.0823 310.214 67.3439C310.644 67.5971 311.003 67.8418 311.29 68.0781L310.226 69.1542C309.965 68.9179 309.636 68.6689 309.239 68.4073C308.842 68.1457 308.412 67.8925 307.948 67.6477C307.483 67.3945 307.015 67.1666 306.542 66.9641Z" fill="white"/>
<path d="M285.641 106.234V105.563C288.553 103.018 289.882 101.157 289.882 99.5749C289.882 98.5115 289.338 97.7267 288.186 97.7267C287.426 97.7267 286.768 98.1951 286.249 98.8027L285.578 98.1571C286.338 97.3342 287.148 96.7898 288.325 96.7898C289.984 96.7898 291.022 97.8659 291.022 99.5243C291.022 101.385 289.566 103.272 287.376 105.335C287.869 105.284 288.426 105.246 288.895 105.246H291.465V106.234H285.641ZM294.6 106.234C294.765 102.727 295.398 100.474 297.221 97.9419H292.727V96.9544H298.525V97.6507C296.347 100.448 295.955 102.613 295.803 106.234H294.6ZM302.635 95.5619L303.585 95.8024C302.888 97.676 301.762 99.4357 300.584 100.575C300.394 100.41 300.002 100.094 299.761 99.9674C300.964 98.9167 302.015 97.2709 302.635 95.5619ZM302.433 97.1317H310.598V98.0558H301.977L302.433 97.1317ZM301.812 100.005H310.32V100.892H302.762V103.892H301.812V100.005ZM299.723 103.411H311.193V104.335H299.723V103.411ZM305.61 97.6127H306.585V107.259H305.61V97.6127Z" fill="black"/>
<path d="M293.289 136.827C293.682 136.865 294.34 136.903 295.062 136.903C295.986 136.903 301.062 136.903 301.999 136.903C302.632 136.903 303.075 136.852 303.366 136.827V138.068C303.1 138.055 302.569 138.017 302.012 138.017C301.049 138.017 295.998 138.017 295.062 138.017C294.365 138.017 293.694 138.042 293.289 138.068V136.827Z" fill="black"/>
<path d="M181.885 136.827C182.277 136.865 182.936 136.903 183.657 136.903C184.581 136.903 189.658 136.903 190.595 136.903C191.228 136.903 191.671 136.852 191.962 136.827V138.068C191.696 138.055 191.164 138.017 190.607 138.017C189.645 138.017 184.594 138.017 183.657 138.017C182.961 138.017 182.29 138.042 181.885 138.068V136.827Z" fill="black"/>
<path d="M40.6587 96.3594H51.6219V97.2836H40.6587V96.3594ZM42.4437 102.246H50.1028V103.132H42.4437V102.246ZM42.5197 98.6635H50.6598V103.829H49.6977V99.5496H42.5197V98.6635ZM41.8867 98.6635H42.8488V101.537C42.8488 103.297 42.5703 105.728 40.9625 107.31C40.8233 107.107 40.4308 106.778 40.2156 106.652C41.7221 105.17 41.8867 103.12 41.8867 101.525V98.6635ZM56.4199 98.2837H64.6106V99.0559H56.4199V98.2837ZM57.1668 101.702H63.7751V102.423H57.1668V101.702ZM56.5971 103.436H64.3321V104.221H56.5971V103.436ZM59.9266 95.7011H60.8507V105.563H59.9266V95.7011ZM57.3314 96.6253H63.6612V100.752H57.2428V99.9927H62.7244V97.3848H57.3314V96.6253ZM52.9765 96.4101H55.711V97.2582H52.9765V96.4101ZM55.3691 96.4101H55.5084L55.6603 96.3594L56.306 96.562C55.7236 97.8912 54.7741 99.8535 54.0019 101.36L53.1411 101.119C53.926 99.6382 54.9007 97.5874 55.3691 96.524V96.4101ZM54.1285 100.018H56.2047V100.866H54.0146L54.1285 100.018ZM55.8122 100.018H56.0021L56.1794 99.9927L56.7237 100.132C56.3439 103.816 55.2426 106.082 53.5968 107.272C53.4449 107.082 53.0904 106.74 52.8752 106.614C54.483 105.538 55.4957 103.474 55.8122 100.208V100.018ZM54.1665 101.879C55.1919 105.373 57.5466 106.006 60.7621 106.006C61.2938 106.006 64.0283 106.006 64.6993 105.993C64.5473 106.209 64.3701 106.639 64.3068 106.918H60.7368C57.0782 106.918 54.6349 106.145 53.4069 102.17L54.1665 101.879ZM66.1804 97.8279C66.6615 97.8153 67.0666 97.7899 67.3198 97.7646C68.1427 97.676 70.5227 97.4481 72.8647 97.2456C74.2446 97.1317 75.4219 97.0557 76.2701 97.0304L76.2828 98.0431C75.5485 98.0305 74.4471 98.0558 73.8015 98.233C71.9912 98.8154 70.8898 100.752 70.8898 102.246C70.8898 104.715 73.2065 105.5 75.2573 105.588L74.9029 106.626C72.5482 106.538 69.8897 105.297 69.8897 102.461C69.8897 100.486 71.0923 98.8787 72.257 98.1951C70.8898 98.3343 67.6743 98.6508 66.2944 98.942L66.1804 97.8279Z" fill="black"/>
<path d="M39.2268 135.282C39.1002 135.422 38.9863 135.561 38.9103 135.675C37.9609 137.232 36.2139 139.46 33.9731 141.081L33.1882 140.372C35.2137 138.966 36.8468 136.916 37.5178 135.713C36.3784 135.713 30.7956 135.713 30.074 135.713C29.5676 135.713 29.0232 135.751 28.7827 135.776V134.649C29.1245 134.7 29.6309 134.738 30.074 134.738C30.7196 134.738 36.3531 134.738 37.6191 134.738C37.9609 134.738 38.252 134.713 38.4293 134.649L39.2268 135.282ZM33.2642 141.296C32.5046 140.536 31.0487 139.283 30.3778 138.802L31.188 138.143C31.7703 138.561 33.2389 139.764 34.1503 140.65C34.9479 141.448 35.9353 142.486 36.4797 143.144L35.5556 143.878C35.0872 143.233 34.0744 142.119 33.2642 141.296ZM43.012 134.042C43.8982 134.637 45.5313 135.953 46.2276 136.65L45.4427 137.46C44.797 136.802 43.2273 135.434 42.2778 134.814L43.012 134.042ZM41.9233 142.524C44.1261 142.195 45.7718 141.422 46.9745 140.675C48.9367 139.447 50.4685 137.574 51.2028 136.004L51.8105 137.093C50.9496 138.663 49.4811 140.384 47.5695 141.587C46.2909 142.384 44.6958 143.169 42.5816 143.562L41.9233 142.524ZM56.5958 133.586C57.3427 134.004 58.7985 134.979 59.3556 135.384L58.7606 136.245C58.1529 135.776 56.773 134.865 56.0387 134.447L56.5958 133.586ZM54.6968 142.638C56.0894 142.397 57.6592 141.891 58.9505 141.169C61.0519 139.966 62.723 138.308 63.7358 136.523L64.3561 137.574C63.2547 139.27 61.5077 140.903 59.4822 142.093C58.2035 142.84 56.4565 143.423 55.2918 143.663L54.6968 142.638ZM54.6968 136.434C55.4437 136.84 56.9249 137.751 57.4693 138.143L56.8869 139.03C56.2666 138.574 54.8994 137.7 54.1272 137.295L54.6968 136.434ZM68.2679 136.371C68.5084 136.396 69.23 136.409 69.5718 136.409C70.2808 136.409 73.433 136.409 74.4584 136.409C74.7496 136.409 75.0661 136.396 75.2433 136.396C75.2307 136.536 75.2307 136.802 75.2307 137.042C75.2307 137.485 75.2307 142.271 75.2307 143.347C75.2307 143.549 75.2433 143.84 75.2433 144.03H74.2432C74.2559 143.878 74.2559 143.574 74.2559 143.309C74.2559 141.979 74.2559 137.7 74.2559 137.321C73.8381 137.321 70.2681 137.321 69.5718 137.321C69.23 137.321 68.5084 137.346 68.2679 137.346V136.371ZM68.5464 139.371C68.7996 139.397 69.2553 139.422 69.6858 139.422C70.3314 139.422 74.3825 139.422 74.7496 139.422V140.334C74.3825 140.334 70.3314 140.334 69.6858 140.334C69.2553 140.334 68.7996 140.334 68.5464 140.359V139.371ZM68.1286 142.524C68.3312 142.549 68.7236 142.574 69.1667 142.574C69.8883 142.574 74.2052 142.574 74.7623 142.574V143.511C74.1293 143.511 69.8883 143.511 69.1667 143.511C68.7743 143.511 68.3312 143.536 68.1286 143.536V142.524ZM80.9908 134.042C81.8769 134.637 83.51 135.953 84.2063 136.65L83.4214 137.46C82.7758 136.802 81.206 135.434 80.2565 134.814L80.9908 134.042ZM79.9021 142.524C82.1048 142.195 83.7506 141.422 84.9532 140.675C86.9155 139.447 88.4473 137.574 89.1815 136.004L89.7892 137.093C88.9283 138.663 87.4598 140.384 85.5482 141.587C84.2696 142.384 82.6745 143.169 80.5603 143.562L79.9021 142.524Z" fill="black"/>
<path d="M47.9259 174.729H57.6612V175.666H47.9259V174.729ZM47.1157 180.806H58.4714V181.743H47.1157V180.806ZM52.2555 170.704H53.2556V181.401H52.2555V170.704ZM67.1558 170.653H68.0547V179.477H67.1558V170.653ZM63.1681 175.881L69.9916 173.008L70.346 173.818L63.5352 176.717L63.1681 175.881ZM64.5353 171.843H65.4468V180.312C65.4468 181.009 65.5987 181.161 66.4469 181.161C66.8647 181.161 68.9915 181.161 69.4979 181.161C70.2448 181.161 70.3714 180.819 70.46 179.363C70.6879 179.515 71.055 179.667 71.3208 179.717C71.1689 181.464 70.8651 182.021 69.5358 182.021C69.194 182.021 66.7381 182.021 66.4216 182.021C64.9657 182.021 64.5353 181.68 64.5353 180.3V171.843ZM69.827 173.134H69.7131L69.9409 172.944L70.1055 172.805L70.7765 173.058L70.7385 173.236C70.7385 175.616 70.7005 177.515 70.6119 178.008C70.5359 178.515 70.2954 178.755 69.9283 178.844C69.5865 178.932 69.0801 178.932 68.7383 178.932C68.7003 178.679 68.6243 178.325 68.5104 178.11C68.8016 178.122 69.2193 178.122 69.3586 178.122C69.5485 178.122 69.6751 178.072 69.7384 177.78C69.8143 177.451 69.827 175.654 69.827 173.134ZM59.636 173.704H63.6618V174.603H59.636V173.704ZM61.2691 170.805H62.168V179.021H61.2691V170.805ZM59.5221 179.35C60.5475 178.97 62.1047 178.312 63.6112 177.666L63.8137 178.515C62.4591 179.16 61.0286 179.806 59.9019 180.287L59.5221 179.35Z" fill="black"/>
<path d="M40.1706 57.4947L41.5505 57.7606C41.3901 58.4611 41.196 59.1447 40.9681 59.8114C40.7403 60.4697 40.4786 61.0858 40.1832 61.6597C39.8879 62.2252 39.5671 62.7231 39.2211 63.1536C39.1452 63.0692 39.0354 62.9763 38.892 62.8751C38.7485 62.7653 38.6008 62.6598 38.4489 62.5586C38.3054 62.4488 38.183 62.3602 38.0818 62.2927C38.4193 61.9214 38.719 61.4825 38.9806 60.9761C39.2507 60.4697 39.4828 59.9211 39.6769 59.3304C39.8794 58.7312 40.044 58.1193 40.1706 57.4947ZM44.4242 59.4696H45.8674C45.8674 59.4696 45.8632 59.516 45.8547 59.6089C45.8547 59.6933 45.8547 59.7903 45.8547 59.9001C45.8547 60.0098 45.8505 60.0942 45.8421 60.1532C45.783 61.5796 45.7197 62.7907 45.6522 63.7865C45.5931 64.7824 45.5256 65.6053 45.4496 66.2552C45.3821 66.8966 45.3019 67.403 45.2091 67.7743C45.1163 68.1372 45.0108 68.3988 44.8926 68.5592C44.7407 68.7702 44.5888 68.9221 44.4369 69.0149C44.285 69.1078 44.1035 69.1753 43.8925 69.2175C43.7153 69.2513 43.5001 69.2681 43.2469 69.2681C42.9937 69.2766 42.7278 69.2724 42.4493 69.2555C42.4324 69.036 42.386 68.7871 42.3101 68.5086C42.2425 68.2301 42.1497 67.9853 42.0315 67.7743C42.2679 67.7996 42.4873 67.8165 42.6898 67.8249C42.8924 67.8249 43.0528 67.8249 43.1709 67.8249C43.2722 67.8249 43.3524 67.8081 43.4114 67.7743C43.479 67.7405 43.5507 67.6773 43.6267 67.5844C43.711 67.4831 43.7912 67.2721 43.8672 66.9514C43.9431 66.6223 44.0149 66.1539 44.0824 65.5462C44.1499 64.9386 44.209 64.1663 44.2596 63.2295C44.3187 62.2843 44.3736 61.1407 44.4242 59.7988V59.4696ZM40.5504 59.4696H45.0698V60.8748H39.8668L40.5504 59.4696ZM41.4492 59.9254L42.5506 60.4697C42.3818 61.1955 42.1497 61.9382 41.8543 62.6978C41.5589 63.449 41.2129 64.1537 40.8162 64.812C40.428 65.4703 40.006 66.0146 39.5503 66.4451C39.4068 66.31 39.2253 66.1623 39.0059 66.002C38.7865 65.8332 38.5755 65.6981 38.3729 65.5969C38.7443 65.3099 39.0903 64.9554 39.411 64.5335C39.7317 64.103 40.0229 63.6346 40.2845 63.1282C40.5462 62.6134 40.774 62.0859 40.9681 61.5458C41.1623 60.9972 41.3226 60.4571 41.4492 59.9254ZM43.2089 60.0773L44.3862 60.6216C44.2259 61.4403 44.0233 62.259 43.7786 63.0776C43.5423 63.8963 43.2553 64.6812 42.9177 65.4323C42.5886 66.1834 42.2088 66.8755 41.7784 67.5085C41.3479 68.133 40.8669 68.6605 40.3352 69.0909C40.1917 68.9474 40.0018 68.7913 39.7655 68.6225C39.5376 68.4537 39.3182 68.3144 39.1072 68.2047C39.6558 67.8081 40.1495 67.3186 40.5884 66.7362C41.0357 66.1454 41.4281 65.4914 41.7657 64.774C42.1033 64.0482 42.3902 63.2886 42.6265 62.4953C42.8629 61.6935 43.057 60.8875 43.2089 60.0773ZM33.9801 64.4069C34.3936 64.3056 34.862 64.1874 35.3853 64.0524C35.917 63.9174 36.474 63.7697 37.0563 63.6093C37.6471 63.4405 38.2337 63.2759 38.816 63.1156L39.0059 64.4448C38.2126 64.698 37.4024 64.9512 36.5753 65.2044C35.7566 65.4492 35.0139 65.6686 34.3472 65.8627L33.9801 64.4069ZM36.2461 57.5074H37.6387V69.3947H36.2461V57.5074ZM34.5751 58.229L35.8537 58.4315C35.7946 58.9886 35.7229 59.5498 35.6385 60.1153C35.5541 60.6723 35.4528 61.1998 35.3346 61.6977C35.2165 62.1957 35.0814 62.6345 34.9295 63.0143C34.8536 62.9552 34.7481 62.8835 34.613 62.7991C34.478 62.7063 34.343 62.6176 34.2079 62.5332C34.0729 62.4404 33.9547 62.3729 33.8535 62.3307C33.9885 61.9847 34.1024 61.5922 34.1953 61.1533C34.2965 60.706 34.3767 60.2334 34.4358 59.7355C34.5033 59.2291 34.5497 58.7269 34.5751 58.229ZM34.9295 59.9507H38.7021V61.3939H34.6384L34.9295 59.9507ZM53.729 57.6593H55.2735V69.3821H53.729V57.6593ZM51.5769 58.2037L53.0454 58.4948C52.9272 59.0687 52.7837 59.6384 52.615 60.2039C52.4462 60.7693 52.2563 61.301 52.0453 61.799C51.8427 62.2885 51.6275 62.7189 51.3996 63.0903C51.3068 63.0143 51.176 62.9299 51.0072 62.8371C50.8468 62.7442 50.6823 62.6556 50.5135 62.5712C50.3531 62.4784 50.2096 62.4109 50.083 62.3687C50.3109 62.0311 50.5219 61.6386 50.716 61.1913C50.9101 60.7356 51.0789 60.2545 51.2224 59.7481C51.3659 59.2333 51.484 58.7185 51.5769 58.2037ZM52.0706 59.9507H57.932V61.4445H51.6908L52.0706 59.9507ZM50.2982 63.6346H58.527V65.1158H50.2982V63.6346ZM49.3614 57.5454L50.8046 58.0011C50.5346 58.7101 50.2181 59.4274 49.8552 60.1532C49.4923 60.8706 49.0956 61.55 48.6652 62.1914C48.2432 62.8329 47.8043 63.3983 47.3486 63.8878C47.2979 63.7612 47.2262 63.6009 47.1334 63.4068C47.0405 63.2042 46.9392 63.0016 46.8295 62.7991C46.7198 62.5965 46.6185 62.432 46.5257 62.3054C46.9055 61.9171 47.2684 61.4698 47.6144 60.9635C47.9689 60.4571 48.2938 59.9127 48.5892 59.3304C48.893 58.748 49.1504 58.153 49.3614 57.5454ZM48.1081 61.0521L49.5513 59.6089V59.6215V69.3694H48.1081V61.0521ZM66.8063 58.5835H68.2622V68.5972H66.8063V58.5835ZM63.9453 59.7102H71.0093V60.8875H63.9453V59.7102ZM63.5655 67.9895H71.2752V69.1795H63.5655V67.9895ZM64.2871 66.2425H70.7941V67.4072H64.2871V66.2425ZM70.1105 57.6087L70.984 58.7227C70.5282 58.8155 70.0303 58.8957 69.4902 58.9632C68.95 59.0223 68.393 59.073 67.8191 59.1152C67.2452 59.1574 66.6671 59.1911 66.0847 59.2164C65.5024 59.2333 64.9454 59.246 64.4137 59.2544C64.3968 59.0941 64.3546 58.9042 64.2871 58.6847C64.2196 58.4653 64.152 58.2796 64.0845 58.1277C64.6078 58.1108 65.1437 58.0897 65.6923 58.0644C66.2493 58.0307 66.7937 57.9927 67.3254 57.9505C67.8571 57.9083 68.3592 57.8576 68.8319 57.7986C69.3129 57.7395 69.7391 57.6762 70.1105 57.6087ZM65.6796 63.9891V64.6221H69.4269V63.9891H65.6796ZM65.6796 62.4573V63.0903H69.4269V62.4573H65.6796ZM64.363 61.4065H70.8068V65.6728H64.363V61.4065ZM61.2994 58.6847H62.7679V69.3821H61.2994V58.6847ZM59.4764 61.0647H64.1225V62.4699H59.4764V61.0647ZM61.3754 61.6344L62.2615 62.0142C62.1434 62.4699 61.9999 62.9426 61.8311 63.4321C61.6623 63.9216 61.4767 64.4069 61.2741 64.8879C61.0715 65.3605 60.8563 65.8079 60.6285 66.2298C60.4006 66.6518 60.1643 67.019 59.9195 67.3312C59.8436 67.1118 59.7339 66.867 59.5904 66.597C59.4553 66.3185 59.3287 66.0821 59.2106 65.888C59.43 65.6348 59.6452 65.3394 59.8562 65.0019C60.0757 64.6558 60.2824 64.2887 60.4765 63.9005C60.6707 63.5122 60.8437 63.124 60.9956 62.7358C61.1475 62.3476 61.2741 61.9804 61.3754 61.6344ZM63.2617 57.634L64.2871 58.7987C63.8567 58.959 63.384 59.1067 62.8692 59.2418C62.3544 59.3768 61.8269 59.4949 61.2868 59.5962C60.7551 59.6891 60.2445 59.7692 59.755 59.8368C59.7212 59.668 59.6621 59.4738 59.5777 59.2544C59.4933 59.0265 59.4089 58.8324 59.3245 58.6721C59.7887 58.5961 60.2613 58.5075 60.7424 58.4062C61.2319 58.2965 61.6919 58.1741 62.1223 58.0391C62.5612 57.9041 62.9409 57.769 63.2617 57.634ZM62.7426 62.8244C62.8186 62.8835 62.9325 62.9932 63.0844 63.1536C63.2448 63.3055 63.4136 63.4743 63.5908 63.6599C63.7765 63.8456 63.9411 64.0186 64.0845 64.179C64.228 64.3309 64.3335 64.4406 64.401 64.5081L63.5275 65.7108C63.4515 65.5504 63.3503 65.369 63.2237 65.1664C63.1055 64.9639 62.9747 64.7529 62.8312 64.5335C62.6962 64.314 62.5612 64.1072 62.4261 63.9131C62.2911 63.7106 62.1729 63.546 62.0717 63.4194L62.7426 62.8244ZM78.8709 59.0392H80.3394V66.2045H78.8709V59.0392ZM81.8586 57.7606H83.3651V67.5464C83.3651 67.9937 83.3102 68.3355 83.2005 68.5719C83.0992 68.8082 82.9178 68.9896 82.6561 69.1162C82.3945 69.2344 82.0527 69.3103 81.6307 69.3441C81.2087 69.3863 80.7065 69.4074 80.1242 69.4074C80.1073 69.2555 80.0694 69.0825 80.0103 68.8883C79.9512 68.7027 79.8837 68.5128 79.8077 68.3187C79.7402 68.133 79.6685 67.9726 79.5925 67.8376C80.0061 67.846 80.3985 67.8545 80.7698 67.8629C81.1412 67.8629 81.3902 67.8629 81.5168 67.8629C81.6349 67.8629 81.7193 67.8418 81.77 67.7996C81.829 67.749 81.8586 67.6646 81.8586 67.5464V57.7606ZM74.3768 63.546H77.2885V64.8753H74.3768V63.546ZM76.6175 63.546H78.0227C78.0227 63.546 78.0185 63.584 78.0101 63.6599C78.0101 63.7275 78.0101 63.8076 78.0101 63.9005C78.0101 63.9849 78.0101 64.0524 78.0101 64.103C77.9679 65.1242 77.9214 65.9598 77.8708 66.6096C77.8202 67.251 77.7569 67.7448 77.6809 68.0908C77.6134 68.4284 77.5206 68.6731 77.4024 68.8251C77.2758 68.9854 77.1365 69.0993 76.9846 69.1669C76.8327 69.2344 76.6555 69.2808 76.4529 69.3061C76.2841 69.3314 76.0605 69.3483 75.782 69.3568C75.5035 69.3652 75.2165 69.361 74.9211 69.3441C74.9127 69.1415 74.8705 68.9137 74.7945 68.6605C74.7186 68.4157 74.6257 68.2047 74.516 68.0275C74.7776 68.0528 75.0224 68.0697 75.2503 68.0781C75.4866 68.0866 75.6596 68.0908 75.7693 68.0908C75.8622 68.0908 75.9381 68.0824 75.9972 68.0655C76.0647 68.0402 76.128 67.9937 76.1871 67.9262C76.263 67.8418 76.3263 67.6562 76.377 67.3692C76.4276 67.0738 76.474 66.6392 76.5162 66.0653C76.5584 65.4829 76.5922 64.7191 76.6175 63.7739V63.546ZM74.0603 59.4316V61.166H76.4403V59.4316H74.0603ZM72.6804 58.0897H77.9088V62.5079H72.6804V58.0897ZM73.9717 62.1028H75.4528C75.4191 62.7696 75.3642 63.4447 75.2883 64.1283C75.2123 64.8035 75.0857 65.4618 74.9085 66.1032C74.7397 66.7362 74.4949 67.3354 74.1742 67.9009C73.8619 68.4579 73.4484 68.9559 72.9336 69.3947C72.8239 69.2091 72.6719 69.0107 72.4778 68.7997C72.2837 68.5887 72.0938 68.4199 71.9081 68.2933C72.3639 67.9304 72.7226 67.5085 72.9842 67.0274C73.2458 66.5463 73.4442 66.0315 73.5792 65.4829C73.7142 64.9343 73.8071 64.3731 73.8577 63.7992C73.9084 63.2253 73.9463 62.6598 73.9717 62.1028Z" fill="white"/>
<path d="M0 4C0 1.79086 1.79086 0 4 0L336 0C338.209 0 340 1.79086 340 4V42L0 42L0 4Z" fill="#006837"/>
<path d="M162.728 14.0966C162.68 14.3016 162.632 14.5307 162.583 14.7838C162.535 15.025 162.487 15.2541 162.439 15.4711C162.39 15.7243 162.33 16.0257 162.258 16.3753C162.185 16.7129 162.113 17.0626 162.041 17.4243C161.98 17.7739 161.914 18.1175 161.842 18.4551C161.721 18.9615 161.565 19.5523 161.372 20.2275C161.191 20.9026 160.98 21.626 160.739 22.3977C160.51 23.1693 160.244 23.947 159.943 24.7307C159.654 25.5143 159.334 26.286 158.984 27.0455C158.647 27.7931 158.285 28.4743 157.899 29.0892L155.783 28.2572C156.205 27.6906 156.597 27.0576 156.959 26.3583C157.321 25.659 157.652 24.9356 157.954 24.1881C158.255 23.4406 158.526 22.7051 158.767 21.9817C159.008 21.2583 159.213 20.5892 159.382 19.9743C159.551 19.3473 159.684 18.8048 159.78 18.3466C159.949 17.5629 160.082 16.7913 160.178 16.0317C160.287 15.2601 160.335 14.5307 160.323 13.8434L162.728 14.0966ZM168.967 15.8509C169.245 16.2367 169.54 16.7189 169.854 17.2977C170.167 17.8764 170.474 18.4853 170.776 19.1243C171.077 19.7633 171.349 20.3842 171.59 20.987C171.831 21.5778 172.024 22.0902 172.168 22.5243L170.125 23.4647C170.004 22.9704 169.835 22.4158 169.618 21.8009C169.401 21.186 169.154 20.559 168.877 19.92C168.6 19.281 168.304 18.6782 167.991 18.1115C167.677 17.5448 167.358 17.0686 167.032 16.6828L168.967 15.8509ZM155.621 17.8764C155.934 17.9005 156.241 17.9126 156.543 17.9126C156.844 17.9005 157.152 17.8885 157.465 17.8764C157.755 17.8643 158.11 17.8463 158.532 17.8221C158.954 17.786 159.406 17.7498 159.889 17.7136C160.383 17.6775 160.871 17.6413 161.354 17.6051C161.836 17.5569 162.282 17.5207 162.692 17.4966C163.102 17.4604 163.439 17.4424 163.705 17.4424C164.319 17.4424 164.862 17.5448 165.332 17.7498C165.802 17.9548 166.176 18.3044 166.454 18.7987C166.731 19.281 166.869 19.9502 166.869 20.8062C166.869 21.5055 166.833 22.2711 166.761 23.103C166.701 23.9349 166.598 24.7307 166.454 25.4902C166.309 26.2498 166.104 26.8828 165.839 27.3892C165.549 28.0161 165.163 28.4441 164.681 28.6732C164.199 28.9023 163.626 29.0168 162.963 29.0168C162.626 29.0168 162.258 28.9867 161.86 28.9264C161.462 28.8782 161.112 28.8239 160.811 28.7636L160.467 26.6296C160.708 26.6899 160.968 26.7502 161.245 26.8104C161.522 26.8707 161.788 26.919 162.041 26.9551C162.306 26.9792 162.517 26.9913 162.674 26.9913C162.987 26.9913 163.258 26.937 163.488 26.8285C163.729 26.72 163.928 26.503 164.084 26.1775C164.265 25.8158 164.41 25.3516 164.518 24.7849C164.639 24.2062 164.723 23.5853 164.772 22.9221C164.832 22.259 164.862 21.626 164.862 21.0232C164.862 20.5168 164.79 20.1431 164.645 19.9019C164.512 19.6608 164.307 19.498 164.03 19.4136C163.765 19.3292 163.439 19.287 163.054 19.287C162.776 19.287 162.396 19.3111 161.914 19.3594C161.432 19.3955 160.913 19.4438 160.359 19.5041C159.804 19.5523 159.292 19.6065 158.822 19.6668C158.351 19.7271 157.984 19.7753 157.718 19.8115C157.477 19.8477 157.164 19.8899 156.778 19.9381C156.404 19.9863 156.085 20.0346 155.819 20.0828L155.621 17.8764ZM186.148 15.9775C186.148 16.4236 186.148 16.8998 186.148 17.4062C186.148 17.9126 186.148 18.4069 186.148 18.8892C186.148 19.3714 186.148 19.8055 186.148 20.1913C186.148 20.7941 186.16 21.3849 186.184 21.9636C186.208 22.5424 186.233 23.097 186.257 23.6275C186.293 24.1459 186.323 24.6402 186.347 25.1104C186.371 25.5807 186.383 26.0147 186.383 26.4126C186.383 27.1963 186.118 27.8232 185.588 28.2934C185.069 28.7516 184.255 28.9807 183.146 28.9807C182.459 28.9807 181.832 28.8782 181.265 28.6732C180.711 28.4803 180.265 28.1789 179.927 27.769C179.601 27.359 179.439 26.8406 179.439 26.2136C179.439 25.7193 179.571 25.2672 179.837 24.8572C180.102 24.4353 180.506 24.0977 181.048 23.8445C181.591 23.5913 182.266 23.4647 183.074 23.4647C183.954 23.4647 184.756 23.5672 185.479 23.7721C186.202 23.9651 186.854 24.2122 187.432 24.5136C188.011 24.803 188.517 25.1104 188.951 25.436C189.397 25.7615 189.759 26.0509 190.037 26.3041L188.969 28.0764C188.403 27.4856 187.788 26.9611 187.125 26.503C186.462 26.0328 185.78 25.6651 185.081 25.3998C184.394 25.1225 183.707 24.9838 183.019 24.9838C182.465 24.9838 182.031 25.0863 181.717 25.2913C181.416 25.4963 181.265 25.7615 181.265 26.087C181.265 26.4487 181.41 26.726 181.699 26.919C182.001 27.0998 182.399 27.1902 182.893 27.1902C183.291 27.1902 183.598 27.1299 183.815 27.0094C184.044 26.8768 184.207 26.7019 184.304 26.4849C184.4 26.2558 184.448 25.9966 184.448 25.7072C184.448 25.4299 184.436 25.0863 184.412 24.6764C184.4 24.2544 184.382 23.7902 184.358 23.2838C184.334 22.7775 184.31 22.2651 184.285 21.7466C184.273 21.2282 184.267 20.7338 184.267 20.2636C184.267 19.7814 184.267 19.269 184.267 18.7264C184.267 18.1718 184.267 17.6473 184.267 17.153C184.267 16.6587 184.267 16.2668 184.267 15.9775H186.148ZM180.09 19.2689C181.211 19.3413 182.314 19.3775 183.399 19.3775C184.484 19.3775 185.521 19.3413 186.51 19.2689C187.511 19.1966 188.439 19.1062 189.295 18.9977V20.8785C188.511 20.9629 187.619 21.0353 186.618 21.0955C185.618 21.1558 184.563 21.192 183.454 21.2041C182.344 21.2161 181.229 21.192 180.108 21.1317L180.09 19.2689ZM180.361 15.037C181.157 15.1094 181.946 15.1516 182.73 15.1636C183.514 15.1636 184.273 15.1516 185.009 15.1275C185.744 15.1033 186.438 15.0611 187.089 15.0009C187.752 14.9406 188.361 14.8743 188.915 14.8019V16.5924C188.373 16.6526 187.77 16.7069 187.107 16.7551C186.456 16.8033 185.762 16.8395 185.027 16.8636C184.291 16.8877 183.532 16.8998 182.748 16.8998C181.965 16.8998 181.169 16.8817 180.361 16.8455V15.037ZM177.721 14.4221C177.672 14.5427 177.618 14.6994 177.558 14.8924C177.51 15.0853 177.461 15.2782 177.413 15.4711C177.377 15.664 177.347 15.8147 177.323 15.9232C177.262 16.2005 177.196 16.5622 177.124 17.0083C177.051 17.4424 176.973 17.9246 176.889 18.4551C176.816 18.9856 176.75 19.5282 176.69 20.0828C176.629 20.6374 176.575 21.1679 176.527 21.6743C176.491 22.1807 176.473 22.6207 176.473 22.9945C176.473 23.2356 176.479 23.5009 176.491 23.7902C176.515 24.0675 176.539 24.3388 176.563 24.6041C176.647 24.3629 176.738 24.1218 176.834 23.8807C176.943 23.6275 177.051 23.3803 177.16 23.1392C177.268 22.898 177.371 22.669 177.467 22.4519L178.462 23.2658C178.305 23.736 178.137 24.2424 177.956 24.7849C177.787 25.3154 177.63 25.8218 177.485 26.3041C177.353 26.7743 177.25 27.1721 177.178 27.4977C177.154 27.6182 177.13 27.7629 177.106 27.9317C177.082 28.0885 177.076 28.2211 177.088 28.3296C177.088 28.414 177.088 28.5225 177.088 28.6551C177.1 28.7877 177.112 28.9143 177.124 29.0349L175.261 29.1796C175.068 28.5406 174.899 27.7268 174.755 26.7381C174.622 25.7494 174.556 24.6402 174.556 23.4104C174.556 22.7353 174.58 22.0299 174.628 21.2945C174.688 20.559 174.761 19.8477 174.845 19.1604C174.929 18.4611 175.014 17.8282 175.098 17.2615C175.183 16.6828 175.249 16.2186 175.297 15.869C175.333 15.6278 175.363 15.3626 175.388 15.0732C175.424 14.7718 175.448 14.4945 175.46 14.2413L177.721 14.4221ZM204.161 15.1998C203.896 15.3927 203.624 15.5977 203.347 15.8147C203.082 16.0317 202.853 16.2246 202.66 16.3934C202.358 16.6346 201.997 16.9239 201.575 17.2615C201.153 17.5991 200.707 17.9548 200.237 18.3285C199.778 18.7023 199.332 19.064 198.898 19.4136C198.464 19.7633 198.09 20.0707 197.777 20.336C197.451 20.6253 197.234 20.8604 197.126 21.0413C197.017 21.2221 197.017 21.403 197.126 21.5838C197.246 21.7647 197.482 22.0058 197.831 22.3072C198.121 22.5484 198.476 22.8377 198.898 23.1753C199.32 23.5129 199.772 23.8867 200.255 24.2966C200.749 24.7065 201.249 25.1285 201.756 25.5626C202.262 25.9846 202.75 26.4065 203.221 26.8285C203.703 27.2385 204.131 27.6303 204.505 28.0041L202.624 29.7221C202.154 29.1916 201.659 28.6672 201.141 28.1487C200.851 27.8473 200.484 27.4916 200.038 27.0817C199.591 26.6718 199.103 26.2438 198.573 25.7977C198.054 25.3395 197.536 24.8934 197.017 24.4594C196.511 24.0133 196.053 23.6154 195.643 23.2658C195.052 22.7594 194.666 22.3072 194.485 21.9094C194.317 21.5115 194.341 21.1136 194.558 20.7158C194.787 20.3058 195.197 19.8597 195.788 19.3775C196.137 19.1002 196.541 18.7746 196.999 18.4009C197.469 18.015 197.952 17.6172 198.446 17.2072C198.94 16.7853 199.405 16.3814 199.839 15.9955C200.285 15.6097 200.658 15.2661 200.96 14.9647C201.201 14.7356 201.442 14.4885 201.683 14.2232C201.937 13.958 202.129 13.7229 202.262 13.5179L204.161 15.1998ZM217.255 12.9392H219.334V16.52H217.255V12.9392ZM217.273 17.1349H219.298V29.9392H217.273V17.1349ZM210.111 15.3626H226.623V17.2615H210.111V15.3626ZM211.865 19.3232H223.783V21.2041H213.818V27.6966H211.865V19.3232ZM223.042 19.3232H225.049V25.5264C225.049 26.0087 224.983 26.3945 224.85 26.6838C224.73 26.9732 224.495 27.1963 224.145 27.353C223.783 27.4977 223.337 27.5881 222.807 27.6243C222.288 27.6604 221.661 27.6785 220.926 27.6785C220.89 27.3892 220.805 27.0697 220.673 26.72C220.54 26.3583 220.407 26.0448 220.275 25.7796C220.612 25.7916 220.938 25.8037 221.251 25.8158C221.577 25.8158 221.866 25.8158 222.119 25.8158C222.373 25.8158 222.548 25.8158 222.644 25.8158C222.789 25.8037 222.891 25.7796 222.951 25.7434C223.012 25.6952 223.042 25.6108 223.042 25.4902V19.3232Z" fill="white"/>
<path d="M135.328 9.12194C139.845 9.12194 144.672 11.7187 144.672 19.0086C144.672 24.7284 137.514 31.2161 135.529 32.9057C135.486 32.9419 135.444 32.9775 135.406 33.0094C135.38 33.0309 135.351 33.0554 135.328 33.075C135.309 33.0591 135.284 33.0388 135.263 33.021C135.217 32.9824 135.166 32.9389 135.112 32.8935C135.062 32.8512 135.011 32.8064 134.954 32.7579C134.938 32.7444 134.919 32.7279 134.903 32.7144C134.773 32.6009 134.628 32.4758 134.47 32.3347C134.456 32.3219 134.441 32.3078 134.426 32.2949C131.838 29.9839 125.983 24.185 125.983 19.0086C125.983 11.7187 130.811 9.12194 135.328 9.12194Z" fill="#F5A210"/>
<path d="M143.66 18.4369C143.66 13.8266 139.909 10.0762 135.299 10.0762C130.689 10.0762 126.938 13.8266 126.938 18.4369C126.938 23.0472 130.689 26.7976 135.299 26.7976C139.909 26.7976 143.66 23.0472 143.66 18.4369ZM127.922 18.4369C127.922 14.3694 131.231 11.0599 135.299 11.0599C139.366 11.0599 142.676 14.3694 142.676 18.4369C142.676 22.5044 139.366 25.8139 135.299 25.8139C131.231 25.8139 127.922 22.5044 127.922 18.4369Z" fill="white"/>
<path d="M139.725 23.3548C139.996 23.3548 140.216 23.134 140.216 22.8629V17.4528C140.216 17.3124 140.157 17.1787 140.052 17.0848L139.233 16.3581V13.5184C139.233 13.2473 139.013 13.0265 138.741 13.0265H136.774C136.503 13.0265 136.283 13.2473 136.283 13.5184V13.7349L135.626 13.151C135.439 12.9848 135.158 12.9848 134.972 13.151L130.546 17.0848C130.441 17.1787 130.381 17.3124 130.381 17.4528V22.8629C130.381 23.134 130.601 23.3548 130.872 23.3548H139.725ZM131.364 17.6736L135.299 14.1765L136.447 15.1977C136.592 15.3265 136.799 15.3577 136.975 15.2786C137.152 15.1989 137.266 15.0235 137.266 14.8303V14.0103H138.249V16.5788C138.249 16.7193 138.31 16.853 138.414 16.9462L139.233 17.6736V22.371H136.774V19.4203C136.774 19.1486 136.554 18.9285 136.283 18.9285H134.315C134.043 18.9285 133.823 19.1486 133.823 19.4203V22.371H131.364V17.6736ZM134.807 22.371V19.9122H135.791V22.371H134.807Z" fill="white"/>
</svg>
