<svg width="340" height="192" viewBox="0 0 340 192" fill="none" xmlns="http://www.w3.org/2000/svg">
<path d="M117.553 84.0957H0V116.649H117.553V84.0957Z" fill="white"/>
<path d="M117.553 121.17H0V154.627H117.553V121.17Z" fill="white"/>
<path d="M117.553 159.149H0V191.702H117.553V159.149Z" fill="white"/>
<path d="M115.463 46.1167H2.08983C0.935651 46.1167 0 47.6146 0 49.4624V76.2284C0 78.0762 0.935651 79.5741 2.08983 79.5741H115.463C116.618 79.5741 117.553 78.0762 117.553 76.2284V49.4624C117.553 47.6146 116.618 46.1167 115.463 46.1167Z" fill="#5B9E4D"/>
<path d="M252.287 84.0957H122.074V117.553H252.287V84.0957Z" fill="white"/>
<path d="M252.287 121.17H122.074V154.627H252.287V121.17Z" fill="white"/>
<path d="M252.287 159.149H122.074V191.702H252.287V159.149Z" fill="white"/>
<path d="M249.972 46.1167H124.389C123.111 46.1167 122.074 47.6146 122.074 49.4624V76.2284C122.074 78.0762 123.111 79.5741 124.389 79.5741H249.972C251.251 79.5741 252.287 78.0762 252.287 76.2284V49.4624C252.287 47.6146 251.251 46.1167 249.972 46.1167Z" fill="#5B9E4D"/>
<path d="M340 84.0957H256.808V116.649H340V84.0957Z" fill="white"/>
<path d="M340 121.17H256.808V154.627H340V121.17Z" fill="white"/>
<path d="M340 159.149H256.808V191.702H340V159.149Z" fill="white"/>
<path d="M338.521 46.1167H258.287C257.471 46.1167 256.808 47.6146 256.808 49.4624V76.2284C256.808 78.0762 257.471 79.5741 258.287 79.5741H338.521C339.338 79.5741 340 78.0762 340 76.2284V49.4624C340 47.6146 339.338 46.1167 338.521 46.1167Z" fill="#5B9E4D"/>
<path d="M157.415 106.234V105.425L160.454 102.098C160.811 101.708 161.105 101.37 161.336 101.082C161.566 100.791 161.737 100.518 161.848 100.264C161.962 100.006 162.019 99.7363 162.019 99.4545C162.019 99.1309 161.941 98.8506 161.785 98.6139C161.632 98.3771 161.423 98.1943 161.156 98.0654C160.889 97.9365 160.589 97.8721 160.257 97.8721C159.903 97.8721 159.594 97.9455 159.331 98.0924C159.07 98.2362 158.868 98.4385 158.724 98.6993C158.583 98.96 158.512 99.2657 158.512 99.6164H157.451C157.451 99.0769 157.576 98.6034 157.825 98.1958C158.073 97.7882 158.412 97.4705 158.841 97.2427C159.272 97.0149 159.756 96.901 160.293 96.901C160.832 96.901 161.31 97.0149 161.727 97.2427C162.143 97.4705 162.47 97.7777 162.707 98.1643C162.944 98.5509 163.062 98.981 163.062 99.4545C163.062 99.7932 163 100.124 162.878 100.448C162.758 100.769 162.548 101.127 162.248 101.523C161.951 101.915 161.539 102.395 161.012 102.961L158.944 105.173V105.245H163.224V106.234H157.415ZM166.681 104.975L166.609 105.461C166.558 105.802 166.48 106.168 166.375 106.558C166.273 106.947 166.167 107.314 166.056 107.659C165.945 108.004 165.854 108.278 165.782 108.482H164.973C165.011 108.29 165.062 108.037 165.125 107.722C165.188 107.407 165.251 107.055 165.314 106.665C165.38 106.279 165.434 105.883 165.476 105.479L165.53 104.975H166.681ZM171.31 106.36C170.633 106.36 170.056 106.175 169.579 105.807C169.103 105.435 168.739 104.897 168.487 104.193C168.235 103.486 168.109 102.631 168.109 101.63C168.109 100.635 168.235 99.7857 168.487 99.0814C168.742 98.3741 169.107 97.8346 169.584 97.463C170.063 97.0884 170.639 96.901 171.31 96.901C171.982 96.901 172.555 97.0884 173.032 97.463C173.512 97.8346 173.877 98.3741 174.129 99.0814C174.384 99.7857 174.511 100.635 174.511 101.63C174.511 102.631 174.385 103.486 174.133 104.193C173.882 104.897 173.518 105.435 173.041 105.807C172.564 106.175 171.988 106.36 171.31 106.36ZM171.31 105.371C171.982 105.371 172.503 105.047 172.875 104.4C173.246 103.752 173.432 102.829 173.432 101.63C173.432 100.833 173.347 100.154 173.176 99.5939C173.008 99.0335 172.765 98.6064 172.448 98.3127C172.133 98.0189 171.754 97.8721 171.31 97.8721C170.645 97.8721 170.125 98.2003 169.75 98.8566C169.376 99.51 169.188 100.435 169.188 101.63C169.188 102.428 169.272 103.105 169.44 103.662C169.608 104.22 169.849 104.644 170.164 104.935C170.482 105.225 170.864 105.371 171.31 105.371ZM179.222 106.36C178.545 106.36 177.968 106.175 177.492 105.807C177.015 105.435 176.651 104.897 176.399 104.193C176.147 103.486 176.022 102.631 176.022 101.63C176.022 100.635 176.147 99.7857 176.399 99.0814C176.654 98.3741 177.02 97.8346 177.496 97.463C177.976 97.0884 178.551 96.901 179.222 96.901C179.894 96.901 180.468 97.0884 180.944 97.463C181.424 97.8346 181.789 98.3741 182.041 99.0814C182.296 99.7857 182.423 100.635 182.423 101.63C182.423 102.631 182.297 103.486 182.046 104.193C181.794 104.897 181.43 105.435 180.953 105.807C180.477 106.175 179.9 106.36 179.222 106.36ZM179.222 105.371C179.894 105.371 180.415 105.047 180.787 104.4C181.159 103.752 181.344 102.829 181.344 101.63C181.344 100.833 181.259 100.154 181.088 99.5939C180.92 99.0335 180.677 98.6064 180.36 98.3127C180.045 98.0189 179.666 97.8721 179.222 97.8721C178.557 97.8721 178.037 98.2003 177.662 98.8566C177.288 99.51 177.101 100.435 177.101 101.63C177.101 102.428 177.184 103.105 177.352 103.662C177.52 104.22 177.761 104.644 178.076 104.935C178.394 105.225 178.776 105.371 179.222 105.371ZM187.135 106.36C186.457 106.36 185.88 106.175 185.404 105.807C184.927 105.435 184.563 104.897 184.311 104.193C184.06 103.486 183.934 102.631 183.934 101.63C183.934 100.635 184.06 99.7857 184.311 99.0814C184.566 98.3741 184.932 97.8346 185.408 97.463C185.888 97.0884 186.463 96.901 187.135 96.901C187.806 96.901 188.38 97.0884 188.856 97.463C189.336 97.8346 189.702 98.3741 189.953 99.0814C190.208 99.7857 190.336 100.635 190.336 101.63C190.336 102.631 190.21 103.486 189.958 104.193C189.706 104.897 189.342 105.435 188.865 105.807C188.389 106.175 187.812 106.36 187.135 106.36ZM187.135 105.371C187.806 105.371 188.327 105.047 188.699 104.4C189.071 103.752 189.257 102.829 189.257 101.63C189.257 100.833 189.171 100.154 189 99.5939C188.832 99.0335 188.59 98.6064 188.272 98.3127C187.957 98.0189 187.578 97.8721 187.135 97.8721C186.469 97.8721 185.949 98.2003 185.575 98.8566C185.2 99.51 185.013 100.435 185.013 101.63C185.013 102.428 185.097 103.105 185.264 103.662C185.432 104.22 185.674 104.644 185.988 104.935C186.306 105.225 186.688 105.371 187.135 105.371ZM191.876 96.562H202.965V97.4861H191.876V96.562ZM195.825 100.081H201.155V101.005H195.825V100.081ZM200.826 100.081H201.813C201.813 100.081 201.801 100.41 201.788 100.55C201.573 104.639 201.358 106.171 200.864 106.702C200.573 107.031 200.256 107.12 199.763 107.158C199.294 107.196 198.395 107.171 197.535 107.12C197.509 106.842 197.383 106.449 197.193 106.183C198.142 106.285 199.066 106.285 199.408 106.285C199.699 106.285 199.864 106.259 200.003 106.12C200.421 105.753 200.636 104.17 200.826 100.246V100.081ZM195.306 97.3089H196.281C196.18 100.904 195.952 105.196 192.205 107.272C192.053 107.031 191.762 106.728 191.509 106.538C195.104 104.639 195.218 100.6 195.306 97.3089ZM204.89 96.4607H214.815V97.4102H205.839V107.259H204.89V96.4607ZM214.384 96.4607H215.347V105.993C215.347 106.601 215.195 106.905 214.764 107.069C214.346 107.221 213.625 107.247 212.485 107.247C212.435 106.981 212.27 106.55 212.118 106.285C212.992 106.323 213.815 106.31 214.068 106.297C214.308 106.297 214.384 106.221 214.384 105.993V96.4607ZM205.409 101.145H214.827V102.082H205.409V101.145ZM209.561 96.9418H210.511V101.6H209.561V96.9418Z" fill="black"/>
<path d="M293.523 174.806C293.916 174.843 294.574 174.881 295.296 174.881C296.22 174.881 301.296 174.881 302.233 174.881C302.866 174.881 303.309 174.831 303.6 174.806V176.046C303.334 176.033 302.803 175.996 302.246 175.996C301.284 175.996 296.232 175.996 295.296 175.996C294.599 175.996 293.928 176.021 293.523 176.046V174.806Z" fill="black"/>
<path d="M161.903 172.08V181.287H160.788V173.249H160.735L158.487 174.742V173.609L160.788 172.08H161.903ZM165.608 180.028L165.536 180.514C165.485 180.856 165.407 181.221 165.302 181.611C165.2 182 165.094 182.368 164.983 182.712C164.872 183.057 164.781 183.331 164.709 183.535H163.899C163.938 183.343 163.989 183.09 164.052 182.775C164.115 182.46 164.178 182.108 164.241 181.719C164.307 181.332 164.361 180.936 164.403 180.532L164.457 180.028H165.608ZM167.34 179.399V178.482L171.386 172.08H172.051V173.501H171.601L168.544 178.338V178.41H173.993V179.399H167.34ZM171.673 181.287V179.12V178.693V172.08H172.734V181.287H171.673ZM178.627 181.413C178.01 181.413 177.464 181.304 176.991 181.085C176.52 180.863 176.153 180.559 175.889 180.172C175.625 179.783 175.495 179.339 175.498 178.842C175.495 178.452 175.571 178.092 175.727 177.763C175.883 177.43 176.096 177.153 176.366 176.931C176.638 176.706 176.943 176.564 177.278 176.504V176.45C176.838 176.336 176.487 176.089 176.226 175.708C175.966 175.324 175.837 174.888 175.84 174.4C175.837 173.932 175.955 173.514 176.195 173.146C176.435 172.777 176.764 172.486 177.184 172.273C177.606 172.061 178.087 171.954 178.627 171.954C179.16 171.954 179.637 172.061 180.057 172.273C180.476 172.486 180.806 172.777 181.046 173.146C181.288 173.514 181.411 173.932 181.414 174.4C181.411 174.888 181.278 175.324 181.014 175.708C180.753 176.089 180.407 176.336 179.976 176.45V176.504C180.308 176.564 180.608 176.706 180.875 176.931C181.141 177.153 181.354 177.43 181.513 177.763C181.672 178.092 181.753 178.452 181.756 178.842C181.753 179.339 181.618 179.783 181.351 180.172C181.088 180.559 180.72 180.863 180.25 181.085C179.782 181.304 179.241 181.413 178.627 181.413ZM178.627 180.424C179.044 180.424 179.403 180.357 179.706 180.222C180.009 180.087 180.242 179.896 180.407 179.651C180.572 179.405 180.656 179.117 180.659 178.788C180.656 178.44 180.566 178.133 180.389 177.866C180.212 177.599 179.971 177.389 179.665 177.237C179.363 177.084 179.017 177.007 178.627 177.007C178.234 177.007 177.884 177.084 177.575 177.237C177.269 177.389 177.028 177.599 176.851 177.866C176.677 178.133 176.592 178.44 176.595 178.788C176.592 179.117 176.671 179.405 176.833 179.651C176.998 179.896 177.233 180.087 177.539 180.222C177.845 180.357 178.207 180.424 178.627 180.424ZM178.627 176.054C178.957 176.054 179.249 175.988 179.504 175.856C179.761 175.725 179.964 175.54 180.11 175.303C180.257 175.067 180.332 174.789 180.335 174.472C180.332 174.16 180.259 173.889 180.115 173.658C179.971 173.424 179.772 173.245 179.517 173.119C179.262 172.99 178.966 172.925 178.627 172.925C178.282 172.925 177.981 172.99 177.723 173.119C177.466 173.245 177.266 173.424 177.125 173.658C176.985 173.889 176.916 174.16 176.919 174.472C176.916 174.789 176.986 175.067 177.13 175.303C177.277 175.54 177.479 175.725 177.737 175.856C177.995 175.988 178.291 176.054 178.627 176.054ZM183.263 179.399V178.482L187.309 172.08H187.974V173.501H187.525L184.468 178.338V178.41H189.916V179.399H183.263ZM187.597 181.287V179.12V178.693V172.08H188.658V181.287H187.597ZM191.433 171.615H202.523V172.539H191.433V171.615ZM195.383 175.135H200.713V176.059H195.383V175.135ZM200.383 175.135H201.371C201.371 175.135 201.358 175.464 201.345 175.603C201.13 179.692 200.915 181.224 200.421 181.756C200.13 182.085 199.814 182.173 199.32 182.211C198.852 182.249 197.953 182.224 197.092 182.173C197.067 181.895 196.94 181.502 196.75 181.236C197.7 181.338 198.624 181.338 198.965 181.338C199.257 181.338 199.421 181.312 199.56 181.173C199.978 180.806 200.193 179.224 200.383 175.299V175.135ZM194.864 172.362H195.839C195.737 175.957 195.509 180.249 191.762 182.325C191.61 182.085 191.319 181.781 191.066 181.591C194.661 179.692 194.775 175.654 194.864 172.362ZM204.447 171.514H214.372V172.463H205.397V182.313H204.447V171.514ZM213.942 171.514H214.904V181.047C214.904 181.654 214.752 181.958 214.322 182.123C213.904 182.275 213.182 182.3 212.043 182.3C211.992 182.034 211.828 181.604 211.676 181.338C212.549 181.376 213.372 181.363 213.625 181.35C213.866 181.35 213.942 181.274 213.942 181.047V171.514ZM204.966 176.198H214.385V177.135H204.966V176.198ZM209.118 171.995H210.068V176.654H209.118V171.995Z" fill="black"/>
<path d="M149.958 58.5075H161.161V59.9001H149.958V58.5075ZM151.173 60.7229H160.009V62.0395H151.173V60.7229ZM150.122 62.6725H160.997V65.3943H159.465V64.0397H151.591V65.3943H150.122V62.6725ZM154.705 57.5201H156.287V61.4572H154.705V57.5201ZM156.224 64.4322H157.743V67.4198C157.743 67.614 157.773 67.7405 157.832 67.7996C157.899 67.8503 158.047 67.8756 158.275 67.8756C158.326 67.8756 158.406 67.8756 158.516 67.8756C158.634 67.8756 158.76 67.8756 158.895 67.8756C159.039 67.8756 159.17 67.8756 159.288 67.8756C159.406 67.8756 159.495 67.8756 159.554 67.8756C159.697 67.8756 159.803 67.8418 159.87 67.7743C159.946 67.6983 159.997 67.5549 160.022 67.3439C160.056 67.1244 160.081 66.7995 160.098 66.3691C160.199 66.4451 160.33 66.521 160.49 66.597C160.659 66.6729 160.828 66.7404 160.997 66.7995C161.174 66.8502 161.33 66.8966 161.465 66.9388C161.415 67.5464 161.326 68.0148 161.199 68.344C161.073 68.6816 160.891 68.9137 160.655 69.0403C160.419 69.1753 160.098 69.2428 159.693 69.2428C159.617 69.2428 159.503 69.2428 159.351 69.2428C159.208 69.2428 159.047 69.2428 158.87 69.2428C158.701 69.2428 158.541 69.2428 158.389 69.2428C158.245 69.2428 158.136 69.2428 158.06 69.2428C157.57 69.2428 157.191 69.188 156.92 69.0782C156.659 68.9685 156.477 68.7786 156.376 68.5086C156.275 68.2469 156.224 67.8882 156.224 67.4325V64.4322ZM153.097 64.4322H154.667C154.625 65.0652 154.54 65.6433 154.414 66.1665C154.287 66.6898 154.076 67.1582 153.781 67.5718C153.494 67.9853 153.08 68.344 152.54 68.6478C152.009 68.9601 151.308 69.2217 150.439 69.4327C150.397 69.2977 150.329 69.15 150.236 68.9896C150.143 68.8293 150.038 68.6689 149.92 68.5086C149.81 68.3566 149.704 68.2258 149.603 68.1161C150.363 67.9726 150.966 67.7912 151.414 67.5718C151.861 67.3523 152.198 67.0907 152.426 66.7869C152.654 66.483 152.81 66.137 152.895 65.7488C152.988 65.3605 153.055 64.9217 153.097 64.4322ZM172.163 58.2543H173.644V65.7108C173.644 66.0568 173.606 66.348 173.53 66.5843C173.462 66.8122 173.319 66.9894 173.099 67.116C172.897 67.251 172.652 67.3354 172.365 67.3692C172.078 67.403 171.745 67.4198 171.365 67.4198C171.348 67.2764 171.314 67.1076 171.264 66.9135C171.213 66.7193 171.154 66.5294 171.087 66.3438C171.019 66.1581 170.951 65.9977 170.884 65.8627C171.103 65.8712 171.319 65.8754 171.53 65.8754C171.749 65.8754 171.897 65.8754 171.973 65.8754C172.04 65.8754 172.087 65.8627 172.112 65.8374C172.146 65.8036 172.163 65.7488 172.163 65.6728V58.2543ZM169.023 58.2543H172.872V59.6848H170.504V69.3947H169.023V58.2543ZM162.681 59.2924H168.238V60.6723H162.681V59.2924ZM162.263 62.2801H168.631V63.6853H162.263V62.2801ZM164.757 57.4947H166.238V63.027H164.757V57.4947ZM162.263 66.7489C162.702 66.7067 163.204 66.656 163.769 66.597C164.335 66.5379 164.93 66.4746 165.554 66.4071C166.187 66.3396 166.816 66.272 167.441 66.2045L167.504 67.5464C166.618 67.673 165.732 67.7954 164.845 67.9136C163.968 68.0233 163.178 68.1246 162.478 68.2174L162.263 66.7489ZM165.972 64.9386L167.2 64.4448C167.428 64.8162 167.652 65.2213 167.871 65.6602C168.099 66.0906 168.301 66.5126 168.479 66.9261C168.656 67.3312 168.787 67.6983 168.871 68.0275L167.529 68.5845C167.462 68.2723 167.343 67.9093 167.175 67.4958C167.006 67.0738 166.816 66.6392 166.605 66.1919C166.402 65.7446 166.191 65.3268 165.972 64.9386ZM164.124 63.1409L165.732 63.5713C165.58 64.0102 165.415 64.4617 165.238 64.9259C165.061 65.3901 164.888 65.8332 164.719 66.2552C164.55 66.6771 164.385 67.0485 164.225 67.3692L162.984 66.9768C163.128 66.6307 163.271 66.2383 163.415 65.7994C163.558 65.3521 163.693 64.8964 163.82 64.4322C163.947 63.968 164.048 63.5376 164.124 63.1409ZM178.543 58.7354H186.632V60.1026H178.543V58.7354ZM178.67 61.6851H186.569V69.0403H185.101V63.0143H180.062V69.1162H178.67V61.6851ZM180.72 58.9126H182.151V62.6725H180.72V58.9126ZM182.987 58.8999H184.417V62.6598H182.987V58.8999ZM179.303 67.0907H186.177V68.3946H179.303V67.0907ZM180.86 62.6598H182.138V68.1035H180.86V62.6598ZM182.987 62.6472H184.265V68.0908H182.987V62.6472ZM177.454 57.5327L178.822 57.9631C178.568 58.6552 178.264 59.3515 177.91 60.052C177.556 60.7525 177.172 61.415 176.758 62.0395C176.344 62.6556 175.918 63.2 175.479 63.6726C175.429 63.5544 175.357 63.3983 175.264 63.2042C175.18 63.0101 175.083 62.816 174.973 62.6219C174.872 62.4193 174.779 62.259 174.694 62.1408C175.066 61.7694 175.42 61.339 175.758 60.8495C176.104 60.3516 176.42 59.8199 176.707 59.2544C176.994 58.689 177.243 58.1151 177.454 57.5327ZM176.239 61.0647L177.657 59.6342L177.669 59.6595V69.3821H176.239V61.0647ZM194.304 58.8366H197.646V60.1406H194.304V58.8366ZM193 64.6347H198.52V69.3568H197.051V65.9133H194.405V69.3947H193V64.6347ZM193.557 67.6477H197.862V68.9516H193.557V67.6477ZM194.443 57.4821L195.899 57.8872C195.663 58.4611 195.384 59.0223 195.064 59.5709C194.743 60.1195 194.393 60.6301 194.013 61.1027C193.642 61.5753 193.258 61.9889 192.861 62.3433C192.785 62.2505 192.675 62.1408 192.532 62.0142C192.388 61.8792 192.241 61.7483 192.089 61.6218C191.945 61.4952 191.814 61.3939 191.696 61.3179C192.279 60.8706 192.81 60.3094 193.291 59.6342C193.781 58.9506 194.165 58.2332 194.443 57.4821ZM197.254 58.8366H197.52L197.773 58.786L198.735 59.2291C198.465 60.0309 198.115 60.7651 197.684 61.4319C197.262 62.0986 196.773 62.6936 196.216 63.2169C195.659 63.7401 195.051 64.2001 194.393 64.5968C193.743 64.9934 193.059 65.3226 192.342 65.5842C192.249 65.407 192.118 65.196 191.949 64.9512C191.789 64.7065 191.633 64.5081 191.481 64.3562C192.139 64.1621 192.768 63.8963 193.367 63.5587C193.975 63.2126 194.532 62.816 195.038 62.3687C195.553 61.9129 196.001 61.4108 196.38 60.8622C196.76 60.3052 197.051 59.7144 197.254 59.0898V58.8366ZM194.367 59.7228C194.629 60.2798 195.005 60.8453 195.494 61.4192C195.984 61.9847 196.579 62.4995 197.279 62.9637C197.988 63.4279 198.786 63.7865 199.672 64.0397C199.579 64.1326 199.469 64.2549 199.343 64.4069C199.225 64.5588 199.111 64.7149 199.001 64.8753C198.9 65.0356 198.815 65.1749 198.748 65.293C197.836 64.9723 197.018 64.5461 196.292 64.0144C195.574 63.4743 194.958 62.8793 194.443 62.2294C193.937 61.5796 193.532 60.9381 193.228 60.3052L194.367 59.7228ZM187.772 60.1153H192.291V61.5205H187.772V60.1153ZM189.443 57.4947H190.873V69.3821H189.443V57.4947ZM189.418 61.0901L190.291 61.3812C190.19 61.8876 190.067 62.4151 189.924 62.9637C189.789 63.5038 189.629 64.0355 189.443 64.5588C189.257 65.0736 189.059 65.5547 188.848 66.002C188.637 66.4493 188.413 66.8333 188.177 67.154C188.109 66.9514 188.004 66.7193 187.86 66.4577C187.717 66.1961 187.586 65.9724 187.468 65.7868C187.687 65.5082 187.894 65.1833 188.088 64.812C188.282 64.4406 188.464 64.0482 188.633 63.6346C188.81 63.2126 188.962 62.7864 189.088 62.356C189.223 61.9171 189.333 61.4952 189.418 61.0901ZM190.823 61.7737C190.899 61.8412 191.008 61.9593 191.152 62.1281C191.304 62.2969 191.464 62.4826 191.633 62.6852C191.802 62.8877 191.954 63.0734 192.089 63.2422C192.232 63.411 192.333 63.5291 192.393 63.5966L191.57 64.7487C191.494 64.5883 191.392 64.4026 191.266 64.1916C191.148 63.9807 191.017 63.7612 190.873 63.5333C190.738 63.3055 190.603 63.0903 190.468 62.8877C190.342 62.6852 190.232 62.5206 190.139 62.394L190.823 61.7737ZM206.47 61.1787H211.002V62.5586H206.47V61.1787ZM206.47 64.179H211.002V65.5462H206.47V64.179ZM206.47 67.1666H211.002V68.5465H206.47V67.1666ZM205.748 58.1783H211.711V69.2048H210.192V59.6215H207.204V69.2808H205.748V58.1783ZM200.431 60.1153H205.293V61.5458H200.431V60.1153ZM202.254 57.4947H203.71V69.3821H202.254V57.4947ZM202.178 61.0901L203.077 61.4065C202.976 61.9214 202.849 62.4531 202.697 63.0016C202.546 63.5418 202.373 64.0735 202.178 64.5968C201.984 65.1116 201.773 65.5969 201.545 66.0526C201.318 66.4999 201.077 66.8839 200.824 67.2046C200.756 66.9936 200.651 66.7531 200.507 66.483C200.364 66.2045 200.229 65.9724 200.102 65.7868C200.33 65.5082 200.55 65.1833 200.761 64.812C200.972 64.4406 201.166 64.0482 201.343 63.6346C201.529 63.2126 201.693 62.7864 201.837 62.356C201.98 61.9171 202.094 61.4952 202.178 61.0901ZM203.609 62.2041C203.702 62.2885 203.837 62.4362 204.014 62.6472C204.191 62.8497 204.377 63.0734 204.571 63.3181C204.774 63.5629 204.959 63.7908 205.128 64.0018C205.305 64.2043 205.428 64.3478 205.495 64.4322L204.622 65.6602C204.529 65.4745 204.411 65.2551 204.267 65.0019C204.124 64.7487 203.968 64.4913 203.799 64.2296C203.63 63.968 203.465 63.719 203.305 63.4827C203.153 63.2464 203.022 63.0481 202.913 62.8877L203.609 62.2041ZM216.788 62.6092H224.814V63.8878H216.788V62.6092ZM218.167 64.4828H223.371V65.6855H218.167V64.4828ZM218.649 63.0776L219.952 63.4068C219.64 64.1326 219.214 64.8035 218.674 65.4196C218.142 66.0273 217.577 66.5294 216.977 66.9261C216.902 66.8417 216.8 66.7404 216.674 66.6223C216.555 66.4957 216.429 66.3775 216.294 66.2678C216.167 66.1581 216.053 66.0695 215.952 66.002C216.543 65.6813 217.075 65.2677 217.547 64.7613C218.028 64.2465 218.395 63.6853 218.649 63.0776ZM223.143 64.4828H224.548C224.548 64.4828 224.544 64.5503 224.535 64.6854C224.535 64.812 224.527 64.9217 224.51 65.0145C224.459 65.8332 224.396 66.5083 224.32 67.0401C224.253 67.5633 224.177 67.9684 224.092 68.2554C224.008 68.5508 223.906 68.7618 223.788 68.8883C223.67 69.0318 223.539 69.1331 223.396 69.1922C223.261 69.2513 223.109 69.2935 222.94 69.3188C222.797 69.3357 222.611 69.3483 222.383 69.3568C222.164 69.3652 221.923 69.361 221.662 69.3441C221.653 69.1669 221.619 68.9601 221.56 68.7238C221.501 68.4959 221.421 68.306 221.32 68.1541C221.522 68.171 221.704 68.1836 221.864 68.1921C222.024 68.1921 222.147 68.1921 222.231 68.1921C222.316 68.1921 222.383 68.1836 222.434 68.1668C222.493 68.1499 222.548 68.1119 222.598 68.0528C222.674 67.9684 222.742 67.8081 222.801 67.5718C222.868 67.327 222.927 66.9725 222.978 66.5083C223.037 66.0442 223.092 65.4407 223.143 64.698V64.4828ZM219.256 60.4697V61.0774H222.522V60.4697H219.256ZM219.256 58.8746V59.4696H222.522V58.8746H219.256ZM217.902 57.8239H223.928V62.1281H217.902V57.8239ZM213.091 60.1659H216.952V61.5964H213.091V60.1659ZM214.37 57.6593H215.787V65.5336H214.37V57.6593ZM212.8 65.7868C213.129 65.6686 213.509 65.5209 213.939 65.3437C214.378 65.1664 214.842 64.9765 215.332 64.774C215.821 64.563 216.307 64.352 216.788 64.141L217.117 65.4449C216.484 65.7741 215.838 66.1032 215.18 66.4324C214.522 66.7615 213.918 67.0612 213.369 67.3312L212.8 65.7868ZM221.687 64.736L222.712 65.293C222.56 65.7994 222.345 66.3185 222.067 66.8502C221.788 67.3734 221.476 67.8629 221.13 68.3187C220.784 68.7744 220.421 69.15 220.041 69.4454C219.914 69.3019 219.75 69.15 219.547 68.9896C219.345 68.8293 219.146 68.6985 218.952 68.5972C219.366 68.3355 219.75 67.998 220.104 67.5844C220.459 67.1709 220.771 66.7151 221.041 66.2172C221.32 65.7192 221.535 65.2255 221.687 64.736ZM219.775 64.7487L220.763 65.331C220.552 65.7699 220.273 66.213 219.927 66.6603C219.59 67.1076 219.218 67.5253 218.813 67.9136C218.408 68.3018 218.003 68.6225 217.598 68.8757C217.48 68.7238 217.328 68.5634 217.142 68.3946C216.965 68.2258 216.788 68.0866 216.61 67.9769C217.024 67.7659 217.433 67.4874 217.838 67.1413C218.252 66.7953 218.627 66.4155 218.965 66.002C219.303 65.58 219.573 65.1622 219.775 64.7487Z" fill="white"/>
<path d="M280.324 60.8622H284.882V61.9129H280.324V60.8622ZM281.919 61.1787H283.299V63.7359H281.919V61.1787ZM280.021 63.4447C280.434 63.3857 280.903 63.3224 281.426 63.2548C281.957 63.1873 282.519 63.1114 283.109 63.027C283.709 62.9426 284.299 62.8582 284.882 62.7738L284.945 63.9131C284.11 64.0397 283.274 64.1663 282.439 64.2929C281.603 64.4195 280.856 64.5335 280.198 64.6347L280.021 63.4447ZM285.452 60.7989H286.831V62.1028C286.831 62.4742 286.777 62.8413 286.667 63.2042C286.566 63.5587 286.367 63.8963 286.072 64.217C285.776 64.5292 285.346 64.7951 284.781 65.0145C284.721 64.9217 284.629 64.812 284.502 64.6854C284.375 64.5503 284.245 64.4237 284.11 64.3056C283.975 64.179 283.861 64.0819 283.768 64.0144C284.266 63.8372 284.633 63.6473 284.869 63.4447C285.114 63.2337 285.27 63.0101 285.338 62.7738C285.414 62.5375 285.452 62.3012 285.452 62.0648V60.7989ZM288.68 60.7989H290.11V63.0396C290.11 63.1409 290.11 63.2253 290.11 63.2928C290.11 63.3603 290.119 63.4025 290.136 63.4194C290.152 63.4532 290.195 63.4701 290.262 63.4701C290.287 63.4701 290.317 63.4701 290.351 63.4701C290.393 63.4701 290.427 63.4701 290.452 63.4701C290.486 63.4701 290.515 63.4701 290.541 63.4701C290.566 63.4616 290.591 63.4532 290.617 63.4447C290.65 63.4194 290.68 63.335 290.705 63.1915C290.722 63.124 290.731 63.0143 290.731 62.8624C290.739 62.702 290.747 62.5164 290.756 62.3054C290.866 62.4066 291.018 62.5079 291.212 62.6092C291.406 62.702 291.583 62.778 291.743 62.8371C291.726 63.0734 291.701 63.3097 291.667 63.546C291.642 63.7739 291.613 63.9427 291.579 64.0524C291.486 64.2803 291.342 64.4406 291.148 64.5335C291.064 64.5841 290.958 64.6221 290.832 64.6474C290.705 64.6643 290.587 64.6727 290.477 64.6727C290.376 64.6727 290.266 64.6727 290.148 64.6727C290.03 64.6727 289.929 64.6727 289.844 64.6727C289.692 64.6727 289.536 64.6474 289.376 64.5968C289.224 64.5461 289.093 64.4702 288.984 64.3689C288.874 64.2592 288.794 64.1199 288.743 63.9511C288.701 63.7739 288.68 63.4869 288.68 63.0903V60.7989ZM280.008 65.2424H291.528V66.4324H280.008V65.2424ZM285.008 64.4828H286.49V69.3441H285.008V64.4828ZM284.578 65.9387L285.717 66.4324C285.43 66.7362 285.097 67.0274 284.717 67.3059C284.337 67.576 283.928 67.8249 283.489 68.0528C283.05 68.2807 282.595 68.479 282.122 68.6478C281.649 68.8251 281.177 68.9727 280.704 69.0909C280.594 68.9052 280.447 68.69 280.261 68.4453C280.084 68.2005 279.919 68.0022 279.767 67.8503C280.223 67.7743 280.683 67.673 281.147 67.5464C281.62 67.4198 282.067 67.2764 282.489 67.116C282.92 66.9472 283.312 66.7658 283.667 66.5716C284.029 66.3775 284.333 66.1665 284.578 65.9387ZM286.869 66.0146C287.139 66.2256 287.452 66.424 287.806 66.6096C288.169 66.7869 288.566 66.9514 288.996 67.1033C289.435 67.2553 289.887 67.3861 290.351 67.4958C290.815 67.6055 291.283 67.6941 291.756 67.7616C291.646 67.8629 291.528 67.9937 291.402 68.1541C291.275 68.306 291.157 68.4621 291.047 68.6225C290.946 68.7829 290.857 68.9263 290.781 69.0529C290.317 68.9516 289.849 68.8166 289.376 68.6478C288.912 68.4875 288.46 68.2976 288.021 68.0781C287.591 67.8503 287.186 67.6013 286.806 67.3312C286.426 67.0612 286.089 66.77 285.793 66.4577L286.869 66.0146ZM281.578 58.3936H285.578V59.5836H281.578V58.3936ZM286.705 58.3936H291.617V59.5836H286.705V58.3936ZM281.641 57.3935L283.046 57.7859C282.801 58.3345 282.489 58.8746 282.109 59.4063C281.738 59.9296 281.367 60.3685 280.995 60.7229C280.911 60.6385 280.793 60.5457 280.641 60.4444C280.489 60.3347 280.333 60.2334 280.172 60.1406C280.021 60.0393 279.886 59.9549 279.767 59.8874C280.156 59.5836 280.514 59.2122 280.843 58.7733C281.181 58.326 281.447 57.8661 281.641 57.3935ZM286.793 57.3935L288.237 57.7479C288 58.3218 287.692 58.8746 287.312 59.4063C286.941 59.9296 286.566 60.3685 286.186 60.7229C286.076 60.647 285.941 60.5626 285.781 60.4697C285.62 60.3769 285.456 60.2883 285.287 60.2039C285.118 60.111 284.97 60.0393 284.844 59.9887C285.266 59.6848 285.646 59.3008 285.983 58.8366C286.329 58.3725 286.599 57.8914 286.793 57.3935ZM282.059 59.3557L283.211 59.0392C283.363 59.2418 283.506 59.4696 283.641 59.7228C283.785 59.976 283.894 60.1954 283.97 60.3811L282.742 60.7356C282.683 60.5499 282.59 60.3263 282.464 60.0646C282.337 59.803 282.202 59.5667 282.059 59.3557ZM287.705 59.343L288.933 59.0139C289.11 59.208 289.287 59.4316 289.465 59.6848C289.65 59.938 289.785 60.1617 289.87 60.3558L288.578 60.7229C288.502 60.5372 288.38 60.3136 288.211 60.052C288.051 59.7903 287.882 59.554 287.705 59.343ZM286.566 62.8497L287.439 62.0902C287.608 62.1999 287.785 62.3307 287.971 62.4826C288.165 62.6261 288.342 62.7696 288.502 62.913C288.663 63.0481 288.794 63.1789 288.895 63.3055L287.971 64.1537C287.827 63.9596 287.621 63.7401 287.35 63.4954C287.08 63.2506 286.819 63.0354 286.566 62.8497ZM285.958 60.7989H289.401V61.7863H285.958V60.7989ZM295.225 57.4441L296.782 57.8492C296.554 58.4737 296.284 59.0856 295.972 59.6848C295.668 60.2841 295.334 60.8411 294.972 61.3559C294.617 61.8623 294.25 62.3054 293.87 62.6852C293.769 62.6008 293.638 62.4953 293.478 62.3687C293.317 62.2336 293.153 62.107 292.984 61.9889C292.824 61.8707 292.68 61.7737 292.554 61.6977C292.942 61.3686 293.305 60.9803 293.642 60.533C293.98 60.0773 294.284 59.5878 294.554 59.0645C294.824 58.5328 295.047 57.9927 295.225 57.4441ZM295.503 58.8873H303.555V60.3558H294.769L295.503 58.8873ZM294.604 61.8876H303.251V63.3055H296.124V65.964H294.604V61.8876ZM292.592 65.2171H304.238V66.6729H292.592V65.2171ZM298.326 59.6469H299.896V69.3947H298.326V59.6469ZM305.112 64.103H311.518V65.331H305.112V64.103ZM305.264 59.6342H311.48V60.8369H305.264V59.6342ZM307.403 63.2042L308.808 63.4954C308.597 63.9342 308.37 64.3858 308.125 64.8499C307.888 65.3141 307.652 65.7657 307.416 66.2045C307.18 66.6349 306.96 67.019 306.758 67.3565L305.428 66.9514C305.631 66.6307 305.846 66.2552 306.074 65.8247C306.31 65.3943 306.542 64.9512 306.77 64.4955C307.007 64.0313 307.218 63.6009 307.403 63.2042ZM309.188 64.9512L310.593 65.0778C310.475 65.7446 310.298 66.3185 310.062 66.7995C309.834 67.2721 309.526 67.6773 309.138 68.0148C308.758 68.344 308.294 68.6183 307.745 68.8377C307.196 69.0656 306.542 69.2555 305.783 69.4074C305.741 69.1964 305.66 68.9727 305.542 68.7364C305.424 68.5001 305.302 68.306 305.175 68.1541C306.011 68.0444 306.698 67.8714 307.239 67.6351C307.787 67.3987 308.218 67.0654 308.53 66.6349C308.842 66.2045 309.062 65.6433 309.188 64.9512ZM310.087 57.6466L311.366 58.1657C311.163 58.4442 310.961 58.7227 310.758 59.0012C310.564 59.2713 310.387 59.5034 310.226 59.6975L309.252 59.2671C309.395 59.0476 309.547 58.786 309.707 58.4822C309.868 58.1699 309.994 57.8914 310.087 57.6466ZM307.682 57.4821H309.074V63.3814H307.682V57.4821ZM305.58 58.1657L306.669 57.7099C306.838 57.9463 306.994 58.2121 307.137 58.5075C307.281 58.8029 307.382 59.0603 307.441 59.2797L306.277 59.7861C306.234 59.5667 306.146 59.3051 306.011 59.0012C305.876 58.6974 305.732 58.4189 305.58 58.1657ZM307.72 60.2292L308.694 60.8242C308.492 61.1618 308.226 61.4994 307.897 61.837C307.576 62.1746 307.23 62.491 306.859 62.7864C306.496 63.0734 306.137 63.3181 305.783 63.5207C305.698 63.3603 305.58 63.1704 305.428 62.951C305.285 62.7316 305.146 62.5543 305.011 62.4193C305.348 62.2758 305.69 62.0902 306.036 61.8623C306.382 61.626 306.703 61.3686 306.998 61.0901C307.302 60.8031 307.542 60.5162 307.72 60.2292ZM308.948 60.5963C309.066 60.6554 309.226 60.744 309.429 60.8622C309.64 60.9803 309.863 61.1112 310.1 61.2546C310.344 61.3897 310.564 61.5163 310.758 61.6344C310.961 61.7526 311.104 61.8412 311.188 61.9003L310.391 62.951C310.273 62.8413 310.121 62.7063 309.935 62.5459C309.749 62.3855 309.551 62.221 309.34 62.0522C309.129 61.8834 308.927 61.723 308.732 61.5711C308.538 61.4192 308.37 61.2968 308.226 61.204L308.948 60.5963ZM312.353 59.7861H317.012V61.1913H312.353V59.7861ZM312.492 57.4821L314.037 57.7099C313.902 58.5792 313.729 59.4232 313.518 60.2419C313.307 61.0521 313.049 61.8032 312.746 62.4953C312.45 63.1789 312.104 63.7823 311.707 64.3056C311.632 64.2043 311.522 64.0862 311.378 63.9511C311.235 63.8161 311.083 63.6853 310.923 63.5587C310.762 63.4236 310.627 63.3139 310.517 63.2295C310.872 62.7907 311.176 62.2716 311.429 61.6724C311.691 61.0647 311.91 60.4064 312.087 59.6975C312.264 58.9801 312.4 58.2416 312.492 57.4821ZM314.796 60.647L316.354 60.7989C316.168 62.2421 315.881 63.5122 315.493 64.6094C315.113 65.7066 314.585 66.6518 313.91 67.4452C313.235 68.2385 312.366 68.901 311.302 69.4327C311.252 69.3146 311.176 69.1669 311.074 68.9896C310.973 68.8124 310.864 68.6352 310.745 68.4579C310.627 68.2891 310.517 68.1541 310.416 68.0528C311.378 67.6308 312.155 67.0823 312.746 66.4071C313.345 65.7319 313.805 64.9175 314.125 63.9638C314.446 63.0016 314.67 61.896 314.796 60.647ZM313.214 60.9128C313.391 61.9762 313.64 62.9763 313.961 63.9131C314.282 64.8499 314.704 65.6728 315.227 66.3818C315.75 67.0907 316.396 67.6477 317.164 68.0528C317.054 68.1457 316.932 68.268 316.797 68.4199C316.662 68.5803 316.531 68.7449 316.404 68.9137C316.286 69.0825 316.189 69.2344 316.113 69.3694C315.261 68.863 314.556 68.209 313.999 67.4072C313.45 66.6054 313.007 65.677 312.67 64.6221C312.332 63.5587 312.058 62.3982 311.847 61.1407L313.214 60.9128ZM306.542 66.9641L307.353 65.9387C307.851 66.1243 308.344 66.3396 308.834 66.5843C309.332 66.8291 309.792 67.0823 310.214 67.3439C310.644 67.5971 311.003 67.8418 311.29 68.0781L310.226 69.1542C309.965 68.9179 309.636 68.6689 309.239 68.4073C308.842 68.1457 308.412 67.8925 307.948 67.6477C307.483 67.3945 307.015 67.1666 306.542 66.9641Z" fill="white"/>
<path d="M288.308 106.36C287.714 106.36 287.185 106.258 286.721 106.054C286.259 105.85 285.892 105.567 285.619 105.204C285.35 104.839 285.203 104.415 285.179 103.932H286.312C286.336 104.229 286.437 104.485 286.617 104.701C286.797 104.914 287.032 105.079 287.323 105.195C287.614 105.312 287.936 105.371 288.29 105.371C288.685 105.371 289.036 105.302 289.342 105.164C289.647 105.026 289.887 104.834 290.061 104.589C290.235 104.343 290.322 104.058 290.322 103.734C290.322 103.396 290.238 103.097 290.07 102.84C289.902 102.579 289.656 102.375 289.333 102.228C289.009 102.081 288.613 102.008 288.146 102.008H287.408V101.019H288.146C288.511 101.019 288.832 100.953 289.108 100.821C289.387 100.689 289.604 100.504 289.76 100.264C289.919 100.024 289.998 99.7423 289.998 99.4186C289.998 99.1069 289.929 98.8356 289.791 98.6049C289.653 98.3741 289.458 98.1943 289.207 98.0654C288.958 97.9365 288.664 97.8721 288.326 97.8721C288.008 97.8721 287.708 97.9305 287.426 98.0474C287.148 98.1613 286.92 98.3276 286.743 98.5464C286.566 98.7622 286.47 99.023 286.455 99.3287H285.376C285.394 98.8461 285.54 98.4236 285.813 98.0609C286.085 97.6953 286.442 97.4105 286.882 97.2067C287.326 97.0029 287.813 96.901 288.344 96.901C288.913 96.901 289.402 97.0164 289.809 97.2472C290.217 97.475 290.53 97.7762 290.749 98.1508C290.967 98.5255 291.077 98.9301 291.077 99.3646C291.077 99.8831 290.941 100.325 290.668 100.691C290.398 101.056 290.031 101.31 289.566 101.451V101.523C290.148 101.618 290.602 101.866 290.929 102.264C291.255 102.66 291.419 103.15 291.419 103.734C291.419 104.235 291.282 104.684 291.009 105.083C290.74 105.479 290.371 105.79 289.904 106.018C289.436 106.246 288.904 106.36 288.308 106.36ZM293.257 106.234V105.425L296.296 102.098C296.653 101.708 296.947 101.37 297.177 101.082C297.408 100.791 297.579 100.518 297.69 100.264C297.804 100.006 297.861 99.7363 297.861 99.4545C297.861 99.1309 297.783 98.8506 297.627 98.6139C297.474 98.3771 297.264 98.1943 296.998 98.0654C296.731 97.9365 296.431 97.8721 296.098 97.8721C295.745 97.8721 295.436 97.9455 295.172 98.0924C294.912 98.2362 294.709 98.4385 294.565 98.6993C294.425 98.96 294.354 99.2657 294.354 99.6164H293.293C293.293 99.0769 293.418 98.6034 293.666 98.1958C293.915 97.7882 294.254 97.4705 294.682 97.2427C295.114 97.0149 295.598 96.901 296.134 96.901C296.674 96.901 297.152 97.0149 297.569 97.2427C297.985 97.4705 298.312 97.7777 298.549 98.1643C298.785 98.5509 298.904 98.981 298.904 99.4545C298.904 99.7932 298.842 100.124 298.719 100.448C298.599 100.769 298.39 101.127 298.09 101.523C297.793 101.915 297.381 102.395 296.854 102.961L294.786 105.173V105.245H299.066V106.234H293.257ZM303.476 95.5619L304.425 95.8024C303.729 97.676 302.602 99.4357 301.425 100.575C301.235 100.41 300.843 100.094 300.602 99.9674C301.805 98.9167 302.856 97.2709 303.476 95.5619ZM303.273 97.1317H311.439V98.0558H302.818L303.273 97.1317ZM302.653 100.005H311.16V100.892H303.602V103.892H302.653V100.005ZM300.564 103.411H312.034V104.335H300.564V103.411ZM306.451 97.6127H307.426V107.259H306.451V97.6127Z" fill="black"/>
<path d="M289.102 143.434C288.508 143.434 287.98 143.333 287.515 143.129C287.053 142.925 286.686 142.642 286.414 142.279C286.144 141.913 285.997 141.489 285.973 141.007H287.106C287.13 141.304 287.232 141.56 287.412 141.776C287.591 141.988 287.827 142.153 288.117 142.27C288.408 142.387 288.73 142.445 289.084 142.445C289.48 142.445 289.83 142.377 290.136 142.239C290.442 142.101 290.681 141.909 290.855 141.663C291.029 141.417 291.116 141.133 291.116 140.809C291.116 140.47 291.032 140.172 290.864 139.914C290.696 139.654 290.451 139.45 290.127 139.303C289.803 139.156 289.408 139.083 288.94 139.083H288.203V138.094H288.94C289.306 138.094 289.626 138.028 289.902 137.896C290.181 137.764 290.398 137.578 290.554 137.338C290.713 137.099 290.792 136.817 290.792 136.493C290.792 136.182 290.723 135.91 290.585 135.68C290.448 135.449 290.253 135.269 290.001 135.14C289.752 135.011 289.459 134.947 289.12 134.947C288.802 134.947 288.502 135.005 288.221 135.122C287.942 135.236 287.714 135.402 287.537 135.621C287.361 135.837 287.265 136.098 287.25 136.403H286.171C286.189 135.921 286.334 135.498 286.607 135.136C286.88 134.77 287.236 134.485 287.677 134.281C288.12 134.078 288.607 133.976 289.138 133.976C289.707 133.976 290.196 134.091 290.603 134.322C291.011 134.55 291.324 134.851 291.543 135.226C291.762 135.6 291.871 136.005 291.871 136.439C291.871 136.958 291.735 137.4 291.462 137.766C291.192 138.131 290.825 138.384 290.361 138.525V138.597C290.942 138.693 291.396 138.94 291.723 139.339C292.05 139.735 292.213 140.225 292.213 140.809C292.213 141.31 292.076 141.759 291.804 142.158C291.534 142.553 291.165 142.865 290.698 143.093C290.23 143.321 289.698 143.434 289.102 143.434ZM297.288 134.102V143.309H296.173V135.27H296.12L293.872 136.763V135.63L296.173 134.102H297.288ZM302.49 132.637L303.439 132.877C302.743 134.751 301.616 136.51 300.439 137.65C300.249 137.485 299.857 137.169 299.616 137.042C300.819 135.991 301.87 134.346 302.49 132.637ZM302.287 134.206H310.453V135.131H301.832L302.287 134.206ZM301.667 137.08H310.174V137.966H302.616V140.967H301.667V137.08ZM299.578 140.486H311.048V141.41H299.578V140.486ZM305.465 134.687H306.44V144.334H305.465V134.687Z" fill="black"/>
<path d="M160.911 134.102V143.309H159.796V135.27H159.742L157.495 136.763V135.63L159.796 134.102H160.911ZM164.616 142.05L164.544 142.535C164.493 142.877 164.415 143.243 164.31 143.632C164.208 144.022 164.102 144.389 163.991 144.734C163.88 145.078 163.788 145.353 163.716 145.556H162.907C162.946 145.365 162.997 145.111 163.06 144.797C163.123 144.482 163.186 144.13 163.249 143.74C163.315 143.354 163.369 142.958 163.411 142.553L163.465 142.05H164.616ZM169.299 143.434C168.921 143.428 168.544 143.357 168.166 143.219C167.788 143.081 167.444 142.849 167.132 142.522C166.82 142.192 166.57 141.747 166.381 141.187C166.192 140.623 166.098 139.916 166.098 139.065C166.098 138.25 166.174 137.527 166.327 136.898C166.48 136.266 166.702 135.734 166.993 135.302C167.283 134.867 167.634 134.538 168.045 134.313C168.458 134.088 168.924 133.976 169.443 133.976C169.958 133.976 170.417 134.079 170.818 134.286C171.223 134.49 171.553 134.774 171.807 135.14C172.062 135.506 172.227 135.927 172.302 136.403H171.205C171.103 135.99 170.905 135.647 170.612 135.374C170.318 135.101 169.928 134.965 169.443 134.965C168.729 134.965 168.167 135.275 167.757 135.895C167.349 136.516 167.144 137.386 167.141 138.507H167.213C167.381 138.253 167.58 138.035 167.811 137.855C168.045 137.673 168.302 137.532 168.584 137.433C168.866 137.334 169.164 137.285 169.479 137.285C170.006 137.285 170.489 137.416 170.926 137.68C171.364 137.941 171.714 138.302 171.978 138.764C172.242 139.222 172.374 139.748 172.374 140.342C172.374 140.911 172.246 141.432 171.992 141.906C171.737 142.377 171.379 142.751 170.917 143.03C170.459 143.306 169.919 143.44 169.299 143.434ZM169.299 142.445C169.676 142.445 170.015 142.351 170.315 142.162C170.618 141.973 170.856 141.72 171.03 141.402C171.206 141.085 171.295 140.731 171.295 140.342C171.295 139.961 171.209 139.615 171.039 139.303C170.871 138.988 170.639 138.738 170.342 138.552C170.048 138.366 169.712 138.274 169.335 138.274C169.05 138.274 168.785 138.33 168.539 138.444C168.293 138.555 168.078 138.708 167.892 138.903C167.709 139.098 167.565 139.321 167.46 139.573C167.355 139.822 167.303 140.084 167.303 140.359C167.303 140.725 167.388 141.067 167.559 141.384C167.733 141.702 167.97 141.958 168.269 142.153C168.572 142.348 168.915 142.445 169.299 142.445ZM177.073 133.976C177.45 133.979 177.828 134.051 178.206 134.192C178.583 134.332 178.928 134.566 179.24 134.893C179.551 135.217 179.802 135.659 179.99 136.219C180.179 136.78 180.274 137.482 180.274 138.327C180.274 139.146 180.196 139.872 180.04 140.508C179.887 141.14 179.665 141.674 179.375 142.108C179.087 142.543 178.736 142.873 178.323 143.097C177.912 143.322 177.447 143.434 176.929 143.434C176.413 143.434 175.953 143.333 175.549 143.129C175.147 142.922 174.818 142.636 174.56 142.27C174.305 141.901 174.142 141.474 174.07 140.989H175.167C175.266 141.411 175.462 141.761 175.756 142.036C176.052 142.309 176.443 142.445 176.929 142.445C177.639 142.445 178.2 142.135 178.61 141.515C179.024 140.894 179.231 140.018 179.231 138.885H179.159C178.991 139.137 178.792 139.354 178.561 139.537C178.33 139.72 178.074 139.86 177.792 139.959C177.51 140.058 177.211 140.108 176.893 140.108C176.366 140.108 175.882 139.977 175.441 139.717C175.003 139.453 174.653 139.092 174.389 138.633C174.128 138.172 173.998 137.644 173.998 137.051C173.998 136.487 174.124 135.972 174.375 135.504C174.63 135.034 174.987 134.659 175.445 134.38C175.907 134.102 176.449 133.967 177.073 133.976ZM177.073 134.965C176.695 134.965 176.355 135.059 176.052 135.248C175.753 135.434 175.514 135.686 175.338 136.003C175.164 136.318 175.077 136.667 175.077 137.051C175.077 137.434 175.161 137.784 175.329 138.098C175.499 138.41 175.732 138.659 176.025 138.844C176.322 139.027 176.659 139.119 177.037 139.119C177.322 139.119 177.587 139.063 177.833 138.952C178.078 138.838 178.293 138.684 178.475 138.489C178.661 138.292 178.807 138.068 178.912 137.819C179.016 137.568 179.069 137.305 179.069 137.033C179.069 136.673 178.982 136.336 178.808 136.021C178.637 135.707 178.401 135.452 178.098 135.257C177.798 135.062 177.456 134.965 177.073 134.965ZM185.045 143.434C184.367 143.434 183.79 143.25 183.314 142.882C182.837 142.51 182.473 141.972 182.221 141.268C181.97 140.56 181.844 139.706 181.844 138.705C181.844 137.71 181.97 136.86 182.221 136.156C182.476 135.449 182.842 134.909 183.318 134.538C183.798 134.163 184.373 133.976 185.045 133.976C185.716 133.976 186.29 134.163 186.766 134.538C187.246 134.909 187.612 135.449 187.863 136.156C188.118 136.86 188.245 137.71 188.245 138.705C188.245 139.706 188.12 140.56 187.868 141.268C187.616 141.972 187.252 142.51 186.775 142.882C186.299 143.25 185.722 143.434 185.045 143.434ZM185.045 142.445C185.716 142.445 186.237 142.122 186.609 141.474C186.981 140.827 187.167 139.904 187.167 138.705C187.167 137.908 187.081 137.229 186.91 136.669C186.742 136.108 186.5 135.681 186.182 135.387C185.867 135.094 185.488 134.947 185.045 134.947C184.379 134.947 183.859 135.275 183.485 135.931C183.11 136.585 182.923 137.509 182.923 138.705C182.923 139.502 183.007 140.18 183.174 140.737C183.342 141.295 183.584 141.719 183.898 142.009C184.216 142.3 184.598 142.445 185.045 142.445ZM192.617 133.637H203.707V134.561H192.617V133.637ZM196.567 137.156H201.896V138.08H196.567V137.156ZM201.567 137.156H202.555C202.555 137.156 202.542 137.485 202.529 137.624C202.314 141.713 202.099 143.245 201.605 143.777C201.314 144.106 200.997 144.195 200.504 144.233C200.035 144.271 199.136 144.245 198.276 144.195C198.25 143.916 198.124 143.524 197.934 143.258C198.883 143.359 199.807 143.359 200.149 143.359C200.44 143.359 200.605 143.334 200.744 143.195C201.162 142.828 201.377 141.245 201.567 137.321V137.156ZM196.047 134.384H197.022C196.921 137.979 196.693 142.271 192.946 144.347C192.794 144.106 192.503 143.802 192.25 143.612C195.845 141.713 195.959 137.675 196.047 134.384ZM205.631 133.535H215.556V134.485H206.58V144.334H205.631V133.535ZM215.125 133.535H216.088V143.068C216.088 143.676 215.936 143.98 215.505 144.144C215.087 144.296 214.366 144.321 213.227 144.321C213.176 144.056 213.011 143.625 212.859 143.359C213.733 143.397 214.556 143.385 214.809 143.372C215.05 143.372 215.125 143.296 215.125 143.068V133.535ZM206.15 138.219H215.569V139.156H206.15V138.219ZM210.302 134.016H211.252V138.675H210.302V134.016Z" fill="black"/>
<path d="M40.6587 96.3594H51.6219V97.2836H40.6587V96.3594ZM42.4437 102.246H50.1028V103.132H42.4437V102.246ZM42.5197 98.6635H50.6598V103.829H49.6977V99.5496H42.5197V98.6635ZM41.8867 98.6635H42.8488V101.537C42.8488 103.297 42.5703 105.728 40.9625 107.31C40.8233 107.107 40.4308 106.778 40.2156 106.652C41.7221 105.17 41.8867 103.12 41.8867 101.525V98.6635ZM56.4199 98.2837H64.6106V99.0559H56.4199V98.2837ZM57.1668 101.702H63.7751V102.423H57.1668V101.702ZM56.5971 103.436H64.3321V104.221H56.5971V103.436ZM59.9266 95.7011H60.8507V105.563H59.9266V95.7011ZM57.3314 96.6253H63.6612V100.752H57.2428V99.9927H62.7244V97.3848H57.3314V96.6253ZM52.9765 96.4101H55.711V97.2582H52.9765V96.4101ZM55.3691 96.4101H55.5084L55.6603 96.3594L56.306 96.562C55.7236 97.8912 54.7741 99.8535 54.0019 101.36L53.1411 101.119C53.926 99.6382 54.9007 97.5874 55.3691 96.524V96.4101ZM54.1285 100.018H56.2047V100.866H54.0146L54.1285 100.018ZM55.8122 100.018H56.0021L56.1794 99.9927L56.7237 100.132C56.3439 103.816 55.2426 106.082 53.5968 107.272C53.4449 107.082 53.0904 106.74 52.8752 106.614C54.483 105.538 55.4957 103.474 55.8122 100.208V100.018ZM54.1665 101.879C55.1919 105.373 57.5466 106.006 60.7621 106.006C61.2938 106.006 64.0283 106.006 64.6993 105.993C64.5473 106.209 64.3701 106.639 64.3068 106.918H60.7368C57.0782 106.918 54.6349 106.145 53.4069 102.17L54.1665 101.879ZM66.1804 97.8279C66.6615 97.8153 67.0666 97.7899 67.3198 97.7646C68.1427 97.676 70.5227 97.4481 72.8647 97.2456C74.2446 97.1317 75.4219 97.0557 76.2701 97.0304L76.2828 98.0431C75.5485 98.0305 74.4471 98.0558 73.8015 98.233C71.9912 98.8154 70.8898 100.752 70.8898 102.246C70.8898 104.715 73.2065 105.5 75.2573 105.588L74.9029 106.626C72.5482 106.538 69.8897 105.297 69.8897 102.461C69.8897 100.486 71.0923 98.8787 72.257 98.1951C70.8898 98.3343 67.6743 98.6508 66.2944 98.942L66.1804 97.8279Z" fill="black"/>
<path d="M39.2268 135.282C39.1002 135.422 38.9863 135.561 38.9103 135.675C37.9609 137.232 36.2139 139.46 33.9731 141.081L33.1882 140.372C35.2137 138.966 36.8468 136.916 37.5178 135.713C36.3784 135.713 30.7956 135.713 30.074 135.713C29.5676 135.713 29.0232 135.751 28.7827 135.776V134.649C29.1245 134.7 29.6309 134.738 30.074 134.738C30.7196 134.738 36.3531 134.738 37.6191 134.738C37.9609 134.738 38.252 134.713 38.4293 134.649L39.2268 135.282ZM33.2642 141.296C32.5046 140.536 31.0487 139.283 30.3778 138.802L31.188 138.143C31.7703 138.561 33.2389 139.764 34.1503 140.65C34.9479 141.448 35.9353 142.486 36.4797 143.144L35.5556 143.878C35.0872 143.233 34.0744 142.119 33.2642 141.296ZM43.012 134.042C43.8982 134.637 45.5313 135.953 46.2276 136.65L45.4427 137.46C44.797 136.802 43.2273 135.434 42.2778 134.814L43.012 134.042ZM41.9233 142.524C44.1261 142.195 45.7718 141.422 46.9745 140.675C48.9367 139.447 50.4685 137.574 51.2028 136.004L51.8105 137.093C50.9496 138.663 49.4811 140.384 47.5695 141.587C46.2909 142.384 44.6958 143.169 42.5816 143.562L41.9233 142.524ZM56.5958 133.586C57.3427 134.004 58.7985 134.979 59.3556 135.384L58.7606 136.245C58.1529 135.776 56.773 134.865 56.0387 134.447L56.5958 133.586ZM54.6968 142.638C56.0894 142.397 57.6592 141.891 58.9505 141.169C61.0519 139.966 62.723 138.308 63.7358 136.523L64.3561 137.574C63.2547 139.27 61.5077 140.903 59.4822 142.093C58.2035 142.84 56.4565 143.423 55.2918 143.663L54.6968 142.638ZM54.6968 136.434C55.4437 136.84 56.9249 137.751 57.4693 138.143L56.8869 139.03C56.2666 138.574 54.8994 137.7 54.1272 137.295L54.6968 136.434ZM68.2679 136.371C68.5084 136.396 69.23 136.409 69.5718 136.409C70.2808 136.409 73.433 136.409 74.4584 136.409C74.7496 136.409 75.0661 136.396 75.2433 136.396C75.2307 136.536 75.2307 136.802 75.2307 137.042C75.2307 137.485 75.2307 142.271 75.2307 143.347C75.2307 143.549 75.2433 143.84 75.2433 144.03H74.2432C74.2559 143.878 74.2559 143.574 74.2559 143.309C74.2559 141.979 74.2559 137.7 74.2559 137.321C73.8381 137.321 70.2681 137.321 69.5718 137.321C69.23 137.321 68.5084 137.346 68.2679 137.346V136.371ZM68.5464 139.371C68.7996 139.397 69.2553 139.422 69.6858 139.422C70.3314 139.422 74.3825 139.422 74.7496 139.422V140.334C74.3825 140.334 70.3314 140.334 69.6858 140.334C69.2553 140.334 68.7996 140.334 68.5464 140.359V139.371ZM68.1286 142.524C68.3312 142.549 68.7236 142.574 69.1667 142.574C69.8883 142.574 74.2052 142.574 74.7623 142.574V143.511C74.1293 143.511 69.8883 143.511 69.1667 143.511C68.7743 143.511 68.3312 143.536 68.1286 143.536V142.524ZM80.9908 134.042C81.8769 134.637 83.51 135.953 84.2063 136.65L83.4214 137.46C82.7758 136.802 81.206 135.434 80.2565 134.814L80.9908 134.042ZM79.9021 142.524C82.1048 142.195 83.7506 141.422 84.9532 140.675C86.9155 139.447 88.4473 137.574 89.1815 136.004L89.7892 137.093C88.9283 138.663 87.4598 140.384 85.5482 141.587C84.2696 142.384 82.6745 143.169 80.5603 143.562L79.9021 142.524Z" fill="black"/>
<path d="M47.9259 174.729H57.6612V175.666H47.9259V174.729ZM47.1157 180.806H58.4714V181.743H47.1157V180.806ZM52.2555 170.704H53.2556V181.401H52.2555V170.704ZM67.1558 170.653H68.0547V179.477H67.1558V170.653ZM63.1681 175.881L69.9916 173.008L70.346 173.818L63.5352 176.717L63.1681 175.881ZM64.5353 171.843H65.4468V180.312C65.4468 181.009 65.5987 181.161 66.4469 181.161C66.8647 181.161 68.9915 181.161 69.4979 181.161C70.2448 181.161 70.3714 180.819 70.46 179.363C70.6879 179.515 71.055 179.667 71.3208 179.717C71.1689 181.464 70.8651 182.021 69.5358 182.021C69.194 182.021 66.7381 182.021 66.4216 182.021C64.9657 182.021 64.5353 181.68 64.5353 180.3V171.843ZM69.827 173.134H69.7131L69.9409 172.944L70.1055 172.805L70.7765 173.058L70.7385 173.236C70.7385 175.616 70.7005 177.515 70.6119 178.008C70.5359 178.515 70.2954 178.755 69.9283 178.844C69.5865 178.932 69.0801 178.932 68.7383 178.932C68.7003 178.679 68.6243 178.325 68.5104 178.11C68.8016 178.122 69.2193 178.122 69.3586 178.122C69.5485 178.122 69.6751 178.072 69.7384 177.78C69.8143 177.451 69.827 175.654 69.827 173.134ZM59.636 173.704H63.6618V174.603H59.636V173.704ZM61.2691 170.805H62.168V179.021H61.2691V170.805ZM59.5221 179.35C60.5475 178.97 62.1047 178.312 63.6112 177.666L63.8137 178.515C62.4591 179.16 61.0286 179.806 59.9019 180.287L59.5221 179.35Z" fill="black"/>
<path d="M40.1706 57.4947L41.5505 57.7606C41.3901 58.4611 41.196 59.1447 40.9681 59.8114C40.7403 60.4697 40.4786 61.0858 40.1832 61.6597C39.8879 62.2252 39.5671 62.7231 39.2211 63.1536C39.1452 63.0692 39.0354 62.9763 38.892 62.8751C38.7485 62.7653 38.6008 62.6598 38.4489 62.5586C38.3054 62.4488 38.183 62.3602 38.0818 62.2927C38.4193 61.9214 38.719 61.4825 38.9806 60.9761C39.2507 60.4697 39.4828 59.9211 39.6769 59.3304C39.8794 58.7312 40.044 58.1193 40.1706 57.4947ZM44.4242 59.4696H45.8674C45.8674 59.4696 45.8632 59.516 45.8547 59.6089C45.8547 59.6933 45.8547 59.7903 45.8547 59.9001C45.8547 60.0098 45.8505 60.0942 45.8421 60.1532C45.783 61.5796 45.7197 62.7907 45.6522 63.7865C45.5931 64.7824 45.5256 65.6053 45.4496 66.2552C45.3821 66.8966 45.3019 67.403 45.2091 67.7743C45.1163 68.1372 45.0108 68.3988 44.8926 68.5592C44.7407 68.7702 44.5888 68.9221 44.4369 69.0149C44.285 69.1078 44.1035 69.1753 43.8925 69.2175C43.7153 69.2513 43.5001 69.2681 43.2469 69.2681C42.9937 69.2766 42.7278 69.2724 42.4493 69.2555C42.4324 69.036 42.386 68.7871 42.3101 68.5086C42.2425 68.2301 42.1497 67.9853 42.0315 67.7743C42.2679 67.7996 42.4873 67.8165 42.6898 67.8249C42.8924 67.8249 43.0528 67.8249 43.1709 67.8249C43.2722 67.8249 43.3524 67.8081 43.4114 67.7743C43.479 67.7405 43.5507 67.6773 43.6267 67.5844C43.711 67.4831 43.7912 67.2721 43.8672 66.9514C43.9431 66.6223 44.0149 66.1539 44.0824 65.5462C44.1499 64.9386 44.209 64.1663 44.2596 63.2295C44.3187 62.2843 44.3736 61.1407 44.4242 59.7988V59.4696ZM40.5504 59.4696H45.0698V60.8748H39.8668L40.5504 59.4696ZM41.4492 59.9254L42.5506 60.4697C42.3818 61.1955 42.1497 61.9382 41.8543 62.6978C41.5589 63.449 41.2129 64.1537 40.8162 64.812C40.428 65.4703 40.006 66.0146 39.5503 66.4451C39.4068 66.31 39.2253 66.1623 39.0059 66.002C38.7865 65.8332 38.5755 65.6981 38.3729 65.5969C38.7443 65.3099 39.0903 64.9554 39.411 64.5335C39.7317 64.103 40.0229 63.6346 40.2845 63.1282C40.5462 62.6134 40.774 62.0859 40.9681 61.5458C41.1623 60.9972 41.3226 60.4571 41.4492 59.9254ZM43.2089 60.0773L44.3862 60.6216C44.2259 61.4403 44.0233 62.259 43.7786 63.0776C43.5423 63.8963 43.2553 64.6812 42.9177 65.4323C42.5886 66.1834 42.2088 66.8755 41.7784 67.5085C41.3479 68.133 40.8669 68.6605 40.3352 69.0909C40.1917 68.9474 40.0018 68.7913 39.7655 68.6225C39.5376 68.4537 39.3182 68.3144 39.1072 68.2047C39.6558 67.8081 40.1495 67.3186 40.5884 66.7362C41.0357 66.1454 41.4281 65.4914 41.7657 64.774C42.1033 64.0482 42.3902 63.2886 42.6265 62.4953C42.8629 61.6935 43.057 60.8875 43.2089 60.0773ZM33.9801 64.4069C34.3936 64.3056 34.862 64.1874 35.3853 64.0524C35.917 63.9174 36.474 63.7697 37.0563 63.6093C37.6471 63.4405 38.2337 63.2759 38.816 63.1156L39.0059 64.4448C38.2126 64.698 37.4024 64.9512 36.5753 65.2044C35.7566 65.4492 35.0139 65.6686 34.3472 65.8627L33.9801 64.4069ZM36.2461 57.5074H37.6387V69.3947H36.2461V57.5074ZM34.5751 58.229L35.8537 58.4315C35.7946 58.9886 35.7229 59.5498 35.6385 60.1153C35.5541 60.6723 35.4528 61.1998 35.3346 61.6977C35.2165 62.1957 35.0814 62.6345 34.9295 63.0143C34.8536 62.9552 34.7481 62.8835 34.613 62.7991C34.478 62.7063 34.343 62.6176 34.2079 62.5332C34.0729 62.4404 33.9547 62.3729 33.8535 62.3307C33.9885 61.9847 34.1024 61.5922 34.1953 61.1533C34.2965 60.706 34.3767 60.2334 34.4358 59.7355C34.5033 59.2291 34.5497 58.7269 34.5751 58.229ZM34.9295 59.9507H38.7021V61.3939H34.6384L34.9295 59.9507ZM53.729 57.6593H55.2735V69.3821H53.729V57.6593ZM51.5769 58.2037L53.0454 58.4948C52.9272 59.0687 52.7837 59.6384 52.615 60.2039C52.4462 60.7693 52.2563 61.301 52.0453 61.799C51.8427 62.2885 51.6275 62.7189 51.3996 63.0903C51.3068 63.0143 51.176 62.9299 51.0072 62.8371C50.8468 62.7442 50.6823 62.6556 50.5135 62.5712C50.3531 62.4784 50.2096 62.4109 50.083 62.3687C50.3109 62.0311 50.5219 61.6386 50.716 61.1913C50.9101 60.7356 51.0789 60.2545 51.2224 59.7481C51.3659 59.2333 51.484 58.7185 51.5769 58.2037ZM52.0706 59.9507H57.932V61.4445H51.6908L52.0706 59.9507ZM50.2982 63.6346H58.527V65.1158H50.2982V63.6346ZM49.3614 57.5454L50.8046 58.0011C50.5346 58.7101 50.2181 59.4274 49.8552 60.1532C49.4923 60.8706 49.0956 61.55 48.6652 62.1914C48.2432 62.8329 47.8043 63.3983 47.3486 63.8878C47.2979 63.7612 47.2262 63.6009 47.1334 63.4068C47.0405 63.2042 46.9392 63.0016 46.8295 62.7991C46.7198 62.5965 46.6185 62.432 46.5257 62.3054C46.9055 61.9171 47.2684 61.4698 47.6144 60.9635C47.9689 60.4571 48.2938 59.9127 48.5892 59.3304C48.893 58.748 49.1504 58.153 49.3614 57.5454ZM48.1081 61.0521L49.5513 59.6089V59.6215V69.3694H48.1081V61.0521ZM66.8063 58.5835H68.2622V68.5972H66.8063V58.5835ZM63.9453 59.7102H71.0093V60.8875H63.9453V59.7102ZM63.5655 67.9895H71.2752V69.1795H63.5655V67.9895ZM64.2871 66.2425H70.7941V67.4072H64.2871V66.2425ZM70.1105 57.6087L70.984 58.7227C70.5282 58.8155 70.0303 58.8957 69.4902 58.9632C68.95 59.0223 68.393 59.073 67.8191 59.1152C67.2452 59.1574 66.6671 59.1911 66.0847 59.2164C65.5024 59.2333 64.9454 59.246 64.4137 59.2544C64.3968 59.0941 64.3546 58.9042 64.2871 58.6847C64.2196 58.4653 64.152 58.2796 64.0845 58.1277C64.6078 58.1108 65.1437 58.0897 65.6923 58.0644C66.2493 58.0307 66.7937 57.9927 67.3254 57.9505C67.8571 57.9083 68.3592 57.8576 68.8319 57.7986C69.3129 57.7395 69.7391 57.6762 70.1105 57.6087ZM65.6796 63.9891V64.6221H69.4269V63.9891H65.6796ZM65.6796 62.4573V63.0903H69.4269V62.4573H65.6796ZM64.363 61.4065H70.8068V65.6728H64.363V61.4065ZM61.2994 58.6847H62.7679V69.3821H61.2994V58.6847ZM59.4764 61.0647H64.1225V62.4699H59.4764V61.0647ZM61.3754 61.6344L62.2615 62.0142C62.1434 62.4699 61.9999 62.9426 61.8311 63.4321C61.6623 63.9216 61.4767 64.4069 61.2741 64.8879C61.0715 65.3605 60.8563 65.8079 60.6285 66.2298C60.4006 66.6518 60.1643 67.019 59.9195 67.3312C59.8436 67.1118 59.7339 66.867 59.5904 66.597C59.4553 66.3185 59.3287 66.0821 59.2106 65.888C59.43 65.6348 59.6452 65.3394 59.8562 65.0019C60.0757 64.6558 60.2824 64.2887 60.4765 63.9005C60.6707 63.5122 60.8437 63.124 60.9956 62.7358C61.1475 62.3476 61.2741 61.9804 61.3754 61.6344ZM63.2617 57.634L64.2871 58.7987C63.8567 58.959 63.384 59.1067 62.8692 59.2418C62.3544 59.3768 61.8269 59.4949 61.2868 59.5962C60.7551 59.6891 60.2445 59.7692 59.755 59.8368C59.7212 59.668 59.6621 59.4738 59.5777 59.2544C59.4933 59.0265 59.4089 58.8324 59.3245 58.6721C59.7887 58.5961 60.2613 58.5075 60.7424 58.4062C61.2319 58.2965 61.6919 58.1741 62.1223 58.0391C62.5612 57.9041 62.9409 57.769 63.2617 57.634ZM62.7426 62.8244C62.8186 62.8835 62.9325 62.9932 63.0844 63.1536C63.2448 63.3055 63.4136 63.4743 63.5908 63.6599C63.7765 63.8456 63.9411 64.0186 64.0845 64.179C64.228 64.3309 64.3335 64.4406 64.401 64.5081L63.5275 65.7108C63.4515 65.5504 63.3503 65.369 63.2237 65.1664C63.1055 64.9639 62.9747 64.7529 62.8312 64.5335C62.6962 64.314 62.5612 64.1072 62.4261 63.9131C62.2911 63.7106 62.1729 63.546 62.0717 63.4194L62.7426 62.8244ZM78.8709 59.0392H80.3394V66.2045H78.8709V59.0392ZM81.8586 57.7606H83.3651V67.5464C83.3651 67.9937 83.3102 68.3355 83.2005 68.5719C83.0992 68.8082 82.9178 68.9896 82.6561 69.1162C82.3945 69.2344 82.0527 69.3103 81.6307 69.3441C81.2087 69.3863 80.7065 69.4074 80.1242 69.4074C80.1073 69.2555 80.0694 69.0825 80.0103 68.8883C79.9512 68.7027 79.8837 68.5128 79.8077 68.3187C79.7402 68.133 79.6685 67.9726 79.5925 67.8376C80.0061 67.846 80.3985 67.8545 80.7698 67.8629C81.1412 67.8629 81.3902 67.8629 81.5168 67.8629C81.6349 67.8629 81.7193 67.8418 81.77 67.7996C81.829 67.749 81.8586 67.6646 81.8586 67.5464V57.7606ZM74.3768 63.546H77.2885V64.8753H74.3768V63.546ZM76.6175 63.546H78.0227C78.0227 63.546 78.0185 63.584 78.0101 63.6599C78.0101 63.7275 78.0101 63.8076 78.0101 63.9005C78.0101 63.9849 78.0101 64.0524 78.0101 64.103C77.9679 65.1242 77.9214 65.9598 77.8708 66.6096C77.8202 67.251 77.7569 67.7448 77.6809 68.0908C77.6134 68.4284 77.5206 68.6731 77.4024 68.8251C77.2758 68.9854 77.1365 69.0993 76.9846 69.1669C76.8327 69.2344 76.6555 69.2808 76.4529 69.3061C76.2841 69.3314 76.0605 69.3483 75.782 69.3568C75.5035 69.3652 75.2165 69.361 74.9211 69.3441C74.9127 69.1415 74.8705 68.9137 74.7945 68.6605C74.7186 68.4157 74.6257 68.2047 74.516 68.0275C74.7776 68.0528 75.0224 68.0697 75.2503 68.0781C75.4866 68.0866 75.6596 68.0908 75.7693 68.0908C75.8622 68.0908 75.9381 68.0824 75.9972 68.0655C76.0647 68.0402 76.128 67.9937 76.1871 67.9262C76.263 67.8418 76.3263 67.6562 76.377 67.3692C76.4276 67.0738 76.474 66.6392 76.5162 66.0653C76.5584 65.4829 76.5922 64.7191 76.6175 63.7739V63.546ZM74.0603 59.4316V61.166H76.4403V59.4316H74.0603ZM72.6804 58.0897H77.9088V62.5079H72.6804V58.0897ZM73.9717 62.1028H75.4528C75.4191 62.7696 75.3642 63.4447 75.2883 64.1283C75.2123 64.8035 75.0857 65.4618 74.9085 66.1032C74.7397 66.7362 74.4949 67.3354 74.1742 67.9009C73.8619 68.4579 73.4484 68.9559 72.9336 69.3947C72.8239 69.2091 72.6719 69.0107 72.4778 68.7997C72.2837 68.5887 72.0938 68.4199 71.9081 68.2933C72.3639 67.9304 72.7226 67.5085 72.9842 67.0274C73.2458 66.5463 73.4442 66.0315 73.5792 65.4829C73.7142 64.9343 73.8071 64.3731 73.8577 63.7992C73.9084 63.2253 73.9463 62.6598 73.9717 62.1028Z" fill="white"/>
<path d="M0 4C0 1.79086 1.79086 0 4 0L336 0C338.209 0 340 1.79086 340 4V42L0 42L0 4Z" fill="#006837"/>
<path d="M163.469 14.8743C162.975 15.5736 162.348 16.297 161.589 17.0445C160.829 17.7799 159.985 18.4913 159.057 19.1785C158.14 19.8537 157.182 20.4565 156.181 20.987C156.097 20.8303 155.988 20.6555 155.856 20.4626C155.723 20.2697 155.578 20.0828 155.422 19.9019C155.265 19.709 155.114 19.5463 154.969 19.4136C156.018 18.9072 157.019 18.2924 157.972 17.569C158.924 16.8455 159.78 16.086 160.54 15.2902C161.311 14.4824 161.92 13.7108 162.366 12.9753H164.392C164.874 13.6385 165.417 14.2835 166.019 14.9104C166.622 15.5374 167.261 16.1221 167.937 16.6647C168.612 17.1952 169.305 17.6775 170.016 18.1115C170.74 18.5455 171.457 18.9072 172.168 19.1966C171.939 19.4377 171.71 19.715 171.481 20.0285C171.264 20.342 171.071 20.6434 170.902 20.9328C170.203 20.5711 169.498 20.1551 168.787 19.6849C168.087 19.2147 167.406 18.7083 166.743 18.1658C166.08 17.6232 165.465 17.0746 164.898 16.52C164.344 15.9654 163.867 15.4168 163.469 14.8743ZM158.966 18.4551H168.063V20.1732H158.966V18.4551ZM156.742 22.1445H170.251V23.8264H156.742V22.1445ZM155.856 27.6966H171.246V29.3604H155.856V27.6966ZM162.421 19.1424H164.482V28.5466H162.421V19.1424ZM157.99 24.5679L159.545 23.9349C159.786 24.2363 160.015 24.5739 160.232 24.9477C160.461 25.3214 160.666 25.6892 160.847 26.0509C161.028 26.4005 161.161 26.72 161.245 27.0094L159.563 27.7509C159.491 27.4615 159.37 27.1299 159.201 26.7562C159.045 26.3824 158.858 26.0087 158.641 25.6349C158.424 25.2491 158.207 24.8934 157.99 24.5679ZM167.249 23.9349L169.094 24.6221C168.744 25.1768 168.377 25.7374 167.991 26.3041C167.605 26.8707 167.243 27.353 166.906 27.7509L165.459 27.136C165.664 26.8466 165.875 26.5151 166.092 26.1413C166.321 25.7675 166.538 25.3877 166.743 25.0019C166.948 24.6161 167.117 24.2604 167.249 23.9349ZM182.802 13.8072H184.756V18.9434C184.756 19.7512 184.719 20.6374 184.647 21.6019C184.575 22.5665 184.436 23.5491 184.231 24.5498C184.038 25.5505 183.743 26.5151 183.345 27.4434C182.959 28.3718 182.447 29.2097 181.808 29.9572C181.699 29.8367 181.543 29.7041 181.338 29.5594C181.133 29.4147 180.916 29.276 180.687 29.1434C180.469 29.0108 180.283 28.9083 180.126 28.836C180.741 28.1367 181.223 27.3711 181.573 26.5392C181.934 25.6952 182.2 24.8331 182.368 23.953C182.549 23.0729 182.664 22.2048 182.712 21.3487C182.772 20.4807 182.802 19.6789 182.802 18.9434V13.8072ZM177.088 14.5307L178.155 13.12C178.552 13.2647 178.962 13.4455 179.384 13.6626C179.806 13.8796 180.21 14.1087 180.596 14.3498C180.982 14.5789 181.295 14.8019 181.537 15.0189L180.397 16.5924C180.168 16.3753 179.867 16.1402 179.493 15.887C179.119 15.6338 178.721 15.3867 178.299 15.1455C177.889 14.9044 177.485 14.6994 177.088 14.5307ZM176.039 19.4317L177.069 17.9849C177.455 18.1175 177.865 18.2924 178.299 18.5094C178.733 18.7143 179.143 18.9314 179.529 19.1604C179.927 19.3895 180.246 19.6065 180.488 19.8115L179.402 21.403C179.173 21.198 178.866 20.975 178.48 20.7338C178.106 20.4927 177.702 20.2576 177.268 20.0285C176.846 19.7994 176.437 19.6005 176.039 19.4317ZM176.527 28.42C176.828 27.9498 177.16 27.4012 177.522 26.7743C177.895 26.1353 178.269 25.4541 178.643 24.7307C179.029 24.0072 179.384 23.2959 179.71 22.5966L181.193 23.8264C180.904 24.4654 180.59 25.1225 180.252 25.7977C179.927 26.4729 179.589 27.142 179.24 27.8051C178.89 28.4562 178.546 29.0771 178.209 29.6679L176.527 28.42ZM183.924 13.8072H192.098V21.4572H183.924V19.5221H190.109V15.7243H183.924V13.8072ZM187.957 20.5168C188.234 21.626 188.608 22.675 189.078 23.6636C189.548 24.6523 190.127 25.5264 190.814 26.286C191.501 27.0455 192.297 27.6484 193.201 28.0945C193.045 28.2392 192.87 28.414 192.677 28.619C192.496 28.836 192.321 29.053 192.152 29.27C191.984 29.4991 191.845 29.7101 191.737 29.903C190.748 29.3363 189.892 28.6129 189.168 27.7328C188.445 26.8406 187.836 25.8218 187.342 24.6764C186.847 23.519 186.438 22.2651 186.112 20.9147L187.957 20.5168ZM204.414 12.9392H206.494V16.52H204.414V12.9392ZM204.432 17.1349H206.458V29.9392H204.432V17.1349ZM197.271 15.3626H213.782V17.2615H197.271V15.3626ZM199.025 19.3232H210.943V21.2041H200.978V27.6966H199.025V19.3232ZM210.201 19.3232H212.209V25.5264C212.209 26.0087 212.143 26.3945 212.01 26.6838C211.889 26.9732 211.654 27.1963 211.305 27.353C210.943 27.4977 210.497 27.5881 209.966 27.6243C209.448 27.6604 208.821 27.6785 208.085 27.6785C208.049 27.3892 207.965 27.0697 207.832 26.72C207.7 26.3583 207.567 26.0448 207.434 25.7796C207.772 25.7916 208.098 25.8037 208.411 25.8158C208.737 25.8158 209.026 25.8158 209.279 25.8158C209.532 25.8158 209.707 25.8158 209.804 25.8158C209.948 25.8037 210.051 25.7796 210.111 25.7434C210.171 25.6952 210.201 25.6108 210.201 25.4902V19.3232Z" fill="white"/>
<path d="M135.328 9.12194C139.845 9.12194 144.672 11.7187 144.672 19.0086C144.672 24.7284 137.514 31.2161 135.529 32.9057C135.486 32.9419 135.444 32.9775 135.406 33.0094C135.38 33.0309 135.351 33.0554 135.328 33.075C135.309 33.0591 135.284 33.0388 135.263 33.021C135.217 32.9824 135.166 32.9389 135.112 32.8935C135.062 32.8512 135.011 32.8064 134.954 32.7579C134.938 32.7444 134.919 32.7279 134.903 32.7144C134.773 32.6009 134.628 32.4758 134.47 32.3347C134.456 32.3219 134.441 32.3078 134.426 32.2949C131.838 29.9839 125.983 24.185 125.983 19.0086C125.983 11.7187 130.811 9.12194 135.328 9.12194Z" fill="#F5A210"/>
<path d="M143.66 18.4369C143.66 13.8266 139.909 10.0762 135.299 10.0762C130.689 10.0762 126.938 13.8266 126.938 18.4369C126.938 23.0472 130.689 26.7976 135.299 26.7976C139.909 26.7976 143.66 23.0472 143.66 18.4369ZM127.922 18.4369C127.922 14.3694 131.231 11.0599 135.299 11.0599C139.366 11.0599 142.676 14.3694 142.676 18.4369C142.676 22.5044 139.366 25.8139 135.299 25.8139C131.231 25.8139 127.922 22.5044 127.922 18.4369Z" fill="white"/>
<path d="M139.725 23.3548C139.996 23.3548 140.216 23.134 140.216 22.8629V17.4528C140.216 17.3124 140.157 17.1787 140.052 17.0848L139.233 16.3581V13.5184C139.233 13.2473 139.013 13.0265 138.741 13.0265H136.774C136.503 13.0265 136.283 13.2473 136.283 13.5184V13.7349L135.626 13.151C135.439 12.9848 135.158 12.9848 134.972 13.151L130.546 17.0848C130.441 17.1787 130.381 17.3124 130.381 17.4528V22.8629C130.381 23.134 130.601 23.3548 130.872 23.3548H139.725ZM131.364 17.6736L135.299 14.1765L136.447 15.1977C136.592 15.3265 136.799 15.3577 136.975 15.2786C137.152 15.1989 137.266 15.0235 137.266 14.8303V14.0103H138.249V16.5788C138.249 16.7193 138.31 16.853 138.414 16.9462L139.233 17.6736V22.371H136.774V19.4203C136.774 19.1486 136.554 18.9285 136.283 18.9285H134.315C134.043 18.9285 133.823 19.1486 133.823 19.4203V22.371H131.364V17.6736ZM134.807 22.371V19.9122H135.791V22.371H134.807Z" fill="white"/>
</svg>
