<svg width="716" height="162" viewBox="0 0 716 162" fill="none" xmlns="http://www.w3.org/2000/svg">
<path d="M283.645 41.5591H78V78.1182H283.645V41.5591Z" fill="white"/>
<path d="M283.86 83.1182H78.2148V119.677H283.86V83.1182Z" fill="white"/>
<path d="M283.86 124.677H78.2148V161.236H283.86V124.677Z" fill="white"/>
<path d="M279.989 0H81.6559C79.6368 0 78 1.63681 78 3.65591V32.9032C78 34.9223 79.6368 36.5591 81.6559 36.5591H279.989C282.008 36.5591 283.645 34.9223 283.645 32.9032V3.65591C283.645 1.63681 282.008 0 279.989 0Z" fill="#5B9E4D"/>
<path d="M499.645 42H294V78.5591H499.645V42Z" fill="white"/>
<path d="M499.645 83H294V119.559H499.645V83Z" fill="white"/>
<path d="M499.72 124.677H294.075V161.236H499.72V124.677Z" fill="white"/>
<path d="M495.849 0H297.516C295.497 0 293.86 1.63681 293.86 3.65591V32.9032C293.86 34.9223 295.497 36.5591 297.516 36.5591H495.849C497.868 36.5591 499.505 34.9223 499.505 32.9032V3.65591C499.505 1.63681 497.868 0 495.849 0Z" fill="#5B9E4D"/>
<path d="M715.365 41.5591H509.72V78.1182H715.365V41.5591Z" fill="white"/>
<path d="M715.58 83.1182H509.935V119.677H715.58V83.1182Z" fill="white"/>
<path d="M715.58 124.677H509.935V161.236H715.58V124.677Z" fill="white"/>
<path d="M711.709 0H513.376C511.357 0 509.72 1.63681 509.72 3.65591V32.9032C509.72 34.9223 511.357 36.5591 513.376 36.5591H711.709C713.728 36.5591 715.365 34.9223 715.365 32.9032V3.65591C715.365 1.63681 713.728 0 711.709 0Z" fill="#5B9E4D"/>
<path d="M364.407 66V65.1051L367.767 61.4261C368.162 60.9953 368.487 60.6207 368.742 60.3026C368.997 59.9811 369.186 59.6795 369.309 59.3977C369.434 59.1127 369.497 58.8144 369.497 58.5028C369.497 58.1449 369.411 57.835 369.239 57.5732C369.07 57.3113 368.838 57.1091 368.543 56.9666C368.248 56.8241 367.916 56.7528 367.549 56.7528C367.157 56.7528 366.816 56.834 366.524 56.9964C366.236 57.1555 366.012 57.3793 365.853 57.6676C365.697 57.956 365.62 58.294 365.62 58.6818H364.446C364.446 58.0852 364.584 57.5616 364.859 57.1108C365.134 56.66 365.509 56.3087 365.983 56.0568C366.46 55.8049 366.995 55.679 367.588 55.679C368.185 55.679 368.714 55.8049 369.174 56.0568C369.635 56.3087 369.996 56.6484 370.258 57.076C370.52 57.5036 370.651 57.9792 370.651 58.5028C370.651 58.8774 370.583 59.2436 370.447 59.6016C370.314 59.9562 370.082 60.3523 369.751 60.7898C369.423 61.224 368.967 61.7543 368.384 62.3807L366.097 64.8267V64.9062H370.83V66H364.407ZM374.653 64.608L374.573 65.1449C374.517 65.5227 374.431 65.9271 374.315 66.358C374.202 66.7888 374.085 67.1948 373.962 67.576C373.839 67.9571 373.738 68.2604 373.659 68.4858H372.764C372.807 68.2737 372.863 67.9936 372.933 67.6456C373.002 67.2976 373.072 66.9081 373.142 66.4773C373.215 66.0497 373.274 65.6122 373.321 65.1648L373.38 64.608H374.653ZM379.772 66.1392C379.023 66.1392 378.385 65.9354 377.858 65.5277C377.331 65.1167 376.929 64.5218 376.65 63.7429C376.372 62.9607 376.233 62.0161 376.233 60.9091C376.233 59.8087 376.372 58.8691 376.65 58.0902C376.932 57.308 377.336 56.7114 377.863 56.3004C378.394 55.8861 379.03 55.679 379.772 55.679C380.515 55.679 381.15 55.8861 381.677 56.3004C382.207 56.7114 382.611 57.308 382.89 58.0902C383.171 58.8691 383.312 59.8087 383.312 60.9091C383.312 62.0161 383.173 62.9607 382.895 63.7429C382.616 64.5218 382.214 65.1167 381.687 65.5277C381.16 65.9354 380.522 66.1392 379.772 66.1392ZM379.772 65.0455C380.515 65.0455 381.092 64.6875 381.503 63.9716C381.914 63.2557 382.119 62.2348 382.119 60.9091C382.119 60.0275 382.025 59.2768 381.836 58.657C381.65 58.0372 381.382 57.5649 381.03 57.2401C380.682 56.9152 380.263 56.7528 379.772 56.7528C379.037 56.7528 378.462 57.1158 378.047 57.8416C377.633 58.5642 377.426 59.5866 377.426 60.9091C377.426 61.7907 377.519 62.5398 377.704 63.1562C377.89 63.7727 378.157 64.2417 378.505 64.5632C378.856 64.8847 379.279 65.0455 379.772 65.0455ZM388.522 66.1392C387.773 66.1392 387.135 65.9354 386.608 65.5277C386.081 65.1167 385.679 64.5218 385.4 63.7429C385.122 62.9607 384.983 62.0161 384.983 60.9091C384.983 59.8087 385.122 58.8691 385.4 58.0902C385.682 57.308 386.086 56.7114 386.613 56.3004C387.144 55.8861 387.78 55.679 388.522 55.679C389.265 55.679 389.9 55.8861 390.427 56.3004C390.957 56.7114 391.361 57.308 391.64 58.0902C391.921 58.8691 392.062 59.8087 392.062 60.9091C392.062 62.0161 391.923 62.9607 391.645 63.7429C391.366 64.5218 390.964 65.1167 390.437 65.5277C389.91 65.9354 389.272 66.1392 388.522 66.1392ZM388.522 65.0455C389.265 65.0455 389.842 64.6875 390.253 63.9716C390.664 63.2557 390.869 62.2348 390.869 60.9091C390.869 60.0275 390.775 59.2768 390.586 58.657C390.4 58.0372 390.132 57.5649 389.78 57.2401C389.432 56.9152 389.013 56.7528 388.522 56.7528C387.787 56.7528 387.212 57.1158 386.797 57.8416C386.383 58.5642 386.176 59.5866 386.176 60.9091C386.176 61.7907 386.269 62.5398 386.454 63.1562C386.64 63.7727 386.907 64.2417 387.255 64.5632C387.606 64.8847 388.029 65.0455 388.522 65.0455ZM397.272 66.1392C396.523 66.1392 395.885 65.9354 395.358 65.5277C394.831 65.1167 394.429 64.5218 394.15 63.7429C393.872 62.9607 393.733 62.0161 393.733 60.9091C393.733 59.8087 393.872 58.8691 394.15 58.0902C394.432 57.308 394.836 56.7114 395.363 56.3004C395.894 55.8861 396.53 55.679 397.272 55.679C398.015 55.679 398.65 55.8861 399.177 56.3004C399.707 56.7114 400.111 57.308 400.39 58.0902C400.671 58.8691 400.812 59.8087 400.812 60.9091C400.812 62.0161 400.673 62.9607 400.395 63.7429C400.116 64.5218 399.714 65.1167 399.187 65.5277C398.66 65.9354 398.022 66.1392 397.272 66.1392ZM397.272 65.0455C398.015 65.0455 398.592 64.6875 399.003 63.9716C399.414 63.2557 399.619 62.2348 399.619 60.9091C399.619 60.0275 399.525 59.2768 399.336 58.657C399.15 58.0372 398.882 57.5649 398.53 57.2401C398.182 56.9152 397.763 56.7528 397.272 56.7528C396.537 56.7528 395.962 57.1158 395.547 57.8416C395.133 58.5642 394.926 59.5866 394.926 60.9091C394.926 61.7907 395.019 62.5398 395.204 63.1562C395.39 63.7727 395.657 64.2417 396.005 64.5632C396.356 64.8847 396.779 65.0455 397.272 65.0455ZM402.515 55.304H414.779V56.326H402.515V55.304ZM406.883 59.196H412.777V60.218H406.883V59.196ZM412.413 59.196H413.505C413.505 59.196 413.491 59.56 413.477 59.714C413.239 64.236 413.001 65.93 412.455 66.518C412.133 66.882 411.783 66.98 411.237 67.022C410.719 67.064 409.725 67.036 408.773 66.98C408.745 66.672 408.605 66.238 408.395 65.944C409.445 66.056 410.467 66.056 410.845 66.056C411.167 66.056 411.349 66.028 411.503 65.874C411.965 65.468 412.203 63.718 412.413 59.378V59.196ZM406.309 56.13H407.387C407.275 60.106 407.023 64.852 402.879 67.148C402.711 66.882 402.389 66.546 402.109 66.336C406.085 64.236 406.211 59.77 406.309 56.13ZM416.907 55.192H427.883V56.242H417.957V67.134H416.907V55.192ZM427.407 55.192H428.471V65.734C428.471 66.406 428.303 66.742 427.827 66.924C427.365 67.092 426.567 67.12 425.307 67.12C425.251 66.826 425.069 66.35 424.901 66.056C425.867 66.098 426.777 66.084 427.057 66.07C427.323 66.07 427.407 65.986 427.407 65.734V55.192ZM417.481 60.372H427.897V61.408H417.481V60.372ZM422.073 55.724H423.123V60.876H422.073V55.724Z" fill="black"/>
<path d="M607.414 141.938C607.848 141.98 608.576 142.022 609.374 142.022C610.396 142.022 616.01 142.022 617.046 142.022C617.746 142.022 618.236 141.966 618.558 141.938V143.31C618.264 143.296 617.676 143.254 617.06 143.254C615.996 143.254 610.41 143.254 609.374 143.254C608.604 143.254 607.862 143.282 607.414 143.31V141.938Z" fill="black"/>
<path d="M368.923 138.818V149H367.69V140.111H367.63L365.144 141.761V140.509L367.69 138.818H368.923ZM373.019 147.608L372.94 148.145C372.883 148.523 372.797 148.927 372.681 149.358C372.568 149.789 372.451 150.195 372.328 150.576C372.205 150.957 372.104 151.26 372.025 151.486H371.13C371.173 151.274 371.229 150.994 371.299 150.646C371.369 150.298 371.438 149.908 371.508 149.477C371.581 149.05 371.64 148.612 371.687 148.165L371.746 147.608H373.019ZM374.934 146.912V145.898L379.409 138.818H380.145V140.389H379.648L376.267 145.739V145.818H382.292V146.912H374.934ZM379.727 149V146.604V146.131V138.818H380.9V149H379.727ZM387.417 149.139C386.734 149.139 386.131 149.018 385.607 148.776C385.087 148.531 384.681 148.195 384.389 147.767C384.098 147.336 383.953 146.846 383.957 146.295C383.953 145.865 384.038 145.467 384.21 145.102C384.383 144.734 384.618 144.428 384.916 144.183C385.218 143.934 385.554 143.777 385.925 143.71V143.651C385.438 143.525 385.05 143.251 384.762 142.83C384.474 142.406 384.331 141.924 384.335 141.384C384.331 140.866 384.462 140.404 384.727 139.996C384.992 139.589 385.357 139.267 385.821 139.032C386.288 138.797 386.82 138.679 387.417 138.679C388.007 138.679 388.534 138.797 388.998 139.032C389.462 139.267 389.826 139.589 390.092 139.996C390.36 140.404 390.496 140.866 390.499 141.384C390.496 141.924 390.348 142.406 390.057 142.83C389.768 143.251 389.386 143.525 388.908 143.651V143.71C389.276 143.777 389.608 143.934 389.903 144.183C390.198 144.428 390.433 144.734 390.609 145.102C390.784 145.467 390.874 145.865 390.877 146.295C390.874 146.846 390.725 147.336 390.43 147.767C390.138 148.195 389.732 148.531 389.212 148.776C388.695 149.018 388.096 149.139 387.417 149.139ZM387.417 148.045C387.878 148.045 388.275 147.971 388.61 147.822C388.945 147.673 389.203 147.462 389.386 147.19C389.568 146.919 389.661 146.6 389.664 146.236C389.661 145.851 389.561 145.512 389.366 145.217C389.17 144.922 388.903 144.69 388.565 144.521C388.231 144.352 387.848 144.267 387.417 144.267C386.983 144.267 386.595 144.352 386.254 144.521C385.915 144.69 385.649 144.922 385.453 145.217C385.261 145.512 385.166 145.851 385.17 146.236C385.166 146.6 385.254 146.919 385.433 147.19C385.616 147.462 385.876 147.673 386.214 147.822C386.552 147.971 386.953 148.045 387.417 148.045ZM387.417 143.213C387.781 143.213 388.105 143.14 388.386 142.994C388.671 142.848 388.895 142.645 389.058 142.383C389.22 142.121 389.303 141.814 389.306 141.463C389.303 141.118 389.222 140.818 389.062 140.563C388.903 140.305 388.683 140.106 388.401 139.967C388.12 139.824 387.791 139.753 387.417 139.753C387.036 139.753 386.703 139.824 386.418 139.967C386.133 140.106 385.912 140.305 385.756 140.563C385.601 140.818 385.524 141.118 385.528 141.463C385.524 141.814 385.602 142.121 385.761 142.383C385.924 142.645 386.147 142.848 386.433 142.994C386.718 143.14 387.046 143.213 387.417 143.213ZM392.544 146.912V145.898L397.018 138.818H397.754V140.389H397.257L393.876 145.739V145.818H399.902V146.912H392.544ZM397.336 149V146.604V146.131V138.818H398.51V149H397.336ZM401.579 138.304H413.843V139.326H401.579V138.304ZM405.947 142.196H411.841V143.218H405.947V142.196ZM411.477 142.196H412.569C412.569 142.196 412.555 142.56 412.541 142.714C412.303 147.236 412.065 148.93 411.519 149.518C411.197 149.882 410.847 149.98 410.301 150.022C409.783 150.064 408.789 150.036 407.837 149.98C407.809 149.672 407.669 149.238 407.459 148.944C408.509 149.056 409.531 149.056 409.909 149.056C410.231 149.056 410.413 149.028 410.567 148.874C411.029 148.468 411.267 146.718 411.477 142.378V142.196ZM405.373 139.13H406.451C406.339 143.106 406.087 147.852 401.943 150.148C401.775 149.882 401.453 149.546 401.173 149.336C405.149 147.236 405.275 142.77 405.373 139.13ZM415.971 138.192H426.947V139.242H417.021V150.134H415.971V138.192ZM426.471 138.192H427.535V148.734C427.535 149.406 427.367 149.742 426.891 149.924C426.429 150.092 425.631 150.12 424.371 150.12C424.315 149.826 424.133 149.35 423.965 149.056C424.931 149.098 425.841 149.084 426.121 149.07C426.387 149.07 426.471 148.986 426.471 148.734V138.192ZM416.545 143.372H426.961V144.408H416.545V143.372ZM421.137 138.724H422.187V143.876H421.137V138.724Z" fill="black"/>
<path d="M355.812 13.22H368.202V14.76H355.812V13.22ZM357.156 15.67H366.928V17.126H357.156V15.67ZM355.994 17.826H368.02V20.836H366.326V19.338H357.618V20.836H355.994V17.826ZM361.062 12.128H362.812V16.482H361.062V12.128ZM362.742 19.772H364.422V23.076C364.422 23.2907 364.455 23.4307 364.52 23.496C364.595 23.552 364.758 23.58 365.01 23.58C365.066 23.58 365.155 23.58 365.276 23.58C365.407 23.58 365.547 23.58 365.696 23.58C365.855 23.58 365.999 23.58 366.13 23.58C366.261 23.58 366.359 23.58 366.424 23.58C366.583 23.58 366.699 23.5427 366.774 23.468C366.858 23.384 366.914 23.2253 366.942 22.992C366.979 22.7493 367.007 22.39 367.026 21.914C367.138 21.998 367.283 22.082 367.46 22.166C367.647 22.25 367.833 22.3247 368.02 22.39C368.216 22.446 368.389 22.4973 368.538 22.544C368.482 23.216 368.384 23.734 368.244 24.098C368.104 24.4713 367.903 24.728 367.642 24.868C367.381 25.0173 367.026 25.092 366.578 25.092C366.494 25.092 366.368 25.092 366.2 25.092C366.041 25.092 365.864 25.092 365.668 25.092C365.481 25.092 365.304 25.092 365.136 25.092C364.977 25.092 364.856 25.092 364.772 25.092C364.231 25.092 363.811 25.0313 363.512 24.91C363.223 24.7887 363.022 24.5787 362.91 24.28C362.798 23.9907 362.742 23.594 362.742 23.09V19.772ZM359.284 19.772H361.02C360.973 20.472 360.88 21.1113 360.74 21.69C360.6 22.2687 360.367 22.7867 360.04 23.244C359.723 23.7013 359.265 24.098 358.668 24.434C358.08 24.7793 357.305 25.0687 356.344 25.302C356.297 25.1527 356.223 24.9893 356.12 24.812C356.017 24.6347 355.901 24.4573 355.77 24.28C355.649 24.112 355.532 23.9673 355.42 23.846C356.26 23.6873 356.927 23.4867 357.422 23.244C357.917 23.0013 358.29 22.712 358.542 22.376C358.794 22.04 358.967 21.6573 359.06 21.228C359.163 20.7987 359.237 20.3133 359.284 19.772ZM380.368 12.94H382.006V21.186C382.006 21.5687 381.964 21.8907 381.88 22.152C381.805 22.404 381.647 22.6 381.404 22.74C381.18 22.8893 380.909 22.9827 380.592 23.02C380.275 23.0573 379.906 23.076 379.486 23.076C379.467 22.9173 379.43 22.7307 379.374 22.516C379.318 22.3013 379.253 22.0913 379.178 21.886C379.103 21.6807 379.029 21.5033 378.954 21.354C379.197 21.3633 379.435 21.368 379.668 21.368C379.911 21.368 380.074 21.368 380.158 21.368C380.233 21.368 380.284 21.354 380.312 21.326C380.349 21.2887 380.368 21.228 380.368 21.144V12.94ZM376.896 12.94H381.152V14.522H378.534V25.26H376.896V12.94ZM369.882 14.088H376.028V15.614H369.882V14.088ZM369.42 17.392H376.462V18.946H369.42V17.392ZM372.178 12.1H373.816V18.218H372.178V12.1ZM369.42 22.334C369.905 22.2873 370.461 22.2313 371.086 22.166C371.711 22.1007 372.369 22.0307 373.06 21.956C373.76 21.8813 374.455 21.8067 375.146 21.732L375.216 23.216C374.236 23.356 373.256 23.4913 372.276 23.622C371.305 23.7433 370.433 23.8553 369.658 23.958L369.42 22.334ZM373.522 20.332L374.88 19.786C375.132 20.1967 375.379 20.6447 375.622 21.13C375.874 21.606 376.098 22.0727 376.294 22.53C376.49 22.978 376.635 23.384 376.728 23.748L375.244 24.364C375.169 24.0187 375.039 23.6173 374.852 23.16C374.665 22.6933 374.455 22.2127 374.222 21.718C373.998 21.2233 373.765 20.7613 373.522 20.332ZM371.478 18.344L373.256 18.82C373.088 19.3053 372.906 19.8047 372.71 20.318C372.514 20.8313 372.323 21.3213 372.136 21.788C371.949 22.2547 371.767 22.6653 371.59 23.02L370.218 22.586C370.377 22.2033 370.535 21.7693 370.694 21.284C370.853 20.7893 371.002 20.2853 371.142 19.772C371.282 19.2587 371.394 18.7827 371.478 18.344ZM387.424 13.472H396.37V14.984H387.424V13.472ZM387.564 16.734H396.3V24.868H394.676V18.204H389.104V24.952H387.564V16.734ZM389.832 13.668H391.414V17.826H389.832V13.668ZM392.338 13.654H393.92V17.812H392.338V13.654ZM388.264 22.712H395.866V24.154H388.264V22.712ZM389.986 17.812H391.4V23.832H389.986V17.812ZM392.338 17.798H393.752V23.818H392.338V17.798ZM386.22 12.142L387.732 12.618C387.452 13.3833 387.116 14.1533 386.724 14.928C386.332 15.7027 385.907 16.4353 385.45 17.126C384.993 17.8073 384.521 18.4093 384.036 18.932C383.98 18.8013 383.901 18.6287 383.798 18.414C383.705 18.1993 383.597 17.9847 383.476 17.77C383.364 17.546 383.261 17.3687 383.168 17.238C383.579 16.8273 383.971 16.3513 384.344 15.81C384.727 15.2593 385.077 14.6713 385.394 14.046C385.711 13.4207 385.987 12.786 386.22 12.142ZM384.876 16.048L386.444 14.466L386.458 14.494V25.246H384.876V16.048ZM404.854 13.584H408.55V15.026H404.854V13.584ZM403.412 19.996H409.516V25.218H407.892V21.41H404.966V25.26H403.412V19.996ZM404.028 23.328H408.788V24.77H404.028V23.328ZM405.008 12.086L406.618 12.534C406.357 13.1687 406.049 13.7893 405.694 14.396C405.339 15.0027 404.952 15.5673 404.532 16.09C404.121 16.6127 403.697 17.07 403.258 17.462C403.174 17.3593 403.053 17.238 402.894 17.098C402.735 16.9487 402.572 16.804 402.404 16.664C402.245 16.524 402.101 16.412 401.97 16.328C402.614 15.8333 403.202 15.2127 403.734 14.466C404.275 13.71 404.7 12.9167 405.008 12.086ZM408.116 13.584H408.41L408.69 13.528L409.754 14.018C409.455 14.9047 409.068 15.7167 408.592 16.454C408.125 17.1913 407.584 17.8493 406.968 18.428C406.352 19.0067 405.68 19.5153 404.952 19.954C404.233 20.3927 403.477 20.7567 402.684 21.046C402.581 20.85 402.437 20.6167 402.25 20.346C402.073 20.0753 401.9 19.856 401.732 19.688C402.46 19.4733 403.155 19.1793 403.818 18.806C404.49 18.4233 405.106 17.9847 405.666 17.49C406.235 16.986 406.73 16.4307 407.15 15.824C407.57 15.208 407.892 14.5547 408.116 13.864V13.584ZM404.924 14.564C405.213 15.18 405.629 15.8053 406.17 16.44C406.711 17.0653 407.369 17.6347 408.144 18.148C408.928 18.6613 409.81 19.058 410.79 19.338C410.687 19.4407 410.566 19.576 410.426 19.744C410.295 19.912 410.169 20.0847 410.048 20.262C409.936 20.4393 409.843 20.5933 409.768 20.724C408.76 20.3693 407.855 19.898 407.052 19.31C406.259 18.7127 405.577 18.0547 405.008 17.336C404.448 16.6173 404 15.908 403.664 15.208L404.924 14.564ZM397.63 14.998H402.628V16.552H397.63V14.998ZM399.478 12.1H401.06V25.246H399.478V12.1ZM399.45 16.076L400.416 16.398C400.304 16.958 400.169 17.5413 400.01 18.148C399.861 18.7453 399.683 19.3333 399.478 19.912C399.273 20.4813 399.053 21.0133 398.82 21.508C398.587 22.0027 398.339 22.4273 398.078 22.782C398.003 22.558 397.887 22.3013 397.728 22.012C397.569 21.7227 397.425 21.4753 397.294 21.27C397.537 20.962 397.765 20.6027 397.98 20.192C398.195 19.7813 398.395 19.3473 398.582 18.89C398.778 18.4233 398.946 17.952 399.086 17.476C399.235 16.9907 399.357 16.524 399.45 16.076ZM401.004 16.832C401.088 16.9067 401.209 17.0373 401.368 17.224C401.536 17.4107 401.713 17.616 401.9 17.84C402.087 18.064 402.255 18.2693 402.404 18.456C402.563 18.6427 402.675 18.7733 402.74 18.848L401.83 20.122C401.746 19.9447 401.634 19.7393 401.494 19.506C401.363 19.2727 401.219 19.03 401.06 18.778C400.911 18.526 400.761 18.288 400.612 18.064C400.472 17.84 400.351 17.658 400.248 17.518L401.004 16.832ZM418.308 16.174H423.32V17.7H418.308V16.174ZM418.308 19.492H423.32V21.004H418.308V19.492ZM418.308 22.796H423.32V24.322H418.308V22.796ZM417.51 12.856H424.104V25.05H422.424V14.452H419.12V25.134H417.51V12.856ZM411.63 14.998H417.006V16.58H411.63V14.998ZM413.646 12.1H415.256V25.246H413.646V12.1ZM413.562 16.076L414.556 16.426C414.444 16.9953 414.304 17.5833 414.136 18.19C413.968 18.7873 413.777 19.3753 413.562 19.954C413.347 20.5233 413.114 21.06 412.862 21.564C412.61 22.0587 412.344 22.4833 412.064 22.838C411.989 22.6047 411.873 22.3387 411.714 22.04C411.555 21.732 411.406 21.4753 411.266 21.27C411.518 20.962 411.761 20.6027 411.994 20.192C412.227 19.7813 412.442 19.3473 412.638 18.89C412.843 18.4233 413.025 17.952 413.184 17.476C413.343 16.9907 413.469 16.524 413.562 16.076ZM415.144 17.308C415.247 17.4013 415.396 17.5647 415.592 17.798C415.788 18.022 415.993 18.2693 416.208 18.54C416.432 18.8107 416.637 19.0627 416.824 19.296C417.02 19.52 417.155 19.6787 417.23 19.772L416.264 21.13C416.161 20.9247 416.031 20.682 415.872 20.402C415.713 20.122 415.541 19.8373 415.354 19.548C415.167 19.2587 414.985 18.9833 414.808 18.722C414.64 18.4607 414.495 18.2413 414.374 18.064L415.144 17.308ZM429.718 17.756H438.594V19.17H429.718V17.756ZM431.244 19.828H436.998V21.158H431.244V19.828ZM431.776 18.274L433.218 18.638C432.873 19.4407 432.401 20.1827 431.804 20.864C431.216 21.536 430.591 22.0913 429.928 22.53C429.844 22.4367 429.732 22.3247 429.592 22.194C429.461 22.054 429.321 21.9233 429.172 21.802C429.032 21.6807 428.906 21.5827 428.794 21.508C429.447 21.1533 430.035 20.696 430.558 20.136C431.09 19.5667 431.496 18.946 431.776 18.274ZM436.746 19.828H438.3C438.3 19.828 438.295 19.9027 438.286 20.052C438.286 20.192 438.277 20.3133 438.258 20.416C438.202 21.3213 438.132 22.068 438.048 22.656C437.973 23.2347 437.889 23.6827 437.796 24C437.703 24.3267 437.591 24.56 437.46 24.7C437.329 24.8587 437.185 24.9707 437.026 25.036C436.877 25.1013 436.709 25.148 436.522 25.176C436.363 25.1947 436.158 25.2087 435.906 25.218C435.663 25.2273 435.397 25.2227 435.108 25.204C435.099 25.008 435.061 24.7793 434.996 24.518C434.931 24.266 434.842 24.056 434.73 23.888C434.954 23.9067 435.155 23.9207 435.332 23.93C435.509 23.93 435.645 23.93 435.738 23.93C435.831 23.93 435.906 23.9207 435.962 23.902C436.027 23.8833 436.088 23.8413 436.144 23.776C436.228 23.6827 436.303 23.5053 436.368 23.244C436.443 22.9733 436.508 22.5813 436.564 22.068C436.629 21.5547 436.69 20.8873 436.746 20.066V19.828ZM432.448 15.39V16.062H436.06V15.39H432.448ZM432.448 13.626V14.284H436.06V13.626H432.448ZM430.95 12.464H437.614V17.224H430.95V12.464ZM425.63 15.054H429.9V16.636H425.63V15.054ZM427.044 12.282H428.612V20.99H427.044V12.282ZM425.308 21.27C425.672 21.1393 426.092 20.976 426.568 20.78C427.053 20.584 427.567 20.374 428.108 20.15C428.649 19.9167 429.186 19.6833 429.718 19.45L430.082 20.892C429.382 21.256 428.668 21.62 427.94 21.984C427.212 22.348 426.545 22.6793 425.938 22.978L425.308 21.27ZM435.136 20.108L436.27 20.724C436.102 21.284 435.864 21.858 435.556 22.446C435.248 23.0247 434.903 23.566 434.52 24.07C434.137 24.574 433.736 24.9893 433.316 25.316C433.176 25.1573 432.994 24.9893 432.77 24.812C432.546 24.6347 432.327 24.49 432.112 24.378C432.569 24.0887 432.994 23.7153 433.386 23.258C433.778 22.8007 434.123 22.2967 434.422 21.746C434.73 21.1953 434.968 20.6493 435.136 20.108ZM433.022 20.122L434.114 20.766C433.881 21.2513 433.573 21.7413 433.19 22.236C432.817 22.7307 432.406 23.1927 431.958 23.622C431.51 24.0513 431.062 24.406 430.614 24.686C430.483 24.518 430.315 24.3407 430.11 24.154C429.914 23.9673 429.718 23.8133 429.522 23.692C429.979 23.4587 430.432 23.1507 430.88 22.768C431.337 22.3853 431.753 21.9653 432.126 21.508C432.499 21.0413 432.798 20.5793 433.022 20.122Z" fill="white"/>
<path d="M592.994 15.824H598.034V16.986H592.994V15.824ZM594.758 16.174H596.284V19.002H594.758V16.174ZM592.658 18.68C593.115 18.6147 593.633 18.5447 594.212 18.47C594.8 18.3953 595.421 18.3113 596.074 18.218C596.737 18.1247 597.39 18.0313 598.034 17.938L598.104 19.198C597.18 19.338 596.256 19.478 595.332 19.618C594.408 19.758 593.582 19.884 592.854 19.996L592.658 18.68ZM598.664 15.754H600.19V17.196C600.19 17.6067 600.129 18.0127 600.008 18.414C599.896 18.806 599.677 19.1793 599.35 19.534C599.023 19.8793 598.547 20.1733 597.922 20.416C597.857 20.3133 597.754 20.192 597.614 20.052C597.474 19.9027 597.329 19.7627 597.18 19.632C597.031 19.492 596.905 19.3847 596.802 19.31C597.353 19.114 597.759 18.904 598.02 18.68C598.291 18.4467 598.463 18.1993 598.538 17.938C598.622 17.6767 598.664 17.4153 598.664 17.154V15.754ZM602.234 15.754H603.816V18.232C603.816 18.344 603.816 18.4373 603.816 18.512C603.816 18.5867 603.825 18.6333 603.844 18.652C603.863 18.6893 603.909 18.708 603.984 18.708C604.012 18.708 604.045 18.708 604.082 18.708C604.129 18.708 604.166 18.708 604.194 18.708C604.231 18.708 604.264 18.708 604.292 18.708C604.32 18.6987 604.348 18.6893 604.376 18.68C604.413 18.652 604.446 18.5587 604.474 18.4C604.493 18.3253 604.502 18.204 604.502 18.036C604.511 17.8587 604.521 17.6533 604.53 17.42C604.651 17.532 604.819 17.644 605.034 17.756C605.249 17.8587 605.445 17.9427 605.622 18.008C605.603 18.2693 605.575 18.5307 605.538 18.792C605.51 19.044 605.477 19.2307 605.44 19.352C605.337 19.604 605.179 19.7813 604.964 19.884C604.871 19.94 604.754 19.982 604.614 20.01C604.474 20.0287 604.343 20.038 604.222 20.038C604.11 20.038 603.989 20.038 603.858 20.038C603.727 20.038 603.615 20.038 603.522 20.038C603.354 20.038 603.181 20.01 603.004 19.954C602.836 19.898 602.691 19.814 602.57 19.702C602.449 19.5807 602.36 19.4267 602.304 19.24C602.257 19.044 602.234 18.7267 602.234 18.288V15.754ZM592.644 20.668H605.384V21.984H592.644V20.668ZM598.174 19.828H599.812V25.204H598.174V19.828ZM597.698 21.438L598.958 21.984C598.641 22.32 598.272 22.642 597.852 22.95C597.432 23.2487 596.979 23.524 596.494 23.776C596.009 24.028 595.505 24.2473 594.982 24.434C594.459 24.63 593.937 24.7933 593.414 24.924C593.293 24.7187 593.129 24.4807 592.924 24.21C592.728 23.9393 592.546 23.72 592.378 23.552C592.882 23.468 593.391 23.356 593.904 23.216C594.427 23.076 594.921 22.9173 595.388 22.74C595.864 22.5533 596.298 22.3527 596.69 22.138C597.091 21.9233 597.427 21.69 597.698 21.438ZM600.232 21.522C600.531 21.7553 600.876 21.9747 601.268 22.18C601.669 22.376 602.108 22.558 602.584 22.726C603.069 22.894 603.569 23.0387 604.082 23.16C604.595 23.2813 605.113 23.3793 605.636 23.454C605.515 23.566 605.384 23.7107 605.244 23.888C605.104 24.056 604.973 24.2287 604.852 24.406C604.74 24.5833 604.642 24.742 604.558 24.882C604.045 24.77 603.527 24.6207 603.004 24.434C602.491 24.2567 601.991 24.0467 601.506 23.804C601.03 23.552 600.582 23.2767 600.162 22.978C599.742 22.6793 599.369 22.3573 599.042 22.012L600.232 21.522ZM594.38 13.094H598.804V14.41H594.38V13.094ZM600.05 13.094H605.482V14.41H600.05V13.094ZM594.45 11.988L596.004 12.422C595.733 13.0287 595.388 13.626 594.968 14.214C594.557 14.7927 594.147 15.278 593.736 15.67C593.643 15.5767 593.512 15.474 593.344 15.362C593.176 15.2407 593.003 15.1287 592.826 15.026C592.658 14.914 592.509 14.8207 592.378 14.746C592.807 14.41 593.204 13.9993 593.568 13.514C593.941 13.0193 594.235 12.5107 594.45 11.988ZM600.148 11.988L601.744 12.38C601.483 13.0147 601.142 13.626 600.722 14.214C600.311 14.7927 599.896 15.278 599.476 15.67C599.355 15.586 599.205 15.4927 599.028 15.39C598.851 15.2873 598.669 15.1893 598.482 15.096C598.295 14.9933 598.132 14.914 597.992 14.858C598.459 14.522 598.879 14.0973 599.252 13.584C599.635 13.0707 599.933 12.5387 600.148 11.988ZM594.912 14.158L596.186 13.808C596.354 14.032 596.513 14.284 596.662 14.564C596.821 14.844 596.942 15.0867 597.026 15.292L595.668 15.684C595.603 15.4787 595.5 15.2313 595.36 14.942C595.22 14.6527 595.071 14.3913 594.912 14.158ZM601.156 14.144L602.514 13.78C602.71 13.9947 602.906 14.242 603.102 14.522C603.307 14.802 603.457 15.0493 603.55 15.264L602.122 15.67C602.038 15.4647 601.903 15.2173 601.716 14.928C601.539 14.6387 601.352 14.3773 601.156 14.144ZM599.896 18.022L600.862 17.182C601.049 17.3033 601.245 17.448 601.45 17.616C601.665 17.7747 601.861 17.9333 602.038 18.092C602.215 18.2413 602.36 18.386 602.472 18.526L601.45 19.464C601.291 19.2493 601.063 19.0067 600.764 18.736C600.465 18.4653 600.176 18.2273 599.896 18.022ZM599.224 15.754H603.032V16.846H599.224V15.754ZM609.472 12.044L611.194 12.492C610.942 13.1827 610.643 13.8593 610.298 14.522C609.962 15.1847 609.593 15.8007 609.192 16.37C608.8 16.93 608.394 17.42 607.974 17.84C607.862 17.7467 607.717 17.63 607.54 17.49C607.363 17.3407 607.181 17.2007 606.994 17.07C606.817 16.9393 606.658 16.832 606.518 16.748C606.947 16.384 607.349 15.9547 607.722 15.46C608.095 14.956 608.431 14.4147 608.73 13.836C609.029 13.248 609.276 12.6507 609.472 12.044ZM609.78 13.64H618.684V15.264H608.968L609.78 13.64ZM608.786 16.958H618.348V18.526H610.466V21.466H608.786V16.958ZM606.56 20.64H619.44V22.25H606.56V20.64ZM612.902 14.48H614.638V25.26H612.902V14.48ZM620.406 19.408H627.49V20.766H620.406V19.408ZM620.574 14.466H627.448V15.796H620.574V14.466ZM622.94 18.414L624.494 18.736C624.261 19.2213 624.009 19.7207 623.738 20.234C623.477 20.7473 623.215 21.2467 622.954 21.732C622.693 22.208 622.45 22.6327 622.226 23.006L620.756 22.558C620.98 22.2033 621.218 21.788 621.47 21.312C621.731 20.836 621.988 20.346 622.24 19.842C622.501 19.3287 622.735 18.8527 622.94 18.414ZM624.914 20.346L626.468 20.486C626.337 21.2233 626.141 21.858 625.88 22.39C625.628 22.9127 625.287 23.3607 624.858 23.734C624.438 24.098 623.925 24.4013 623.318 24.644C622.711 24.896 621.988 25.106 621.148 25.274C621.101 25.0407 621.013 24.7933 620.882 24.532C620.751 24.2707 620.616 24.056 620.476 23.888C621.4 23.7667 622.161 23.5753 622.758 23.314C623.365 23.0527 623.841 22.684 624.186 22.208C624.531 21.732 624.774 21.1113 624.914 20.346ZM625.908 12.268L627.322 12.842C627.098 13.15 626.874 13.458 626.65 13.766C626.435 14.0647 626.239 14.3213 626.062 14.536L624.984 14.06C625.143 13.8173 625.311 13.528 625.488 13.192C625.665 12.8467 625.805 12.5387 625.908 12.268ZM623.248 12.086H624.788V18.61H623.248V12.086ZM620.924 12.842L622.128 12.338C622.315 12.5993 622.487 12.8933 622.646 13.22C622.805 13.5467 622.917 13.8313 622.982 14.074L621.694 14.634C621.647 14.3913 621.549 14.102 621.4 13.766C621.251 13.43 621.092 13.122 620.924 12.842ZM623.29 15.124L624.368 15.782C624.144 16.1553 623.85 16.5287 623.486 16.902C623.131 17.2753 622.749 17.6253 622.338 17.952C621.937 18.2693 621.54 18.54 621.148 18.764C621.055 18.5867 620.924 18.3767 620.756 18.134C620.597 17.8913 620.443 17.6953 620.294 17.546C620.667 17.3873 621.045 17.182 621.428 16.93C621.811 16.6687 622.165 16.384 622.492 16.076C622.828 15.7587 623.094 15.4413 623.29 15.124ZM624.648 15.53C624.779 15.5953 624.956 15.6933 625.18 15.824C625.413 15.9547 625.661 16.0993 625.922 16.258C626.193 16.4073 626.435 16.5473 626.65 16.678C626.874 16.8087 627.033 16.9067 627.126 16.972L626.244 18.134C626.113 18.0127 625.945 17.8633 625.74 17.686C625.535 17.5087 625.315 17.3267 625.082 17.14C624.849 16.9533 624.625 16.776 624.41 16.608C624.195 16.44 624.009 16.3047 623.85 16.202L624.648 15.53ZM628.414 14.634H633.566V16.188H628.414V14.634ZM628.568 12.086L630.276 12.338C630.127 13.2993 629.935 14.2327 629.702 15.138C629.469 16.034 629.184 16.8647 628.848 17.63C628.521 18.386 628.139 19.0533 627.7 19.632C627.616 19.52 627.495 19.3893 627.336 19.24C627.177 19.0907 627.009 18.946 626.832 18.806C626.655 18.6567 626.505 18.5353 626.384 18.442C626.776 17.9567 627.112 17.3827 627.392 16.72C627.681 16.048 627.924 15.32 628.12 14.536C628.316 13.7427 628.465 12.926 628.568 12.086ZM631.116 15.586L632.838 15.754C632.633 17.35 632.315 18.7547 631.886 19.968C631.466 21.1813 630.883 22.2267 630.136 23.104C629.389 23.9813 628.428 24.714 627.252 25.302C627.196 25.1713 627.112 25.008 627 24.812C626.888 24.616 626.767 24.42 626.636 24.224C626.505 24.0373 626.384 23.888 626.272 23.776C627.336 23.3093 628.195 22.7027 628.848 21.956C629.511 21.2093 630.019 20.3087 630.374 19.254C630.729 18.19 630.976 16.9673 631.116 15.586ZM629.366 15.88C629.562 17.056 629.837 18.162 630.192 19.198C630.547 20.234 631.013 21.144 631.592 21.928C632.171 22.712 632.885 23.328 633.734 23.776C633.613 23.8787 633.477 24.014 633.328 24.182C633.179 24.3593 633.034 24.5413 632.894 24.728C632.763 24.9147 632.656 25.0827 632.572 25.232C631.629 24.672 630.85 23.9487 630.234 23.062C629.627 22.1753 629.137 21.1487 628.764 19.982C628.391 18.806 628.087 17.5227 627.854 16.132L629.366 15.88ZM621.988 22.572L622.884 21.438C623.435 21.6433 623.981 21.8813 624.522 22.152C625.073 22.4227 625.581 22.7027 626.048 22.992C626.524 23.272 626.921 23.5427 627.238 23.804L626.062 24.994C625.773 24.7327 625.409 24.4573 624.97 24.168C624.531 23.8787 624.055 23.5987 623.542 23.328C623.029 23.048 622.511 22.796 621.988 22.572Z" fill="white"/>
<path d="M601.799 66.1392C601.143 66.1392 600.558 66.0265 600.044 65.8011C599.534 65.5758 599.128 65.2625 598.826 64.8615C598.528 64.4571 598.365 63.9882 598.339 63.4545H599.592C599.618 63.7827 599.731 64.0661 599.93 64.3047C600.129 64.54 600.389 64.7223 600.71 64.8516C601.032 64.9808 601.388 65.0455 601.779 65.0455C602.217 65.0455 602.604 64.9692 602.942 64.8168C603.281 64.6643 603.546 64.4522 603.738 64.1804C603.93 63.9086 604.026 63.5938 604.026 63.2358C604.026 62.8613 603.933 62.5315 603.748 62.2464C603.562 61.9581 603.29 61.7327 602.933 61.5703C602.575 61.4079 602.137 61.3267 601.62 61.3267H600.805V60.233H601.62C602.024 60.233 602.379 60.16 602.684 60.0142C602.992 59.8684 603.232 59.6629 603.405 59.3977C603.58 59.1326 603.668 58.821 603.668 58.4631C603.668 58.1184 603.592 57.8184 603.44 57.5632C603.287 57.308 603.072 57.1091 602.793 56.9666C602.518 56.8241 602.193 56.7528 601.819 56.7528C601.468 56.7528 601.136 56.8175 600.825 56.9467C600.516 57.0727 600.264 57.2566 600.069 57.4986C599.873 57.7372 599.767 58.0256 599.751 58.3636H598.558C598.577 57.83 598.738 57.3627 599.04 56.9616C599.341 56.5573 599.736 56.2424 600.223 56.017C600.714 55.7917 601.252 55.679 601.839 55.679C602.469 55.679 603.009 55.8066 603.46 56.0618C603.91 56.3137 604.257 56.6468 604.499 57.0611C604.741 57.4754 604.862 57.9228 604.862 58.4034C604.862 58.9768 604.711 59.4657 604.409 59.87C604.111 60.2744 603.705 60.5545 603.191 60.7102V60.7898C603.834 60.8958 604.336 61.1693 604.697 61.6101C605.059 62.0476 605.239 62.5895 605.239 63.2358C605.239 63.7893 605.089 64.2865 604.787 64.7273C604.489 65.1648 604.081 65.5095 603.564 65.7614C603.047 66.0133 602.459 66.1392 601.799 66.1392ZM607.273 66V65.1051L610.634 61.4261C611.028 60.9953 611.353 60.6207 611.608 60.3026C611.863 59.9811 612.052 59.6795 612.175 59.3977C612.301 59.1127 612.364 58.8144 612.364 58.5028C612.364 58.1449 612.277 57.835 612.105 57.5732C611.936 57.3113 611.704 57.1091 611.409 56.9666C611.114 56.8241 610.783 56.7528 610.415 56.7528C610.024 56.7528 609.682 56.834 609.391 56.9964C609.102 57.1555 608.879 57.3793 608.719 57.6676C608.564 57.956 608.486 58.294 608.486 58.6818H607.312C607.312 58.0852 607.45 57.5616 607.725 57.1108C608 56.66 608.375 56.3087 608.849 56.0568C609.326 55.8049 609.861 55.679 610.455 55.679C611.051 55.679 611.58 55.8049 612.04 56.0568C612.501 56.3087 612.862 56.6484 613.124 57.076C613.386 57.5036 613.517 57.9792 613.517 58.5028C613.517 58.8774 613.449 59.2436 613.313 59.6016C613.181 59.9562 612.949 60.3523 612.617 60.7898C612.289 61.224 611.833 61.7543 611.25 62.3807L608.963 64.8267V64.9062H613.696V66H607.273ZM618.573 54.198L619.623 54.464C618.853 56.536 617.607 58.482 616.305 59.742C616.095 59.56 615.661 59.21 615.395 59.07C616.725 57.908 617.887 56.088 618.573 54.198ZM618.349 55.934H627.379V56.956H617.845L618.349 55.934ZM617.663 59.112H627.071V60.092H618.713V63.41H617.663V59.112ZM615.353 62.878H628.037V63.9H615.353V62.878ZM621.863 56.466H622.941V67.134H621.863V56.466Z" fill="black"/>
<path d="M602.783 107.139C602.127 107.139 601.542 107.027 601.028 106.801C600.518 106.576 600.112 106.263 599.81 105.862C599.512 105.457 599.35 104.988 599.323 104.455H600.576C600.603 104.783 600.715 105.066 600.914 105.305C601.113 105.54 601.373 105.722 601.695 105.852C602.016 105.981 602.372 106.045 602.763 106.045C603.201 106.045 603.589 105.969 603.927 105.817C604.265 105.664 604.53 105.452 604.722 105.18C604.915 104.909 605.011 104.594 605.011 104.236C605.011 103.861 604.918 103.531 604.732 103.246C604.547 102.958 604.275 102.733 603.917 102.57C603.559 102.408 603.121 102.327 602.604 102.327H601.789V101.233H602.604C603.009 101.233 603.363 101.16 603.668 101.014C603.977 100.868 604.217 100.663 604.389 100.398C604.565 100.133 604.653 99.821 604.653 99.4631C604.653 99.1184 604.576 98.8184 604.424 98.5632C604.272 98.308 604.056 98.1091 603.778 97.9666C603.503 97.8241 603.178 97.7528 602.803 97.7528C602.452 97.7528 602.121 97.8175 601.809 97.9467C601.501 98.0727 601.249 98.2566 601.053 98.4986C600.858 98.7372 600.752 99.0256 600.735 99.3636H599.542C599.562 98.83 599.723 98.3627 600.024 97.9616C600.326 97.5573 600.72 97.2424 601.207 97.017C601.698 96.7917 602.237 96.679 602.823 96.679C603.453 96.679 603.993 96.8066 604.444 97.0618C604.895 97.3137 605.241 97.6468 605.483 98.0611C605.725 98.4754 605.846 98.9228 605.846 99.4034C605.846 99.9768 605.695 100.466 605.393 100.87C605.095 101.274 604.689 101.554 604.175 101.71V101.79C604.818 101.896 605.321 102.169 605.682 102.61C606.043 103.048 606.224 103.589 606.224 104.236C606.224 104.789 606.073 105.286 605.771 105.727C605.473 106.165 605.065 106.509 604.548 106.761C604.031 107.013 603.443 107.139 602.783 107.139ZM611.837 96.8182V107H610.604V98.1108H610.544L608.058 99.7614V98.5085L610.604 96.8182H611.837ZM617.589 95.198L618.639 95.464C617.869 97.536 616.623 99.482 615.321 100.742C615.111 100.56 614.677 100.21 614.411 100.07C615.741 98.908 616.903 97.088 617.589 95.198ZM617.365 96.934H626.395V97.956H616.861L617.365 96.934ZM616.679 100.112H626.087V101.092H617.729V104.41H616.679V100.112ZM614.369 103.878H627.053V104.9H614.369V103.878ZM620.879 97.466H621.957V108.134H620.879V97.466Z" fill="black"/>
<path d="M367.719 96.8182V107H366.487V98.1108H366.427L363.941 99.7614V98.5085L366.487 96.8182H367.719ZM371.816 105.608L371.737 106.145C371.68 106.523 371.594 106.927 371.478 107.358C371.365 107.789 371.248 108.195 371.125 108.576C371.002 108.957 370.901 109.26 370.822 109.486H369.927C369.97 109.274 370.026 108.994 370.096 108.646C370.165 108.298 370.235 107.908 370.305 107.477C370.378 107.05 370.437 106.612 370.484 106.165L370.543 105.608H371.816ZM376.995 107.139C376.578 107.133 376.16 107.053 375.742 106.901C375.325 106.748 374.944 106.491 374.599 106.13C374.254 105.765 373.977 105.273 373.769 104.653C373.56 104.03 373.455 103.248 373.455 102.307C373.455 101.405 373.54 100.607 373.709 99.9105C373.878 99.2112 374.123 98.6229 374.445 98.1456C374.766 97.665 375.154 97.3004 375.608 97.0518C376.066 96.8033 376.581 96.679 377.154 96.679C377.724 96.679 378.231 96.7933 378.676 97.022C379.123 97.2474 379.488 97.5623 379.769 97.9666C380.051 98.371 380.233 98.8366 380.316 99.3636H379.103C378.99 98.9062 378.772 98.5268 378.447 98.2251C378.122 97.9235 377.691 97.7727 377.154 97.7727C376.365 97.7727 375.744 98.1158 375.29 98.8018C374.839 99.4879 374.612 100.451 374.609 101.69H374.688C374.874 101.409 375.094 101.168 375.35 100.969C375.608 100.767 375.893 100.612 376.205 100.502C376.516 100.393 376.846 100.338 377.194 100.338C377.777 100.338 378.311 100.484 378.795 100.776C379.279 101.064 379.667 101.463 379.958 101.974C380.25 102.481 380.396 103.062 380.396 103.719C380.396 104.348 380.255 104.925 379.973 105.449C379.691 105.969 379.295 106.384 378.785 106.692C378.278 106.997 377.681 107.146 376.995 107.139ZM376.995 106.045C377.413 106.045 377.787 105.941 378.119 105.732C378.454 105.523 378.717 105.243 378.909 104.892C379.105 104.541 379.203 104.15 379.203 103.719C379.203 103.298 379.108 102.915 378.919 102.57C378.734 102.222 378.477 101.946 378.149 101.74C377.824 101.535 377.453 101.432 377.035 101.432C376.72 101.432 376.427 101.495 376.155 101.621C375.883 101.743 375.645 101.912 375.439 102.128C375.237 102.343 375.078 102.59 374.962 102.869C374.846 103.144 374.788 103.434 374.788 103.739C374.788 104.143 374.882 104.521 375.071 104.872C375.263 105.223 375.525 105.507 375.857 105.722C376.191 105.938 376.571 106.045 376.995 106.045ZM385.592 96.679C386.01 96.6823 386.428 96.7618 386.845 96.9176C387.263 97.0734 387.644 97.3319 387.989 97.6932C388.333 98.0511 388.61 98.54 388.819 99.1598C389.028 99.7796 389.132 100.557 389.132 101.491C389.132 102.396 389.046 103.2 388.874 103.903C388.705 104.602 388.459 105.192 388.138 105.673C387.82 106.153 387.432 106.518 386.974 106.766C386.52 107.015 386.007 107.139 385.433 107.139C384.863 107.139 384.354 107.027 383.907 106.801C383.463 106.572 383.098 106.256 382.813 105.852C382.531 105.444 382.351 104.972 382.271 104.435H383.484C383.594 104.902 383.811 105.288 384.136 105.593C384.464 105.895 384.896 106.045 385.433 106.045C386.219 106.045 386.839 105.702 387.293 105.016C387.75 104.33 387.979 103.361 387.979 102.108H387.899C387.714 102.386 387.493 102.627 387.238 102.829C386.983 103.031 386.699 103.187 386.388 103.296C386.076 103.406 385.745 103.46 385.393 103.46C384.81 103.46 384.275 103.316 383.788 103.028C383.304 102.736 382.916 102.337 382.624 101.83C382.336 101.319 382.192 100.736 382.192 100.08C382.192 99.4564 382.331 98.8864 382.609 98.3693C382.891 97.849 383.286 97.4347 383.793 97.1264C384.303 96.8182 384.903 96.669 385.592 96.679ZM385.592 97.7727C385.175 97.7727 384.799 97.8771 384.464 98.0859C384.132 98.2914 383.869 98.5698 383.673 98.9212C383.481 99.2692 383.385 99.6553 383.385 100.08C383.385 100.504 383.478 100.89 383.663 101.238C383.852 101.583 384.109 101.858 384.434 102.063C384.762 102.265 385.135 102.366 385.553 102.366C385.867 102.366 386.161 102.305 386.433 102.183C386.704 102.057 386.941 101.886 387.143 101.67C387.349 101.452 387.51 101.205 387.626 100.93C387.742 100.651 387.8 100.361 387.8 100.06C387.8 99.6619 387.704 99.2891 387.511 98.9411C387.322 98.593 387.061 98.3113 386.726 98.0959C386.394 97.8804 386.017 97.7727 385.592 97.7727ZM394.408 107.139C393.659 107.139 393.021 106.935 392.494 106.528C391.967 106.117 391.564 105.522 391.286 104.743C391.008 103.961 390.868 103.016 390.868 101.909C390.868 100.809 391.008 99.8691 391.286 99.0902C391.568 98.308 391.972 97.7114 392.499 97.3004C393.029 96.8861 393.666 96.679 394.408 96.679C395.151 96.679 395.785 96.8861 396.312 97.3004C396.843 97.7114 397.247 98.308 397.525 99.0902C397.807 99.8691 397.948 100.809 397.948 101.909C397.948 103.016 397.809 103.961 397.53 104.743C397.252 105.522 396.849 106.117 396.322 106.528C395.795 106.935 395.157 107.139 394.408 107.139ZM394.408 106.045C395.151 106.045 395.727 105.687 396.138 104.972C396.549 104.256 396.755 103.235 396.755 101.909C396.755 101.027 396.66 100.277 396.471 99.657C396.286 99.0372 396.017 98.5649 395.666 98.2401C395.318 97.9152 394.899 97.7528 394.408 97.7528C393.672 97.7528 393.097 98.1158 392.683 98.8416C392.269 99.5642 392.062 100.587 392.062 101.909C392.062 102.791 392.154 103.54 392.34 104.156C392.526 104.773 392.792 105.242 393.14 105.563C393.492 105.885 393.914 106.045 394.408 106.045ZM402.782 96.304H415.046V97.326H402.782V96.304ZM407.15 100.196H413.044V101.218H407.15V100.196ZM412.68 100.196H413.772C413.772 100.196 413.758 100.56 413.744 100.714C413.506 105.236 413.268 106.93 412.722 107.518C412.4 107.882 412.05 107.98 411.504 108.022C410.986 108.064 409.992 108.036 409.04 107.98C409.012 107.672 408.872 107.238 408.662 106.944C409.712 107.056 410.734 107.056 411.112 107.056C411.434 107.056 411.616 107.028 411.77 106.874C412.232 106.468 412.47 104.718 412.68 100.378V100.196ZM406.576 97.13H407.654C407.542 101.106 407.29 105.852 403.146 108.148C402.978 107.882 402.656 107.546 402.376 107.336C406.352 105.236 406.478 100.77 406.576 97.13ZM417.174 96.192H428.15V97.242H418.224V108.134H417.174V96.192ZM427.674 96.192H428.738V106.734C428.738 107.406 428.57 107.742 428.094 107.924C427.632 108.092 426.834 108.12 425.574 108.12C425.518 107.826 425.336 107.35 425.168 107.056C426.134 107.098 427.044 107.084 427.324 107.07C427.59 107.07 427.674 106.986 427.674 106.734V96.192ZM417.748 101.372H428.164V102.408H417.748V101.372ZM422.34 96.724H423.39V101.876H422.34V96.724Z" fill="black"/>
<path d="M160.952 55.08H173.076V56.102H160.952V55.08ZM162.926 61.59H171.396V62.57H162.926V61.59ZM163.01 57.628H172.012V63.34H170.948V58.608H163.01V57.628ZM162.31 57.628H163.374V60.806C163.374 62.752 163.066 65.44 161.288 67.19C161.134 66.966 160.7 66.602 160.462 66.462C162.128 64.824 162.31 62.556 162.31 60.792V57.628ZM178.382 57.208H187.44V58.062H178.382V57.208ZM179.208 60.988H186.516V61.786H179.208V60.988ZM178.578 62.906H187.132V63.774H178.578V62.906ZM182.26 54.352H183.282V65.258H182.26V54.352ZM179.39 55.374H186.39V59.938H179.292V59.098H185.354V56.214H179.39V55.374ZM174.574 55.136H177.598V56.074H174.574V55.136ZM177.22 55.136H177.374L177.542 55.08L178.256 55.304C177.612 56.774 176.562 58.944 175.708 60.61L174.756 60.344C175.624 58.706 176.702 56.438 177.22 55.262V55.136ZM175.848 59.126H178.144V60.064H175.722L175.848 59.126ZM177.71 59.126H177.92L178.116 59.098L178.718 59.252C178.298 63.326 177.08 65.832 175.26 67.148C175.092 66.938 174.7 66.56 174.462 66.42C176.24 65.23 177.36 62.948 177.71 59.336V59.126ZM175.89 61.184C177.024 65.048 179.628 65.748 183.184 65.748C183.772 65.748 186.796 65.748 187.538 65.734C187.37 65.972 187.174 66.448 187.104 66.756H183.156C179.11 66.756 176.408 65.902 175.05 61.506L175.89 61.184ZM189.176 56.704C189.708 56.69 190.156 56.662 190.436 56.634C191.346 56.536 193.978 56.284 196.568 56.06C198.094 55.934 199.396 55.85 200.334 55.822L200.348 56.942C199.536 56.928 198.318 56.956 197.604 57.152C195.602 57.796 194.384 59.938 194.384 61.59C194.384 64.32 196.946 65.188 199.214 65.286L198.822 66.434C196.218 66.336 193.278 64.964 193.278 61.828C193.278 59.644 194.608 57.866 195.896 57.11C194.384 57.264 190.828 57.614 189.302 57.936L189.176 56.704Z" fill="black"/>
<path d="M158.992 98.124C158.852 98.278 158.726 98.432 158.642 98.558C157.592 100.28 155.66 102.744 153.182 104.536L152.314 103.752C154.554 102.198 156.36 99.93 157.102 98.6C155.842 98.6 149.668 98.6 148.87 98.6C148.31 98.6 147.708 98.642 147.442 98.67V97.424C147.82 97.48 148.38 97.522 148.87 97.522C149.584 97.522 155.814 97.522 157.214 97.522C157.592 97.522 157.914 97.494 158.11 97.424L158.992 98.124ZM152.398 104.774C151.558 103.934 149.948 102.548 149.206 102.016L150.102 101.288C150.746 101.75 152.37 103.08 153.378 104.06C154.26 104.942 155.352 106.09 155.954 106.818L154.932 107.63C154.414 106.916 153.294 105.684 152.398 104.774ZM163.178 96.752C164.158 97.41 165.964 98.866 166.734 99.636L165.866 100.532C165.152 99.804 163.416 98.292 162.366 97.606L163.178 96.752ZM161.974 106.132C164.41 105.768 166.23 104.914 167.56 104.088C169.73 102.73 171.424 100.658 172.236 98.922L172.908 100.126C171.956 101.862 170.332 103.766 168.218 105.096C166.804 105.978 165.04 106.846 162.702 107.28L161.974 106.132ZM178.2 96.248C179.026 96.71 180.636 97.788 181.252 98.236L180.594 99.188C179.922 98.67 178.396 97.662 177.584 97.2L178.2 96.248ZM176.1 106.258C177.64 105.992 179.376 105.432 180.804 104.634C183.128 103.304 184.976 101.47 186.096 99.496L186.782 100.658C185.564 102.534 183.632 104.34 181.392 105.656C179.978 106.482 178.046 107.126 176.758 107.392L176.1 106.258ZM176.1 99.398C176.926 99.846 178.564 100.854 179.166 101.288L178.522 102.268C177.836 101.764 176.324 100.798 175.47 100.35L176.1 99.398ZM191.108 99.328C191.374 99.356 192.172 99.37 192.55 99.37C193.334 99.37 196.82 99.37 197.954 99.37C198.276 99.37 198.626 99.356 198.822 99.356C198.808 99.51 198.808 99.804 198.808 100.07C198.808 100.56 198.808 105.852 198.808 107.042C198.808 107.266 198.822 107.588 198.822 107.798H197.716C197.73 107.63 197.73 107.294 197.73 107C197.73 105.53 197.73 100.798 197.73 100.378C197.268 100.378 193.32 100.378 192.55 100.378C192.172 100.378 191.374 100.406 191.108 100.406V99.328ZM191.416 102.646C191.696 102.674 192.2 102.702 192.676 102.702C193.39 102.702 197.87 102.702 198.276 102.702V103.71C197.87 103.71 193.39 103.71 192.676 103.71C192.2 103.71 191.696 103.71 191.416 103.738V102.646ZM190.954 106.132C191.178 106.16 191.612 106.188 192.102 106.188C192.9 106.188 197.674 106.188 198.29 106.188V107.224C197.59 107.224 192.9 107.224 192.102 107.224C191.668 107.224 191.178 107.252 190.954 107.252V106.132ZM205.178 96.752C206.158 97.41 207.964 98.866 208.734 99.636L207.866 100.532C207.152 99.804 205.416 98.292 204.366 97.606L205.178 96.752ZM203.974 106.132C206.41 105.768 208.23 104.914 209.56 104.088C211.73 102.73 213.424 100.658 214.236 98.922L214.908 100.126C213.956 101.862 212.332 103.766 210.218 105.096C208.804 105.978 207.04 106.846 204.702 107.28L203.974 106.132Z" fill="black"/>
<path d="M168.624 141.748H179.39V142.784H168.624V141.748ZM167.728 148.468H180.286V149.504H167.728V148.468ZM173.412 137.296H174.518V149.126H173.412V137.296ZM189.89 137.24H190.884V146.998H189.89V137.24ZM185.48 143.022L193.026 139.844L193.418 140.74L185.886 143.946L185.48 143.022ZM186.992 138.556H188V147.922C188 148.692 188.168 148.86 189.106 148.86C189.568 148.86 191.92 148.86 192.48 148.86C193.306 148.86 193.446 148.482 193.544 146.872C193.796 147.04 194.202 147.208 194.496 147.264C194.328 149.196 193.992 149.812 192.522 149.812C192.144 149.812 189.428 149.812 189.078 149.812C187.468 149.812 186.992 149.434 186.992 147.908V138.556ZM192.844 139.984H192.718L192.97 139.774L193.152 139.62L193.894 139.9L193.852 140.096C193.852 142.728 193.81 144.828 193.712 145.374C193.628 145.934 193.362 146.2 192.956 146.298C192.578 146.396 192.018 146.396 191.64 146.396C191.598 146.116 191.514 145.724 191.388 145.486C191.71 145.5 192.172 145.5 192.326 145.5C192.536 145.5 192.676 145.444 192.746 145.122C192.83 144.758 192.844 142.77 192.844 139.984ZM181.574 140.614H186.026V141.608H181.574V140.614ZM183.38 137.408H184.374V146.494H183.38V137.408ZM181.448 146.858C182.582 146.438 184.304 145.71 185.97 144.996L186.194 145.934C184.696 146.648 183.114 147.362 181.868 147.894L181.448 146.858Z" fill="black"/>
<path d="M160.224 12.1L161.75 12.394C161.573 13.1687 161.358 13.9247 161.106 14.662C160.854 15.39 160.565 16.0713 160.238 16.706C159.911 17.3313 159.557 17.882 159.174 18.358C159.09 18.2647 158.969 18.162 158.81 18.05C158.651 17.9287 158.488 17.812 158.32 17.7C158.161 17.5787 158.026 17.4807 157.914 17.406C158.287 16.9953 158.619 16.51 158.908 15.95C159.207 15.39 159.463 14.7833 159.678 14.13C159.902 13.4673 160.084 12.7907 160.224 12.1ZM164.928 14.284H166.524C166.524 14.284 166.519 14.3353 166.51 14.438C166.51 14.5313 166.51 14.6387 166.51 14.76C166.51 14.8813 166.505 14.9747 166.496 15.04C166.431 16.6173 166.361 17.9567 166.286 19.058C166.221 20.1593 166.146 21.0693 166.062 21.788C165.987 22.4973 165.899 23.0573 165.796 23.468C165.693 23.8693 165.577 24.1587 165.446 24.336C165.278 24.5693 165.11 24.7373 164.942 24.84C164.774 24.9427 164.573 25.0173 164.34 25.064C164.144 25.1013 163.906 25.12 163.626 25.12C163.346 25.1293 163.052 25.1247 162.744 25.106C162.725 24.8633 162.674 24.588 162.59 24.28C162.515 23.972 162.413 23.7013 162.282 23.468C162.543 23.496 162.786 23.5147 163.01 23.524C163.234 23.524 163.411 23.524 163.542 23.524C163.654 23.524 163.743 23.5053 163.808 23.468C163.883 23.4307 163.962 23.3607 164.046 23.258C164.139 23.146 164.228 22.9127 164.312 22.558C164.396 22.194 164.475 21.676 164.55 21.004C164.625 20.332 164.69 19.478 164.746 18.442C164.811 17.3967 164.872 16.132 164.928 14.648V14.284ZM160.644 14.284H165.642V15.838H159.888L160.644 14.284ZM161.638 14.788L162.856 15.39C162.669 16.1927 162.413 17.014 162.086 17.854C161.759 18.6847 161.377 19.464 160.938 20.192C160.509 20.92 160.042 21.522 159.538 21.998C159.379 21.8487 159.179 21.6853 158.936 21.508C158.693 21.3213 158.46 21.172 158.236 21.06C158.647 20.7427 159.029 20.3507 159.384 19.884C159.739 19.408 160.061 18.89 160.35 18.33C160.639 17.7607 160.891 17.1773 161.106 16.58C161.321 15.9733 161.498 15.376 161.638 14.788ZM163.584 14.956L164.886 15.558C164.709 16.4633 164.485 17.3687 164.214 18.274C163.953 19.1793 163.635 20.0473 163.262 20.878C162.898 21.7087 162.478 22.474 162.002 23.174C161.526 23.8647 160.994 24.448 160.406 24.924C160.247 24.7653 160.037 24.5927 159.776 24.406C159.524 24.2193 159.281 24.0653 159.048 23.944C159.655 23.5053 160.201 22.964 160.686 22.32C161.181 21.6667 161.615 20.9433 161.988 20.15C162.361 19.3473 162.679 18.5073 162.94 17.63C163.201 16.7433 163.416 15.852 163.584 14.956ZM153.378 19.744C153.835 19.632 154.353 19.5013 154.932 19.352C155.52 19.2027 156.136 19.0393 156.78 18.862C157.433 18.6753 158.082 18.4933 158.726 18.316L158.936 19.786C158.059 20.066 157.163 20.346 156.248 20.626C155.343 20.8967 154.521 21.1393 153.784 21.354L153.378 19.744ZM155.884 12.114H157.424V25.26H155.884V12.114ZM154.036 12.912L155.45 13.136C155.385 13.752 155.305 14.3727 155.212 14.998C155.119 15.614 155.007 16.1973 154.876 16.748C154.745 17.2987 154.596 17.784 154.428 18.204C154.344 18.1387 154.227 18.0593 154.078 17.966C153.929 17.8633 153.779 17.7653 153.63 17.672C153.481 17.5693 153.35 17.4947 153.238 17.448C153.387 17.0653 153.513 16.6313 153.616 16.146C153.728 15.6513 153.817 15.1287 153.882 14.578C153.957 14.018 154.008 13.4627 154.036 12.912ZM154.428 14.816H158.6V16.412H154.106L154.428 14.816ZM175.218 12.282H176.926V25.246H175.218V12.282ZM172.838 12.884L174.462 13.206C174.331 13.8407 174.173 14.4707 173.986 15.096C173.799 15.7213 173.589 16.3093 173.356 16.86C173.132 17.4013 172.894 17.8773 172.642 18.288C172.539 18.204 172.395 18.1107 172.208 18.008C172.031 17.9053 171.849 17.8073 171.662 17.714C171.485 17.6113 171.326 17.5367 171.186 17.49C171.438 17.1167 171.671 16.6827 171.886 16.188C172.101 15.684 172.287 15.152 172.446 14.592C172.605 14.0227 172.735 13.4533 172.838 12.884ZM173.384 14.816H179.866V16.468H172.964L173.384 14.816ZM171.424 18.89H180.524V20.528H171.424V18.89ZM170.388 12.156L171.984 12.66C171.685 13.444 171.335 14.2373 170.934 15.04C170.533 15.8333 170.094 16.5847 169.618 17.294C169.151 18.0033 168.666 18.6287 168.162 19.17C168.106 19.03 168.027 18.8527 167.924 18.638C167.821 18.414 167.709 18.19 167.588 17.966C167.467 17.742 167.355 17.56 167.252 17.42C167.672 16.9907 168.073 16.496 168.456 15.936C168.848 15.376 169.207 14.774 169.534 14.13C169.87 13.486 170.155 12.828 170.388 12.156ZM169.002 16.034L170.598 14.438V14.452V25.232H169.002V16.034ZM189.68 13.304H191.29V24.378H189.68V13.304ZM186.516 14.55H194.328V15.852H186.516V14.55ZM186.096 23.706H194.622V25.022H186.096V23.706ZM186.894 21.774H194.09V23.062H186.894V21.774ZM193.334 12.226L194.3 13.458C193.796 13.5607 193.245 13.6493 192.648 13.724C192.051 13.7893 191.435 13.8453 190.8 13.892C190.165 13.9387 189.526 13.976 188.882 14.004C188.238 14.0227 187.622 14.0367 187.034 14.046C187.015 13.8687 186.969 13.6587 186.894 13.416C186.819 13.1733 186.745 12.968 186.67 12.8C187.249 12.7813 187.841 12.758 188.448 12.73C189.064 12.6927 189.666 12.6507 190.254 12.604C190.842 12.5573 191.397 12.5013 191.92 12.436C192.452 12.3707 192.923 12.3007 193.334 12.226ZM188.434 19.282V19.982H192.578V19.282H188.434ZM188.434 17.588V18.288H192.578V17.588H188.434ZM186.978 16.426H194.104V21.144H186.978V16.426ZM183.59 13.416H185.214V25.246H183.59V13.416ZM181.574 16.048H186.712V17.602H181.574V16.048ZM183.674 16.678L184.654 17.098C184.523 17.602 184.365 18.1247 184.178 18.666C183.991 19.2073 183.786 19.744 183.562 20.276C183.338 20.7987 183.1 21.2933 182.848 21.76C182.596 22.2267 182.335 22.6327 182.064 22.978C181.98 22.7353 181.859 22.4647 181.7 22.166C181.551 21.858 181.411 21.5967 181.28 21.382C181.523 21.102 181.761 20.7753 181.994 20.402C182.237 20.0193 182.465 19.6133 182.68 19.184C182.895 18.7547 183.086 18.3253 183.254 17.896C183.422 17.4667 183.562 17.0607 183.674 16.678ZM185.76 12.254L186.894 13.542C186.418 13.7193 185.895 13.8827 185.326 14.032C184.757 14.1813 184.173 14.312 183.576 14.424C182.988 14.5267 182.423 14.6153 181.882 14.69C181.845 14.5033 181.779 14.2887 181.686 14.046C181.593 13.794 181.499 13.5793 181.406 13.402C181.919 13.318 182.442 13.22 182.974 13.108C183.515 12.9867 184.024 12.8513 184.5 12.702C184.985 12.5527 185.405 12.4033 185.76 12.254ZM185.186 17.994C185.27 18.0593 185.396 18.1807 185.564 18.358C185.741 18.526 185.928 18.7127 186.124 18.918C186.329 19.1233 186.511 19.3147 186.67 19.492C186.829 19.66 186.945 19.7813 187.02 19.856L186.054 21.186C185.97 21.0087 185.858 20.808 185.718 20.584C185.587 20.36 185.443 20.1267 185.284 19.884C185.135 19.6413 184.985 19.4127 184.836 19.198C184.687 18.974 184.556 18.792 184.444 18.652L185.186 17.994ZM203.022 13.808H204.646V21.732H203.022V13.808ZM206.326 12.394H207.992V23.216C207.992 23.7107 207.931 24.0887 207.81 24.35C207.698 24.6113 207.497 24.812 207.208 24.952C206.919 25.0827 206.541 25.1667 206.074 25.204C205.607 25.2507 205.052 25.274 204.408 25.274C204.389 25.106 204.347 24.9147 204.282 24.7C204.217 24.4947 204.142 24.2847 204.058 24.07C203.983 23.8647 203.904 23.6873 203.82 23.538C204.277 23.5473 204.711 23.5567 205.122 23.566C205.533 23.566 205.808 23.566 205.948 23.566C206.079 23.566 206.172 23.5427 206.228 23.496C206.293 23.44 206.326 23.3467 206.326 23.216V12.394ZM198.052 18.792H201.272V20.262H198.052V18.792ZM200.53 18.792H202.084C202.084 18.792 202.079 18.834 202.07 18.918C202.07 18.9927 202.07 19.0813 202.07 19.184C202.07 19.2773 202.07 19.352 202.07 19.408C202.023 20.5373 201.972 21.4613 201.916 22.18C201.86 22.8893 201.79 23.4353 201.706 23.818C201.631 24.1913 201.529 24.462 201.398 24.63C201.258 24.8073 201.104 24.9333 200.936 25.008C200.768 25.0827 200.572 25.134 200.348 25.162C200.161 25.19 199.914 25.2087 199.606 25.218C199.298 25.2273 198.981 25.2227 198.654 25.204C198.645 24.98 198.598 24.728 198.514 24.448C198.43 24.1773 198.327 23.944 198.206 23.748C198.495 23.776 198.766 23.7947 199.018 23.804C199.279 23.8133 199.471 23.818 199.592 23.818C199.695 23.818 199.779 23.8087 199.844 23.79C199.919 23.762 199.989 23.7107 200.054 23.636C200.138 23.5427 200.208 23.3373 200.264 23.02C200.32 22.6933 200.371 22.2127 200.418 21.578C200.465 20.934 200.502 20.0893 200.53 19.044V18.792ZM197.702 14.242V16.16H200.334V14.242H197.702ZM196.176 12.758H201.958V17.644H196.176V12.758ZM197.604 17.196H199.242C199.205 17.9333 199.144 18.68 199.06 19.436C198.976 20.1827 198.836 20.9107 198.64 21.62C198.453 22.32 198.183 22.9827 197.828 23.608C197.483 24.224 197.025 24.7747 196.456 25.26C196.335 25.0547 196.167 24.8353 195.952 24.602C195.737 24.3687 195.527 24.182 195.322 24.042C195.826 23.6407 196.223 23.174 196.512 22.642C196.801 22.11 197.021 21.5407 197.17 20.934C197.319 20.3273 197.422 19.7067 197.478 19.072C197.534 18.4373 197.576 17.812 197.604 17.196Z" fill="white"/>
<path d="M10 161C4.47715 161 5.33895e-08 156.523 1.19249e-07 151L1.80066e-06 10C1.86652e-06 4.47716 4.47716 5.33895e-08 10 1.19249e-07L68 8.10892e-07L68 161L10 161Z" fill="#006837"/>
<path d="M33.904 57.144C33.248 58.072 32.416 59.032 31.408 60.024C30.4 61 29.28 61.944 28.048 62.856C26.832 63.752 25.56 64.552 24.232 65.256C24.12 65.048 23.976 64.816 23.8 64.56C23.624 64.304 23.432 64.056 23.224 63.816C23.016 63.56 22.816 63.344 22.624 63.168C24.016 62.496 25.344 61.68 26.608 60.72C27.872 59.76 29.008 58.752 30.016 57.696C31.04 56.624 31.848 55.6 32.44 54.624H35.128C35.768 55.504 36.488 56.36 37.288 57.192C38.088 58.024 38.936 58.8 39.832 59.52C40.728 60.224 41.648 60.864 42.592 61.44C43.552 62.016 44.504 62.496 45.448 62.88C45.144 63.2 44.84 63.568 44.536 63.984C44.248 64.4 43.992 64.8 43.768 65.184C42.84 64.704 41.904 64.152 40.96 63.528C40.032 62.904 39.128 62.232 38.248 61.512C37.368 60.792 36.552 60.064 35.8 59.328C35.064 58.592 34.432 57.864 33.904 57.144ZM27.928 61.896H40V64.176H27.928V61.896ZM24.976 66.792H42.904V69.024H24.976V66.792ZM23.8 74.16H44.224V76.368H23.8V74.16ZM32.512 62.808H35.248V75.288H32.512V62.808ZM26.632 70.008L28.696 69.168C29.016 69.568 29.32 70.016 29.608 70.512C29.912 71.008 30.184 71.496 30.424 71.976C30.664 72.44 30.84 72.864 30.952 73.248L28.72 74.232C28.624 73.848 28.464 73.408 28.24 72.912C28.032 72.416 27.784 71.92 27.496 71.424C27.208 70.912 26.92 70.44 26.632 70.008ZM38.92 69.168L41.368 70.08C40.904 70.816 40.416 71.56 39.904 72.312C39.392 73.064 38.912 73.704 38.464 74.232L36.544 73.416C36.816 73.032 37.096 72.592 37.384 72.096C37.688 71.6 37.976 71.096 38.248 70.584C38.52 70.072 38.744 69.6 38.92 69.168ZM31.72 87.728H34.312V94.544C34.312 95.616 34.264 96.792 34.168 98.072C34.072 99.352 33.888 100.656 33.616 101.984C33.36 103.312 32.968 104.592 32.44 105.824C31.928 107.056 31.248 108.168 30.4 109.16C30.256 109 30.048 108.824 29.776 108.632C29.504 108.44 29.216 108.256 28.912 108.08C28.624 107.904 28.376 107.768 28.168 107.672C28.984 106.744 29.624 105.728 30.088 104.624C30.568 103.504 30.92 102.36 31.144 101.192C31.384 100.024 31.536 98.872 31.6 97.736C31.68 96.584 31.72 95.52 31.72 94.544V87.728ZM24.136 88.688L25.552 86.816C26.08 87.008 26.624 87.248 27.184 87.536C27.744 87.824 28.28 88.128 28.792 88.448C29.304 88.752 29.72 89.048 30.04 89.336L28.528 91.424C28.224 91.136 27.824 90.824 27.328 90.488C26.832 90.152 26.304 89.824 25.744 89.504C25.2 89.184 24.664 88.912 24.136 88.688ZM22.744 95.192L24.112 93.272C24.624 93.448 25.168 93.68 25.744 93.968C26.32 94.24 26.864 94.528 27.376 94.832C27.904 95.136 28.328 95.424 28.648 95.696L27.208 97.808C26.904 97.536 26.496 97.24 25.984 96.92C25.488 96.6 24.952 96.288 24.376 95.984C23.816 95.68 23.272 95.416 22.744 95.192ZM23.392 107.12C23.792 106.496 24.232 105.768 24.712 104.936C25.208 104.088 25.704 103.184 26.2 102.224C26.712 101.264 27.184 100.32 27.616 99.392L29.584 101.024C29.2 101.872 28.784 102.744 28.336 103.64C27.904 104.536 27.456 105.424 26.992 106.304C26.528 107.168 26.072 107.992 25.624 108.776L23.392 107.12ZM33.208 87.728H44.056V97.88H33.208V95.312H41.416V90.272H33.208V87.728ZM38.56 96.632C38.928 98.104 39.424 99.496 40.048 100.808C40.672 102.12 41.44 103.28 42.352 104.288C43.264 105.296 44.32 106.096 45.52 106.688C45.312 106.88 45.08 107.112 44.824 107.384C44.584 107.672 44.352 107.96 44.128 108.248C43.904 108.552 43.72 108.832 43.576 109.088C42.264 108.336 41.128 107.376 40.168 106.208C39.208 105.024 38.4 103.672 37.744 102.152C37.088 100.616 36.544 98.952 36.112 97.16L38.56 96.632ZM32.56 118.576H35.32V123.328H32.56V118.576ZM32.584 124.144H35.272V141.136H32.584V124.144ZM23.08 121.792H44.992V124.312H23.08V121.792ZM25.408 127.048H41.224V129.544H28V138.16H25.408V127.048ZM40.24 127.048H42.904V135.28C42.904 135.92 42.816 136.432 42.64 136.816C42.48 137.2 42.168 137.496 41.704 137.704C41.224 137.896 40.632 138.016 39.928 138.064C39.24 138.112 38.408 138.136 37.432 138.136C37.384 137.752 37.272 137.328 37.096 136.864C36.92 136.384 36.744 135.968 36.568 135.616C37.016 135.632 37.448 135.648 37.864 135.664C38.296 135.664 38.68 135.664 39.016 135.664C39.352 135.664 39.584 135.664 39.712 135.664C39.904 135.648 40.04 135.616 40.12 135.568C40.2 135.504 40.24 135.392 40.24 135.232V127.048Z" fill="white"/>
<path d="M33.7985 11.3144C39.8337 11.3144 46.2827 14.7839 46.2827 24.5237C46.2827 32.1658 36.7198 40.8338 34.0673 43.0914C34.0099 43.1397 33.9534 43.1872 33.9026 43.2299C33.8682 43.2585 33.8297 43.2913 33.7985 43.3175C33.7731 43.2962 33.7403 43.2692 33.7125 43.2454C33.651 43.1938 33.5822 43.1356 33.5109 43.075C33.4437 43.0184 33.3749 42.9586 33.2987 42.8939C33.2782 42.8759 33.2528 42.8537 33.2315 42.8357C33.0569 42.6841 32.8644 42.5169 32.6529 42.3285C32.6341 42.3113 32.6136 42.2924 32.5939 42.2752C29.1359 39.1876 21.3136 31.4398 21.3136 24.5237C21.3136 14.7839 27.7634 11.3144 33.7985 11.3144Z" fill="#F5A210"/>
<path d="M44.9307 23.7599C44.9307 17.6002 39.9198 12.5894 33.7601 12.5894C27.6004 12.5894 22.5895 17.6002 22.5895 23.7599C22.5895 29.9197 27.6004 34.9305 33.7601 34.9305C39.9198 34.9305 44.9307 29.9197 44.9307 23.7599ZM23.9039 23.7599C23.9039 18.3254 28.3256 13.9037 33.7601 13.9037C39.1946 13.9037 43.6163 18.3254 43.6163 23.7599C43.6163 29.1944 39.1946 33.6161 33.7601 33.6161C28.3256 33.6161 23.9039 29.1944 23.9039 23.7599Z" fill="white"/>
<path d="M39.6738 30.3313C40.036 30.3313 40.3301 30.0363 40.3301 29.6741V22.4458C40.3301 22.2582 40.2507 22.0795 40.1105 21.9542L39.0166 20.9831V17.1891C39.0166 16.8269 38.7224 16.5319 38.3594 16.5319H35.7306C35.3684 16.5319 35.0743 16.8269 35.0743 17.1891V17.4784L34.1966 16.6983C33.9475 16.4762 33.5722 16.4762 33.3231 16.6983L27.4101 21.9542C27.2691 22.0795 27.1888 22.2582 27.1888 22.4458V29.6741C27.1888 30.0363 27.483 30.3313 27.846 30.3313H39.6738ZM28.5032 22.7408L33.7599 18.0684L35.2939 19.4328C35.4881 19.6048 35.7642 19.6466 35.9994 19.5409C36.2362 19.4344 36.3878 19.2 36.3878 18.9419V17.8463H37.7022V21.2781C37.7022 21.4658 37.7825 21.6444 37.9226 21.769L39.0166 22.7408V29.0169H35.7306V25.0746C35.7306 24.7116 35.4365 24.4174 35.0743 24.4174H32.4455C32.0825 24.4174 31.7883 24.7116 31.7883 25.0746V29.0169H28.5032V22.7408ZM33.1027 29.0169V25.7318H34.4171V29.0169H33.1027Z" fill="white"/>
</svg>
