<svg width="340" height="192" viewBox="0 0 340 192" fill="none" xmlns="http://www.w3.org/2000/svg">
<path d="M117.553 84.0957H0V116.649H117.553V84.0957Z" fill="white"/>
<path d="M117.553 121.17H0V154.627H117.553V121.17Z" fill="white"/>
<path d="M117.553 159.149H0V191.702H117.553V159.149Z" fill="white"/>
<path d="M115.463 46.1167H2.08983C0.935651 46.1167 0 47.6146 0 49.4624V76.2284C0 78.0762 0.935651 79.5741 2.08983 79.5741H115.463C116.618 79.5741 117.553 78.0762 117.553 76.2284V49.4624C117.553 47.6146 116.618 46.1167 115.463 46.1167Z" fill="#5B9E4D"/>
<path d="M252.287 84.0957H122.074V117.553H252.287V84.0957Z" fill="white"/>
<path d="M252.287 121.17H122.074V154.627H252.287V121.17Z" fill="white"/>
<path d="M252.287 159.149H122.074V191.702H252.287V159.149Z" fill="white"/>
<path d="M249.972 46.1167H124.389C123.111 46.1167 122.074 47.6146 122.074 49.4624V76.2284C122.074 78.0762 123.111 79.5741 124.389 79.5741H249.972C251.251 79.5741 252.287 78.0762 252.287 76.2284V49.4624C252.287 47.6146 251.251 46.1167 249.972 46.1167Z" fill="#5B9E4D"/>
<path d="M340 84.0957H256.808V116.649H340V84.0957Z" fill="white"/>
<path d="M340 121.17H256.808V154.627H340V121.17Z" fill="white"/>
<path d="M340 159.149H256.808V191.702H340V159.149Z" fill="white"/>
<path d="M338.521 46.1167H258.287C257.471 46.1167 256.808 47.6146 256.808 49.4624V76.2284C256.808 78.0762 257.471 79.5741 258.287 79.5741H338.521C339.338 79.5741 340 78.0762 340 76.2284V49.4624C340 47.6146 339.338 46.1167 338.521 46.1167Z" fill="#5B9E4D"/>
<path d="M157.786 106.234V105.425L160.825 102.098C161.182 101.708 161.476 101.37 161.706 101.082C161.937 100.791 162.108 100.518 162.219 100.264C162.333 100.006 162.39 99.7363 162.39 99.4545C162.39 99.1309 162.312 98.8506 162.156 98.6139C162.003 98.3771 161.793 98.1943 161.527 98.0654C161.26 97.9365 160.96 97.8721 160.628 97.8721C160.274 97.8721 159.965 97.9455 159.701 98.0924C159.441 98.2362 159.238 98.4385 159.095 98.6993C158.954 98.96 158.883 99.2657 158.883 99.6164H157.822C157.822 99.0769 157.947 98.6034 158.195 98.1958C158.444 97.7882 158.783 97.4705 159.211 97.2427C159.643 97.0149 160.127 96.901 160.664 96.901C161.203 96.901 161.681 97.0149 162.098 97.2427C162.514 97.4705 162.841 97.7777 163.078 98.1643C163.314 98.5509 163.433 98.981 163.433 99.4545C163.433 99.7932 163.371 100.124 163.248 100.448C163.129 100.769 162.919 101.127 162.619 101.523C162.322 101.915 161.91 102.395 161.383 102.961L159.315 105.173V105.245H163.595V106.234H157.786ZM167.052 104.975L166.98 105.461C166.929 105.802 166.851 106.168 166.746 106.558C166.644 106.947 166.538 107.314 166.427 107.659C166.316 108.004 166.225 108.278 166.153 108.482H165.343C165.382 108.29 165.433 108.037 165.496 107.722C165.559 107.407 165.622 107.055 165.685 106.665C165.751 106.279 165.805 105.883 165.847 105.479L165.901 104.975H167.052ZM169.102 106.234L173.22 98.0879V98.016H168.472V97.0269H174.371V98.0699L170.271 106.234H169.102ZM178.852 106.36C178.174 106.36 177.597 106.175 177.121 105.807C176.644 105.435 176.28 104.897 176.028 104.193C175.777 103.486 175.651 102.631 175.651 101.63C175.651 100.635 175.777 99.7857 176.028 99.0814C176.283 98.3741 176.649 97.8346 177.125 97.463C177.605 97.0884 178.18 96.901 178.852 96.901C179.523 96.901 180.097 97.0884 180.573 97.463C181.053 97.8346 181.419 98.3741 181.67 99.0814C181.925 99.7857 182.052 100.635 182.052 101.63C182.052 102.631 181.927 103.486 181.675 104.193C181.423 104.897 181.059 105.435 180.582 105.807C180.106 106.175 179.529 106.36 178.852 106.36ZM178.852 105.371C179.523 105.371 180.044 105.047 180.416 104.4C180.788 103.752 180.973 102.829 180.973 101.63C180.973 100.833 180.888 100.154 180.717 99.5939C180.549 99.0335 180.307 98.6064 179.989 98.3127C179.674 98.0189 179.295 97.8721 178.852 97.8721C178.186 97.8721 177.666 98.2003 177.292 98.8566C176.917 99.51 176.73 100.435 176.73 101.63C176.73 102.428 176.814 103.105 176.981 103.662C177.149 104.22 177.39 104.644 177.705 104.935C178.023 105.225 178.405 105.371 178.852 105.371ZM186.764 106.36C186.086 106.36 185.51 106.175 185.033 105.807C184.556 105.435 184.192 104.897 183.941 104.193C183.689 103.486 183.563 102.631 183.563 101.63C183.563 100.635 183.689 99.7857 183.941 99.0814C184.195 98.3741 184.561 97.8346 185.037 97.463C185.517 97.0884 186.092 96.901 186.764 96.901C187.435 96.901 188.009 97.0884 188.486 97.463C188.965 97.8346 189.331 98.3741 189.583 99.0814C189.837 99.7857 189.965 100.635 189.965 101.63C189.965 102.631 189.839 103.486 189.587 104.193C189.335 104.897 188.971 105.435 188.495 105.807C188.018 106.175 187.441 106.36 186.764 106.36ZM186.764 105.371C187.435 105.371 187.957 105.047 188.328 104.4C188.7 103.752 188.886 102.829 188.886 101.63C188.886 100.833 188.8 100.154 188.629 99.5939C188.462 99.0335 188.219 98.6064 187.901 98.3127C187.586 98.0189 187.207 97.8721 186.764 97.8721C186.098 97.8721 185.578 98.2003 185.204 98.8566C184.829 99.51 184.642 100.435 184.642 101.63C184.642 102.428 184.726 103.105 184.894 103.662C185.061 104.22 185.303 104.644 185.617 104.935C185.935 105.225 186.317 105.371 186.764 105.371ZM191.505 96.562H202.595V97.4861H191.505V96.562ZM195.455 100.081H200.784V101.005H195.455V100.081ZM200.455 100.081H201.443C201.443 100.081 201.43 100.41 201.417 100.55C201.202 104.639 200.987 106.171 200.493 106.702C200.202 107.031 199.885 107.12 199.392 107.158C198.923 107.196 198.024 107.171 197.164 107.12C197.138 106.842 197.012 106.449 196.822 106.183C197.771 106.285 198.695 106.285 199.037 106.285C199.328 106.285 199.493 106.259 199.632 106.12C200.05 105.753 200.265 104.17 200.455 100.246V100.081ZM194.936 97.3089H195.91C195.809 100.904 195.581 105.196 191.834 107.272C191.682 107.031 191.391 106.728 191.138 106.538C194.733 104.639 194.847 100.6 194.936 97.3089ZM204.519 96.4607H214.444V97.4102H205.468V107.259H204.519V96.4607ZM214.014 96.4607H214.976V105.993C214.976 106.601 214.824 106.905 214.393 107.069C213.976 107.221 213.254 107.247 212.115 107.247C212.064 106.981 211.899 106.55 211.747 106.285C212.621 106.323 213.444 106.31 213.697 106.297C213.938 106.297 214.014 106.221 214.014 105.993V96.4607ZM205.038 101.145H214.457V102.082H205.038V101.145ZM209.19 96.9418H210.14V101.6H209.19V96.9418Z" fill="black"/>
<path d="M293.523 174.806C293.916 174.843 294.574 174.881 295.296 174.881C296.22 174.881 301.296 174.881 302.233 174.881C302.866 174.881 303.309 174.831 303.6 174.806V176.046C303.334 176.033 302.803 175.996 302.246 175.996C301.284 175.996 296.232 175.996 295.296 175.996C294.599 175.996 293.928 176.021 293.523 176.046V174.806Z" fill="black"/>
<path d="M162.639 172.08V181.287H161.524V173.249H161.47L159.222 174.742V173.609L161.524 172.08H162.639ZM166.343 180.028L166.271 180.514C166.22 180.856 166.143 181.221 166.038 181.611C165.936 182 165.829 182.368 165.718 182.712C165.608 183.057 165.516 183.331 165.444 183.535H164.635C164.674 183.343 164.725 183.09 164.788 182.775C164.851 182.46 164.914 182.108 164.977 181.719C165.043 181.332 165.097 180.936 165.139 180.532L165.192 180.028H166.343ZM168.393 181.287L172.511 173.141V173.069H167.764V172.08H173.662V173.123L169.562 181.287H168.393ZM178.102 181.413C177.484 181.413 176.939 181.304 176.465 181.085C175.995 180.863 175.627 180.559 175.364 180.172C175.1 179.783 174.97 179.339 174.973 178.842C174.97 178.452 175.046 178.092 175.202 177.763C175.358 177.43 175.571 177.153 175.84 176.931C176.113 176.706 176.417 176.564 176.753 176.504V176.45C176.312 176.336 175.962 176.089 175.701 175.708C175.44 175.324 175.311 174.888 175.314 174.4C175.311 173.932 175.43 173.514 175.669 173.146C175.909 172.777 176.239 172.486 176.658 172.273C177.081 172.061 177.562 171.954 178.102 171.954C178.635 171.954 179.112 172.061 179.531 172.273C179.951 172.486 180.28 172.777 180.52 173.146C180.763 173.514 180.886 173.932 180.889 174.4C180.886 174.888 180.752 175.324 180.489 175.708C180.228 176.089 179.882 176.336 179.45 176.45V176.504C179.783 176.564 180.083 176.706 180.349 176.931C180.616 177.153 180.829 177.43 180.988 177.763C181.147 178.092 181.227 178.452 181.23 178.842C181.227 179.339 181.093 179.783 180.826 180.172C180.562 180.559 180.195 180.863 179.724 181.085C179.257 181.304 178.716 181.413 178.102 181.413ZM178.102 180.424C178.518 180.424 178.878 180.357 179.18 180.222C179.483 180.087 179.717 179.896 179.882 179.651C180.047 179.405 180.131 179.117 180.134 178.788C180.131 178.44 180.041 178.133 179.864 177.866C179.687 177.599 179.446 177.389 179.14 177.237C178.837 177.084 178.491 177.007 178.102 177.007C177.709 177.007 177.358 177.084 177.05 177.237C176.744 177.389 176.503 177.599 176.326 177.866C176.152 178.133 176.067 178.44 176.07 178.788C176.067 179.117 176.146 179.405 176.308 179.651C176.473 179.896 176.708 180.087 177.014 180.222C177.319 180.357 177.682 180.424 178.102 180.424ZM178.102 176.054C178.431 176.054 178.723 175.988 178.978 175.856C179.236 175.725 179.438 175.54 179.585 175.303C179.732 175.067 179.807 174.789 179.81 174.472C179.807 174.16 179.733 173.889 179.59 173.658C179.446 173.424 179.246 173.245 178.992 173.119C178.737 172.99 178.44 172.925 178.102 172.925C177.757 172.925 177.456 172.99 177.198 173.119C176.94 173.245 176.741 173.424 176.6 173.658C176.459 173.889 176.39 174.16 176.393 174.472C176.39 174.789 176.461 175.067 176.605 175.303C176.751 175.54 176.954 175.725 177.211 175.856C177.469 175.988 177.766 176.054 178.102 176.054ZM185.956 181.413C185.279 181.413 184.702 181.229 184.226 180.86C183.749 180.488 183.385 179.95 183.133 179.246C182.881 178.539 182.756 177.685 182.756 176.684C182.756 175.689 182.881 174.839 183.133 174.135C183.388 173.427 183.754 172.888 184.23 172.516C184.71 172.142 185.285 171.954 185.956 171.954C186.628 171.954 187.202 172.142 187.678 172.516C188.158 172.888 188.523 173.427 188.775 174.135C189.03 174.839 189.157 175.689 189.157 176.684C189.157 177.685 189.031 178.539 188.78 179.246C188.528 179.95 188.164 180.488 187.687 180.86C187.211 181.229 186.634 181.413 185.956 181.413ZM185.956 180.424C186.628 180.424 187.149 180.1 187.521 179.453C187.893 178.806 188.078 177.882 188.078 176.684C188.078 175.886 187.993 175.208 187.822 174.647C187.654 174.087 187.412 173.66 187.094 173.366C186.779 173.072 186.4 172.925 185.956 172.925C185.291 172.925 184.771 173.253 184.396 173.91C184.022 174.563 183.835 175.488 183.835 176.684C183.835 177.481 183.918 178.158 184.086 178.716C184.254 179.273 184.495 179.697 184.81 179.988C185.128 180.279 185.51 180.424 185.956 180.424ZM190.697 171.615H201.787V172.539H190.697V171.615ZM194.647 175.135H199.977V176.059H194.647V175.135ZM199.648 175.135H200.635C200.635 175.135 200.623 175.464 200.61 175.603C200.395 179.692 200.179 181.224 199.686 181.756C199.395 182.085 199.078 182.173 198.584 182.211C198.116 182.249 197.217 182.224 196.356 182.173C196.331 181.895 196.204 181.502 196.014 181.236C196.964 181.338 197.888 181.338 198.23 181.338C198.521 181.338 198.686 181.312 198.825 181.173C199.243 180.806 199.458 179.224 199.648 175.299V175.135ZM194.128 172.362H195.103C195.002 175.957 194.774 180.249 191.027 182.325C190.875 182.085 190.584 181.781 190.33 181.591C193.926 179.692 194.04 175.654 194.128 172.362ZM203.712 171.514H213.637V172.463H204.661V182.313H203.712V171.514ZM213.206 171.514H214.168V181.047C214.168 181.654 214.016 181.958 213.586 182.123C213.168 182.275 212.447 182.3 211.307 182.3C211.257 182.034 211.092 181.604 210.94 181.338C211.814 181.376 212.637 181.363 212.89 181.35C213.13 181.35 213.206 181.274 213.206 181.047V171.514ZM204.231 176.198H213.649V177.135H204.231V176.198ZM208.383 171.995H209.332V176.654H208.383V171.995Z" fill="black"/>
<path d="M149.958 58.5075H161.161V59.9001H149.958V58.5075ZM151.173 60.7229H160.009V62.0395H151.173V60.7229ZM150.122 62.6725H160.997V65.3943H159.465V64.0397H151.591V65.3943H150.122V62.6725ZM154.705 57.5201H156.287V61.4572H154.705V57.5201ZM156.224 64.4322H157.743V67.4198C157.743 67.614 157.773 67.7405 157.832 67.7996C157.899 67.8503 158.047 67.8756 158.275 67.8756C158.326 67.8756 158.406 67.8756 158.516 67.8756C158.634 67.8756 158.76 67.8756 158.895 67.8756C159.039 67.8756 159.17 67.8756 159.288 67.8756C159.406 67.8756 159.495 67.8756 159.554 67.8756C159.697 67.8756 159.803 67.8418 159.87 67.7743C159.946 67.6983 159.997 67.5549 160.022 67.3439C160.056 67.1244 160.081 66.7995 160.098 66.3691C160.199 66.4451 160.33 66.521 160.49 66.597C160.659 66.6729 160.828 66.7404 160.997 66.7995C161.174 66.8502 161.33 66.8966 161.465 66.9388C161.415 67.5464 161.326 68.0148 161.199 68.344C161.073 68.6816 160.891 68.9137 160.655 69.0403C160.419 69.1753 160.098 69.2428 159.693 69.2428C159.617 69.2428 159.503 69.2428 159.351 69.2428C159.208 69.2428 159.047 69.2428 158.87 69.2428C158.701 69.2428 158.541 69.2428 158.389 69.2428C158.245 69.2428 158.136 69.2428 158.06 69.2428C157.57 69.2428 157.191 69.188 156.92 69.0782C156.659 68.9685 156.477 68.7786 156.376 68.5086C156.275 68.2469 156.224 67.8882 156.224 67.4325V64.4322ZM153.097 64.4322H154.667C154.625 65.0652 154.54 65.6433 154.414 66.1665C154.287 66.6898 154.076 67.1582 153.781 67.5718C153.494 67.9853 153.08 68.344 152.54 68.6478C152.009 68.9601 151.308 69.2217 150.439 69.4327C150.397 69.2977 150.329 69.15 150.236 68.9896C150.143 68.8293 150.038 68.6689 149.92 68.5086C149.81 68.3566 149.704 68.2258 149.603 68.1161C150.363 67.9726 150.966 67.7912 151.414 67.5718C151.861 67.3523 152.198 67.0907 152.426 66.7869C152.654 66.483 152.81 66.137 152.895 65.7488C152.988 65.3605 153.055 64.9217 153.097 64.4322ZM172.163 58.2543H173.644V65.7108C173.644 66.0568 173.606 66.348 173.53 66.5843C173.462 66.8122 173.319 66.9894 173.099 67.116C172.897 67.251 172.652 67.3354 172.365 67.3692C172.078 67.403 171.745 67.4198 171.365 67.4198C171.348 67.2764 171.314 67.1076 171.264 66.9135C171.213 66.7193 171.154 66.5294 171.087 66.3438C171.019 66.1581 170.951 65.9977 170.884 65.8627C171.103 65.8712 171.319 65.8754 171.53 65.8754C171.749 65.8754 171.897 65.8754 171.973 65.8754C172.04 65.8754 172.087 65.8627 172.112 65.8374C172.146 65.8036 172.163 65.7488 172.163 65.6728V58.2543ZM169.023 58.2543H172.872V59.6848H170.504V69.3947H169.023V58.2543ZM162.681 59.2924H168.238V60.6723H162.681V59.2924ZM162.263 62.2801H168.631V63.6853H162.263V62.2801ZM164.757 57.4947H166.238V63.027H164.757V57.4947ZM162.263 66.7489C162.702 66.7067 163.204 66.656 163.769 66.597C164.335 66.5379 164.93 66.4746 165.554 66.4071C166.187 66.3396 166.816 66.272 167.441 66.2045L167.504 67.5464C166.618 67.673 165.732 67.7954 164.845 67.9136C163.968 68.0233 163.178 68.1246 162.478 68.2174L162.263 66.7489ZM165.972 64.9386L167.2 64.4448C167.428 64.8162 167.652 65.2213 167.871 65.6602C168.099 66.0906 168.301 66.5126 168.479 66.9261C168.656 67.3312 168.787 67.6983 168.871 68.0275L167.529 68.5845C167.462 68.2723 167.343 67.9093 167.175 67.4958C167.006 67.0738 166.816 66.6392 166.605 66.1919C166.402 65.7446 166.191 65.3268 165.972 64.9386ZM164.124 63.1409L165.732 63.5713C165.58 64.0102 165.415 64.4617 165.238 64.9259C165.061 65.3901 164.888 65.8332 164.719 66.2552C164.55 66.6771 164.385 67.0485 164.225 67.3692L162.984 66.9768C163.128 66.6307 163.271 66.2383 163.415 65.7994C163.558 65.3521 163.693 64.8964 163.82 64.4322C163.947 63.968 164.048 63.5376 164.124 63.1409ZM178.543 58.7354H186.632V60.1026H178.543V58.7354ZM178.67 61.6851H186.569V69.0403H185.101V63.0143H180.062V69.1162H178.67V61.6851ZM180.72 58.9126H182.151V62.6725H180.72V58.9126ZM182.987 58.8999H184.417V62.6598H182.987V58.8999ZM179.303 67.0907H186.177V68.3946H179.303V67.0907ZM180.86 62.6598H182.138V68.1035H180.86V62.6598ZM182.987 62.6472H184.265V68.0908H182.987V62.6472ZM177.454 57.5327L178.822 57.9631C178.568 58.6552 178.264 59.3515 177.91 60.052C177.556 60.7525 177.172 61.415 176.758 62.0395C176.344 62.6556 175.918 63.2 175.479 63.6726C175.429 63.5544 175.357 63.3983 175.264 63.2042C175.18 63.0101 175.083 62.816 174.973 62.6219C174.872 62.4193 174.779 62.259 174.694 62.1408C175.066 61.7694 175.42 61.339 175.758 60.8495C176.104 60.3516 176.42 59.8199 176.707 59.2544C176.994 58.689 177.243 58.1151 177.454 57.5327ZM176.239 61.0647L177.657 59.6342L177.669 59.6595V69.3821H176.239V61.0647ZM194.304 58.8366H197.646V60.1406H194.304V58.8366ZM193 64.6347H198.52V69.3568H197.051V65.9133H194.405V69.3947H193V64.6347ZM193.557 67.6477H197.862V68.9516H193.557V67.6477ZM194.443 57.4821L195.899 57.8872C195.663 58.4611 195.384 59.0223 195.064 59.5709C194.743 60.1195 194.393 60.6301 194.013 61.1027C193.642 61.5753 193.258 61.9889 192.861 62.3433C192.785 62.2505 192.675 62.1408 192.532 62.0142C192.388 61.8792 192.241 61.7483 192.089 61.6218C191.945 61.4952 191.814 61.3939 191.696 61.3179C192.279 60.8706 192.81 60.3094 193.291 59.6342C193.781 58.9506 194.165 58.2332 194.443 57.4821ZM197.254 58.8366H197.52L197.773 58.786L198.735 59.2291C198.465 60.0309 198.115 60.7651 197.684 61.4319C197.262 62.0986 196.773 62.6936 196.216 63.2169C195.659 63.7401 195.051 64.2001 194.393 64.5968C193.743 64.9934 193.059 65.3226 192.342 65.5842C192.249 65.407 192.118 65.196 191.949 64.9512C191.789 64.7065 191.633 64.5081 191.481 64.3562C192.139 64.1621 192.768 63.8963 193.367 63.5587C193.975 63.2126 194.532 62.816 195.038 62.3687C195.553 61.9129 196.001 61.4108 196.38 60.8622C196.76 60.3052 197.051 59.7144 197.254 59.0898V58.8366ZM194.367 59.7228C194.629 60.2798 195.005 60.8453 195.494 61.4192C195.984 61.9847 196.579 62.4995 197.279 62.9637C197.988 63.4279 198.786 63.7865 199.672 64.0397C199.579 64.1326 199.469 64.2549 199.343 64.4069C199.225 64.5588 199.111 64.7149 199.001 64.8753C198.9 65.0356 198.815 65.1749 198.748 65.293C197.836 64.9723 197.018 64.5461 196.292 64.0144C195.574 63.4743 194.958 62.8793 194.443 62.2294C193.937 61.5796 193.532 60.9381 193.228 60.3052L194.367 59.7228ZM187.772 60.1153H192.291V61.5205H187.772V60.1153ZM189.443 57.4947H190.873V69.3821H189.443V57.4947ZM189.418 61.0901L190.291 61.3812C190.19 61.8876 190.067 62.4151 189.924 62.9637C189.789 63.5038 189.629 64.0355 189.443 64.5588C189.257 65.0736 189.059 65.5547 188.848 66.002C188.637 66.4493 188.413 66.8333 188.177 67.154C188.109 66.9514 188.004 66.7193 187.86 66.4577C187.717 66.1961 187.586 65.9724 187.468 65.7868C187.687 65.5082 187.894 65.1833 188.088 64.812C188.282 64.4406 188.464 64.0482 188.633 63.6346C188.81 63.2126 188.962 62.7864 189.088 62.356C189.223 61.9171 189.333 61.4952 189.418 61.0901ZM190.823 61.7737C190.899 61.8412 191.008 61.9593 191.152 62.1281C191.304 62.2969 191.464 62.4826 191.633 62.6852C191.802 62.8877 191.954 63.0734 192.089 63.2422C192.232 63.411 192.333 63.5291 192.393 63.5966L191.57 64.7487C191.494 64.5883 191.392 64.4026 191.266 64.1916C191.148 63.9807 191.017 63.7612 190.873 63.5333C190.738 63.3055 190.603 63.0903 190.468 62.8877C190.342 62.6852 190.232 62.5206 190.139 62.394L190.823 61.7737ZM206.47 61.1787H211.002V62.5586H206.47V61.1787ZM206.47 64.179H211.002V65.5462H206.47V64.179ZM206.47 67.1666H211.002V68.5465H206.47V67.1666ZM205.748 58.1783H211.711V69.2048H210.192V59.6215H207.204V69.2808H205.748V58.1783ZM200.431 60.1153H205.293V61.5458H200.431V60.1153ZM202.254 57.4947H203.71V69.3821H202.254V57.4947ZM202.178 61.0901L203.077 61.4065C202.976 61.9214 202.849 62.4531 202.697 63.0016C202.546 63.5418 202.373 64.0735 202.178 64.5968C201.984 65.1116 201.773 65.5969 201.545 66.0526C201.318 66.4999 201.077 66.8839 200.824 67.2046C200.756 66.9936 200.651 66.7531 200.507 66.483C200.364 66.2045 200.229 65.9724 200.102 65.7868C200.33 65.5082 200.55 65.1833 200.761 64.812C200.972 64.4406 201.166 64.0482 201.343 63.6346C201.529 63.2126 201.693 62.7864 201.837 62.356C201.98 61.9171 202.094 61.4952 202.178 61.0901ZM203.609 62.2041C203.702 62.2885 203.837 62.4362 204.014 62.6472C204.191 62.8497 204.377 63.0734 204.571 63.3181C204.774 63.5629 204.959 63.7908 205.128 64.0018C205.305 64.2043 205.428 64.3478 205.495 64.4322L204.622 65.6602C204.529 65.4745 204.411 65.2551 204.267 65.0019C204.124 64.7487 203.968 64.4913 203.799 64.2296C203.63 63.968 203.465 63.719 203.305 63.4827C203.153 63.2464 203.022 63.0481 202.913 62.8877L203.609 62.2041ZM216.788 62.6092H224.814V63.8878H216.788V62.6092ZM218.167 64.4828H223.371V65.6855H218.167V64.4828ZM218.649 63.0776L219.952 63.4068C219.64 64.1326 219.214 64.8035 218.674 65.4196C218.142 66.0273 217.577 66.5294 216.977 66.9261C216.902 66.8417 216.8 66.7404 216.674 66.6223C216.555 66.4957 216.429 66.3775 216.294 66.2678C216.167 66.1581 216.053 66.0695 215.952 66.002C216.543 65.6813 217.075 65.2677 217.547 64.7613C218.028 64.2465 218.395 63.6853 218.649 63.0776ZM223.143 64.4828H224.548C224.548 64.4828 224.544 64.5503 224.535 64.6854C224.535 64.812 224.527 64.9217 224.51 65.0145C224.459 65.8332 224.396 66.5083 224.32 67.0401C224.253 67.5633 224.177 67.9684 224.092 68.2554C224.008 68.5508 223.906 68.7618 223.788 68.8883C223.67 69.0318 223.539 69.1331 223.396 69.1922C223.261 69.2513 223.109 69.2935 222.94 69.3188C222.797 69.3357 222.611 69.3483 222.383 69.3568C222.164 69.3652 221.923 69.361 221.662 69.3441C221.653 69.1669 221.619 68.9601 221.56 68.7238C221.501 68.4959 221.421 68.306 221.32 68.1541C221.522 68.171 221.704 68.1836 221.864 68.1921C222.024 68.1921 222.147 68.1921 222.231 68.1921C222.316 68.1921 222.383 68.1836 222.434 68.1668C222.493 68.1499 222.548 68.1119 222.598 68.0528C222.674 67.9684 222.742 67.8081 222.801 67.5718C222.868 67.327 222.927 66.9725 222.978 66.5083C223.037 66.0442 223.092 65.4407 223.143 64.698V64.4828ZM219.256 60.4697V61.0774H222.522V60.4697H219.256ZM219.256 58.8746V59.4696H222.522V58.8746H219.256ZM217.902 57.8239H223.928V62.1281H217.902V57.8239ZM213.091 60.1659H216.952V61.5964H213.091V60.1659ZM214.37 57.6593H215.787V65.5336H214.37V57.6593ZM212.8 65.7868C213.129 65.6686 213.509 65.5209 213.939 65.3437C214.378 65.1664 214.842 64.9765 215.332 64.774C215.821 64.563 216.307 64.352 216.788 64.141L217.117 65.4449C216.484 65.7741 215.838 66.1032 215.18 66.4324C214.522 66.7615 213.918 67.0612 213.369 67.3312L212.8 65.7868ZM221.687 64.736L222.712 65.293C222.56 65.7994 222.345 66.3185 222.067 66.8502C221.788 67.3734 221.476 67.8629 221.13 68.3187C220.784 68.7744 220.421 69.15 220.041 69.4454C219.914 69.3019 219.75 69.15 219.547 68.9896C219.345 68.8293 219.146 68.6985 218.952 68.5972C219.366 68.3355 219.75 67.998 220.104 67.5844C220.459 67.1709 220.771 66.7151 221.041 66.2172C221.32 65.7192 221.535 65.2255 221.687 64.736ZM219.775 64.7487L220.763 65.331C220.552 65.7699 220.273 66.213 219.927 66.6603C219.59 67.1076 219.218 67.5253 218.813 67.9136C218.408 68.3018 218.003 68.6225 217.598 68.8757C217.48 68.7238 217.328 68.5634 217.142 68.3946C216.965 68.2258 216.788 68.0866 216.61 67.9769C217.024 67.7659 217.433 67.4874 217.838 67.1413C218.252 66.7953 218.627 66.4155 218.965 66.002C219.303 65.58 219.573 65.1622 219.775 64.7487Z" fill="white"/>
<path d="M280.324 60.8622H284.882V61.9129H280.324V60.8622ZM281.919 61.1787H283.299V63.7359H281.919V61.1787ZM280.021 63.4447C280.434 63.3857 280.903 63.3224 281.426 63.2548C281.957 63.1873 282.519 63.1114 283.109 63.027C283.709 62.9426 284.299 62.8582 284.882 62.7738L284.945 63.9131C284.11 64.0397 283.274 64.1663 282.439 64.2929C281.603 64.4195 280.856 64.5335 280.198 64.6347L280.021 63.4447ZM285.452 60.7989H286.831V62.1028C286.831 62.4742 286.777 62.8413 286.667 63.2042C286.566 63.5587 286.367 63.8963 286.072 64.217C285.776 64.5292 285.346 64.7951 284.781 65.0145C284.721 64.9217 284.629 64.812 284.502 64.6854C284.375 64.5503 284.245 64.4237 284.11 64.3056C283.975 64.179 283.861 64.0819 283.768 64.0144C284.266 63.8372 284.633 63.6473 284.869 63.4447C285.114 63.2337 285.27 63.0101 285.338 62.7738C285.414 62.5375 285.452 62.3012 285.452 62.0648V60.7989ZM288.68 60.7989H290.11V63.0396C290.11 63.1409 290.11 63.2253 290.11 63.2928C290.11 63.3603 290.119 63.4025 290.136 63.4194C290.152 63.4532 290.195 63.4701 290.262 63.4701C290.287 63.4701 290.317 63.4701 290.351 63.4701C290.393 63.4701 290.427 63.4701 290.452 63.4701C290.486 63.4701 290.515 63.4701 290.541 63.4701C290.566 63.4616 290.591 63.4532 290.617 63.4447C290.65 63.4194 290.68 63.335 290.705 63.1915C290.722 63.124 290.731 63.0143 290.731 62.8624C290.739 62.702 290.747 62.5164 290.756 62.3054C290.866 62.4066 291.018 62.5079 291.212 62.6092C291.406 62.702 291.583 62.778 291.743 62.8371C291.726 63.0734 291.701 63.3097 291.667 63.546C291.642 63.7739 291.613 63.9427 291.579 64.0524C291.486 64.2803 291.342 64.4406 291.148 64.5335C291.064 64.5841 290.958 64.6221 290.832 64.6474C290.705 64.6643 290.587 64.6727 290.477 64.6727C290.376 64.6727 290.266 64.6727 290.148 64.6727C290.03 64.6727 289.929 64.6727 289.844 64.6727C289.692 64.6727 289.536 64.6474 289.376 64.5968C289.224 64.5461 289.093 64.4702 288.984 64.3689C288.874 64.2592 288.794 64.1199 288.743 63.9511C288.701 63.7739 288.68 63.4869 288.68 63.0903V60.7989ZM280.008 65.2424H291.528V66.4324H280.008V65.2424ZM285.008 64.4828H286.49V69.3441H285.008V64.4828ZM284.578 65.9387L285.717 66.4324C285.43 66.7362 285.097 67.0274 284.717 67.3059C284.337 67.576 283.928 67.8249 283.489 68.0528C283.05 68.2807 282.595 68.479 282.122 68.6478C281.649 68.8251 281.177 68.9727 280.704 69.0909C280.594 68.9052 280.447 68.69 280.261 68.4453C280.084 68.2005 279.919 68.0022 279.767 67.8503C280.223 67.7743 280.683 67.673 281.147 67.5464C281.62 67.4198 282.067 67.2764 282.489 67.116C282.92 66.9472 283.312 66.7658 283.667 66.5716C284.029 66.3775 284.333 66.1665 284.578 65.9387ZM286.869 66.0146C287.139 66.2256 287.452 66.424 287.806 66.6096C288.169 66.7869 288.566 66.9514 288.996 67.1033C289.435 67.2553 289.887 67.3861 290.351 67.4958C290.815 67.6055 291.283 67.6941 291.756 67.7616C291.646 67.8629 291.528 67.9937 291.402 68.1541C291.275 68.306 291.157 68.4621 291.047 68.6225C290.946 68.7829 290.857 68.9263 290.781 69.0529C290.317 68.9516 289.849 68.8166 289.376 68.6478C288.912 68.4875 288.46 68.2976 288.021 68.0781C287.591 67.8503 287.186 67.6013 286.806 67.3312C286.426 67.0612 286.089 66.77 285.793 66.4577L286.869 66.0146ZM281.578 58.3936H285.578V59.5836H281.578V58.3936ZM286.705 58.3936H291.617V59.5836H286.705V58.3936ZM281.641 57.3935L283.046 57.7859C282.801 58.3345 282.489 58.8746 282.109 59.4063C281.738 59.9296 281.367 60.3685 280.995 60.7229C280.911 60.6385 280.793 60.5457 280.641 60.4444C280.489 60.3347 280.333 60.2334 280.172 60.1406C280.021 60.0393 279.886 59.9549 279.767 59.8874C280.156 59.5836 280.514 59.2122 280.843 58.7733C281.181 58.326 281.447 57.8661 281.641 57.3935ZM286.793 57.3935L288.237 57.7479C288 58.3218 287.692 58.8746 287.312 59.4063C286.941 59.9296 286.566 60.3685 286.186 60.7229C286.076 60.647 285.941 60.5626 285.781 60.4697C285.62 60.3769 285.456 60.2883 285.287 60.2039C285.118 60.111 284.97 60.0393 284.844 59.9887C285.266 59.6848 285.646 59.3008 285.983 58.8366C286.329 58.3725 286.599 57.8914 286.793 57.3935ZM282.059 59.3557L283.211 59.0392C283.363 59.2418 283.506 59.4696 283.641 59.7228C283.785 59.976 283.894 60.1954 283.97 60.3811L282.742 60.7356C282.683 60.5499 282.59 60.3263 282.464 60.0646C282.337 59.803 282.202 59.5667 282.059 59.3557ZM287.705 59.343L288.933 59.0139C289.11 59.208 289.287 59.4316 289.465 59.6848C289.65 59.938 289.785 60.1617 289.87 60.3558L288.578 60.7229C288.502 60.5372 288.38 60.3136 288.211 60.052C288.051 59.7903 287.882 59.554 287.705 59.343ZM286.566 62.8497L287.439 62.0902C287.608 62.1999 287.785 62.3307 287.971 62.4826C288.165 62.6261 288.342 62.7696 288.502 62.913C288.663 63.0481 288.794 63.1789 288.895 63.3055L287.971 64.1537C287.827 63.9596 287.621 63.7401 287.35 63.4954C287.08 63.2506 286.819 63.0354 286.566 62.8497ZM285.958 60.7989H289.401V61.7863H285.958V60.7989ZM295.225 57.4441L296.782 57.8492C296.554 58.4737 296.284 59.0856 295.972 59.6848C295.668 60.2841 295.334 60.8411 294.972 61.3559C294.617 61.8623 294.25 62.3054 293.87 62.6852C293.769 62.6008 293.638 62.4953 293.478 62.3687C293.317 62.2336 293.153 62.107 292.984 61.9889C292.824 61.8707 292.68 61.7737 292.554 61.6977C292.942 61.3686 293.305 60.9803 293.642 60.533C293.98 60.0773 294.284 59.5878 294.554 59.0645C294.824 58.5328 295.047 57.9927 295.225 57.4441ZM295.503 58.8873H303.555V60.3558H294.769L295.503 58.8873ZM294.604 61.8876H303.251V63.3055H296.124V65.964H294.604V61.8876ZM292.592 65.2171H304.238V66.6729H292.592V65.2171ZM298.326 59.6469H299.896V69.3947H298.326V59.6469ZM305.112 64.103H311.518V65.331H305.112V64.103ZM305.264 59.6342H311.48V60.8369H305.264V59.6342ZM307.403 63.2042L308.808 63.4954C308.597 63.9342 308.37 64.3858 308.125 64.8499C307.888 65.3141 307.652 65.7657 307.416 66.2045C307.18 66.6349 306.96 67.019 306.758 67.3565L305.428 66.9514C305.631 66.6307 305.846 66.2552 306.074 65.8247C306.31 65.3943 306.542 64.9512 306.77 64.4955C307.007 64.0313 307.218 63.6009 307.403 63.2042ZM309.188 64.9512L310.593 65.0778C310.475 65.7446 310.298 66.3185 310.062 66.7995C309.834 67.2721 309.526 67.6773 309.138 68.0148C308.758 68.344 308.294 68.6183 307.745 68.8377C307.196 69.0656 306.542 69.2555 305.783 69.4074C305.741 69.1964 305.66 68.9727 305.542 68.7364C305.424 68.5001 305.302 68.306 305.175 68.1541C306.011 68.0444 306.698 67.8714 307.239 67.6351C307.787 67.3987 308.218 67.0654 308.53 66.6349C308.842 66.2045 309.062 65.6433 309.188 64.9512ZM310.087 57.6466L311.366 58.1657C311.163 58.4442 310.961 58.7227 310.758 59.0012C310.564 59.2713 310.387 59.5034 310.226 59.6975L309.252 59.2671C309.395 59.0476 309.547 58.786 309.707 58.4822C309.868 58.1699 309.994 57.8914 310.087 57.6466ZM307.682 57.4821H309.074V63.3814H307.682V57.4821ZM305.58 58.1657L306.669 57.7099C306.838 57.9463 306.994 58.2121 307.137 58.5075C307.281 58.8029 307.382 59.0603 307.441 59.2797L306.277 59.7861C306.234 59.5667 306.146 59.3051 306.011 59.0012C305.876 58.6974 305.732 58.4189 305.58 58.1657ZM307.72 60.2292L308.694 60.8242C308.492 61.1618 308.226 61.4994 307.897 61.837C307.576 62.1746 307.23 62.491 306.859 62.7864C306.496 63.0734 306.137 63.3181 305.783 63.5207C305.698 63.3603 305.58 63.1704 305.428 62.951C305.285 62.7316 305.146 62.5543 305.011 62.4193C305.348 62.2758 305.69 62.0902 306.036 61.8623C306.382 61.626 306.703 61.3686 306.998 61.0901C307.302 60.8031 307.542 60.5162 307.72 60.2292ZM308.948 60.5963C309.066 60.6554 309.226 60.744 309.429 60.8622C309.64 60.9803 309.863 61.1112 310.1 61.2546C310.344 61.3897 310.564 61.5163 310.758 61.6344C310.961 61.7526 311.104 61.8412 311.188 61.9003L310.391 62.951C310.273 62.8413 310.121 62.7063 309.935 62.5459C309.749 62.3855 309.551 62.221 309.34 62.0522C309.129 61.8834 308.927 61.723 308.732 61.5711C308.538 61.4192 308.37 61.2968 308.226 61.204L308.948 60.5963ZM312.353 59.7861H317.012V61.1913H312.353V59.7861ZM312.492 57.4821L314.037 57.7099C313.902 58.5792 313.729 59.4232 313.518 60.2419C313.307 61.0521 313.049 61.8032 312.746 62.4953C312.45 63.1789 312.104 63.7823 311.707 64.3056C311.632 64.2043 311.522 64.0862 311.378 63.9511C311.235 63.8161 311.083 63.6853 310.923 63.5587C310.762 63.4236 310.627 63.3139 310.517 63.2295C310.872 62.7907 311.176 62.2716 311.429 61.6724C311.691 61.0647 311.91 60.4064 312.087 59.6975C312.264 58.9801 312.4 58.2416 312.492 57.4821ZM314.796 60.647L316.354 60.7989C316.168 62.2421 315.881 63.5122 315.493 64.6094C315.113 65.7066 314.585 66.6518 313.91 67.4452C313.235 68.2385 312.366 68.901 311.302 69.4327C311.252 69.3146 311.176 69.1669 311.074 68.9896C310.973 68.8124 310.864 68.6352 310.745 68.4579C310.627 68.2891 310.517 68.1541 310.416 68.0528C311.378 67.6308 312.155 67.0823 312.746 66.4071C313.345 65.7319 313.805 64.9175 314.125 63.9638C314.446 63.0016 314.67 61.896 314.796 60.647ZM313.214 60.9128C313.391 61.9762 313.64 62.9763 313.961 63.9131C314.282 64.8499 314.704 65.6728 315.227 66.3818C315.75 67.0907 316.396 67.6477 317.164 68.0528C317.054 68.1457 316.932 68.268 316.797 68.4199C316.662 68.5803 316.531 68.7449 316.404 68.9137C316.286 69.0825 316.189 69.2344 316.113 69.3694C315.261 68.863 314.556 68.209 313.999 67.4072C313.45 66.6054 313.007 65.677 312.67 64.6221C312.332 63.5587 312.058 62.3982 311.847 61.1407L313.214 60.9128ZM306.542 66.9641L307.353 65.9387C307.851 66.1243 308.344 66.3396 308.834 66.5843C309.332 66.8291 309.792 67.0823 310.214 67.3439C310.644 67.5971 311.003 67.8418 311.29 68.0781L310.226 69.1542C309.965 68.9179 309.636 68.6689 309.239 68.4073C308.842 68.1457 308.412 67.8925 307.948 67.6477C307.483 67.3945 307.015 67.1666 306.542 66.9641Z" fill="white"/>
<path d="M284.894 106.234V105.425L287.933 102.098C288.29 101.708 288.584 101.37 288.815 101.082C289.045 100.791 289.216 100.518 289.327 100.264C289.441 100.006 289.498 99.7363 289.498 99.4545C289.498 99.1309 289.42 98.8506 289.264 98.6139C289.111 98.3771 288.902 98.1943 288.635 98.0654C288.368 97.9365 288.068 97.8721 287.736 97.8721C287.382 97.8721 287.073 97.9455 286.81 98.0924C286.549 98.2362 286.347 98.4385 286.203 98.6993C286.062 98.96 285.991 99.2657 285.991 99.6164H284.93C284.93 99.0769 285.055 98.6034 285.304 98.1958C285.552 97.7882 285.891 97.4705 286.32 97.2427C286.751 97.0149 287.235 96.901 287.772 96.901C288.311 96.901 288.789 97.0149 289.206 97.2427C289.622 97.4705 289.949 97.7777 290.186 98.1643C290.423 98.5509 290.541 98.981 290.541 99.4545C290.541 99.7932 290.479 100.124 290.357 100.448C290.237 100.769 290.027 101.127 289.727 101.523C289.431 101.915 289.018 102.395 288.491 102.961L286.423 105.173V105.245H290.703V106.234H284.894ZM292.559 106.234V105.425L295.598 102.098C295.955 101.708 296.249 101.37 296.48 101.082C296.71 100.791 296.881 100.518 296.992 100.264C297.106 100.006 297.163 99.7363 297.163 99.4545C297.163 99.1309 297.085 98.8506 296.929 98.6139C296.776 98.3771 296.567 98.1943 296.3 98.0654C296.033 97.9365 295.733 97.8721 295.401 97.8721C295.047 97.8721 294.738 97.9455 294.475 98.0924C294.214 98.2362 294.012 98.4385 293.868 98.6993C293.727 98.96 293.656 99.2657 293.656 99.6164H292.595C292.595 99.0769 292.72 98.6034 292.969 98.1958C293.217 97.7882 293.556 97.4705 293.985 97.2427C294.416 97.0149 294.9 96.901 295.437 96.901C295.976 96.901 296.454 97.0149 296.871 97.2427C297.287 97.4705 297.614 97.7777 297.851 98.1643C298.088 98.5509 298.206 98.981 298.206 99.4545C298.206 99.7932 298.144 100.124 298.022 100.448C297.902 100.769 297.692 101.127 297.392 101.523C297.095 101.915 296.683 102.395 296.156 102.961L294.088 105.173V105.245H298.368V106.234H292.559ZM302.778 95.5619L303.728 95.8024C303.031 97.676 301.905 99.4357 300.727 100.575C300.537 100.41 300.145 100.094 299.904 99.9674C301.107 98.9167 302.158 97.2709 302.778 95.5619ZM302.575 97.1317H310.741V98.0558H302.12L302.575 97.1317ZM301.955 100.005H310.462V100.892H302.905V103.892H301.955V100.005ZM299.866 103.411H311.336V104.335H299.866V103.411ZM305.753 97.6127H306.728V107.259H305.753V97.6127Z" fill="black"/>
<path d="M285.545 143.309V142.638C288.457 140.093 289.786 138.232 289.786 136.65C289.786 135.586 289.242 134.801 288.09 134.801C287.33 134.801 286.672 135.27 286.153 135.877L285.482 135.232C286.242 134.409 287.052 133.865 288.229 133.865C289.888 133.865 290.926 134.941 290.926 136.599C290.926 138.46 289.47 140.346 287.28 142.41C287.774 142.359 288.331 142.321 288.799 142.321H291.369V143.309H285.545ZM294.504 143.309C294.669 139.802 295.302 137.548 297.125 135.017H292.631V134.029H298.429V134.725C296.252 137.523 295.859 139.688 295.707 143.309H294.504ZM302.539 132.637L303.489 132.877C302.793 134.751 301.666 136.51 300.489 137.65C300.299 137.485 299.906 137.169 299.666 137.042C300.868 135.991 301.919 134.346 302.539 132.637ZM302.337 134.206H310.502V135.131H301.881L302.337 134.206ZM301.716 137.08H310.224V137.966H302.666V140.967H301.716V137.08ZM299.628 140.486H311.097V141.41H299.628V140.486ZM305.514 134.687H306.489V144.334H305.514V134.687Z" fill="black"/>
<path d="M161.685 134.102V143.309H160.57V135.27H160.516L158.268 136.763V135.63L160.57 134.102H161.685ZM165.389 142.05L165.317 142.535C165.266 142.877 165.188 143.243 165.083 143.632C164.981 144.022 164.875 144.389 164.764 144.734C164.653 145.078 164.562 145.353 164.49 145.556H163.681C163.72 145.365 163.771 145.111 163.833 144.797C163.896 144.482 163.959 144.13 164.022 143.74C164.088 143.354 164.142 142.958 164.184 142.553L164.238 142.05H165.389ZM167.439 143.309L171.557 135.163V135.091H166.81V134.102H172.708V135.145L168.608 143.309H167.439ZM177.62 134.102V143.309H176.505V135.27H176.451L174.204 136.763V135.63L176.505 134.102H177.62ZM183.271 143.434C182.594 143.434 182.017 143.25 181.54 142.882C181.064 142.51 180.7 141.972 180.448 141.268C180.196 140.56 180.07 139.706 180.07 138.705C180.07 137.71 180.196 136.86 180.448 136.156C180.703 135.449 181.068 134.909 181.545 134.538C182.024 134.163 182.6 133.976 183.271 133.976C183.943 133.976 184.517 134.163 184.993 134.538C185.473 134.909 185.838 135.449 186.09 136.156C186.345 136.86 186.472 137.71 186.472 138.705C186.472 139.706 186.346 140.56 186.094 141.268C185.843 141.972 185.479 142.51 185.002 142.882C184.526 143.25 183.949 143.434 183.271 143.434ZM183.271 142.445C183.943 142.445 184.464 142.122 184.836 141.474C185.207 140.827 185.393 139.904 185.393 138.705C185.393 137.908 185.308 137.229 185.137 136.669C184.969 136.108 184.726 135.681 184.409 135.387C184.094 135.094 183.715 134.947 183.271 134.947C182.606 134.947 182.086 135.275 181.711 135.931C181.337 136.585 181.149 137.509 181.149 138.705C181.149 139.502 181.233 140.18 181.401 140.737C181.569 141.295 181.81 141.719 182.125 142.009C182.443 142.3 182.825 142.445 183.271 142.445ZM190.843 133.637H201.933V134.561H190.843V133.637ZM194.793 137.156H200.123V138.08H194.793V137.156ZM199.794 137.156H200.781C200.781 137.156 200.768 137.485 200.756 137.624C200.541 141.713 200.325 143.245 199.832 143.777C199.54 144.106 199.224 144.195 198.73 144.233C198.262 144.271 197.363 144.245 196.502 144.195C196.477 143.916 196.35 143.524 196.16 143.258C197.11 143.359 198.034 143.359 198.376 143.359C198.667 143.359 198.832 143.334 198.971 143.195C199.389 142.828 199.604 141.245 199.794 137.321V137.156ZM194.274 134.384H195.249C195.148 137.979 194.92 142.271 191.173 144.347C191.021 144.106 190.729 143.802 190.476 143.612C194.072 141.713 194.185 137.675 194.274 134.384ZM203.857 133.535H213.783V134.485H204.807V144.334H203.857V133.535ZM213.352 133.535H214.314V143.068C214.314 143.676 214.162 143.98 213.732 144.144C213.314 144.296 212.593 144.321 211.453 144.321C211.403 144.056 211.238 143.625 211.086 143.359C211.96 143.397 212.782 143.385 213.036 143.372C213.276 143.372 213.352 143.296 213.352 143.068V133.535ZM204.376 138.219H213.795V139.156H204.376V138.219ZM208.529 134.016H209.478V138.675H208.529V134.016Z" fill="black"/>
<path d="M40.6587 96.3594H51.6219V97.2836H40.6587V96.3594ZM42.4437 102.246H50.1028V103.132H42.4437V102.246ZM42.5197 98.6635H50.6598V103.829H49.6977V99.5496H42.5197V98.6635ZM41.8867 98.6635H42.8488V101.537C42.8488 103.297 42.5703 105.728 40.9625 107.31C40.8233 107.107 40.4308 106.778 40.2156 106.652C41.7221 105.17 41.8867 103.12 41.8867 101.525V98.6635ZM56.4199 98.2837H64.6106V99.0559H56.4199V98.2837ZM57.1668 101.702H63.7751V102.423H57.1668V101.702ZM56.5971 103.436H64.3321V104.221H56.5971V103.436ZM59.9266 95.7011H60.8507V105.563H59.9266V95.7011ZM57.3314 96.6253H63.6612V100.752H57.2428V99.9927H62.7244V97.3848H57.3314V96.6253ZM52.9765 96.4101H55.711V97.2582H52.9765V96.4101ZM55.3691 96.4101H55.5084L55.6603 96.3594L56.306 96.562C55.7236 97.8912 54.7741 99.8535 54.0019 101.36L53.1411 101.119C53.926 99.6382 54.9007 97.5874 55.3691 96.524V96.4101ZM54.1285 100.018H56.2047V100.866H54.0146L54.1285 100.018ZM55.8122 100.018H56.0021L56.1794 99.9927L56.7237 100.132C56.3439 103.816 55.2426 106.082 53.5968 107.272C53.4449 107.082 53.0904 106.74 52.8752 106.614C54.483 105.538 55.4957 103.474 55.8122 100.208V100.018ZM54.1665 101.879C55.1919 105.373 57.5466 106.006 60.7621 106.006C61.2938 106.006 64.0283 106.006 64.6993 105.993C64.5473 106.209 64.3701 106.639 64.3068 106.918H60.7368C57.0782 106.918 54.6349 106.145 53.4069 102.17L54.1665 101.879ZM66.1804 97.8279C66.6615 97.8153 67.0666 97.7899 67.3198 97.7646C68.1427 97.676 70.5227 97.4481 72.8647 97.2456C74.2446 97.1317 75.4219 97.0557 76.2701 97.0304L76.2828 98.0431C75.5485 98.0305 74.4471 98.0558 73.8015 98.233C71.9912 98.8154 70.8898 100.752 70.8898 102.246C70.8898 104.715 73.2065 105.5 75.2573 105.588L74.9029 106.626C72.5482 106.538 69.8897 105.297 69.8897 102.461C69.8897 100.486 71.0923 98.8787 72.257 98.1951C70.8898 98.3343 67.6743 98.6508 66.2944 98.942L66.1804 97.8279Z" fill="black"/>
<path d="M39.2268 135.282C39.1002 135.422 38.9863 135.561 38.9103 135.675C37.9609 137.232 36.2139 139.46 33.9731 141.081L33.1882 140.372C35.2137 138.966 36.8468 136.916 37.5178 135.713C36.3784 135.713 30.7956 135.713 30.074 135.713C29.5676 135.713 29.0232 135.751 28.7827 135.776V134.649C29.1245 134.7 29.6309 134.738 30.074 134.738C30.7196 134.738 36.3531 134.738 37.6191 134.738C37.9609 134.738 38.252 134.713 38.4293 134.649L39.2268 135.282ZM33.2642 141.296C32.5046 140.536 31.0487 139.283 30.3778 138.802L31.188 138.143C31.7703 138.561 33.2389 139.764 34.1503 140.65C34.9479 141.448 35.9353 142.486 36.4797 143.144L35.5556 143.878C35.0872 143.233 34.0744 142.119 33.2642 141.296ZM43.012 134.042C43.8982 134.637 45.5313 135.953 46.2276 136.65L45.4427 137.46C44.797 136.802 43.2273 135.434 42.2778 134.814L43.012 134.042ZM41.9233 142.524C44.1261 142.195 45.7718 141.422 46.9745 140.675C48.9367 139.447 50.4685 137.574 51.2028 136.004L51.8105 137.093C50.9496 138.663 49.4811 140.384 47.5695 141.587C46.2909 142.384 44.6958 143.169 42.5816 143.562L41.9233 142.524ZM56.5958 133.586C57.3427 134.004 58.7985 134.979 59.3556 135.384L58.7606 136.245C58.1529 135.776 56.773 134.865 56.0387 134.447L56.5958 133.586ZM54.6968 142.638C56.0894 142.397 57.6592 141.891 58.9505 141.169C61.0519 139.966 62.723 138.308 63.7358 136.523L64.3561 137.574C63.2547 139.27 61.5077 140.903 59.4822 142.093C58.2035 142.84 56.4565 143.423 55.2918 143.663L54.6968 142.638ZM54.6968 136.434C55.4437 136.84 56.9249 137.751 57.4693 138.143L56.8869 139.03C56.2666 138.574 54.8994 137.7 54.1272 137.295L54.6968 136.434ZM68.2679 136.371C68.5084 136.396 69.23 136.409 69.5718 136.409C70.2808 136.409 73.433 136.409 74.4584 136.409C74.7496 136.409 75.0661 136.396 75.2433 136.396C75.2307 136.536 75.2307 136.802 75.2307 137.042C75.2307 137.485 75.2307 142.271 75.2307 143.347C75.2307 143.549 75.2433 143.84 75.2433 144.03H74.2432C74.2559 143.878 74.2559 143.574 74.2559 143.309C74.2559 141.979 74.2559 137.7 74.2559 137.321C73.8381 137.321 70.2681 137.321 69.5718 137.321C69.23 137.321 68.5084 137.346 68.2679 137.346V136.371ZM68.5464 139.371C68.7996 139.397 69.2553 139.422 69.6858 139.422C70.3314 139.422 74.3825 139.422 74.7496 139.422V140.334C74.3825 140.334 70.3314 140.334 69.6858 140.334C69.2553 140.334 68.7996 140.334 68.5464 140.359V139.371ZM68.1286 142.524C68.3312 142.549 68.7236 142.574 69.1667 142.574C69.8883 142.574 74.2052 142.574 74.7623 142.574V143.511C74.1293 143.511 69.8883 143.511 69.1667 143.511C68.7743 143.511 68.3312 143.536 68.1286 143.536V142.524ZM80.9908 134.042C81.8769 134.637 83.51 135.953 84.2063 136.65L83.4214 137.46C82.7758 136.802 81.206 135.434 80.2565 134.814L80.9908 134.042ZM79.9021 142.524C82.1048 142.195 83.7506 141.422 84.9532 140.675C86.9155 139.447 88.4473 137.574 89.1815 136.004L89.7892 137.093C88.9283 138.663 87.4598 140.384 85.5482 141.587C84.2696 142.384 82.6745 143.169 80.5603 143.562L79.9021 142.524Z" fill="black"/>
<path d="M47.9259 174.729H57.6612V175.666H47.9259V174.729ZM47.1157 180.806H58.4714V181.743H47.1157V180.806ZM52.2555 170.704H53.2556V181.401H52.2555V170.704ZM67.1558 170.653H68.0547V179.477H67.1558V170.653ZM63.1681 175.881L69.9916 173.008L70.346 173.818L63.5352 176.717L63.1681 175.881ZM64.5353 171.843H65.4468V180.312C65.4468 181.009 65.5987 181.161 66.4469 181.161C66.8647 181.161 68.9915 181.161 69.4979 181.161C70.2448 181.161 70.3714 180.819 70.46 179.363C70.6879 179.515 71.055 179.667 71.3208 179.717C71.1689 181.464 70.8651 182.021 69.5358 182.021C69.194 182.021 66.7381 182.021 66.4216 182.021C64.9657 182.021 64.5353 181.68 64.5353 180.3V171.843ZM69.827 173.134H69.7131L69.9409 172.944L70.1055 172.805L70.7765 173.058L70.7385 173.236C70.7385 175.616 70.7005 177.515 70.6119 178.008C70.5359 178.515 70.2954 178.755 69.9283 178.844C69.5865 178.932 69.0801 178.932 68.7383 178.932C68.7003 178.679 68.6243 178.325 68.5104 178.11C68.8016 178.122 69.2193 178.122 69.3586 178.122C69.5485 178.122 69.6751 178.072 69.7384 177.78C69.8143 177.451 69.827 175.654 69.827 173.134ZM59.636 173.704H63.6618V174.603H59.636V173.704ZM61.2691 170.805H62.168V179.021H61.2691V170.805ZM59.5221 179.35C60.5475 178.97 62.1047 178.312 63.6112 177.666L63.8137 178.515C62.4591 179.16 61.0286 179.806 59.9019 180.287L59.5221 179.35Z" fill="black"/>
<path d="M40.1706 57.4947L41.5505 57.7606C41.3901 58.4611 41.196 59.1447 40.9681 59.8114C40.7403 60.4697 40.4786 61.0858 40.1832 61.6597C39.8879 62.2252 39.5671 62.7231 39.2211 63.1536C39.1452 63.0692 39.0354 62.9763 38.892 62.8751C38.7485 62.7653 38.6008 62.6598 38.4489 62.5586C38.3054 62.4488 38.183 62.3602 38.0818 62.2927C38.4193 61.9214 38.719 61.4825 38.9806 60.9761C39.2507 60.4697 39.4828 59.9211 39.6769 59.3304C39.8794 58.7312 40.044 58.1193 40.1706 57.4947ZM44.4242 59.4696H45.8674C45.8674 59.4696 45.8632 59.516 45.8547 59.6089C45.8547 59.6933 45.8547 59.7903 45.8547 59.9001C45.8547 60.0098 45.8505 60.0942 45.8421 60.1532C45.783 61.5796 45.7197 62.7907 45.6522 63.7865C45.5931 64.7824 45.5256 65.6053 45.4496 66.2552C45.3821 66.8966 45.3019 67.403 45.2091 67.7743C45.1163 68.1372 45.0108 68.3988 44.8926 68.5592C44.7407 68.7702 44.5888 68.9221 44.4369 69.0149C44.285 69.1078 44.1035 69.1753 43.8925 69.2175C43.7153 69.2513 43.5001 69.2681 43.2469 69.2681C42.9937 69.2766 42.7278 69.2724 42.4493 69.2555C42.4324 69.036 42.386 68.7871 42.3101 68.5086C42.2425 68.2301 42.1497 67.9853 42.0315 67.7743C42.2679 67.7996 42.4873 67.8165 42.6898 67.8249C42.8924 67.8249 43.0528 67.8249 43.1709 67.8249C43.2722 67.8249 43.3524 67.8081 43.4114 67.7743C43.479 67.7405 43.5507 67.6773 43.6267 67.5844C43.711 67.4831 43.7912 67.2721 43.8672 66.9514C43.9431 66.6223 44.0149 66.1539 44.0824 65.5462C44.1499 64.9386 44.209 64.1663 44.2596 63.2295C44.3187 62.2843 44.3736 61.1407 44.4242 59.7988V59.4696ZM40.5504 59.4696H45.0698V60.8748H39.8668L40.5504 59.4696ZM41.4492 59.9254L42.5506 60.4697C42.3818 61.1955 42.1497 61.9382 41.8543 62.6978C41.5589 63.449 41.2129 64.1537 40.8162 64.812C40.428 65.4703 40.006 66.0146 39.5503 66.4451C39.4068 66.31 39.2253 66.1623 39.0059 66.002C38.7865 65.8332 38.5755 65.6981 38.3729 65.5969C38.7443 65.3099 39.0903 64.9554 39.411 64.5335C39.7317 64.103 40.0229 63.6346 40.2845 63.1282C40.5462 62.6134 40.774 62.0859 40.9681 61.5458C41.1623 60.9972 41.3226 60.4571 41.4492 59.9254ZM43.2089 60.0773L44.3862 60.6216C44.2259 61.4403 44.0233 62.259 43.7786 63.0776C43.5423 63.8963 43.2553 64.6812 42.9177 65.4323C42.5886 66.1834 42.2088 66.8755 41.7784 67.5085C41.3479 68.133 40.8669 68.6605 40.3352 69.0909C40.1917 68.9474 40.0018 68.7913 39.7655 68.6225C39.5376 68.4537 39.3182 68.3144 39.1072 68.2047C39.6558 67.8081 40.1495 67.3186 40.5884 66.7362C41.0357 66.1454 41.4281 65.4914 41.7657 64.774C42.1033 64.0482 42.3902 63.2886 42.6265 62.4953C42.8629 61.6935 43.057 60.8875 43.2089 60.0773ZM33.9801 64.4069C34.3936 64.3056 34.862 64.1874 35.3853 64.0524C35.917 63.9174 36.474 63.7697 37.0563 63.6093C37.6471 63.4405 38.2337 63.2759 38.816 63.1156L39.0059 64.4448C38.2126 64.698 37.4024 64.9512 36.5753 65.2044C35.7566 65.4492 35.0139 65.6686 34.3472 65.8627L33.9801 64.4069ZM36.2461 57.5074H37.6387V69.3947H36.2461V57.5074ZM34.5751 58.229L35.8537 58.4315C35.7946 58.9886 35.7229 59.5498 35.6385 60.1153C35.5541 60.6723 35.4528 61.1998 35.3346 61.6977C35.2165 62.1957 35.0814 62.6345 34.9295 63.0143C34.8536 62.9552 34.7481 62.8835 34.613 62.7991C34.478 62.7063 34.343 62.6176 34.2079 62.5332C34.0729 62.4404 33.9547 62.3729 33.8535 62.3307C33.9885 61.9847 34.1024 61.5922 34.1953 61.1533C34.2965 60.706 34.3767 60.2334 34.4358 59.7355C34.5033 59.2291 34.5497 58.7269 34.5751 58.229ZM34.9295 59.9507H38.7021V61.3939H34.6384L34.9295 59.9507ZM53.729 57.6593H55.2735V69.3821H53.729V57.6593ZM51.5769 58.2037L53.0454 58.4948C52.9272 59.0687 52.7837 59.6384 52.615 60.2039C52.4462 60.7693 52.2563 61.301 52.0453 61.799C51.8427 62.2885 51.6275 62.7189 51.3996 63.0903C51.3068 63.0143 51.176 62.9299 51.0072 62.8371C50.8468 62.7442 50.6823 62.6556 50.5135 62.5712C50.3531 62.4784 50.2096 62.4109 50.083 62.3687C50.3109 62.0311 50.5219 61.6386 50.716 61.1913C50.9101 60.7356 51.0789 60.2545 51.2224 59.7481C51.3659 59.2333 51.484 58.7185 51.5769 58.2037ZM52.0706 59.9507H57.932V61.4445H51.6908L52.0706 59.9507ZM50.2982 63.6346H58.527V65.1158H50.2982V63.6346ZM49.3614 57.5454L50.8046 58.0011C50.5346 58.7101 50.2181 59.4274 49.8552 60.1532C49.4923 60.8706 49.0956 61.55 48.6652 62.1914C48.2432 62.8329 47.8043 63.3983 47.3486 63.8878C47.2979 63.7612 47.2262 63.6009 47.1334 63.4068C47.0405 63.2042 46.9392 63.0016 46.8295 62.7991C46.7198 62.5965 46.6185 62.432 46.5257 62.3054C46.9055 61.9171 47.2684 61.4698 47.6144 60.9635C47.9689 60.4571 48.2938 59.9127 48.5892 59.3304C48.893 58.748 49.1504 58.153 49.3614 57.5454ZM48.1081 61.0521L49.5513 59.6089V59.6215V69.3694H48.1081V61.0521ZM66.8063 58.5835H68.2622V68.5972H66.8063V58.5835ZM63.9453 59.7102H71.0093V60.8875H63.9453V59.7102ZM63.5655 67.9895H71.2752V69.1795H63.5655V67.9895ZM64.2871 66.2425H70.7941V67.4072H64.2871V66.2425ZM70.1105 57.6087L70.984 58.7227C70.5282 58.8155 70.0303 58.8957 69.4902 58.9632C68.95 59.0223 68.393 59.073 67.8191 59.1152C67.2452 59.1574 66.6671 59.1911 66.0847 59.2164C65.5024 59.2333 64.9454 59.246 64.4137 59.2544C64.3968 59.0941 64.3546 58.9042 64.2871 58.6847C64.2196 58.4653 64.152 58.2796 64.0845 58.1277C64.6078 58.1108 65.1437 58.0897 65.6923 58.0644C66.2493 58.0307 66.7937 57.9927 67.3254 57.9505C67.8571 57.9083 68.3592 57.8576 68.8319 57.7986C69.3129 57.7395 69.7391 57.6762 70.1105 57.6087ZM65.6796 63.9891V64.6221H69.4269V63.9891H65.6796ZM65.6796 62.4573V63.0903H69.4269V62.4573H65.6796ZM64.363 61.4065H70.8068V65.6728H64.363V61.4065ZM61.2994 58.6847H62.7679V69.3821H61.2994V58.6847ZM59.4764 61.0647H64.1225V62.4699H59.4764V61.0647ZM61.3754 61.6344L62.2615 62.0142C62.1434 62.4699 61.9999 62.9426 61.8311 63.4321C61.6623 63.9216 61.4767 64.4069 61.2741 64.8879C61.0715 65.3605 60.8563 65.8079 60.6285 66.2298C60.4006 66.6518 60.1643 67.019 59.9195 67.3312C59.8436 67.1118 59.7339 66.867 59.5904 66.597C59.4553 66.3185 59.3287 66.0821 59.2106 65.888C59.43 65.6348 59.6452 65.3394 59.8562 65.0019C60.0757 64.6558 60.2824 64.2887 60.4765 63.9005C60.6707 63.5122 60.8437 63.124 60.9956 62.7358C61.1475 62.3476 61.2741 61.9804 61.3754 61.6344ZM63.2617 57.634L64.2871 58.7987C63.8567 58.959 63.384 59.1067 62.8692 59.2418C62.3544 59.3768 61.8269 59.4949 61.2868 59.5962C60.7551 59.6891 60.2445 59.7692 59.755 59.8368C59.7212 59.668 59.6621 59.4738 59.5777 59.2544C59.4933 59.0265 59.4089 58.8324 59.3245 58.6721C59.7887 58.5961 60.2613 58.5075 60.7424 58.4062C61.2319 58.2965 61.6919 58.1741 62.1223 58.0391C62.5612 57.9041 62.9409 57.769 63.2617 57.634ZM62.7426 62.8244C62.8186 62.8835 62.9325 62.9932 63.0844 63.1536C63.2448 63.3055 63.4136 63.4743 63.5908 63.6599C63.7765 63.8456 63.9411 64.0186 64.0845 64.179C64.228 64.3309 64.3335 64.4406 64.401 64.5081L63.5275 65.7108C63.4515 65.5504 63.3503 65.369 63.2237 65.1664C63.1055 64.9639 62.9747 64.7529 62.8312 64.5335C62.6962 64.314 62.5612 64.1072 62.4261 63.9131C62.2911 63.7106 62.1729 63.546 62.0717 63.4194L62.7426 62.8244ZM78.8709 59.0392H80.3394V66.2045H78.8709V59.0392ZM81.8586 57.7606H83.3651V67.5464C83.3651 67.9937 83.3102 68.3355 83.2005 68.5719C83.0992 68.8082 82.9178 68.9896 82.6561 69.1162C82.3945 69.2344 82.0527 69.3103 81.6307 69.3441C81.2087 69.3863 80.7065 69.4074 80.1242 69.4074C80.1073 69.2555 80.0694 69.0825 80.0103 68.8883C79.9512 68.7027 79.8837 68.5128 79.8077 68.3187C79.7402 68.133 79.6685 67.9726 79.5925 67.8376C80.0061 67.846 80.3985 67.8545 80.7698 67.8629C81.1412 67.8629 81.3902 67.8629 81.5168 67.8629C81.6349 67.8629 81.7193 67.8418 81.77 67.7996C81.829 67.749 81.8586 67.6646 81.8586 67.5464V57.7606ZM74.3768 63.546H77.2885V64.8753H74.3768V63.546ZM76.6175 63.546H78.0227C78.0227 63.546 78.0185 63.584 78.0101 63.6599C78.0101 63.7275 78.0101 63.8076 78.0101 63.9005C78.0101 63.9849 78.0101 64.0524 78.0101 64.103C77.9679 65.1242 77.9214 65.9598 77.8708 66.6096C77.8202 67.251 77.7569 67.7448 77.6809 68.0908C77.6134 68.4284 77.5206 68.6731 77.4024 68.8251C77.2758 68.9854 77.1365 69.0993 76.9846 69.1669C76.8327 69.2344 76.6555 69.2808 76.4529 69.3061C76.2841 69.3314 76.0605 69.3483 75.782 69.3568C75.5035 69.3652 75.2165 69.361 74.9211 69.3441C74.9127 69.1415 74.8705 68.9137 74.7945 68.6605C74.7186 68.4157 74.6257 68.2047 74.516 68.0275C74.7776 68.0528 75.0224 68.0697 75.2503 68.0781C75.4866 68.0866 75.6596 68.0908 75.7693 68.0908C75.8622 68.0908 75.9381 68.0824 75.9972 68.0655C76.0647 68.0402 76.128 67.9937 76.1871 67.9262C76.263 67.8418 76.3263 67.6562 76.377 67.3692C76.4276 67.0738 76.474 66.6392 76.5162 66.0653C76.5584 65.4829 76.5922 64.7191 76.6175 63.7739V63.546ZM74.0603 59.4316V61.166H76.4403V59.4316H74.0603ZM72.6804 58.0897H77.9088V62.5079H72.6804V58.0897ZM73.9717 62.1028H75.4528C75.4191 62.7696 75.3642 63.4447 75.2883 64.1283C75.2123 64.8035 75.0857 65.4618 74.9085 66.1032C74.7397 66.7362 74.4949 67.3354 74.1742 67.9009C73.8619 68.4579 73.4484 68.9559 72.9336 69.3947C72.8239 69.2091 72.6719 69.0107 72.4778 68.7997C72.2837 68.5887 72.0938 68.4199 71.9081 68.2933C72.3639 67.9304 72.7226 67.5085 72.9842 67.0274C73.2458 66.5463 73.4442 66.0315 73.5792 65.4829C73.7142 64.9343 73.8071 64.3731 73.8577 63.7992C73.9084 63.2253 73.9463 62.6598 73.9717 62.1028Z" fill="white"/>
<path d="M0 4C0 1.79086 1.79086 0 4 0L336 0C338.209 0 340 1.79086 340 4V42L0 42L0 4Z" fill="#006837"/>
<path d="M151.248 18.4009V19.9381H156.005V18.4009H151.248ZM151.248 15.4349V16.9541H156.005V15.4349H151.248ZM149.657 13.8796H157.65V21.4934H149.657V13.8796ZM149.675 23.1211H157.668V24.8753H149.675V23.1211ZM149.078 27.4253C149.826 27.353 150.682 27.2686 151.646 27.1721C152.623 27.0636 153.654 26.9491 154.739 26.8285C155.836 26.6959 156.927 26.5693 158.012 26.4487L158.048 28.1487C157.023 28.2934 155.987 28.4321 154.938 28.5647C153.889 28.7094 152.882 28.848 151.917 28.9807C150.965 29.1133 150.097 29.2278 149.313 29.3243L149.078 27.4253ZM158.247 13.8796H164.595V15.6158H158.247V13.8796ZM158.048 19.7934H164.866V21.62H158.048V19.7934ZM163.727 13.8796H164.197L164.613 13.7892L165.861 14.6572C165.547 15.1395 165.186 15.6399 164.776 16.1583C164.366 16.6647 163.932 17.147 163.474 17.6051C163.016 18.0633 162.551 18.4611 162.081 18.7987C161.961 18.6179 161.786 18.419 161.557 18.2019C161.34 17.9849 161.159 17.8161 161.014 17.6955C161.376 17.3941 161.726 17.0445 162.063 16.6466C162.413 16.2367 162.732 15.8207 163.022 15.3987C163.323 14.9768 163.558 14.5909 163.727 14.2413V13.8796ZM158.645 17.6232L159.857 16.4296C160.399 16.6707 160.954 16.9601 161.521 17.2977C162.087 17.6353 162.624 17.9789 163.13 18.3285C163.637 18.6782 164.058 18.9977 164.396 19.287L163.184 20.6434C162.847 20.3299 162.425 19.9924 161.918 19.6307C161.424 19.2569 160.888 18.8952 160.309 18.5455C159.742 18.1959 159.188 17.8885 158.645 17.6232ZM164.288 19.7934H164.559L164.848 19.7211L166.168 20.0104C165.988 20.8062 165.777 21.62 165.535 22.4519C165.306 23.2718 165.077 23.9711 164.848 24.5498L163.275 24.1881C163.395 23.8505 163.516 23.4466 163.637 22.9764C163.757 22.5062 163.872 22.0179 163.98 21.5115C164.101 21.0051 164.203 20.5229 164.288 20.0647V19.7934ZM160.58 20.6977H162.515V27.7509C162.515 28.2331 162.455 28.6129 162.334 28.8902C162.226 29.1796 162.003 29.4026 161.665 29.5594C161.34 29.7041 160.93 29.7945 160.435 29.8307C159.953 29.8668 159.38 29.8849 158.717 29.8849C158.693 29.6076 158.621 29.2881 158.5 28.9264C158.392 28.5647 158.271 28.2512 158.139 27.986C158.585 27.998 159.013 28.0101 159.423 28.0221C159.833 28.0221 160.104 28.0161 160.237 28.0041C160.369 28.0041 160.46 27.986 160.508 27.9498C160.556 27.9016 160.58 27.8172 160.58 27.6966V20.6977ZM152.822 14.4402H154.449V20.5892H154.576V27.3168H152.713V20.5892H152.822V14.4402ZM173.348 17.4424H180.854V19.3955H173.348V17.4424ZM172.679 24.2424L173.891 22.6328C174.506 22.898 175.145 23.2055 175.808 23.5551C176.471 23.8927 177.116 24.2544 177.743 24.6402C178.382 25.014 178.973 25.3998 179.515 25.7977C180.058 26.1955 180.51 26.5814 180.872 26.9551L179.533 28.7817C179.184 28.408 178.75 28.0221 178.231 27.6243C177.713 27.2143 177.146 26.8044 176.531 26.3945C175.916 25.9846 175.277 25.5987 174.614 25.237C173.951 24.8633 173.306 24.5317 172.679 24.2424ZM173.963 13.9338L176.115 14.4221C175.705 15.6399 175.211 16.8877 174.632 18.1658C174.054 19.4438 173.396 20.6555 172.661 21.8009C171.926 22.9463 171.106 23.953 170.201 24.8211C170.057 24.7005 169.87 24.5739 169.641 24.4413C169.424 24.3087 169.201 24.1821 168.972 24.0615C168.755 23.9289 168.55 23.8204 168.357 23.736C169.032 23.1211 169.659 22.4218 170.238 21.6381C170.816 20.8544 171.341 20.0285 171.811 19.1604C172.293 18.2803 172.715 17.3941 173.077 16.5019C173.439 15.6097 173.734 14.7537 173.963 13.9338ZM180.04 17.4424H180.492L180.872 17.37L182.337 18.1658C182.035 19.0218 181.649 19.92 181.179 20.8604C180.709 21.7888 180.196 22.6991 179.642 23.5913C179.099 24.4835 178.539 25.2913 177.96 26.0147C177.743 25.8338 177.466 25.6349 177.128 25.4179C176.79 25.1888 176.489 25.008 176.224 24.8753C176.622 24.381 177.013 23.8385 177.399 23.2477C177.785 22.6569 178.147 22.048 178.484 21.4211C178.834 20.7941 179.135 20.1853 179.389 19.5945C179.654 18.9916 179.871 18.4431 180.04 17.9487V17.4424ZM192.989 12.9392H195.068V16.52H192.989V12.9392ZM193.007 17.1349H195.032V29.9392H193.007V17.1349ZM185.845 15.3626H202.357V17.2615H185.845V15.3626ZM187.599 19.3232H199.517V21.2041H189.552V27.6966H187.599V19.3232ZM198.776 19.3232H200.783V25.5264C200.783 26.0087 200.717 26.3945 200.584 26.6838C200.464 26.9732 200.229 27.1963 199.879 27.353C199.517 27.4977 199.071 27.5881 198.541 27.6243C198.022 27.6604 197.395 27.6785 196.66 27.6785C196.624 27.3892 196.539 27.0697 196.407 26.72C196.274 26.3583 196.141 26.0448 196.009 25.7796C196.346 25.7916 196.672 25.8037 196.985 25.8158C197.311 25.8158 197.6 25.8158 197.854 25.8158C198.107 25.8158 198.282 25.8158 198.378 25.8158C198.523 25.8037 198.625 25.7796 198.685 25.7434C198.746 25.6952 198.776 25.6108 198.776 25.4902V19.3232ZM211.255 12.9392H213.334V16.52H211.255V12.9392ZM211.273 17.1349H213.298V29.9392H211.273V17.1349ZM204.111 15.3626H220.623V17.2615H204.111V15.3626ZM205.865 19.3232H217.783V21.2041H207.818V27.6966H205.865V19.3232ZM217.042 19.3232H219.049V25.5264C219.049 26.0087 218.983 26.3945 218.85 26.6838C218.73 26.9732 218.495 27.1963 218.145 27.353C217.783 27.4977 217.337 27.5881 216.807 27.6243C216.288 27.6604 215.661 27.6785 214.926 27.6785C214.89 27.3892 214.805 27.0697 214.673 26.72C214.54 26.3583 214.407 26.0448 214.275 25.7796C214.612 25.7916 214.938 25.8037 215.251 25.8158C215.577 25.8158 215.866 25.8158 216.119 25.8158C216.373 25.8158 216.548 25.8158 216.644 25.8158C216.789 25.8037 216.891 25.7796 216.951 25.7434C217.012 25.6952 217.042 25.6108 217.042 25.4902V19.3232Z" fill="white"/>
<path d="M129.328 9.12194C133.845 9.12194 138.672 11.7187 138.672 19.0086C138.672 24.7284 131.514 31.2161 129.529 32.9057C129.486 32.9419 129.444 32.9775 129.406 33.0094C129.38 33.0309 129.351 33.0554 129.328 33.075C129.309 33.0591 129.284 33.0388 129.263 33.021C129.217 32.9824 129.166 32.9389 129.112 32.8935C129.062 32.8512 129.011 32.8064 128.954 32.7579C128.938 32.7444 128.919 32.7279 128.903 32.7144C128.773 32.6009 128.628 32.4758 128.47 32.3347C128.456 32.3219 128.441 32.3078 128.426 32.2949C125.838 29.9839 119.983 24.185 119.983 19.0086C119.983 11.7187 124.811 9.12194 129.328 9.12194Z" fill="#F5A210"/>
<path d="M137.66 18.4369C137.66 13.8266 133.909 10.0762 129.299 10.0762C124.689 10.0762 120.938 13.8266 120.938 18.4369C120.938 23.0472 124.689 26.7976 129.299 26.7976C133.909 26.7976 137.66 23.0472 137.66 18.4369ZM121.922 18.4369C121.922 14.3694 125.231 11.0599 129.299 11.0599C133.366 11.0599 136.676 14.3694 136.676 18.4369C136.676 22.5044 133.366 25.8139 129.299 25.8139C125.231 25.8139 121.922 22.5044 121.922 18.4369Z" fill="white"/>
<path d="M133.725 23.3548C133.996 23.3548 134.216 23.134 134.216 22.8629V17.4528C134.216 17.3124 134.157 17.1787 134.052 17.0848L133.233 16.3581V13.5184C133.233 13.2473 133.013 13.0265 132.741 13.0265H130.774C130.503 13.0265 130.283 13.2473 130.283 13.5184V13.7349L129.626 13.151C129.439 12.9848 129.158 12.9848 128.972 13.151L124.546 17.0848C124.441 17.1787 124.381 17.3124 124.381 17.4528V22.8629C124.381 23.134 124.601 23.3548 124.872 23.3548H133.725ZM125.364 17.6736L129.299 14.1765L130.447 15.1977C130.592 15.3265 130.799 15.3577 130.975 15.2786C131.152 15.1989 131.266 15.0235 131.266 14.8303V14.0103H132.249V16.5788C132.249 16.7193 132.31 16.853 132.414 16.9462L133.233 17.6736V22.371H130.774V19.4203C130.774 19.1486 130.554 18.9285 130.283 18.9285H128.315C128.043 18.9285 127.823 19.1486 127.823 19.4203V22.371H125.364V17.6736ZM128.807 22.371V19.9122H129.791V22.371H128.807Z" fill="white"/>
</svg>
