<svg width="665" height="354" viewBox="0 0 665 354" fill="none" xmlns="http://www.w3.org/2000/svg">
<rect width="610" height="354" fill="#AFBC34" fill-opacity="0.4"/>
<path d="M0 180H622C645.748 180 665 199.252 665 223C665 246.748 645.748 266 622 266H0V180Z" fill="#006837"/>
<path d="M71.08 247.04L57.12 208.72H58.48L72.48 247.04H71.08ZM79.0788 240V236.955L87.1584 229.034C87.9311 228.254 88.575 227.561 89.0902 226.955C89.6053 226.348 89.9917 225.761 90.2493 225.193C90.5068 224.625 90.6356 224.019 90.6356 223.375C90.6356 222.64 90.469 222.011 90.1356 221.489C89.8023 220.958 89.344 220.549 88.7606 220.261C88.1773 219.973 87.5144 219.83 86.772 219.83C86.0068 219.83 85.3364 219.989 84.7606 220.307C84.1849 220.617 83.7379 221.061 83.4197 221.636C83.1091 222.212 82.9538 222.898 82.9538 223.693H78.9424C78.9424 222.216 79.2796 220.932 79.9538 219.841C80.6281 218.75 81.5561 217.905 82.7379 217.307C83.9273 216.708 85.2909 216.409 86.8288 216.409C88.3894 216.409 89.7606 216.701 90.9424 217.284C92.1243 217.867 93.0409 218.667 93.6924 219.682C94.3515 220.697 94.6811 221.856 94.6811 223.159C94.6811 224.03 94.5144 224.886 94.1811 225.727C93.8477 226.568 93.2606 227.5 92.4197 228.523C91.5864 229.545 90.4159 230.784 88.9084 232.239L84.897 236.318V236.477H95.0334V240H79.0788ZM106.276 240.443C104.405 240.443 102.799 239.97 101.458 239.023C100.125 238.068 99.098 236.693 98.3784 234.898C97.6662 233.095 97.3102 230.924 97.3102 228.386C97.3177 225.848 97.6776 223.689 98.3897 221.909C99.1094 220.121 100.136 218.758 101.469 217.818C102.81 216.879 104.412 216.409 106.276 216.409C108.14 216.409 109.742 216.879 111.083 217.818C112.424 218.758 113.45 220.121 114.162 221.909C114.882 223.697 115.242 225.856 115.242 228.386C115.242 230.932 114.882 233.106 114.162 234.909C113.45 236.705 112.424 238.076 111.083 239.023C109.75 239.97 108.147 240.443 106.276 240.443ZM106.276 236.886C107.731 236.886 108.878 236.17 109.719 234.739C110.568 233.299 110.992 231.182 110.992 228.386C110.992 226.538 110.799 224.985 110.412 223.727C110.026 222.47 109.481 221.523 108.776 220.886C108.072 220.242 107.238 219.92 106.276 219.92C104.829 219.92 103.685 220.64 102.844 222.08C102.003 223.511 101.579 225.614 101.572 228.386C101.564 230.242 101.75 231.803 102.128 233.068C102.515 234.333 103.06 235.288 103.765 235.932C104.469 236.568 105.306 236.886 106.276 236.886ZM117.738 240V236.955L125.817 229.034C126.59 228.254 127.234 227.561 127.749 226.955C128.264 226.348 128.65 225.761 128.908 225.193C129.166 224.625 129.294 224.019 129.294 223.375C129.294 222.64 129.128 222.011 128.794 221.489C128.461 220.958 128.003 220.549 127.419 220.261C126.836 219.973 126.173 219.83 125.431 219.83C124.666 219.83 123.995 219.989 123.419 220.307C122.844 220.617 122.397 221.061 122.078 221.636C121.768 222.212 121.613 222.898 121.613 223.693H117.601C117.601 222.216 117.938 220.932 118.613 219.841C119.287 218.75 120.215 217.905 121.397 217.307C122.586 216.708 123.95 216.409 125.488 216.409C127.048 216.409 128.419 216.701 129.601 217.284C130.783 217.867 131.7 218.667 132.351 219.682C133.01 220.697 133.34 221.856 133.34 223.159C133.34 224.03 133.173 224.886 132.84 225.727C132.506 226.568 131.919 227.5 131.078 228.523C130.245 229.545 129.075 230.784 127.567 232.239L123.556 236.318V236.477H133.692V240H117.738ZM135.412 235.682V232.33L145.287 216.727H148.083V221.5H146.378L139.73 232.034V232.216H153.514V235.682H135.412ZM146.514 240V234.659L146.56 233.159V216.727H150.537V240H146.514ZM164.549 212.768L168.069 213.664C167.493 215.243 166.81 216.789 166.021 218.304C165.232 219.797 164.378 221.195 163.461 222.496C162.544 223.776 161.605 224.896 160.645 225.856C160.41 225.664 160.112 225.429 159.749 225.152C159.386 224.853 159.024 224.565 158.661 224.288C158.298 224.011 157.968 223.787 157.669 223.616C158.65 222.763 159.568 221.771 160.421 220.64C161.296 219.488 162.085 218.24 162.789 216.896C163.493 215.552 164.08 214.176 164.549 212.768ZM164.901 216.512H185.349V219.84H163.269L164.901 216.512ZM162.853 224H184.613V227.2H166.277V234.144H162.853V224ZM157.701 232.48H187.013V235.776H157.701V232.48ZM172.293 218.24H175.845V242.784H172.293V218.24ZM200.057 240.318C198.421 240.318 196.966 240.038 195.694 239.477C194.429 238.917 193.429 238.136 192.694 237.136C191.959 236.136 191.569 234.981 191.523 233.67H195.796C195.834 234.299 196.042 234.848 196.421 235.318C196.8 235.78 197.304 236.14 197.932 236.398C198.561 236.655 199.266 236.784 200.046 236.784C200.879 236.784 201.618 236.64 202.262 236.352C202.906 236.057 203.41 235.648 203.773 235.125C204.137 234.602 204.315 234 204.307 233.318C204.315 232.614 204.133 231.992 203.762 231.455C203.391 230.917 202.853 230.496 202.148 230.193C201.451 229.89 200.61 229.739 199.626 229.739H197.569V226.489H199.626C200.436 226.489 201.144 226.348 201.751 226.068C202.364 225.788 202.845 225.394 203.194 224.886C203.542 224.371 203.713 223.777 203.705 223.102C203.713 222.443 203.565 221.871 203.262 221.386C202.966 220.894 202.546 220.511 202.001 220.239C201.463 219.966 200.83 219.83 200.103 219.83C199.391 219.83 198.732 219.958 198.126 220.216C197.519 220.473 197.031 220.841 196.66 221.318C196.288 221.788 196.091 222.348 196.069 223H192.012C192.042 221.697 192.417 220.553 193.137 219.568C193.864 218.576 194.834 217.803 196.046 217.25C197.258 216.689 198.618 216.409 200.126 216.409C201.679 216.409 203.027 216.701 204.171 217.284C205.322 217.86 206.213 218.636 206.841 219.614C207.47 220.591 207.785 221.67 207.785 222.852C207.792 224.163 207.406 225.261 206.626 226.148C205.853 227.034 204.838 227.614 203.58 227.886V228.068C205.216 228.295 206.47 228.902 207.341 229.886C208.22 230.864 208.656 232.08 208.648 233.534C208.648 234.837 208.277 236.004 207.535 237.034C206.8 238.057 205.785 238.86 204.489 239.443C203.201 240.027 201.724 240.318 200.057 240.318ZM220.241 214.464H236.433V217.824H220.241V214.464ZM220.273 222.144H236.593V225.408H220.273V222.144ZM220.081 229.728H236.369V233.088H220.081V229.728ZM217.937 214.464H221.457V224.864C221.457 226.251 221.382 227.744 221.233 229.344C221.083 230.923 220.795 232.533 220.369 234.176C219.942 235.797 219.302 237.355 218.449 238.848C217.617 240.32 216.518 241.632 215.153 242.784C214.982 242.549 214.737 242.261 214.417 241.92C214.097 241.6 213.766 241.291 213.425 240.992C213.083 240.693 212.785 240.469 212.529 240.32C213.766 239.253 214.747 238.091 215.473 236.832C216.198 235.552 216.731 234.229 217.073 232.864C217.435 231.477 217.67 230.101 217.777 228.736C217.883 227.371 217.937 226.069 217.937 224.832V214.464ZM234.833 214.464H238.481V238.272C238.481 239.339 238.331 240.16 238.033 240.736C237.734 241.312 237.243 241.739 236.561 242.016C235.835 242.315 234.897 242.496 233.745 242.56C232.614 242.645 231.206 242.688 229.521 242.688C229.457 242.347 229.339 241.952 229.169 241.504C229.019 241.077 228.849 240.64 228.657 240.192C228.465 239.744 228.273 239.371 228.081 239.072C228.87 239.115 229.659 239.147 230.449 239.168C231.259 239.168 231.963 239.168 232.561 239.168C233.179 239.168 233.606 239.168 233.841 239.168C234.225 239.147 234.481 239.072 234.609 238.944C234.758 238.795 234.833 238.56 234.833 238.24V214.464ZM259.441 217.824C260.401 217.973 261.478 218.08 262.673 218.144C263.889 218.187 265.126 218.208 266.385 218.208C267.665 218.187 268.881 218.144 270.033 218.08C271.185 217.995 272.187 217.909 273.041 217.824V221.504C272.102 221.589 271.046 221.664 269.873 221.728C268.699 221.771 267.494 221.792 266.257 221.792C265.041 221.792 263.846 221.771 262.673 221.728C261.499 221.664 260.433 221.589 259.473 221.504L259.441 217.824ZM261.617 231.328C261.489 231.883 261.393 232.373 261.329 232.8C261.265 233.227 261.233 233.653 261.233 234.08C261.233 234.443 261.307 234.784 261.457 235.104C261.627 235.403 261.894 235.659 262.257 235.872C262.641 236.085 263.131 236.256 263.729 236.384C264.326 236.491 265.073 236.544 265.969 236.544C267.398 236.544 268.742 236.48 270.001 236.352C271.281 236.203 272.603 235.979 273.969 235.68L274.033 239.552C273.009 239.765 271.825 239.925 270.481 240.032C269.158 240.139 267.611 240.192 265.841 240.192C263.11 240.192 261.083 239.744 259.761 238.848C258.459 237.931 257.809 236.672 257.809 235.072C257.809 234.475 257.851 233.856 257.937 233.216C258.043 232.555 258.182 231.829 258.353 231.04L261.617 231.328ZM254.193 215.616C254.129 215.808 254.043 216.085 253.937 216.448C253.83 216.789 253.734 217.131 253.649 217.472C253.563 217.813 253.499 218.08 253.457 218.272C253.371 218.741 253.254 219.349 253.105 220.096C252.977 220.821 252.838 221.632 252.689 222.528C252.561 223.403 252.433 224.299 252.305 225.216C252.198 226.133 252.102 227.019 252.017 227.872C251.931 228.725 251.889 229.483 251.889 230.144C251.889 230.592 251.899 231.051 251.921 231.52C251.963 231.989 252.006 232.448 252.049 232.896C252.219 232.512 252.39 232.107 252.561 231.68C252.753 231.253 252.934 230.837 253.105 230.432C253.297 230.005 253.467 229.611 253.617 229.248L255.441 230.656C255.142 231.509 254.833 232.427 254.513 233.408C254.214 234.389 253.937 235.317 253.681 236.192C253.446 237.067 253.265 237.771 253.137 238.304C253.094 238.539 253.051 238.805 253.009 239.104C252.987 239.403 252.977 239.637 252.977 239.808C252.977 239.957 252.977 240.149 252.977 240.384C252.998 240.619 253.019 240.843 253.041 241.056L249.745 241.28C249.425 240.171 249.137 238.709 248.881 236.896C248.625 235.061 248.497 233.056 248.497 230.88C248.497 229.685 248.55 228.48 248.657 227.264C248.763 226.027 248.891 224.832 249.041 223.68C249.19 222.528 249.339 221.483 249.489 220.544C249.638 219.584 249.766 218.784 249.873 218.144C249.915 217.717 249.969 217.248 250.033 216.736C250.097 216.224 250.139 215.733 250.161 215.264L254.193 215.616ZM290.897 220.544C291.814 220.629 292.731 220.704 293.649 220.768C294.566 220.811 295.505 220.832 296.465 220.832C298.406 220.832 300.337 220.747 302.257 220.576C304.198 220.405 305.99 220.149 307.633 219.808V223.392C305.947 223.648 304.145 223.84 302.225 223.968C300.305 224.096 298.385 224.171 296.465 224.192C295.526 224.192 294.598 224.171 293.681 224.128C292.785 224.085 291.867 224.032 290.929 223.968L290.897 220.544ZM302.801 215.072C302.758 215.371 302.715 215.701 302.673 216.064C302.651 216.405 302.63 216.747 302.609 217.088C302.587 217.451 302.566 217.931 302.545 218.528C302.523 219.104 302.513 219.744 302.513 220.448C302.513 221.152 302.513 221.867 302.513 222.592C302.513 223.979 302.534 225.301 302.577 226.56C302.619 227.819 302.673 228.992 302.737 230.08C302.801 231.168 302.854 232.181 302.897 233.12C302.961 234.059 302.993 234.923 302.993 235.712C302.993 236.48 302.886 237.205 302.673 237.888C302.459 238.571 302.118 239.179 301.649 239.712C301.179 240.224 300.55 240.619 299.761 240.896C298.993 241.195 298.043 241.344 296.913 241.344C294.715 241.344 292.998 240.907 291.761 240.032C290.523 239.157 289.905 237.92 289.905 236.32C289.905 235.275 290.182 234.357 290.737 233.568C291.313 232.757 292.113 232.128 293.137 231.68C294.182 231.232 295.43 231.008 296.881 231.008C298.331 231.008 299.665 231.168 300.881 231.488C302.097 231.808 303.206 232.235 304.209 232.768C305.211 233.28 306.118 233.845 306.929 234.464C307.739 235.083 308.465 235.68 309.105 236.256L307.153 239.296C305.958 238.165 304.785 237.195 303.633 236.384C302.502 235.552 301.35 234.912 300.177 234.464C299.025 234.016 297.83 233.792 296.593 233.792C295.59 233.792 294.779 233.984 294.161 234.368C293.542 234.752 293.233 235.275 293.233 235.936C293.233 236.619 293.542 237.131 294.161 237.472C294.779 237.813 295.558 237.984 296.497 237.984C297.222 237.984 297.787 237.867 298.193 237.632C298.619 237.376 298.918 237.024 299.089 236.576C299.259 236.107 299.345 235.552 299.345 234.912C299.345 234.357 299.323 233.621 299.281 232.704C299.238 231.765 299.185 230.741 299.121 229.632C299.078 228.501 299.035 227.339 298.993 226.144C298.95 224.928 298.929 223.755 298.929 222.624C298.929 221.429 298.918 220.341 298.897 219.36C298.897 218.379 298.897 217.643 298.897 217.152C298.897 216.896 298.875 216.565 298.833 216.16C298.79 215.733 298.747 215.371 298.705 215.072H302.801ZM287.121 215.36C287.057 215.573 286.971 215.851 286.865 216.192C286.779 216.533 286.694 216.875 286.609 217.216C286.545 217.557 286.491 217.824 286.449 218.016C286.342 218.507 286.214 219.147 286.065 219.936C285.937 220.704 285.798 221.568 285.649 222.528C285.521 223.467 285.393 224.427 285.265 225.408C285.158 226.389 285.062 227.328 284.977 228.224C284.913 229.12 284.881 229.899 284.881 230.56C284.881 230.987 284.891 231.445 284.913 231.936C284.955 232.405 285.009 232.864 285.073 233.312C285.222 232.907 285.382 232.491 285.553 232.064C285.745 231.637 285.926 231.221 286.097 230.816C286.289 230.389 286.459 229.984 286.609 229.6L288.401 231.04C288.123 231.872 287.825 232.768 287.505 233.728C287.185 234.667 286.897 235.563 286.641 236.416C286.406 237.248 286.225 237.952 286.097 238.528C286.054 238.741 286.011 238.997 285.969 239.296C285.947 239.573 285.937 239.808 285.937 240C285.958 240.149 285.969 240.341 285.969 240.576C285.969 240.811 285.979 241.035 286.001 241.248L282.769 241.504C282.449 240.373 282.161 238.933 281.905 237.184C281.649 235.435 281.521 233.472 281.521 231.296C281.521 230.101 281.574 228.853 281.681 227.552C281.787 226.251 281.915 224.992 282.065 223.776C282.214 222.539 282.363 221.419 282.513 220.416C282.662 219.392 282.779 218.56 282.865 217.92C282.929 217.493 282.982 217.024 283.025 216.512C283.089 215.979 283.131 215.488 283.153 215.04L287.121 215.36ZM476.024 218.08C475.789 219.723 475.501 221.461 475.16 223.296C474.84 225.109 474.403 226.944 473.848 228.8C473.208 230.955 472.483 232.8 471.672 234.336C470.861 235.872 469.965 237.045 468.984 237.856C468.024 238.667 466.989 239.072 465.88 239.072C464.771 239.072 463.736 238.688 462.776 237.92C461.816 237.152 461.037 236.085 460.44 234.72C459.864 233.333 459.576 231.755 459.576 229.984C459.576 228.171 459.949 226.453 460.696 224.832C461.443 223.211 462.467 221.771 463.768 220.512C465.091 219.253 466.627 218.272 468.376 217.568C470.147 216.843 472.056 216.48 474.104 216.48C476.045 216.48 477.795 216.8 479.352 217.44C480.931 218.059 482.275 218.933 483.384 220.064C484.493 221.173 485.347 222.475 485.944 223.968C486.541 225.461 486.84 227.061 486.84 228.768C486.84 231.008 486.371 233.003 485.432 234.752C484.515 236.501 483.16 237.941 481.368 239.072C479.576 240.203 477.347 240.96 474.68 241.344L472.536 237.952C473.133 237.888 473.667 237.813 474.136 237.728C474.605 237.643 475.053 237.557 475.48 237.472C476.504 237.237 477.464 236.875 478.36 236.384C479.277 235.893 480.077 235.285 480.76 234.56C481.443 233.813 481.976 232.949 482.36 231.968C482.765 230.965 482.968 229.856 482.968 228.64C482.968 227.36 482.765 226.187 482.36 225.12C481.976 224.053 481.4 223.125 480.632 222.336C479.864 221.525 478.925 220.907 477.816 220.48C476.728 220.032 475.469 219.808 474.04 219.808C472.312 219.808 470.776 220.117 469.432 220.736C468.109 221.355 466.989 222.155 466.072 223.136C465.155 224.117 464.451 225.184 463.96 226.336C463.491 227.488 463.256 228.587 463.256 229.632C463.256 230.763 463.395 231.712 463.672 232.48C463.949 233.227 464.291 233.792 464.696 234.176C465.123 234.539 465.549 234.72 465.976 234.72C466.445 234.72 466.915 234.485 467.384 234.016C467.853 233.547 468.312 232.821 468.76 231.84C469.229 230.837 469.699 229.568 470.168 228.032C470.637 226.496 471.043 224.864 471.384 223.136C471.725 221.387 471.971 219.669 472.12 217.984L476.024 218.08ZM492.056 222.464H507.384V225.632H492.056V222.464ZM509.112 216.768H512.44V234.656H509.112V216.768ZM498.36 215.936H501.72V242.72H498.36V215.936ZM516.76 213.504H520.152V238.496C520.152 239.541 520.024 240.331 519.768 240.864C519.533 241.419 519.107 241.835 518.488 242.112C517.869 242.389 517.037 242.571 515.992 242.656C514.968 242.741 513.72 242.784 512.248 242.784C512.205 242.443 512.109 242.059 511.96 241.632C511.832 241.227 511.683 240.8 511.512 240.352C511.363 239.925 511.203 239.552 511.032 239.232C512.12 239.275 513.123 239.307 514.04 239.328C514.957 239.328 515.576 239.317 515.896 239.296C516.195 239.296 516.408 239.243 516.536 239.136C516.685 239.008 516.76 238.795 516.76 238.496V213.504ZM504.76 213.056L507.224 215.68C505.923 216.192 504.451 216.661 502.808 217.088C501.187 217.515 499.512 217.888 497.784 218.208C496.056 218.507 494.381 218.763 492.76 218.976C492.696 218.592 492.557 218.144 492.344 217.632C492.131 217.099 491.928 216.651 491.736 216.288C492.909 216.117 494.093 215.915 495.288 215.68C496.504 215.445 497.688 215.189 498.84 214.912C499.992 214.635 501.069 214.347 502.072 214.048C503.096 213.728 503.992 213.397 504.76 213.056ZM498.296 223.936L500.632 224.96C500.227 226.176 499.747 227.424 499.192 228.704C498.659 229.963 498.061 231.211 497.4 232.448C496.739 233.664 496.045 234.805 495.32 235.872C494.616 236.939 493.88 237.867 493.112 238.656C493.005 238.293 492.845 237.92 492.632 237.536C492.419 237.131 492.195 236.736 491.96 236.352C491.747 235.947 491.544 235.595 491.352 235.296C492.035 234.635 492.717 233.867 493.4 232.992C494.104 232.096 494.765 231.136 495.384 230.112C496.003 229.088 496.557 228.053 497.048 227.008C497.56 225.941 497.976 224.917 498.296 223.936ZM501.208 227.2C501.528 227.413 501.976 227.755 502.552 228.224C503.128 228.672 503.747 229.173 504.408 229.728C505.069 230.283 505.677 230.795 506.232 231.264C506.787 231.733 507.181 232.064 507.416 232.256L505.464 235.2C505.123 234.795 504.685 234.315 504.152 233.76C503.64 233.184 503.096 232.597 502.52 232C501.944 231.403 501.379 230.837 500.824 230.304C500.291 229.771 499.821 229.333 499.416 228.992L501.208 227.2ZM538.968 222.72H552.248V226.176H538.968V222.72ZM525.368 237.76H554.456V241.216H525.368V237.76ZM537.016 213.312H540.696V239.648H537.016V213.312ZM581.08 215.296C581.059 215.637 581.037 215.989 581.016 216.352C580.995 216.693 580.984 217.045 580.984 217.408C580.963 217.685 580.952 218.123 580.952 218.72C580.952 219.296 580.952 219.957 580.952 220.704C580.973 221.429 580.984 222.176 580.984 222.944C580.984 223.691 580.984 224.384 580.984 225.024C581.005 225.664 581.016 226.165 581.016 226.528C581.016 228.405 580.952 230.123 580.824 231.68C580.717 233.237 580.44 234.677 579.992 236C579.544 237.301 578.851 238.517 577.912 239.648C576.995 240.779 575.725 241.856 574.104 242.88L570.776 240.256C571.373 240.021 572.003 239.68 572.664 239.232C573.347 238.784 573.901 238.325 574.328 237.856C575.011 237.195 575.555 236.491 575.96 235.744C576.387 234.997 576.707 234.176 576.92 233.28C577.155 232.384 577.304 231.381 577.368 230.272C577.453 229.163 577.496 227.904 577.496 226.496C577.496 225.941 577.485 225.237 577.464 224.384C577.464 223.531 577.453 222.645 577.432 221.728C577.411 220.811 577.389 219.968 577.368 219.2C577.347 218.432 577.315 217.835 577.272 217.408C577.251 217.024 577.197 216.64 577.112 216.256C577.048 215.872 576.995 215.552 576.952 215.296H581.08ZM569.08 221.664C569.592 221.728 570.115 221.792 570.648 221.856C571.203 221.899 571.757 221.931 572.312 221.952C572.888 221.973 573.453 221.984 574.008 221.984C575.373 221.984 576.792 221.952 578.264 221.888C579.757 221.824 581.197 221.728 582.584 221.6C583.971 221.451 585.187 221.28 586.232 221.088L586.2 224.8C585.197 224.928 584.024 225.045 582.68 225.152C581.336 225.259 579.917 225.344 578.424 225.408C576.952 225.451 575.512 225.472 574.104 225.472C573.635 225.472 573.101 225.461 572.504 225.44C571.928 225.419 571.341 225.397 570.744 225.376C570.168 225.355 569.613 225.323 569.08 225.28V221.664ZM565.464 215.84C565.336 216.203 565.197 216.619 565.048 217.088C564.92 217.557 564.824 217.952 564.76 218.272C564.525 219.232 564.301 220.352 564.088 221.632C563.875 222.891 563.693 224.213 563.544 225.6C563.416 226.987 563.352 228.341 563.352 229.664C563.373 230.987 563.501 232.192 563.736 233.28C563.949 232.725 564.195 232.075 564.472 231.328C564.771 230.581 565.048 229.877 565.304 229.216L567.16 230.368C566.861 231.243 566.563 232.16 566.264 233.12C565.987 234.059 565.741 234.955 565.528 235.808C565.315 236.661 565.133 237.387 564.984 237.984C564.92 238.219 564.867 238.485 564.824 238.784C564.803 239.083 564.792 239.317 564.792 239.488C564.813 239.659 564.824 239.861 564.824 240.096C564.845 240.331 564.867 240.555 564.888 240.768L561.72 241.088C561.485 240.448 561.219 239.573 560.92 238.464C560.643 237.333 560.408 236.107 560.216 234.784C560.024 233.44 559.928 232.107 559.928 230.784C559.928 229.035 559.992 227.349 560.12 225.728C560.248 224.107 560.397 222.635 560.568 221.312C560.739 219.968 560.888 218.859 561.016 217.984C561.08 217.557 561.123 217.12 561.144 216.672C561.165 216.203 561.187 215.787 561.208 215.424L565.464 215.84ZM583.608 214.272C583.907 214.891 584.227 215.627 584.568 216.48C584.909 217.333 585.176 218.08 585.368 218.72L583.32 219.424C583.107 218.72 582.84 217.952 582.52 217.12C582.221 216.267 581.923 215.52 581.624 214.88L583.608 214.272ZM586.872 213.248C587.171 213.867 587.491 214.613 587.832 215.488C588.195 216.341 588.483 217.077 588.696 217.696L586.68 218.368C586.445 217.664 586.168 216.896 585.848 216.064C585.528 215.232 585.208 214.507 584.888 213.888L586.872 213.248ZM590.816 247.04L604.816 208.72H606.176L592.216 247.04H590.816Z" fill="white"/>
<path d="M326.018 210.909V240H320.748V216.037H320.578L313.774 220.384V215.554L321.004 210.909H326.018ZM336.07 240L348.442 215.511V215.312H334.081V210.909H353.897V215.412L341.539 240H336.07ZM365.688 212.768L369.208 213.664C368.632 215.243 367.949 216.789 367.16 218.304C366.371 219.797 365.517 221.195 364.6 222.496C363.683 223.776 362.744 224.896 361.784 225.856C361.549 225.664 361.251 225.429 360.888 225.152C360.525 224.853 360.163 224.565 359.8 224.288C359.437 224.011 359.107 223.787 358.808 223.616C359.789 222.763 360.707 221.771 361.56 220.64C362.435 219.488 363.224 218.24 363.928 216.896C364.632 215.552 365.219 214.176 365.688 212.768ZM366.04 216.512H386.488V219.84H364.408L366.04 216.512ZM363.992 224H385.752V227.2H367.416V234.144H363.992V224ZM358.84 232.48H388.152V235.776H358.84V232.48ZM373.432 218.24H376.984V242.784H373.432V218.24ZM405.528 222.4C405.933 222.144 406.328 221.877 406.712 221.6C407.096 221.301 407.395 221.067 407.608 220.896C407.16 220.555 406.573 220.192 405.848 219.808C405.144 219.403 404.376 219.008 403.544 218.624C402.733 218.219 401.912 217.877 401.08 217.6L403.224 214.944C404.077 215.264 404.995 215.648 405.976 216.096C406.979 216.523 407.949 216.981 408.888 217.472C409.848 217.941 410.669 218.411 411.352 218.88L412.216 221.12C412.024 221.312 411.747 221.547 411.384 221.824C411.021 222.101 410.627 222.411 410.2 222.752C409.773 223.093 409.357 223.424 408.952 223.744C408.547 224.043 408.184 224.299 407.864 224.512L405.528 222.4ZM399.896 237.312C400.749 237.547 401.581 237.728 402.392 237.856C403.224 237.984 404.056 238.048 404.888 238.048C405.421 238.048 405.912 237.984 406.36 237.856C406.808 237.707 407.16 237.472 407.416 237.152C407.672 236.811 407.8 236.373 407.8 235.84C407.8 235.328 407.672 234.784 407.416 234.208C407.181 233.611 406.861 233.013 406.456 232.416C406.072 231.819 405.667 231.253 405.24 230.72C404.813 230.187 404.408 229.728 404.024 229.344C403.64 228.96 403.192 228.544 402.68 228.096C402.189 227.648 401.688 227.232 401.176 226.848L403.96 224.512C404.408 224.96 404.835 225.397 405.24 225.824C405.667 226.229 406.083 226.645 406.488 227.072C407.597 228.181 408.536 229.248 409.304 230.272C410.093 231.296 410.691 232.299 411.096 233.28C411.523 234.261 411.736 235.243 411.736 236.224C411.736 237.269 411.555 238.144 411.192 238.848C410.851 239.531 410.392 240.064 409.816 240.448C409.24 240.853 408.579 241.141 407.832 241.312C407.107 241.483 406.371 241.568 405.624 241.568C404.707 241.568 403.8 241.515 402.904 241.408C402.008 241.323 401.187 241.216 400.44 241.088L399.896 237.312ZM417.816 239.424C417.624 238.613 417.347 237.749 416.984 236.832C416.643 235.893 416.237 234.955 415.768 234.016C415.32 233.056 414.829 232.149 414.296 231.296C413.784 230.421 413.261 229.653 412.728 228.992L415.8 227.328C416.312 227.947 416.835 228.693 417.368 229.568C417.901 230.421 418.424 231.328 418.936 232.288C419.448 233.227 419.907 234.155 420.312 235.072C420.717 235.989 421.048 236.821 421.304 237.568L417.816 239.424ZM401.592 233.28C400.995 233.92 400.269 234.624 399.416 235.392C398.584 236.139 397.656 236.907 396.632 237.696C395.629 238.464 394.573 239.179 393.464 239.84L391.288 236.768C391.971 236.405 392.685 235.979 393.432 235.488C394.179 234.976 394.925 234.432 395.672 233.856C396.419 233.28 397.112 232.704 397.752 232.128C398.413 231.552 398.979 231.008 399.448 230.496L401.592 233.28ZM415.608 218.368C415.885 218.752 416.184 219.211 416.504 219.744C416.824 220.277 417.133 220.811 417.432 221.344C417.731 221.877 417.976 222.357 418.168 222.784L415.864 223.776C415.523 223.115 415.117 222.368 414.648 221.536C414.179 220.683 413.731 219.947 413.304 219.328L415.608 218.368ZM419.32 216.96C419.619 217.365 419.928 217.835 420.248 218.368C420.589 218.901 420.909 219.435 421.208 219.968C421.528 220.501 421.773 220.96 421.944 221.344L419.64 222.336C419.299 221.653 418.893 220.896 418.424 220.064C417.955 219.232 417.496 218.517 417.048 217.92L419.32 216.96ZM435.416 214.432C435.288 214.88 435.149 215.424 435 216.064C434.872 216.683 434.744 217.333 434.616 218.016C434.488 218.699 434.371 219.371 434.264 220.032C434.179 220.672 434.115 221.237 434.072 221.728C434.456 221.045 434.915 220.363 435.448 219.68C435.981 218.997 436.6 218.379 437.304 217.824C438.008 217.248 438.765 216.789 439.576 216.448C440.408 216.107 441.283 215.936 442.2 215.936C443.672 215.936 444.995 216.395 446.168 217.312C447.341 218.229 448.259 219.531 448.92 221.216C449.603 222.901 449.944 224.907 449.944 227.232C449.944 229.472 449.613 231.435 448.952 233.12C448.291 234.784 447.352 236.213 446.136 237.408C444.92 238.581 443.459 239.531 441.752 240.256C440.045 241.003 438.157 241.568 436.088 241.952L433.912 238.624C435.661 238.368 437.283 237.995 438.776 237.504C440.269 236.992 441.56 236.32 442.648 235.488C443.736 234.635 444.579 233.536 445.176 232.192C445.795 230.848 446.104 229.205 446.104 227.264C446.104 225.6 445.923 224.171 445.56 222.976C445.197 221.781 444.675 220.875 443.992 220.256C443.331 219.616 442.52 219.296 441.56 219.296C440.6 219.296 439.683 219.616 438.808 220.256C437.933 220.875 437.144 221.685 436.44 222.688C435.757 223.669 435.203 224.736 434.776 225.888C434.371 227.04 434.136 228.149 434.072 229.216C434.029 229.707 434.019 230.229 434.04 230.784C434.061 231.339 434.115 231.989 434.2 232.736L430.68 232.992C430.595 232.373 430.509 231.605 430.424 230.688C430.339 229.771 430.296 228.789 430.296 227.744C430.296 226.976 430.317 226.165 430.36 225.312C430.424 224.437 430.499 223.552 430.584 222.656C430.669 221.739 430.765 220.832 430.872 219.936C431 219.04 431.117 218.208 431.224 217.44C431.288 216.864 431.341 216.299 431.384 215.744C431.427 215.189 431.459 214.699 431.48 214.272L435.416 214.432Z" fill="#F5A210"/>
</svg>
