<svg width="347" height="8" viewBox="0 0 347 8" fill="none" xmlns="http://www.w3.org/2000/svg">
<circle cx="3.64973" cy="3.64973" r="3.64973" transform="matrix(-1 0 0 1 7.29944 0)" fill="#F5A210"/>
<circle cx="3.64973" cy="3.64973" r="3.64973" transform="matrix(-1 0 0 1 18.77 0)" fill="#F5A210"/>
<circle cx="3.64973" cy="3.64973" r="3.64973" transform="matrix(-1 0 0 1 30.2406 0)" fill="#F5A210"/>
<circle cx="3.64973" cy="3.64973" r="3.64973" transform="matrix(-1 0 0 1 41.7112 0)" fill="#F5A210"/>
<circle cx="3.64973" cy="3.64973" r="3.64973" transform="matrix(-1 0 0 1 312.299 0)" fill="#F5A210"/>
<circle cx="3.64973" cy="3.64973" r="3.64973" transform="matrix(-1 0 0 1 323.77 0)" fill="#F5A210"/>
<circle cx="3.64973" cy="3.64973" r="3.64973" transform="matrix(-1 0 0 1 335.241 0)" fill="#F5A210"/>
<circle cx="3.64973" cy="3.64973" r="3.64973" transform="matrix(-1 0 0 1 346.711 0)" fill="#F5A210"/>
<line x1="47" y1="2.8843" x2="300" y2="2.8843" stroke="#AFBC34" stroke-width="2.04"/>
</svg>
