<svg width="368" height="762" viewBox="0 0 368 762" fill="none" xmlns="http://www.w3.org/2000/svg">
<path d="M364 156H4C1.79086 156 0 157.791 0 160V758C0 760.209 1.79086 762 4 762H364C366.209 762 368 760.209 368 758V160C368 157.791 366.209 156 364 156Z" fill="white"/>
<path d="M361.458 82H6.54222C2.92905 82 0 84.9291 0 88.5422V140.88C0 144.493 2.92905 147.422 6.54222 147.422H361.458C365.071 147.422 368 144.493 368 140.88V88.5422C368 84.9291 365.071 82 361.458 82Z" fill="#006837"/>
<path d="M124.456 107.696H132.64V110.504H124.456V107.696ZM113.032 105.968H125.152V108.632H113.032V105.968ZM116.2 110.912H121.96V113.48H116.2V110.912ZM116.2 115.904H121.96V118.472H116.2V115.904ZM131.848 107.696H132.352L132.856 107.6L134.728 108.08C134.424 111.328 133.864 114.16 133.048 116.576C132.248 118.992 131.2 121.056 129.904 122.768C128.608 124.48 127.048 125.888 125.224 126.992C125.016 126.624 124.728 126.2 124.36 125.72C124.008 125.256 123.672 124.896 123.352 124.64C124.952 123.792 126.336 122.6 127.504 121.064C128.672 119.512 129.624 117.664 130.36 115.52C131.112 113.36 131.608 110.96 131.848 108.32V107.696ZM127.288 110.576C127.672 112.64 128.224 114.584 128.944 116.408C129.664 118.232 130.576 119.848 131.68 121.256C132.784 122.664 134.104 123.784 135.64 124.616C135.432 124.792 135.192 125.016 134.92 125.288C134.664 125.576 134.424 125.864 134.2 126.152C133.976 126.456 133.792 126.736 133.648 126.992C131.968 125.968 130.536 124.68 129.352 123.128C128.184 121.576 127.216 119.784 126.448 117.752C125.68 115.72 125.04 113.504 124.528 111.104L127.288 110.576ZM114.688 107.048H117.424V122.744H114.688V107.048ZM120.856 107.048H123.616V127.136H120.856V107.048ZM112.456 121.688C113.256 121.608 114.16 121.504 115.168 121.376C116.192 121.248 117.272 121.104 118.408 120.944C119.56 120.784 120.696 120.624 121.816 120.464L121.96 123.104C120.408 123.376 118.84 123.64 117.256 123.896C115.672 124.136 114.256 124.36 113.008 124.568L112.456 121.688ZM144.664 105.728C144.584 106.016 144.496 106.376 144.4 106.808C144.304 107.24 144.208 107.696 144.112 108.176C144.016 108.64 143.928 109.096 143.848 109.544C143.784 109.992 143.736 110.384 143.704 110.72C143.992 110.24 144.336 109.776 144.736 109.328C145.136 108.864 145.584 108.448 146.08 108.08C146.592 107.696 147.144 107.392 147.736 107.168C148.344 106.944 148.984 106.832 149.656 106.832C150.776 106.832 151.784 107.176 152.68 107.864C153.576 108.552 154.28 109.536 154.792 110.816C155.32 112.096 155.584 113.616 155.584 115.376C155.584 117.072 155.336 118.56 154.84 119.84C154.344 121.104 153.632 122.184 152.704 123.08C151.776 123.976 150.664 124.704 149.368 125.264C148.088 125.84 146.656 126.272 145.072 126.56L143.248 123.776C144.576 123.568 145.792 123.288 146.896 122.936C148.016 122.568 148.976 122.072 149.776 121.448C150.592 120.824 151.216 120.024 151.648 119.048C152.096 118.056 152.32 116.84 152.32 115.4C152.32 114.168 152.192 113.128 151.936 112.28C151.68 111.416 151.304 110.76 150.808 110.312C150.328 109.864 149.752 109.64 149.08 109.64C148.376 109.64 147.704 109.872 147.064 110.336C146.424 110.8 145.848 111.408 145.336 112.16C144.84 112.896 144.44 113.696 144.136 114.56C143.848 115.424 143.688 116.256 143.656 117.056C143.64 117.392 143.632 117.76 143.632 118.16C143.648 118.56 143.696 119.04 143.776 119.6L140.824 119.792C140.76 119.328 140.688 118.752 140.608 118.064C140.544 117.36 140.512 116.6 140.512 115.784C140.512 115.224 140.528 114.624 140.56 113.984C140.608 113.344 140.656 112.696 140.704 112.04C140.768 111.368 140.84 110.696 140.92 110.024C141.016 109.352 141.104 108.712 141.184 108.104C141.248 107.64 141.296 107.184 141.328 106.736C141.36 106.288 141.376 105.904 141.376 105.584L144.664 105.728ZM169.096 105.68H177.592V108.344H169.096V105.68ZM176.656 105.68H176.968L177.4 105.56L179.392 105.8C179.28 106.744 179.136 107.76 178.96 108.848C178.784 109.92 178.6 110.992 178.408 112.064C178.216 113.136 178.024 114.152 177.832 115.112L175.192 114.824C175.336 114.104 175.48 113.336 175.624 112.52C175.768 111.704 175.904 110.896 176.032 110.096C176.176 109.28 176.296 108.52 176.392 107.816C176.504 107.096 176.592 106.48 176.656 105.968V105.68ZM177.592 111.704H180.664V114.248H177.16L177.592 111.704ZM180.088 111.704H180.592L181.072 111.584L182.896 112.208C182.464 114.816 181.768 117.08 180.808 119C179.848 120.904 178.664 122.504 177.256 123.8C175.864 125.096 174.264 126.152 172.456 126.968C172.28 126.632 172.032 126.24 171.712 125.792C171.392 125.344 171.088 124.984 170.8 124.712C172.384 124.12 173.808 123.248 175.072 122.096C176.336 120.928 177.4 119.52 178.264 117.872C179.128 116.208 179.736 114.32 180.088 112.208V111.704ZM170.656 106.736L173.464 106.784C173.432 108.992 173.352 111.072 173.224 113.024C173.112 114.976 172.912 116.8 172.624 118.496C172.352 120.192 171.96 121.752 171.448 123.176C170.952 124.6 170.288 125.872 169.456 126.992C169.312 126.832 169.088 126.632 168.784 126.392C168.48 126.152 168.168 125.912 167.848 125.672C167.528 125.432 167.256 125.248 167.032 125.12C168.088 123.84 168.872 122.28 169.384 120.44C169.896 118.584 170.232 116.504 170.392 114.2C170.568 111.88 170.656 109.392 170.656 106.736ZM173.296 111.2C173.76 113.328 174.408 115.288 175.24 117.08C176.072 118.856 177.16 120.392 178.504 121.688C179.848 122.968 181.496 123.944 183.448 124.616C183.24 124.792 183.008 125.032 182.752 125.336C182.512 125.64 182.28 125.952 182.056 126.272C181.848 126.592 181.664 126.888 181.504 127.16C179.488 126.312 177.816 125.144 176.488 123.656C175.16 122.168 174.08 120.408 173.248 118.376C172.416 116.328 171.752 114.064 171.256 111.584L173.296 111.2ZM160.48 116.864C161.232 116.704 162.08 116.512 163.024 116.288C163.984 116.064 164.984 115.824 166.024 115.568C167.08 115.296 168.136 115.024 169.192 114.752L169.528 117.392C168.088 117.792 166.632 118.184 165.16 118.568C163.704 118.952 162.376 119.304 161.176 119.624L160.48 116.864ZM160.888 109.136H169.168V111.8H160.888V109.136ZM163.912 104.6H166.744V124.04C166.744 124.744 166.664 125.288 166.504 125.672C166.36 126.056 166.08 126.368 165.664 126.608C165.264 126.816 164.768 126.952 164.176 127.016C163.584 127.08 162.864 127.112 162.016 127.112C161.968 126.744 161.864 126.304 161.704 125.792C161.56 125.28 161.4 124.84 161.224 124.472C161.688 124.488 162.136 124.504 162.568 124.52C163 124.52 163.296 124.52 163.456 124.52C163.616 124.504 163.728 124.464 163.792 124.4C163.872 124.336 163.912 124.224 163.912 124.064V104.6ZM190.24 107.84C190.176 108.128 190.12 108.456 190.072 108.824C190.04 109.192 190.008 109.552 189.976 109.904C189.96 110.256 189.952 110.544 189.952 110.768C189.936 111.296 189.928 111.84 189.928 112.4C189.944 112.96 189.96 113.536 189.976 114.128C190.008 114.704 190.048 115.28 190.096 115.856C190.208 117.008 190.368 118.024 190.576 118.904C190.784 119.784 191.056 120.472 191.392 120.968C191.728 121.448 192.152 121.688 192.664 121.688C192.936 121.688 193.2 121.536 193.456 121.232C193.728 120.928 193.968 120.536 194.176 120.056C194.4 119.56 194.592 119.04 194.752 118.496C194.928 117.952 195.08 117.44 195.208 116.96L197.608 119.888C197.08 121.28 196.552 122.392 196.024 123.224C195.512 124.04 194.976 124.632 194.416 125C193.856 125.352 193.248 125.528 192.592 125.528C191.728 125.528 190.904 125.24 190.12 124.664C189.352 124.088 188.696 123.16 188.152 121.88C187.608 120.584 187.224 118.864 187 116.72C186.92 115.984 186.856 115.208 186.808 114.392C186.776 113.576 186.752 112.8 186.736 112.064C186.736 111.328 186.736 110.72 186.736 110.24C186.736 109.904 186.72 109.504 186.688 109.04C186.656 108.576 186.608 108.16 186.544 107.792L190.24 107.84ZM202.24 108.392C202.688 108.936 203.12 109.6 203.536 110.384C203.952 111.168 204.336 112.008 204.688 112.904C205.04 113.8 205.352 114.72 205.624 115.664C205.896 116.592 206.112 117.504 206.272 118.4C206.448 119.28 206.56 120.088 206.608 120.824L203.44 122.048C203.36 121.072 203.216 120.008 203.008 118.856C202.8 117.704 202.52 116.544 202.168 115.376C201.816 114.208 201.392 113.104 200.896 112.064C200.416 111.024 199.848 110.128 199.192 109.376L202.24 108.392ZM220.384 104.6L223 105.104C222.696 106.432 222.328 107.728 221.896 108.992C221.464 110.24 220.968 111.408 220.408 112.496C219.848 113.568 219.24 114.512 218.584 115.328C218.44 115.168 218.232 114.992 217.96 114.8C217.688 114.592 217.408 114.392 217.12 114.2C216.848 113.992 216.616 113.824 216.424 113.696C217.064 112.992 217.632 112.16 218.128 111.2C218.64 110.24 219.08 109.2 219.448 108.08C219.832 106.944 220.144 105.784 220.384 104.6ZM228.448 108.344H231.184C231.184 108.344 231.176 108.432 231.16 108.608C231.16 108.768 231.16 108.952 231.16 109.16C231.16 109.368 231.152 109.528 231.136 109.64C231.024 112.344 230.904 114.64 230.776 116.528C230.664 118.416 230.536 119.976 230.392 121.208C230.264 122.424 230.112 123.384 229.936 124.088C229.76 124.776 229.56 125.272 229.336 125.576C229.048 125.976 228.76 126.264 228.472 126.44C228.184 126.616 227.84 126.744 227.44 126.824C227.104 126.888 226.696 126.92 226.216 126.92C225.736 126.936 225.232 126.928 224.704 126.896C224.672 126.48 224.584 126.008 224.44 125.48C224.312 124.952 224.136 124.488 223.912 124.088C224.36 124.136 224.776 124.168 225.16 124.184C225.544 124.184 225.848 124.184 226.072 124.184C226.264 124.184 226.416 124.152 226.528 124.088C226.656 124.024 226.792 123.904 226.936 123.728C227.096 123.536 227.248 123.136 227.392 122.528C227.536 121.904 227.672 121.016 227.8 119.864C227.928 118.712 228.04 117.248 228.136 115.472C228.248 113.68 228.352 111.512 228.448 108.968V108.344ZM221.104 108.344H229.672V111.008H219.808L221.104 108.344ZM222.808 109.208L224.896 110.24C224.576 111.616 224.136 113.024 223.576 114.464C223.016 115.888 222.36 117.224 221.608 118.472C220.872 119.72 220.072 120.752 219.208 121.568C218.936 121.312 218.592 121.032 218.176 120.728C217.76 120.408 217.36 120.152 216.976 119.96C217.68 119.416 218.336 118.744 218.944 117.944C219.552 117.128 220.104 116.24 220.6 115.28C221.096 114.304 221.528 113.304 221.896 112.28C222.264 111.24 222.568 110.216 222.808 109.208ZM226.144 109.496L228.376 110.528C228.072 112.08 227.688 113.632 227.224 115.184C226.776 116.736 226.232 118.224 225.592 119.648C224.968 121.072 224.248 122.384 223.432 123.584C222.616 124.768 221.704 125.768 220.696 126.584C220.424 126.312 220.064 126.016 219.616 125.696C219.184 125.376 218.768 125.112 218.368 124.904C219.408 124.152 220.344 123.224 221.176 122.12C222.024 121 222.768 119.76 223.408 118.4C224.048 117.024 224.592 115.584 225.04 114.08C225.488 112.56 225.856 111.032 226.144 109.496ZM208.648 117.704C209.432 117.512 210.32 117.288 211.312 117.032C212.32 116.776 213.376 116.496 214.48 116.192C215.6 115.872 216.712 115.56 217.816 115.256L218.176 117.776C216.672 118.256 215.136 118.736 213.568 119.216C212.016 119.68 210.608 120.096 209.344 120.464L208.648 117.704ZM212.944 104.624H215.584V127.16H212.944V104.624ZM209.776 105.992L212.2 106.376C212.088 107.432 211.952 108.496 211.792 109.568C211.632 110.624 211.44 111.624 211.216 112.568C210.992 113.512 210.736 114.344 210.448 115.064C210.304 114.952 210.104 114.816 209.848 114.656C209.592 114.48 209.336 114.312 209.08 114.152C208.824 113.976 208.6 113.848 208.408 113.768C208.664 113.112 208.88 112.368 209.056 111.536C209.248 110.688 209.4 109.792 209.512 108.848C209.64 107.888 209.728 106.936 209.776 105.992ZM210.448 109.256H217.6V111.992H209.896L210.448 109.256ZM246.088 104.912H249.016V127.136H246.088V104.912ZM242.008 105.944L244.792 106.496C244.568 107.584 244.296 108.664 243.976 109.736C243.656 110.808 243.296 111.816 242.896 112.76C242.512 113.688 242.104 114.504 241.672 115.208C241.496 115.064 241.248 114.904 240.928 114.728C240.624 114.552 240.312 114.384 239.992 114.224C239.688 114.048 239.416 113.92 239.176 113.84C239.608 113.2 240.008 112.456 240.376 111.608C240.744 110.744 241.064 109.832 241.336 108.872C241.608 107.896 241.832 106.92 242.008 105.944ZM242.944 109.256H254.056V112.088H242.224L242.944 109.256ZM239.584 116.24H255.184V119.048H239.584V116.24ZM237.808 104.696L240.544 105.56C240.032 106.904 239.432 108.264 238.744 109.64C238.056 111 237.304 112.288 236.488 113.504C235.688 114.72 234.856 115.792 233.992 116.72C233.896 116.48 233.76 116.176 233.584 115.808C233.408 115.424 233.216 115.04 233.008 114.656C232.8 114.272 232.608 113.96 232.432 113.72C233.152 112.984 233.84 112.136 234.496 111.176C235.168 110.216 235.784 109.184 236.344 108.08C236.92 106.976 237.408 105.848 237.808 104.696ZM235.432 111.344L238.168 108.608V108.632V127.112H235.432V111.344Z" fill="white"/>
<mask id="mask0_2003_19" style="mask-type:luminance" maskUnits="userSpaceOnUse" x="5" y="0" width="358" height="78">
<path d="M5 0H362.534V77.954H5V0Z" fill="white"/>
</mask>
<g mask="url(#mask0_2003_19)">
<path d="M314.631 21.991H299.442V14.5852H303.411V6.10352e-05H264.633V14.593H269.176V21.9988H96.6551L5.14746 77.9462H237.517L307.954 26.8397L351.065 70.9582H362.394L314.631 21.991ZM114.122 69.1038H80.655L80.6706 43.2401H72.0731L98.4359 30.8334L128.034 43.2401H158.025L114.122 69.1038ZM217.063 68.5885H183.6L183.616 42.7248H175.022L201.381 30.3181L230.98 42.7248H260.97L217.063 68.5885Z" fill="#006837"/>
</g>
<rect x="64.5" y="193.5" width="109" height="99" rx="3.5" fill="#AFBC34" stroke="#869026"/>
<circle cx="119" cy="243" r="33" fill="#869026"/>
<path d="M94.248 238.92C94.1307 239.048 94.024 239.165 93.928 239.272C93.8427 239.379 93.768 239.485 93.704 239.592C93.384 240.104 93.0053 240.659 92.568 241.256C92.1307 241.853 91.6453 242.456 91.112 243.064C90.5787 243.672 90.0133 244.259 89.416 244.824C88.8293 245.389 88.2213 245.901 87.592 246.36L86.008 244.872C86.5413 244.509 87.0427 244.109 87.512 243.672C87.992 243.224 88.4347 242.771 88.84 242.312C89.256 241.853 89.624 241.405 89.944 240.968C90.264 240.531 90.5307 240.131 90.744 239.768C90.5307 239.768 90.248 239.768 89.896 239.768C89.544 239.768 89.1333 239.768 88.664 239.768C88.2053 239.768 87.72 239.768 87.208 239.768C86.696 239.768 86.184 239.768 85.672 239.768C85.1707 239.768 84.6907 239.768 84.232 239.768C83.784 239.768 83.3893 239.768 83.048 239.768C82.7173 239.768 82.4613 239.768 82.28 239.768C82.0667 239.768 81.8373 239.773 81.592 239.784C81.3573 239.795 81.1333 239.811 80.92 239.832C80.7067 239.853 80.5467 239.869 80.44 239.88V237.64C80.5787 237.651 80.7547 237.672 80.968 237.704C81.192 237.736 81.4213 237.757 81.656 237.768C81.8907 237.779 82.0987 237.784 82.28 237.784C82.4187 237.784 82.6533 237.784 82.984 237.784C83.3253 237.784 83.7253 237.784 84.184 237.784C84.6427 237.784 85.1333 237.784 85.656 237.784C86.1893 237.784 86.7227 237.784 87.256 237.784C87.8 237.784 88.3227 237.784 88.824 237.784C89.3253 237.784 89.7733 237.784 90.168 237.784C90.5733 237.784 90.904 237.784 91.16 237.784C91.7893 237.784 92.2853 237.725 92.648 237.608L94.248 238.92ZM85.8 246.584C85.5653 246.349 85.2933 246.093 84.984 245.816C84.6853 245.528 84.3707 245.24 84.04 244.952C83.72 244.664 83.4053 244.397 83.096 244.152C82.7973 243.896 82.5253 243.683 82.28 243.512L83.976 242.152C84.1893 242.312 84.44 242.509 84.728 242.744C85.0267 242.979 85.3413 243.235 85.672 243.512C86.0027 243.789 86.3387 244.077 86.68 244.376C87.0213 244.675 87.3467 244.968 87.656 245.256C88.008 245.597 88.3707 245.965 88.744 246.36C89.128 246.755 89.4907 247.139 89.832 247.512C90.184 247.885 90.4827 248.232 90.728 248.552L88.856 250.04C88.632 249.741 88.344 249.395 87.992 249C87.6507 248.595 87.288 248.179 86.904 247.752C86.52 247.325 86.152 246.936 85.8 246.584ZM98.856 236.84C99.1333 237.032 99.4587 237.267 99.832 237.544C100.205 237.821 100.589 238.125 100.984 238.456C101.389 238.776 101.768 239.091 102.12 239.4C102.472 239.709 102.76 239.987 102.984 240.232L101.352 241.896C101.149 241.672 100.883 241.405 100.552 241.096C100.221 240.787 99.864 240.467 99.48 240.136C99.096 239.805 98.7173 239.491 98.344 239.192C97.9707 238.893 97.64 238.643 97.352 238.44L98.856 236.84ZM96.856 247.496C97.688 247.379 98.472 247.213 99.208 247C99.944 246.787 100.627 246.541 101.256 246.264C101.885 245.987 102.461 245.699 102.984 245.4C103.891 244.856 104.723 244.237 105.48 243.544C106.237 242.851 106.899 242.131 107.464 241.384C108.029 240.627 108.477 239.891 108.808 239.176L110.056 241.432C109.651 242.147 109.149 242.861 108.552 243.576C107.965 244.291 107.299 244.973 106.552 245.624C105.805 246.264 105 246.84 104.136 247.352C103.592 247.683 103.005 247.997 102.376 248.296C101.747 248.584 101.08 248.84 100.376 249.064C99.6827 249.299 98.9573 249.48 98.2 249.608L96.856 247.496ZM115.944 236.328C116.2 236.477 116.493 236.653 116.824 236.856C117.155 237.059 117.491 237.267 117.832 237.48C118.184 237.693 118.509 237.901 118.808 238.104C119.117 238.296 119.379 238.467 119.592 238.616L118.392 240.392C118.179 240.232 117.917 240.051 117.608 239.848C117.299 239.645 116.979 239.437 116.648 239.224C116.317 239.011 115.987 238.808 115.656 238.616C115.336 238.413 115.043 238.237 114.776 238.088L115.944 236.328ZM112.968 247.688C113.576 247.581 114.184 247.453 114.792 247.304C115.411 247.144 116.024 246.947 116.632 246.712C117.251 246.477 117.848 246.205 118.424 245.896C119.331 245.384 120.173 244.808 120.952 244.168C121.741 243.528 122.445 242.845 123.064 242.12C123.693 241.395 124.221 240.653 124.648 239.896L125.88 242.072C125.133 243.181 124.211 244.227 123.112 245.208C122.024 246.189 120.824 247.059 119.512 247.816C118.968 248.125 118.371 248.413 117.72 248.68C117.08 248.947 116.445 249.176 115.816 249.368C115.197 249.571 114.648 249.715 114.168 249.8L112.968 247.688ZM113.48 239.976C113.747 240.125 114.045 240.301 114.376 240.504C114.717 240.696 115.059 240.899 115.4 241.112C115.741 241.325 116.061 241.528 116.36 241.72C116.669 241.912 116.925 242.083 117.128 242.232L115.96 244.024C115.725 243.864 115.459 243.688 115.16 243.496C114.861 243.293 114.541 243.085 114.2 242.872C113.869 242.648 113.539 242.44 113.208 242.248C112.888 242.056 112.589 241.891 112.312 241.752L113.48 239.976ZM130.408 239.96C130.547 239.971 130.733 239.987 130.968 240.008C131.203 240.019 131.448 240.029 131.704 240.04C131.96 240.04 132.189 240.04 132.392 240.04C132.648 240.04 132.979 240.04 133.384 240.04C133.789 240.04 134.227 240.04 134.696 240.04C135.176 240.04 135.651 240.04 136.12 240.04C136.589 240.04 137.027 240.04 137.432 240.04C137.837 240.04 138.173 240.04 138.44 240.04C138.632 240.04 138.851 240.04 139.096 240.04C139.352 240.029 139.544 240.019 139.672 240.008C139.661 240.115 139.656 240.28 139.656 240.504C139.656 240.717 139.656 240.909 139.656 241.08C139.656 241.197 139.656 241.443 139.656 241.816C139.656 242.179 139.656 242.627 139.656 243.16C139.656 243.693 139.656 244.259 139.656 244.856C139.656 245.453 139.656 246.04 139.656 246.616C139.656 247.181 139.656 247.688 139.656 248.136C139.656 248.573 139.656 248.899 139.656 249.112C139.656 249.24 139.656 249.416 139.656 249.64C139.667 249.875 139.672 250.061 139.672 250.2H137.656C137.667 250.061 137.672 249.869 137.672 249.624C137.672 249.379 137.672 249.176 137.672 249.016C137.672 248.739 137.672 248.387 137.672 247.96C137.672 247.523 137.672 247.053 137.672 246.552C137.672 246.04 137.672 245.528 137.672 245.016C137.672 244.493 137.672 244.008 137.672 243.56C137.672 243.112 137.672 242.739 137.672 242.44C137.672 242.131 137.672 241.928 137.672 241.832C137.576 241.832 137.405 241.832 137.16 241.832C136.915 241.832 136.632 241.832 136.312 241.832C135.992 241.832 135.645 241.832 135.272 241.832C134.909 241.832 134.547 241.832 134.184 241.832C133.832 241.832 133.496 241.832 133.176 241.832C132.867 241.832 132.605 241.832 132.392 241.832C132.189 241.832 131.96 241.837 131.704 241.848C131.448 241.848 131.197 241.853 130.952 241.864C130.717 241.875 130.536 241.885 130.408 241.896V239.96ZM130.824 243.72C131.037 243.731 131.304 243.741 131.624 243.752C131.955 243.763 132.269 243.768 132.568 243.768C132.696 243.768 132.92 243.768 133.24 243.768C133.571 243.768 133.949 243.768 134.376 243.768C134.813 243.768 135.261 243.768 135.72 243.768C136.179 243.768 136.611 243.768 137.016 243.768C137.432 243.768 137.784 243.768 138.072 243.768C138.36 243.768 138.536 243.768 138.6 243.768V245.576C138.525 245.576 138.344 245.576 138.056 245.576C137.779 245.576 137.432 245.576 137.016 245.576C136.611 245.576 136.179 245.576 135.72 245.576C135.261 245.576 134.813 245.576 134.376 245.576C133.949 245.576 133.576 245.576 133.256 245.576C132.936 245.576 132.707 245.576 132.568 245.576C132.269 245.576 131.949 245.581 131.608 245.592C131.277 245.592 131.016 245.597 130.824 245.608V243.72ZM130.232 247.64C130.371 247.651 130.563 247.667 130.808 247.688C131.053 247.699 131.325 247.704 131.624 247.704C131.784 247.704 132.051 247.704 132.424 247.704C132.797 247.704 133.224 247.704 133.704 247.704C134.195 247.704 134.701 247.704 135.224 247.704C135.747 247.704 136.243 247.704 136.712 247.704C137.192 247.704 137.603 247.704 137.944 247.704C138.285 247.704 138.509 247.704 138.616 247.704V249.56C138.477 249.56 138.232 249.56 137.88 249.56C137.528 249.56 137.112 249.56 136.632 249.56C136.163 249.56 135.672 249.56 135.16 249.56C134.648 249.56 134.152 249.56 133.672 249.56C133.192 249.56 132.765 249.56 132.392 249.56C132.029 249.56 131.768 249.56 131.608 249.56C131.384 249.56 131.133 249.565 130.856 249.576C130.579 249.587 130.371 249.597 130.232 249.608V247.64ZM146.856 236.84C147.133 237.032 147.459 237.267 147.832 237.544C148.205 237.821 148.589 238.125 148.984 238.456C149.389 238.776 149.768 239.091 150.12 239.4C150.472 239.709 150.76 239.987 150.984 240.232L149.352 241.896C149.149 241.672 148.883 241.405 148.552 241.096C148.221 240.787 147.864 240.467 147.48 240.136C147.096 239.805 146.717 239.491 146.344 239.192C145.971 238.893 145.64 238.643 145.352 238.44L146.856 236.84ZM144.856 247.496C145.688 247.379 146.472 247.213 147.208 247C147.944 246.787 148.627 246.541 149.256 246.264C149.885 245.987 150.461 245.699 150.984 245.4C151.891 244.856 152.723 244.237 153.48 243.544C154.237 242.851 154.899 242.131 155.464 241.384C156.029 240.627 156.477 239.891 156.808 239.176L158.056 241.432C157.651 242.147 157.149 242.861 156.552 243.576C155.965 244.291 155.299 244.973 154.552 245.624C153.805 246.264 153 246.84 152.136 247.352C151.592 247.683 151.005 247.997 150.376 248.296C149.747 248.584 149.08 248.84 148.376 249.064C147.683 249.299 146.957 249.48 146.2 249.608L144.856 247.496Z" fill="white"/>
<rect x="194.5" y="193.5" width="109" height="99" rx="3.5" fill="#AFBC34" stroke="#869026"/>
<circle cx="249" cy="243" r="33" fill="#869026"/>
<path d="M240.088 240.856H246.136V242.536H240.088V240.856ZM236.664 248.168H244.184V249.848H236.664V248.168ZM239.16 239.352H241.112V245.288H239.16V239.352ZM235.656 244.296H245.208V250.424H243.24V245.976H237.528V250.424H235.656V244.296ZM238.504 235.4H240.504V238.328H238.504V235.4ZM233.704 237.288H246.36V239.112H233.704V237.288ZM232.776 237.288H234.696V241.32C234.696 241.971 234.669 242.691 234.616 243.48C234.573 244.259 234.493 245.064 234.376 245.896C234.259 246.717 234.088 247.517 233.864 248.296C233.651 249.075 233.363 249.779 233 250.408C232.883 250.301 232.717 250.173 232.504 250.024C232.301 249.885 232.093 249.747 231.88 249.608C231.667 249.48 231.485 249.384 231.336 249.32C231.667 248.744 231.928 248.115 232.12 247.432C232.312 246.749 232.451 246.051 232.536 245.336C232.632 244.621 232.696 243.923 232.728 243.24C232.76 242.547 232.776 241.907 232.776 241.32V237.288ZM257.873 237.512H265.985V239.176H257.873V237.512ZM258.881 242.856H265.041V244.408H258.881V242.856ZM258.881 245.448H265.041V246.984H258.881V245.448ZM261.057 235.384H262.769V250.296H261.057V235.384ZM264.081 240.232H265.761V248.6C265.761 248.963 265.724 249.261 265.649 249.496C265.585 249.731 265.441 249.923 265.217 250.072C265.004 250.211 264.753 250.296 264.465 250.328C264.188 250.371 263.852 250.392 263.457 250.392C263.436 250.157 263.377 249.88 263.281 249.56C263.196 249.251 263.1 248.984 262.993 248.76C263.185 248.771 263.366 248.776 263.537 248.776C263.718 248.776 263.836 248.771 263.889 248.76C264.017 248.76 264.081 248.696 264.081 248.568V240.232ZM258.161 240.232H265.025V241.848H259.825V250.376H258.161V240.232ZM262.977 236.264L264.097 235.416C264.406 235.608 264.732 235.837 265.073 236.104C265.414 236.36 265.681 236.6 265.873 236.824L264.705 237.768C264.534 237.544 264.284 237.293 263.953 237.016C263.622 236.728 263.297 236.477 262.977 236.264ZM251.905 245.032H257.505V250.088H255.761V246.584H253.569V250.408H251.905V245.032ZM253.809 238.84H255.553V243.352H253.809V238.84ZM252.017 240.2H257.393V241.656H252.017V240.2ZM251.489 242.76H257.745V244.312H251.489V242.76ZM252.529 248.008H256.705V249.576H252.529V248.008ZM253.601 235.4H254.641V235.768H255.201V236.28C254.881 236.867 254.47 237.533 253.969 238.28C253.468 239.027 252.833 239.752 252.065 240.456C251.969 240.328 251.846 240.184 251.697 240.024C251.558 239.853 251.409 239.693 251.249 239.544C251.1 239.395 250.961 239.277 250.833 239.192C251.494 238.627 252.054 238.008 252.513 237.336C252.982 236.653 253.345 236.008 253.601 235.4ZM253.937 235.4H255.233C255.564 235.677 255.905 235.987 256.257 236.328C256.609 236.669 256.934 237.011 257.233 237.352C257.542 237.693 257.793 238.008 257.985 238.296L256.785 239.768C256.625 239.48 256.401 239.149 256.113 238.776C255.836 238.392 255.532 238.019 255.201 237.656C254.87 237.283 254.55 236.968 254.241 236.712H253.937V235.4Z" fill="white"/>
<rect x="194.5" y="303.5" width="109" height="99" rx="3.5" fill="#AFBC34" stroke="#869026"/>
<circle cx="249" cy="353" r="33" fill="#869026"/>
<path d="M231.96 345.4H233.912V358.6C233.912 359.069 233.848 359.421 233.72 359.656C233.592 359.891 233.373 360.077 233.064 360.216C232.755 360.333 232.371 360.408 231.912 360.44C231.464 360.472 230.899 360.488 230.216 360.488C230.173 360.264 230.088 360.003 229.96 359.704C229.832 359.416 229.704 359.171 229.576 358.968C229.843 358.979 230.109 358.989 230.376 359C230.643 359 230.883 359 231.096 359C231.32 359 231.475 359 231.56 359C231.709 358.989 231.811 358.957 231.864 358.904C231.928 358.851 231.96 358.749 231.96 358.6V345.4ZM225.976 346.456H240.056V347.96H225.976V346.456ZM229.448 349.832V350.584H236.504V349.832H229.448ZM227.608 348.616H238.472V351.8H227.608V348.616ZM227.224 352.52H238.744V358.776H236.792V353.816H227.224V352.52ZM225.608 354.504H240.424V355.96H225.608V354.504ZM227.096 356.696H237.848V358.088H227.096V356.696ZM241.864 346.136H247.096V347.752H241.864V346.136ZM248.264 354.376H254.76V355.96H248.264V354.376ZM241.64 351.032H247.592V352.696H241.64V351.032ZM244.248 351.72H246.056V358.36C246.056 358.797 246.008 359.149 245.912 359.416C245.827 359.683 245.645 359.891 245.368 360.04C245.091 360.179 244.765 360.269 244.392 360.312C244.019 360.355 243.587 360.376 243.096 360.376C243.064 360.109 242.995 359.8 242.888 359.448C242.781 359.107 242.664 358.808 242.536 358.552C242.845 358.563 243.139 358.568 243.416 358.568C243.693 358.568 243.885 358.568 243.992 358.568C244.088 358.557 244.152 358.541 244.184 358.52C244.227 358.488 244.248 358.424 244.248 358.328V351.72ZM254.152 354.376H256.088C256.088 354.376 256.083 354.467 256.072 354.648C256.061 354.819 256.045 354.968 256.024 355.096C255.949 356.024 255.859 356.792 255.752 357.4C255.656 357.997 255.549 358.477 255.432 358.84C255.315 359.192 255.176 359.453 255.016 359.624C254.845 359.805 254.664 359.933 254.472 360.008C254.291 360.093 254.083 360.157 253.848 360.2C253.656 360.221 253.4 360.232 253.08 360.232C252.76 360.243 252.413 360.243 252.04 360.232C252.029 359.955 251.976 359.651 251.88 359.32C251.795 358.989 251.677 358.701 251.528 358.456C251.816 358.488 252.083 358.509 252.328 358.52C252.584 358.531 252.776 358.536 252.904 358.536C253.032 358.536 253.133 358.525 253.208 358.504C253.283 358.472 253.357 358.424 253.432 358.36C253.528 358.264 253.619 358.083 253.704 357.816C253.789 357.539 253.869 357.139 253.944 356.616C254.019 356.093 254.088 355.427 254.152 354.616V354.376ZM250.76 352.936H252.664C252.589 353.757 252.477 354.541 252.328 355.288C252.189 356.024 251.955 356.712 251.624 357.352C251.293 357.992 250.829 358.573 250.232 359.096C249.645 359.619 248.877 360.067 247.928 360.44C247.821 360.216 247.661 359.955 247.448 359.656C247.235 359.368 247.027 359.133 246.824 358.952C247.656 358.653 248.317 358.296 248.808 357.88C249.309 357.453 249.688 356.984 249.944 356.472C250.211 355.96 250.397 355.405 250.504 354.808C250.621 354.211 250.707 353.587 250.76 352.936ZM242.232 349.464L243.432 348.232C243.869 348.392 244.333 348.584 244.824 348.808C245.325 349.032 245.8 349.261 246.248 349.496C246.707 349.731 247.091 349.96 247.4 350.184L246.104 351.56C245.827 351.336 245.469 351.101 245.032 350.856C244.595 350.6 244.125 350.349 243.624 350.104C243.133 349.859 242.669 349.645 242.232 349.464ZM247.128 351.032H247.368L247.624 350.952L248.792 351.32C248.664 352.045 248.499 352.792 248.296 353.56C248.104 354.328 247.901 354.984 247.688 355.528L246.392 354.92C246.541 354.451 246.68 353.88 246.808 353.208C246.947 352.536 247.053 351.901 247.128 351.304V351.032ZM253.528 347.816L255.528 348.12C255.176 349.101 254.68 349.944 254.04 350.648C253.411 351.341 252.664 351.917 251.8 352.376C250.936 352.835 249.976 353.213 248.92 353.512C248.856 353.373 248.749 353.203 248.6 353C248.461 352.797 248.312 352.6 248.152 352.408C248.003 352.205 247.864 352.045 247.736 351.928C248.717 351.725 249.597 351.448 250.376 351.096C251.165 350.744 251.827 350.301 252.36 349.768C252.904 349.224 253.293 348.573 253.528 347.816ZM250.344 345.384L252.12 345.896C251.864 346.461 251.555 347.016 251.192 347.56C250.829 348.104 250.445 348.616 250.04 349.096C249.645 349.565 249.24 349.971 248.824 350.312C248.707 350.205 248.552 350.088 248.36 349.96C248.168 349.821 247.976 349.688 247.784 349.56C247.592 349.432 247.421 349.325 247.272 349.24C247.901 348.792 248.488 348.227 249.032 347.544C249.576 346.851 250.013 346.131 250.344 345.384ZM250.552 348.232C250.925 348.829 251.411 349.373 252.008 349.864C252.616 350.355 253.315 350.776 254.104 351.128C254.904 351.469 255.768 351.731 256.696 351.912C256.568 352.029 256.424 352.189 256.264 352.392C256.115 352.584 255.971 352.781 255.832 352.984C255.693 353.187 255.576 353.368 255.48 353.528C254.499 353.283 253.597 352.936 252.776 352.488C251.965 352.04 251.235 351.501 250.584 350.872C249.944 350.243 249.405 349.528 248.968 348.728L250.552 348.232ZM244.072 351.608L245.304 352.072C245.101 352.776 244.845 353.496 244.536 354.232C244.237 354.968 243.896 355.651 243.512 356.28C243.128 356.909 242.707 357.437 242.248 357.864C242.163 357.587 242.029 357.272 241.848 356.92C241.677 356.568 241.517 356.264 241.368 356.008C241.752 355.667 242.115 355.256 242.456 354.776C242.808 354.296 243.123 353.784 243.4 353.24C243.677 352.685 243.901 352.141 244.072 351.608ZM250.296 347.032H256.28V348.616H249.528L250.296 347.032ZM246.648 346.136H247.048L247.352 346.072L248.568 346.824C248.333 347.208 248.045 347.603 247.704 348.008C247.363 348.413 246.995 348.797 246.6 349.16C246.216 349.512 245.832 349.821 245.448 350.088C245.277 349.928 245.069 349.763 244.824 349.592C244.589 349.421 244.376 349.277 244.184 349.16C244.525 348.925 244.851 348.653 245.16 348.344C245.48 348.024 245.768 347.699 246.024 347.368C246.291 347.037 246.499 346.739 246.648 346.472V346.136ZM257.848 346.2H264.952V347.928H257.848V346.2ZM266.264 350.824H272.552V352.68H266.264V350.824ZM269.224 352.12H271.112V360.44H269.224V352.12ZM265.512 346.84L267.816 347.368C267.795 347.528 267.651 347.629 267.384 347.672V351.304C267.384 351.955 267.352 352.675 267.288 353.464C267.224 354.243 267.091 355.048 266.888 355.88C266.696 356.701 266.403 357.501 266.008 358.28C265.624 359.059 265.112 359.768 264.472 360.408C264.397 360.269 264.275 360.115 264.104 359.944C263.933 359.773 263.752 359.608 263.56 359.448C263.379 359.299 263.213 359.187 263.064 359.112C263.619 358.547 264.056 357.933 264.376 357.272C264.707 356.611 264.952 355.933 265.112 355.24C265.283 354.547 265.389 353.864 265.432 353.192C265.485 352.509 265.512 351.869 265.512 351.272V346.84ZM258.36 349.144H260.184V353.24C260.184 353.773 260.168 354.36 260.136 355C260.104 355.629 260.035 356.269 259.928 356.92C259.821 357.571 259.672 358.2 259.48 358.808C259.288 359.416 259.037 359.965 258.728 360.456C258.632 360.339 258.488 360.205 258.296 360.056C258.104 359.907 257.907 359.763 257.704 359.624C257.512 359.485 257.352 359.379 257.224 359.304C257.576 358.728 257.832 358.088 257.992 357.384C258.152 356.669 258.253 355.955 258.296 355.24C258.339 354.515 258.36 353.843 258.36 353.224V349.144ZM270.776 345.56L272.456 347C271.891 347.277 271.272 347.539 270.6 347.784C269.928 348.019 269.245 348.232 268.552 348.424C267.859 348.616 267.181 348.792 266.52 348.952C266.477 348.728 266.387 348.467 266.248 348.168C266.12 347.859 265.997 347.608 265.88 347.416C266.477 347.256 267.075 347.08 267.672 346.888C268.28 346.696 268.851 346.488 269.384 346.264C269.928 346.029 270.392 345.795 270.776 345.56ZM259.416 349.144H264.632V354.6H259.416V352.888H262.776V350.856H259.416V349.144Z" fill="white"/>
<rect x="194.5" y="413.5" width="109" height="99" rx="3.5" fill="#AFBC34" stroke="#869026"/>
<circle cx="249" cy="463" r="33" fill="#869026"/>
<path d="M238.936 456.968C238.488 457.501 237.917 458.045 237.224 458.6C236.541 459.144 235.789 459.661 234.968 460.152C234.147 460.643 233.309 461.075 232.456 461.448C232.339 461.235 232.173 460.973 231.96 460.664C231.757 460.355 231.56 460.104 231.368 459.912C232.264 459.56 233.128 459.133 233.96 458.632C234.803 458.12 235.565 457.576 236.248 457C236.931 456.424 237.485 455.859 237.912 455.304H239.8C240.237 455.816 240.723 456.296 241.256 456.744C241.789 457.192 242.355 457.603 242.952 457.976C243.549 458.349 244.163 458.685 244.792 458.984C245.421 459.283 246.045 459.533 246.664 459.736C246.451 459.971 246.237 460.243 246.024 460.552C245.821 460.851 245.651 461.133 245.512 461.4C244.925 461.155 244.323 460.867 243.704 460.536C243.085 460.195 242.477 459.827 241.88 459.432C241.293 459.037 240.744 458.632 240.232 458.216C239.731 457.789 239.299 457.373 238.936 456.968ZM236.136 458.632H241.752V459.96H236.136V458.632ZM234.936 462.376H242.984V463.512H234.936V462.376ZM236.264 468.568H243.768V469.992H236.264V468.568ZM233.992 460.552H235.944V462.76C235.944 463.336 235.907 463.96 235.832 464.632C235.757 465.293 235.619 465.971 235.416 466.664C235.213 467.347 234.925 468.008 234.552 468.648C234.179 469.277 233.693 469.848 233.096 470.36C233 470.232 232.861 470.077 232.68 469.896C232.499 469.725 232.307 469.555 232.104 469.384C231.912 469.224 231.747 469.107 231.608 469.032C232.141 468.573 232.568 468.083 232.888 467.56C233.208 467.027 233.448 466.477 233.608 465.912C233.768 465.347 233.869 464.792 233.912 464.248C233.965 463.704 233.992 463.197 233.992 462.728V460.552ZM234.968 460.552H243.88V465.384H234.952V464.12H242.008V461.8H234.968V460.552ZM235.4 465.992H244.456V470.424H242.52V467.384H237.256V470.424H235.4V465.992ZM254.817 459.208H265.489V460.648H254.817V459.208ZM254.129 467.176H266.049V468.712H254.129V467.176ZM258.993 458.312H260.817V470.456H258.993V458.312ZM256.945 464.44V465.224H263.009V464.44H256.945ZM256.945 462.552V463.336H263.009V462.552H256.945ZM255.265 461.384H264.769V466.408H255.265V461.384ZM258.129 455.4H260.129V457.672H258.129V455.4ZM253.265 456.648H265.921V458.328H253.265V456.648ZM252.369 456.648H254.193V461.864C254.193 462.504 254.172 463.203 254.129 463.96C254.097 464.707 254.017 465.469 253.889 466.248C253.772 467.016 253.601 467.757 253.377 468.472C253.153 469.187 252.854 469.837 252.481 470.424C252.374 470.307 252.225 470.173 252.033 470.024C251.852 469.885 251.66 469.747 251.457 469.608C251.265 469.48 251.094 469.389 250.945 469.336C251.276 468.803 251.537 468.221 251.729 467.592C251.921 466.963 252.06 466.317 252.145 465.656C252.241 464.984 252.3 464.328 252.321 463.688C252.353 463.037 252.369 462.429 252.369 461.864V456.648Z" fill="white"/>
<rect x="194.5" y="523.5" width="109" height="99" rx="3.5" fill="#AFBC34" stroke="#869026"/>
<circle cx="249" cy="573" r="33" fill="#869026"/>
<path d="M232.28 568.168C232.195 568.275 232.088 568.413 231.96 568.584C231.832 568.744 231.731 568.883 231.656 569C231.411 569.416 231.085 569.896 230.68 570.44C230.275 570.973 229.827 571.507 229.336 572.04C228.845 572.563 228.339 573.011 227.816 573.384L226.152 572.056C226.472 571.864 226.787 571.64 227.096 571.384C227.405 571.128 227.688 570.861 227.944 570.584C228.211 570.296 228.44 570.024 228.632 569.768C228.835 569.512 228.989 569.283 229.096 569.08C228.957 569.08 228.723 569.08 228.392 569.08C228.061 569.08 227.667 569.08 227.208 569.08C226.749 569.08 226.253 569.08 225.72 569.08C225.197 569.08 224.675 569.08 224.152 569.08C223.629 569.08 223.133 569.08 222.664 569.08C222.205 569.08 221.805 569.08 221.464 569.08C221.133 569.08 220.899 569.08 220.76 569.08C220.429 569.08 220.115 569.091 219.816 569.112C219.517 569.133 219.181 569.16 218.808 569.192V566.968C219.117 567.011 219.437 567.048 219.768 567.08C220.099 567.112 220.429 567.128 220.76 567.128C220.899 567.128 221.144 567.128 221.496 567.128C221.848 567.128 222.264 567.128 222.744 567.128C223.235 567.128 223.752 567.128 224.296 567.128C224.851 567.128 225.4 567.128 225.944 567.128C226.499 567.128 227.011 567.128 227.48 567.128C227.96 567.128 228.365 567.128 228.696 567.128C229.037 567.128 229.267 567.128 229.384 567.128C229.533 567.128 229.715 567.123 229.928 567.112C230.141 567.101 230.349 567.085 230.552 567.064C230.765 567.043 230.92 567.016 231.016 566.984L232.28 568.168ZM225.752 570.328C225.752 571.117 225.736 571.88 225.704 572.616C225.672 573.352 225.581 574.061 225.432 574.744C225.293 575.416 225.064 576.056 224.744 576.664C224.435 577.272 224.003 577.848 223.448 578.392C222.893 578.936 222.184 579.437 221.32 579.896L219.448 578.376C219.704 578.291 219.976 578.179 220.264 578.04C220.552 577.891 220.84 577.709 221.128 577.496C221.64 577.144 222.051 576.771 222.36 576.376C222.68 575.981 222.925 575.555 223.096 575.096C223.267 574.627 223.384 574.12 223.448 573.576C223.512 573.021 223.544 572.419 223.544 571.768C223.544 571.523 223.539 571.288 223.528 571.064C223.517 570.829 223.485 570.584 223.432 570.328H225.752ZM245.504 567.496C245.504 567.752 245.594 567.971 245.776 568.152C245.957 568.323 246.176 568.408 246.432 568.408C246.688 568.408 246.906 568.323 247.088 568.152C247.269 567.971 247.36 567.752 247.36 567.496C247.36 567.24 247.269 567.021 247.088 566.84C246.906 566.659 246.688 566.568 246.432 566.568C246.176 566.568 245.957 566.659 245.776 566.84C245.594 567.021 245.504 567.24 245.504 567.496ZM244.512 567.496C244.512 567.144 244.597 566.824 244.768 566.536C244.949 566.237 245.184 566.003 245.472 565.832C245.76 565.661 246.08 565.576 246.432 565.576C246.784 565.576 247.104 565.661 247.392 565.832C247.68 566.003 247.909 566.237 248.08 566.536C248.261 566.824 248.352 567.144 248.352 567.496C248.352 567.837 248.261 568.152 248.08 568.44C247.909 568.728 247.68 568.963 247.392 569.144C247.104 569.315 246.784 569.4 246.432 569.4C246.08 569.4 245.76 569.315 245.472 569.144C245.184 568.963 244.949 568.728 244.768 568.44C244.597 568.152 244.512 567.837 244.512 567.496ZM235.76 574.024C235.941 573.576 236.112 573.107 236.272 572.616C236.442 572.115 236.592 571.603 236.72 571.08C236.848 570.547 236.959 570.019 237.056 569.496C237.162 568.973 237.237 568.456 237.28 567.944L239.616 568.424C239.573 568.573 239.525 568.749 239.472 568.952C239.418 569.155 239.37 569.352 239.328 569.544C239.285 569.736 239.253 569.896 239.232 570.024C239.178 570.301 239.104 570.637 239.008 571.032C238.912 571.427 238.8 571.848 238.672 572.296C238.544 572.733 238.41 573.176 238.272 573.624C238.144 574.061 238.01 574.467 237.872 574.84C237.68 575.352 237.45 575.885 237.184 576.44C236.928 576.995 236.65 577.528 236.352 578.04C236.064 578.552 235.781 579.011 235.504 579.416L233.264 578.472C233.776 577.811 234.25 577.08 234.688 576.28C235.136 575.48 235.493 574.728 235.76 574.024ZM243.664 573.688C243.504 573.261 243.328 572.808 243.136 572.328C242.944 571.848 242.741 571.368 242.528 570.888C242.314 570.408 242.106 569.955 241.904 569.528C241.701 569.101 241.514 568.733 241.344 568.424L243.472 567.736C243.632 568.045 243.818 568.419 244.032 568.856C244.245 569.293 244.458 569.757 244.672 570.248C244.885 570.728 245.093 571.208 245.296 571.688C245.498 572.168 245.68 572.6 245.84 572.984C245.978 573.336 246.128 573.752 246.288 574.232C246.458 574.712 246.629 575.213 246.8 575.736C246.981 576.248 247.146 576.749 247.296 577.24C247.456 577.731 247.589 578.173 247.696 578.568L245.328 579.336C245.189 578.707 245.029 578.067 244.848 577.416C244.666 576.765 244.474 576.125 244.272 575.496C244.08 574.867 243.877 574.264 243.664 573.688ZM250.16 571.592C250.352 571.603 250.597 571.619 250.896 571.64C251.194 571.651 251.504 571.661 251.824 571.672C252.154 571.683 252.458 571.688 252.736 571.688C253.002 571.688 253.333 571.688 253.728 571.688C254.122 571.688 254.549 571.688 255.008 571.688C255.477 571.688 255.957 571.688 256.448 571.688C256.949 571.688 257.445 571.688 257.936 571.688C258.426 571.688 258.89 571.688 259.328 571.688C259.765 571.688 260.154 571.688 260.496 571.688C260.848 571.688 261.125 571.688 261.328 571.688C261.701 571.688 262.053 571.677 262.384 571.656C262.714 571.624 262.986 571.603 263.2 571.592V574.104C263.018 574.093 262.746 574.077 262.384 574.056C262.021 574.035 261.669 574.024 261.328 574.024C261.125 574.024 260.848 574.024 260.496 574.024C260.144 574.024 259.749 574.024 259.312 574.024C258.874 574.024 258.41 574.024 257.92 574.024C257.44 574.024 256.949 574.024 256.448 574.024C255.946 574.024 255.461 574.024 254.992 574.024C254.533 574.024 254.106 574.024 253.712 574.024C253.328 574.024 253.002 574.024 252.736 574.024C252.277 574.024 251.808 574.035 251.328 574.056C250.848 574.067 250.458 574.083 250.16 574.104V571.592ZM269.712 577.464C269.712 577.261 269.712 576.931 269.712 576.472C269.712 576.003 269.712 575.464 269.712 574.856C269.712 574.237 269.712 573.592 269.712 572.92C269.712 572.248 269.712 571.603 269.712 570.984C269.712 570.355 269.712 569.8 269.712 569.32C269.712 568.84 269.712 568.488 269.712 568.264C269.712 567.987 269.696 567.667 269.664 567.304C269.642 566.941 269.605 566.621 269.552 566.344H272.048C272.016 566.621 271.984 566.931 271.952 567.272C271.92 567.603 271.904 567.933 271.904 568.264C271.904 568.563 271.904 568.968 271.904 569.48C271.904 569.992 271.904 570.563 271.904 571.192C271.904 571.811 271.904 572.445 271.904 573.096C271.904 573.736 271.904 574.355 271.904 574.952C271.904 575.549 271.904 576.072 271.904 576.52C271.904 576.957 271.904 577.272 271.904 577.464C271.904 577.613 271.909 577.827 271.92 578.104C271.93 578.371 271.952 578.648 271.984 578.936C272.016 579.224 272.037 579.48 272.048 579.704H269.552C269.594 579.384 269.632 579.011 269.664 578.584C269.696 578.157 269.712 577.784 269.712 577.464ZM271.424 570.488C271.957 570.627 272.554 570.808 273.216 571.032C273.877 571.245 274.544 571.475 275.216 571.72C275.888 571.965 276.517 572.211 277.104 572.456C277.701 572.691 278.197 572.909 278.592 573.112L277.68 575.32C277.232 575.085 276.736 574.851 276.192 574.616C275.648 574.371 275.093 574.136 274.528 573.912C273.973 573.688 273.424 573.48 272.88 573.288C272.346 573.096 271.861 572.925 271.424 572.776V570.488Z" fill="white"/>
<rect x="64.5" y="303.5" width="109" height="99" rx="3.5" fill="#AFBC34" stroke="#869026"/>
<circle cx="119" cy="353" r="33" fill="#869026"/>
<path d="M96.024 346.184H110.056V348.024H96.024V346.184ZM98.712 353.624H107.832V355.4H98.712V353.624ZM98.888 349.288H109V356.36H107.048V351.064H98.888V349.288ZM97.496 349.288H99.448V352.856C99.448 353.432 99.416 354.061 99.352 354.744C99.288 355.427 99.16 356.115 98.968 356.808C98.7867 357.501 98.52 358.168 98.168 358.808C97.8267 359.437 97.3787 360.003 96.824 360.504C96.728 360.376 96.5893 360.221 96.408 360.04C96.2267 359.859 96.0347 359.683 95.832 359.512C95.64 359.352 95.4693 359.235 95.32 359.16C95.8213 358.712 96.216 358.227 96.504 357.704C96.792 357.171 97.0053 356.627 97.144 356.072C97.2933 355.507 97.3893 354.952 97.432 354.408C97.4747 353.853 97.496 353.325 97.496 352.824V349.288ZM116.008 348.536H126.472V350.008H116.008V348.536ZM116.936 352.824H125.384V354.216H116.936V352.824ZM116.232 354.952H126.12V356.456H116.232V354.952ZM120.056 345.528H121.912V357.752H120.056V345.528ZM117.096 346.44H125.256V352.12H117.016V350.664H123.384V347.88H117.096V346.44ZM111.528 346.296H114.904V347.976H111.528V346.296ZM114.232 346.296H114.472L114.76 346.216L116.072 346.584C115.837 347.203 115.56 347.885 115.24 348.632C114.931 349.368 114.605 350.109 114.264 350.856C113.933 351.592 113.608 352.296 113.288 352.968L111.56 352.52C111.795 352.019 112.04 351.496 112.296 350.952C112.563 350.397 112.813 349.848 113.048 349.304C113.293 348.749 113.517 348.232 113.72 347.752C113.923 347.261 114.093 346.84 114.232 346.488V346.296ZM113.144 350.824H115.48V352.504H113.096L113.144 350.824ZM114.728 350.824H115.08L115.416 350.776L116.536 351.032C116.333 353.443 115.923 355.427 115.304 356.984C114.685 358.541 113.859 359.709 112.824 360.488C112.728 360.371 112.589 360.221 112.408 360.04C112.237 359.869 112.056 359.704 111.864 359.544C111.683 359.395 111.523 359.283 111.384 359.208C112.376 358.515 113.144 357.512 113.688 356.2C114.232 354.877 114.579 353.197 114.728 351.16V350.824ZM113.24 353.4C113.56 354.445 113.981 355.288 114.504 355.928C115.027 356.557 115.629 357.037 116.312 357.368C117.005 357.699 117.763 357.923 118.584 358.04C119.416 358.157 120.307 358.216 121.256 358.216C121.448 358.216 121.72 358.216 122.072 358.216C122.424 358.216 122.813 358.216 123.24 358.216C123.667 358.216 124.093 358.216 124.52 358.216C124.957 358.205 125.363 358.2 125.736 358.2C126.12 358.189 126.429 358.179 126.664 358.168C126.557 358.307 126.456 358.488 126.36 358.712C126.264 358.936 126.179 359.165 126.104 359.4C126.029 359.645 125.965 359.859 125.912 360.04H125.064H121.208C120.045 360.04 118.979 359.96 118.008 359.8C117.037 359.651 116.157 359.363 115.368 358.936C114.579 358.499 113.88 357.88 113.272 357.08C112.675 356.269 112.163 355.219 111.736 353.928L113.24 353.4ZM128.136 347.992C128.456 347.981 128.76 347.971 129.048 347.96C129.336 347.939 129.56 347.923 129.72 347.912C130.051 347.88 130.456 347.843 130.936 347.8C131.416 347.757 131.955 347.709 132.552 347.656C133.16 347.603 133.805 347.549 134.488 347.496C135.171 347.432 135.88 347.368 136.616 347.304C137.171 347.261 137.725 347.224 138.28 347.192C138.835 347.149 139.357 347.117 139.848 347.096C140.349 347.064 140.781 347.043 141.144 347.032L141.16 349.08C140.872 349.08 140.541 349.085 140.168 349.096C139.795 349.107 139.421 349.128 139.048 349.16C138.685 349.181 138.36 349.224 138.072 349.288C137.592 349.416 137.144 349.635 136.728 349.944C136.323 350.243 135.965 350.6 135.656 351.016C135.347 351.432 135.107 351.88 134.936 352.36C134.776 352.829 134.696 353.304 134.696 353.784C134.696 354.307 134.787 354.771 134.968 355.176C135.149 355.571 135.4 355.912 135.72 356.2C136.051 356.477 136.435 356.712 136.872 356.904C137.309 357.085 137.779 357.224 138.28 357.32C138.792 357.416 139.32 357.48 139.864 357.512L139.112 359.704C138.44 359.661 137.784 359.555 137.144 359.384C136.515 359.213 135.923 358.979 135.368 358.68C134.824 358.381 134.344 358.019 133.928 357.592C133.512 357.155 133.187 356.659 132.952 356.104C132.717 355.539 132.6 354.909 132.6 354.216C132.6 353.437 132.723 352.728 132.968 352.088C133.213 351.448 133.517 350.888 133.88 350.408C134.243 349.917 134.605 349.539 134.968 349.272C134.669 349.304 134.307 349.347 133.88 349.4C133.464 349.443 133.011 349.496 132.52 349.56C132.04 349.613 131.549 349.672 131.048 349.736C130.547 349.8 130.061 349.875 129.592 349.96C129.133 350.035 128.717 350.109 128.344 350.184L128.136 347.992Z" fill="white"/>
<rect x="64.5" y="413.5" width="109" height="99" rx="3.5" fill="#AFBC34" stroke="#869026"/>
<circle cx="119" cy="463" r="33" fill="#869026"/>
<path d="M102.792 460.376H115.24V462.264H102.792V460.376ZM101.736 467.864H116.312V469.752H101.736V467.864ZM107.944 455.432H110.008V469.16H107.944V455.432ZM130.513 455.4H132.305V466.696H130.513V455.4ZM125.777 461.848L134.065 458.312L134.753 459.96L126.481 463.544L125.777 461.848ZM127.361 456.952H129.185V467.32C129.185 467.629 129.206 467.864 129.249 468.024C129.302 468.173 129.409 468.275 129.569 468.328C129.74 468.381 129.985 468.408 130.305 468.408C130.401 468.408 130.55 468.408 130.753 468.408C130.966 468.408 131.201 468.408 131.457 468.408C131.724 468.408 131.985 468.408 132.241 468.408C132.508 468.408 132.742 468.408 132.945 468.408C133.158 468.408 133.318 468.408 133.425 468.408C133.713 468.408 133.932 468.355 134.081 468.248C134.23 468.141 134.342 467.944 134.417 467.656C134.492 467.368 134.55 466.947 134.593 466.392C134.796 466.541 135.057 466.685 135.377 466.824C135.708 466.952 136.006 467.043 136.273 467.096C136.188 467.853 136.054 468.451 135.873 468.888C135.692 469.325 135.42 469.64 135.057 469.832C134.694 470.024 134.204 470.12 133.585 470.12C133.478 470.12 133.308 470.12 133.073 470.12C132.838 470.12 132.577 470.12 132.289 470.12C132.001 470.12 131.713 470.12 131.425 470.12C131.137 470.12 130.876 470.12 130.641 470.12C130.417 470.12 130.257 470.12 130.161 470.12C129.436 470.12 128.865 470.04 128.449 469.88C128.044 469.72 127.761 469.437 127.601 469.032C127.441 468.627 127.361 468.056 127.361 467.32V456.952ZM133.697 458.52H133.569L133.905 458.28L134.257 458.056L135.585 458.536L135.521 458.856C135.521 459.613 135.516 460.307 135.505 460.936C135.505 461.555 135.5 462.104 135.489 462.584C135.489 463.053 135.478 463.448 135.457 463.768C135.446 464.088 135.43 464.328 135.409 464.488C135.388 464.861 135.308 465.155 135.169 465.368C135.03 465.571 134.838 465.725 134.593 465.832C134.358 465.939 134.081 466.003 133.761 466.024C133.452 466.045 133.169 466.056 132.913 466.056C132.892 465.811 132.844 465.533 132.769 465.224C132.694 464.904 132.609 464.643 132.513 464.44C132.652 464.451 132.796 464.461 132.945 464.472C133.094 464.472 133.206 464.472 133.281 464.472C133.377 464.472 133.452 464.451 133.505 464.408C133.569 464.365 133.612 464.269 133.633 464.12C133.644 464.045 133.654 463.875 133.665 463.608C133.676 463.341 133.681 462.984 133.681 462.536C133.681 462.077 133.681 461.517 133.681 460.856C133.692 460.184 133.697 459.405 133.697 458.52ZM121.169 459.112H126.465V460.936H121.169V459.112ZM123.041 455.624H124.833V466.232H123.041V455.624ZM120.961 466.248C121.398 466.088 121.91 465.896 122.497 465.672C123.084 465.437 123.702 465.181 124.353 464.904C125.014 464.627 125.67 464.355 126.321 464.088L126.753 465.784C125.9 466.211 125.03 466.632 124.145 467.048C123.27 467.464 122.465 467.837 121.729 468.168L120.961 466.248Z" fill="white"/>
<rect x="64.5" y="523.5" width="109" height="99" rx="3.5" fill="#AFBC34" stroke="#869026"/>
<circle cx="119" cy="573" r="33" fill="#869026"/>
<path d="M114.808 566.04C114.947 566.232 115.096 566.461 115.256 566.728C115.416 566.995 115.565 567.261 115.704 567.528C115.853 567.795 115.981 568.029 116.088 568.232L114.792 568.776C114.632 568.445 114.435 568.072 114.2 567.656C113.976 567.229 113.757 566.861 113.544 566.552L114.808 566.04ZM116.696 565.32C116.845 565.523 117 565.757 117.16 566.024C117.32 566.291 117.475 566.557 117.624 566.824C117.784 567.08 117.907 567.304 117.992 567.496L116.728 568.04C116.557 567.699 116.355 567.32 116.12 566.904C115.885 566.488 115.656 566.131 115.432 565.832L116.696 565.32ZM107.912 566.728C107.869 566.973 107.837 567.256 107.816 567.576C107.795 567.896 107.784 568.168 107.784 568.392C107.784 568.552 107.784 568.835 107.784 569.24C107.784 569.635 107.784 570.104 107.784 570.648C107.784 571.192 107.784 571.763 107.784 572.36C107.784 572.947 107.784 573.517 107.784 574.072C107.784 574.616 107.784 575.101 107.784 575.528C107.784 575.955 107.784 576.269 107.784 576.472C107.784 576.813 107.869 577.048 108.04 577.176C108.211 577.304 108.472 577.405 108.824 577.48C109.069 577.512 109.352 577.539 109.672 577.56C109.992 577.571 110.328 577.576 110.68 577.576C111.096 577.576 111.555 577.565 112.056 577.544C112.568 577.512 113.08 577.475 113.592 577.432C114.115 577.389 114.605 577.331 115.064 577.256C115.523 577.181 115.917 577.101 116.248 577.016V579.352C115.747 579.427 115.165 579.485 114.504 579.528C113.843 579.581 113.165 579.619 112.472 579.64C111.789 579.672 111.149 579.688 110.552 579.688C110.029 579.688 109.533 579.672 109.064 579.64C108.605 579.608 108.205 579.565 107.864 579.512C107.171 579.373 106.632 579.112 106.248 578.728C105.864 578.333 105.672 577.795 105.672 577.112C105.672 576.803 105.672 576.403 105.672 575.912C105.672 575.411 105.672 574.861 105.672 574.264C105.672 573.656 105.672 573.048 105.672 572.44C105.672 571.821 105.672 571.24 105.672 570.696C105.672 570.141 105.672 569.661 105.672 569.256C105.672 568.851 105.672 568.563 105.672 568.392C105.672 568.275 105.667 568.115 105.656 567.912C105.645 567.709 105.629 567.501 105.608 567.288C105.597 567.075 105.576 566.888 105.544 566.728H107.912ZM106.856 571.64C107.368 571.533 107.912 571.405 108.488 571.256C109.064 571.096 109.645 570.925 110.232 570.744C110.819 570.563 111.373 570.381 111.896 570.2C112.429 570.008 112.904 569.821 113.32 569.64C113.608 569.533 113.891 569.411 114.168 569.272C114.456 569.133 114.755 568.968 115.064 568.776L115.928 570.808C115.619 570.925 115.293 571.059 114.952 571.208C114.621 571.347 114.323 571.464 114.056 571.56C113.587 571.741 113.048 571.933 112.44 572.136C111.843 572.339 111.219 572.541 110.568 572.744C109.917 572.936 109.272 573.117 108.632 573.288C108.003 573.459 107.416 573.608 106.872 573.736L106.856 571.64ZM127.048 578.648C127.08 578.488 127.107 578.307 127.128 578.104C127.16 577.891 127.176 577.677 127.176 577.464C127.176 577.347 127.176 577.112 127.176 576.76C127.176 576.408 127.176 575.981 127.176 575.48C127.176 574.979 127.176 574.44 127.176 573.864C127.176 573.277 127.176 572.685 127.176 572.088C127.176 571.491 127.176 570.931 127.176 570.408C127.176 569.875 127.176 569.411 127.176 569.016C127.176 568.611 127.176 568.317 127.176 568.136C127.176 567.773 127.155 567.459 127.112 567.192C127.08 566.925 127.059 566.781 127.048 566.76H129.432C129.421 566.781 129.4 566.931 129.368 567.208C129.336 567.475 129.32 567.789 129.32 568.152C129.32 568.333 129.32 568.605 129.32 568.968C129.32 569.32 129.32 569.731 129.32 570.2C129.32 570.659 129.32 571.149 129.32 571.672C129.32 572.195 129.32 572.712 129.32 573.224C129.32 573.725 129.32 574.205 129.32 574.664C129.32 575.112 129.32 575.496 129.32 575.816C129.32 576.136 129.32 576.371 129.32 576.52C129.757 576.328 130.211 576.067 130.68 575.736C131.149 575.405 131.608 575.021 132.056 574.584C132.515 574.136 132.92 573.656 133.272 573.144L134.504 574.904C134.067 575.48 133.533 576.045 132.904 576.6C132.285 577.155 131.645 577.661 130.984 578.12C130.323 578.579 129.688 578.963 129.08 579.272C128.909 579.368 128.771 579.453 128.664 579.528C128.557 579.613 128.467 579.688 128.392 579.752L127.048 578.648ZM119.64 578.408C120.344 577.917 120.92 577.325 121.368 576.632C121.816 575.939 122.147 575.256 122.36 574.584C122.477 574.232 122.563 573.8 122.616 573.288C122.68 572.765 122.728 572.211 122.76 571.624C122.792 571.027 122.808 570.44 122.808 569.864C122.819 569.277 122.824 568.739 122.824 568.248C122.824 567.928 122.808 567.656 122.776 567.432C122.755 567.197 122.723 566.979 122.68 566.776H125.032C125.021 566.797 125.005 566.888 124.984 567.048C124.973 567.197 124.957 567.379 124.936 567.592C124.925 567.795 124.92 568.008 124.92 568.232C124.92 568.701 124.915 569.251 124.904 569.88C124.893 570.499 124.872 571.133 124.84 571.784C124.808 572.435 124.76 573.053 124.696 573.64C124.632 574.216 124.547 574.707 124.44 575.112C124.195 576.019 123.827 576.861 123.336 577.64C122.856 578.408 122.275 579.096 121.592 579.704L119.64 578.408Z" fill="white"/>
</svg>
