<svg width="358" height="78" viewBox="0 0 358 78" fill="none" xmlns="http://www.w3.org/2000/svg">
<path d="M81.6988 55.5652H88.985V63.2286H81.6988V55.5652ZM81.6988 53.4024H88.985V45.7428H81.6988V53.4024ZM91.7435 53.5546H99.0335V45.8951H91.7435V53.5546ZM91.7435 63.3769H99.0335V55.7174H91.7435V63.3769ZM184.733 63.0763H192.023V55.4168H184.733V63.0763ZM184.733 53.254H192.023V45.5906H184.733V53.254ZM194.782 53.4024H202.068V45.7428H194.782V53.4024ZM194.782 63.2286H202.068V55.5652H194.782V63.2286ZM287.896 70.9584H298.642V59.6604H287.896V70.9584ZM287.896 56.4709H298.642V45.1729H287.896V56.4709ZM302.716 56.6895H313.463V45.3954H302.716V56.6895ZM302.716 71.1809H313.463V59.8751H302.716V71.1809Z" fill="#414042"/>
<mask id="mask0_288_2191" style="mask-type:luminance" maskUnits="userSpaceOnUse" x="0" y="0" width="359" height="78">
<path d="M0.467468 0H358.001V77.954H0.467468V0Z" fill="white"/>
</mask>
<g mask="url(#mask0_288_2191)">
<path d="M310.097 21.9909H294.908V14.5851H298.877V0H260.099V14.5929H264.642V21.9987H92.1216L0.613953 77.9462H232.983L303.42 26.8396L346.532 70.9581H357.861L310.097 21.9909ZM109.588 69.1037H76.1215L76.1371 43.2401H67.5395L93.9024 30.8334L123.501 43.2401H153.491L109.588 69.1037ZM212.529 68.5884H179.067L179.082 42.7248H170.489L196.848 30.318L226.446 42.7248H256.437L212.529 68.5884Z" fill="#AFBC34"/>
</g>
</svg>
