<svg width="253" height="94" viewBox="0 0 253 94" fill="none" xmlns="http://www.w3.org/2000/svg">
<mask id="mask0_288_93" style="mask-type:luminance" maskUnits="userSpaceOnUse" x="3" y="0" width="250" height="92">
<path d="M3.19629 0.0371094H252.062V91.0303H3.19629V0.0371094Z" fill="white"/>
</mask>
<g mask="url(#mask0_288_93)">
<path d="M200.668 79.0265C201.217 75.5499 202.978 65.6364 205.737 61.5995C205.737 61.5995 206.668 65.4222 203.244 79.5263C203.151 79.9053 203.604 80.1772 203.892 79.9163C218.172 66.9051 207.256 52.3176 207.256 52.3176C207.256 52.3176 191.633 61.6655 199.924 79.1336C200.089 79.4824 200.605 79.411 200.668 79.0265ZM208.149 84.4694C213.517 81.4623 229.036 73.158 237.568 72.5951C237.568 72.5951 233.325 78.0159 210.252 88.5666C209.634 88.8494 209.75 89.7639 210.422 89.8738C243.741 95.4786 251.949 64.645 251.949 64.645C251.949 64.645 222.206 53.2183 207.196 83.5604C206.896 84.1673 207.558 84.8016 208.149 84.4694ZM55.4058 26.8609C63.6936 9.39002 48.0709 0.0449219 48.0709 0.0449219C48.0709 0.0449219 37.155 14.6296 51.4376 27.6381C51.7232 27.899 52.1764 27.6326 52.083 27.2536C48.6586 13.1467 49.5895 9.32411 49.5895 9.32411C52.3494 13.3609 54.1096 23.2745 54.6616 26.7511C54.7193 27.1328 55.2383 27.2097 55.4058 26.8609ZM47.1784 32.1967C41.8097 29.1897 26.2913 20.8826 17.7618 20.3224C17.7618 20.3224 22.0018 25.7378 45.0749 36.2884C45.6927 36.5713 45.5746 37.4857 44.9046 37.5983C11.5857 43.2032 3.37753 12.3668 3.37753 12.3668C3.37753 12.3668 33.1209 0.945654 48.1313 31.285C48.4306 31.8946 47.7688 32.5262 47.1784 32.1967Z" fill="#8BC349"/>
</g>
<path d="M150.938 80.7259V75.0503C150.938 74.4753 150.474 74.0104 149.902 74.0104H144.241C143.669 74.0104 143.205 74.4753 143.205 75.0503V80.7259C143.205 81.3008 143.669 81.763 144.241 81.763H149.902C150.474 81.763 150.938 81.3008 150.938 80.7259ZM140.348 80.7259V75.0503C140.348 74.4753 139.886 74.0104 139.311 74.0104H133.651C133.079 74.0104 132.617 74.4753 132.617 75.0503V80.7259C132.617 81.3008 133.079 81.763 133.651 81.763H139.311C139.886 81.763 140.348 81.3008 140.348 80.7259ZM150.938 70.5522V64.8739C150.938 64.3017 150.474 63.8367 149.902 63.8367H144.241C143.669 63.8367 143.205 64.3017 143.205 64.8739V70.5522C143.205 71.1245 143.669 71.5894 144.241 71.5894H149.902C150.474 71.5894 150.938 71.1245 150.938 70.5522ZM140.348 70.5522V64.8739C140.348 64.3017 139.886 63.8367 139.311 63.8367H133.651C133.079 63.8367 132.617 64.3017 132.617 64.8739V70.5522C132.617 71.1245 133.079 71.5894 133.651 71.5894H139.311C139.886 71.5894 140.348 71.1245 140.348 70.5522ZM73.9844 80.7259V75.0503C73.9844 74.4753 73.5226 74.0104 72.9507 74.0104H67.2871C66.7179 74.0104 66.2533 74.4753 66.2533 75.0503V80.7259C66.2533 81.3008 66.7179 81.763 67.2871 81.763H72.9507C73.5226 81.763 73.9844 81.3008 73.9844 80.7259ZM63.3967 80.7259V75.0503C63.3967 74.4753 62.9348 74.0104 62.363 74.0104H56.6994C56.1302 74.0104 55.6656 74.4753 55.6656 75.0503V80.7259C55.6656 81.3008 56.1302 81.763 56.6994 81.763H62.363C62.9348 81.763 63.3967 81.3008 63.3967 80.7259ZM73.9844 70.5522V64.8739C73.9844 64.3017 73.5226 63.8367 72.9507 63.8367H67.2871C66.7179 63.8367 66.2533 64.3017 66.2533 64.8739V70.5522C66.2533 71.1245 66.7179 71.5894 67.2871 71.5894H72.9507C73.5226 71.5894 73.9844 71.1245 73.9844 70.5522ZM63.3967 70.5522V64.8739C63.3967 64.3017 62.9348 63.8367 62.363 63.8367H56.6994C56.1302 63.8367 55.6656 64.3017 55.6656 64.8739V70.5522C55.6656 71.1245 56.1302 71.5894 56.6994 71.5894H62.363C62.9348 71.5894 63.3967 71.1245 63.3967 70.5522ZM142.987 28.7407L205.21 89.5267C206.879 91.1581 205.727 94 203.396 94H190.878C190.202 94 189.55 93.7331 189.066 93.2599L142.987 48.2462C141.978 47.2613 140.37 47.2613 139.358 48.2462L114.892 72.1506C113.847 73.1713 113.847 74.8577 114.892 75.8811L128.858 89.5267C130.53 91.1581 129.378 94 127.047 94H114.532C113.853 94 113.201 93.7331 112.717 93.2599L102.998 83.7658L93.0181 74.0159L66.6382 48.2462C65.6292 47.2613 64.0208 47.2613 63.0118 48.2462L16.9329 93.2599C16.449 93.7331 15.7974 94 15.1184 94H2.60337C0.271935 94 -0.880037 91.1581 0.79156 89.5267L63.0118 28.7407C64.0208 27.7531 65.6292 27.7531 66.6382 28.7407L101.186 62.4914C102.195 63.4763 103.804 63.4763 104.813 62.4914L139.358 28.7407C140.37 27.7531 141.978 27.7531 142.987 28.7407Z" fill="#006837"/>
</svg>
