<svg width="300" height="270" viewBox="0 0 300 270" fill="none" xmlns="http://www.w3.org/2000/svg">
<path d="M0 144C0 141.791 1.79086 140 4 140H126V200H4C1.79086 200 0 198.209 0 196V144Z" fill="#006837"/>
<path d="M125 140H296C298.209 140 300 141.791 300 144V196C300 198.209 298.209 200 296 200H125V140Z" fill="#006837" fill-opacity="0.1"/>
<path d="M52.9475 163.864H54.7555V165.816C54.7555 166.317 54.7022 166.845 54.5955 167.4C54.4995 167.944 54.3075 168.472 54.0195 168.984C53.7315 169.496 53.3102 169.949 52.7555 170.344C52.6595 170.227 52.5208 170.088 52.3395 169.928C52.1688 169.757 51.9875 169.597 51.7955 169.448C51.6035 169.299 51.4435 169.187 51.3155 169.112C51.8062 168.781 52.1635 168.429 52.3875 168.056C52.6222 167.683 52.7715 167.299 52.8355 166.904C52.9102 166.509 52.9475 166.136 52.9475 165.784V163.864ZM56.5315 163.864H58.3395V167.464C58.3395 167.677 58.3502 167.811 58.3715 167.864C58.4035 167.917 58.4622 167.944 58.5475 167.944C58.5688 167.944 58.6062 167.944 58.6595 167.944C58.7128 167.944 58.7662 167.944 58.8195 167.944C58.8835 167.944 58.9262 167.944 58.9475 167.944C59.0115 167.944 59.0648 167.912 59.1075 167.848C59.1502 167.773 59.1822 167.624 59.2035 167.4C59.2248 167.165 59.2408 166.813 59.2515 166.344C59.4222 166.493 59.6622 166.632 59.9715 166.76C60.2915 166.877 60.5688 166.968 60.8035 167.032C60.7502 167.693 60.6595 168.211 60.5315 168.584C60.4035 168.957 60.2275 169.219 60.0035 169.368C59.7902 169.507 59.5075 169.576 59.1555 169.576C59.0702 169.576 58.9688 169.576 58.8515 169.576C58.7342 169.576 58.6168 169.576 58.4995 169.576C58.3928 169.576 58.2968 169.576 58.2115 169.576C57.7848 169.576 57.4488 169.512 57.2035 169.384C56.9582 169.256 56.7822 169.043 56.6755 168.744C56.5795 168.435 56.5315 168.013 56.5315 167.48V163.864ZM54.4675 172.024C55.0115 173.165 55.8328 174.152 56.9315 174.984C58.0302 175.805 59.3315 176.397 60.8355 176.76C60.6968 176.888 60.5475 177.048 60.3875 177.24C60.2275 177.443 60.0782 177.645 59.9395 177.848C59.8008 178.061 59.6835 178.253 59.5875 178.424C57.9982 177.944 56.6328 177.208 55.4915 176.216C54.3608 175.213 53.4542 173.997 52.7715 172.568L54.4675 172.024ZM58.0355 170.312H58.4035L58.7395 170.232L59.9875 170.696C59.7102 171.773 59.3315 172.728 58.8515 173.56C58.3822 174.381 57.8222 175.107 57.1715 175.736C56.5208 176.365 55.7902 176.899 54.9795 177.336C54.1688 177.773 53.2995 178.136 52.3715 178.424C52.3075 178.253 52.2168 178.061 52.0995 177.848C51.9822 177.645 51.8542 177.443 51.7155 177.24C51.5875 177.037 51.4648 176.867 51.3475 176.728C52.1688 176.525 52.9422 176.248 53.6675 175.896C54.3928 175.533 55.0435 175.096 55.6195 174.584C56.2062 174.072 56.7022 173.48 57.1075 172.808C57.5235 172.136 57.8328 171.4 58.0355 170.6V170.312ZM52.1635 170.312H58.7875V172.024H52.1635V170.312ZM53.6675 163.864H57.5235V165.544H53.6675V163.864ZM46.4355 168.312H51.3955V169.768H46.4355V168.312ZM46.4995 163.912H51.3635V165.352H46.4995V163.912ZM46.4355 170.504H51.3955V171.944H46.4355V170.504ZM45.6675 166.056H51.9555V167.576H45.6675V166.056ZM47.3155 172.712H51.3635V177.592H47.3155V176.072H49.7155V174.232H47.3155V172.712ZM46.3875 172.712H48.0195V178.216H46.3875V172.712ZM66.0605 166.216H79.6445V168.104H66.0605V166.216ZM65.5485 175.896H80.1245V177.816H65.5485V175.896ZM71.7725 163.4H73.7885V167.272H71.7725V163.4ZM75.4045 168.648L77.6125 169.048C77.4525 169.699 77.2818 170.365 77.1005 171.048C76.9192 171.731 76.7272 172.403 76.5245 173.064C76.3325 173.715 76.1405 174.333 75.9485 174.92C75.7565 175.507 75.5645 176.035 75.3725 176.504L73.5005 176.088C73.6925 175.597 73.8792 175.048 74.0605 174.44C74.2418 173.832 74.4178 173.197 74.5885 172.536C74.7592 171.864 74.9138 171.197 75.0525 170.536C75.1912 169.875 75.3085 169.245 75.4045 168.648ZM68.1245 169.192L69.9645 168.712C70.2205 169.363 70.4498 170.061 70.6525 170.808C70.8658 171.544 71.0418 172.264 71.1805 172.968C71.3298 173.661 71.4312 174.296 71.4845 174.872L69.5005 175.4C69.4685 174.835 69.3885 174.195 69.2605 173.48C69.1325 172.765 68.9672 172.035 68.7645 171.288C68.5725 170.531 68.3592 169.832 68.1245 169.192Z" fill="white"/>
<path d="M177.531 179V177.097L182.581 172.146C183.064 171.659 183.466 171.225 183.788 170.847C184.11 170.468 184.351 170.101 184.512 169.746C184.673 169.391 184.754 169.012 184.754 168.609C184.754 168.15 184.65 167.757 184.441 167.43C184.233 167.099 183.947 166.843 183.582 166.663C183.217 166.483 182.803 166.393 182.339 166.393C181.861 166.393 181.442 166.493 181.082 166.692C180.722 166.886 180.443 167.163 180.244 167.523C180.05 167.883 179.953 168.311 179.953 168.808H177.446C177.446 167.885 177.656 167.082 178.078 166.401C178.499 165.719 179.079 165.191 179.818 164.817C180.561 164.443 181.413 164.256 182.375 164.256C183.35 164.256 184.207 164.438 184.946 164.803C185.684 165.167 186.257 165.667 186.664 166.301C187.076 166.936 187.282 167.66 187.282 168.474C187.282 169.019 187.178 169.554 186.97 170.08C186.761 170.605 186.395 171.187 185.869 171.827C185.348 172.466 184.617 173.24 183.674 174.149L181.167 176.699V176.798H187.502V179H177.531ZM195.329 179.277C194.16 179.277 193.156 178.981 192.318 178.389C191.484 177.793 190.843 176.933 190.393 175.811C189.948 174.684 189.725 173.328 189.725 171.741C189.73 170.155 189.955 168.806 190.4 167.693C190.85 166.576 191.492 165.723 192.325 165.136C193.163 164.549 194.164 164.256 195.329 164.256C196.494 164.256 197.495 164.549 198.333 165.136C199.172 165.723 199.813 166.576 200.258 167.693C200.708 168.811 200.933 170.16 200.933 171.741C200.933 173.332 200.708 174.691 200.258 175.818C199.813 176.94 199.172 177.797 198.333 178.389C197.5 178.981 196.499 179.277 195.329 179.277ZM195.329 177.054C196.238 177.054 196.956 176.607 197.481 175.712C198.011 174.812 198.277 173.489 198.277 171.741C198.277 170.586 198.156 169.616 197.914 168.83C197.673 168.044 197.332 167.452 196.892 167.054C196.451 166.652 195.931 166.45 195.329 166.45C194.425 166.45 193.71 166.9 193.184 167.8C192.659 168.695 192.394 170.009 192.389 171.741C192.384 172.902 192.5 173.877 192.737 174.668C192.978 175.458 193.319 176.055 193.76 176.457C194.2 176.855 194.723 177.054 195.329 177.054ZM203.293 179V177.097L208.342 172.146C208.825 171.659 209.228 171.225 209.55 170.847C209.872 170.468 210.113 170.101 210.274 169.746C210.435 169.391 210.516 169.012 210.516 168.609C210.516 168.15 210.411 167.757 210.203 167.43C209.995 167.099 209.708 166.843 209.344 166.663C208.979 166.483 208.565 166.393 208.101 166.393C207.623 166.393 207.204 166.493 206.844 166.692C206.484 166.886 206.205 167.163 206.006 167.523C205.812 167.883 205.714 168.311 205.714 168.808H203.207C203.207 167.885 203.418 167.082 203.839 166.401C204.261 165.719 204.841 165.191 205.58 164.817C206.323 164.443 207.175 164.256 208.136 164.256C209.112 164.256 209.969 164.438 210.707 164.803C211.446 165.167 212.019 165.667 212.426 166.301C212.838 166.936 213.044 167.66 213.044 168.474C213.044 169.019 212.94 169.554 212.732 170.08C212.523 170.605 212.156 171.187 211.631 171.827C211.11 172.466 210.378 173.24 209.436 174.149L206.929 176.699V176.798H213.264V179H203.293ZM221.091 179.277C219.921 179.277 218.918 178.981 218.08 178.389C217.246 177.793 216.605 176.933 216.155 175.811C215.71 174.684 215.487 173.328 215.487 171.741C215.492 170.155 215.717 168.806 216.162 167.693C216.612 166.576 217.253 165.723 218.087 165.136C218.925 164.549 219.926 164.256 221.091 164.256C222.256 164.256 223.257 164.549 224.095 165.136C224.933 165.723 225.575 166.576 226.02 167.693C226.47 168.811 226.695 170.16 226.695 171.741C226.695 173.332 226.47 174.691 226.02 175.818C225.575 176.94 224.933 177.797 224.095 178.389C223.262 178.981 222.26 179.277 221.091 179.277ZM221.091 177.054C222 177.054 222.717 176.607 223.243 175.712C223.773 174.812 224.038 173.489 224.038 171.741C224.038 170.586 223.918 169.616 223.676 168.83C223.435 168.044 223.094 167.452 222.653 167.054C222.213 166.652 221.692 166.45 221.091 166.45C220.187 166.45 219.472 166.9 218.946 167.8C218.42 168.695 218.155 170.009 218.151 171.741C218.146 172.902 218.262 173.877 218.499 174.668C218.74 175.458 219.081 176.055 219.521 176.457C219.962 176.855 220.485 177.054 221.091 177.054ZM232.722 161.92L235.182 162.56C234.822 163.547 234.395 164.513 233.902 165.46C233.422 166.407 232.895 167.287 232.322 168.1C231.762 168.9 231.182 169.6 230.582 170.2C230.422 170.067 230.215 169.9 229.962 169.7C229.708 169.487 229.448 169.287 229.182 169.1C228.928 168.913 228.702 168.76 228.502 168.64C229.115 168.12 229.688 167.507 230.222 166.8C230.755 166.08 231.235 165.307 231.662 164.48C232.088 163.64 232.442 162.787 232.722 161.92ZM233.162 164.2H245.882V166.52H232.002L233.162 164.2ZM231.742 168.94H245.402V171.18H234.142V175.38H231.742V168.94ZM228.562 174.2H246.962V176.5H228.562V174.2ZM237.622 165.4H240.102V180.8H237.622V165.4Z" fill="#222222"/>
<path d="M0 74C0 71.7909 1.79086 70 4 70H126V130H4C1.79086 130 0 128.209 0 126V74Z" fill="#006837"/>
<path d="M125 70H296C298.209 70 300 71.7909 300 74V126C300 128.209 298.209 130 296 130H125V70Z" fill="#006837" fill-opacity="0.1"/>
<path d="M26.856 93.448L28.664 94.008C28.3227 94.9147 27.9227 95.8267 27.464 96.744C27.0053 97.6507 26.5093 98.5093 25.976 99.32C25.4533 100.131 24.904 100.845 24.328 101.464C24.2747 101.304 24.184 101.101 24.056 100.856C23.9387 100.6 23.8107 100.344 23.672 100.088C23.5333 99.832 23.4053 99.624 23.288 99.464C23.768 98.984 24.2267 98.424 24.664 97.784C25.112 97.1333 25.5227 96.44 25.896 95.704C26.2693 94.968 26.5893 94.216 26.856 93.448ZM25.272 97.896L27.096 96.072V96.088V108.424H25.272V97.896ZM28.264 96.616H38.072V104.168H36.184V98.392H30.072V104.296H28.264V96.616ZM29.288 101.544H37.176V103.32H29.288V101.544ZM32.136 93.608H34.056V108.424H32.136V93.608ZM46.936 95.336C46.5307 96.008 45.9973 96.6907 45.336 97.384C44.6747 98.0773 43.9333 98.7387 43.112 99.368C42.3013 99.9867 41.448 100.531 40.552 101C40.4773 100.84 40.3707 100.664 40.232 100.472C40.0933 100.28 39.9493 100.088 39.8 99.896C39.6507 99.704 39.5067 99.544 39.368 99.416C40.3173 98.9573 41.208 98.392 42.04 97.72C42.8827 97.048 43.6293 96.3333 44.28 95.576C44.9307 94.808 45.4427 94.072 45.816 93.368H47.88C48.296 94.04 48.76 94.6747 49.272 95.272C49.7947 95.8693 50.344 96.4187 50.92 96.92C51.5067 97.4107 52.12 97.848 52.76 98.232C53.4 98.616 54.0453 98.936 54.696 99.192C54.4507 99.4373 54.2213 99.72 54.008 100.04C53.7947 100.349 53.6027 100.653 53.432 100.952C52.5787 100.515 51.736 99.992 50.904 99.384C50.072 98.776 49.3093 98.1253 48.616 97.432C47.9333 96.728 47.3733 96.0293 46.936 95.336ZM48.712 99.272H50.712V108.424H48.712V99.272ZM43.192 99.352H45.176V101.336C45.176 101.901 45.1387 102.499 45.064 103.128C45 103.747 44.8507 104.371 44.616 105C44.392 105.629 44.0453 106.237 43.576 106.824C43.1173 107.411 42.4933 107.949 41.704 108.44C41.5867 108.301 41.432 108.141 41.24 107.96C41.0587 107.789 40.8667 107.619 40.664 107.448C40.4613 107.288 40.2747 107.16 40.104 107.064C40.7973 106.648 41.352 106.2 41.768 105.72C42.184 105.24 42.4933 104.749 42.696 104.248C42.8987 103.736 43.032 103.229 43.096 102.728C43.16 102.227 43.192 101.747 43.192 101.288V99.352ZM61.992 93.432H63.976V95.976H61.992V93.432ZM56.136 94.808H69.848V98.248H67.864V96.488H58.04V98.248H56.136V94.808ZM57.576 97.768H68.568V99.32H57.576V97.768ZM56.008 102.824H70.072V104.488H56.008V102.824ZM57.832 100.28H68.232V101.816H57.832V100.28ZM63.944 103.16C64.424 104.216 65.1867 105.043 66.232 105.64C67.2773 106.237 68.632 106.621 70.296 106.792C70.104 106.995 69.896 107.261 69.672 107.592C69.4587 107.923 69.288 108.216 69.16 108.472C67.944 108.28 66.8933 107.976 66.008 107.56C65.1227 107.155 64.3707 106.621 63.752 105.96C63.144 105.288 62.6373 104.477 62.232 103.528L63.944 103.16ZM61.944 96.856H63.88V101.304C63.88 101.859 63.8213 102.413 63.704 102.968C63.5973 103.523 63.3947 104.061 63.096 104.584C62.808 105.096 62.3973 105.587 61.864 106.056C61.3413 106.525 60.6747 106.957 59.864 107.352C59.0533 107.757 58.0667 108.12 56.904 108.44C56.8293 108.291 56.7227 108.12 56.584 107.928C56.456 107.747 56.312 107.56 56.152 107.368C56.0027 107.176 55.8533 107.016 55.704 106.888C56.8133 106.632 57.7413 106.344 58.488 106.024C59.2453 105.704 59.848 105.357 60.296 104.984C60.7547 104.611 61.1013 104.221 61.336 103.816C61.5707 103.4 61.7307 102.984 61.816 102.568C61.9013 102.141 61.944 101.709 61.944 101.272V96.856ZM80.84 93.4H82.76V98.52H80.84V93.4ZM77.608 94.152H86.104V95.304H77.608V94.152ZM77.992 95.848H85.72V96.968H77.992V95.848ZM77.208 97.512H86.424V98.712H77.208V97.512ZM79.928 102.184V102.872H83.832V102.184H79.928ZM79.928 103.976V104.664H83.832V103.976H79.928ZM79.928 100.424V101.096H83.832V100.424H79.928ZM78.216 99.24H85.64V105.848H78.216V99.24ZM82.328 106.568L83.608 105.656C83.96 105.848 84.3227 106.061 84.696 106.296C85.08 106.531 85.4427 106.76 85.784 106.984C86.1253 107.197 86.4187 107.384 86.664 107.544L84.984 108.456C84.792 108.296 84.5467 108.104 84.248 107.88C83.9493 107.667 83.6347 107.443 83.304 107.208C82.9733 106.973 82.648 106.76 82.328 106.568ZM79.992 105.576L81.48 106.552C81.16 106.808 80.7813 107.059 80.344 107.304C79.9067 107.56 79.448 107.789 78.968 107.992C78.4987 108.195 78.0453 108.365 77.608 108.504C77.4693 108.333 77.2827 108.131 77.048 107.896C76.824 107.672 76.616 107.475 76.424 107.304C76.8613 107.187 77.304 107.032 77.752 106.84C78.2 106.637 78.6213 106.429 79.016 106.216C79.4107 105.992 79.736 105.779 79.992 105.576ZM73.864 93.416L75.528 94.008C75.3147 94.424 75.0907 94.8507 74.856 95.288C74.6213 95.7147 74.392 96.1307 74.168 96.536C73.944 96.9307 73.7307 97.2773 73.528 97.576L72.248 97.048C72.44 96.7173 72.6373 96.344 72.84 95.928C73.0427 95.512 73.2347 95.08 73.416 94.632C73.608 94.184 73.7573 93.7787 73.864 93.416ZM75.672 95.32L77.24 96.024C76.8453 96.6213 76.4187 97.2507 75.96 97.912C75.5013 98.5733 75.0427 99.208 74.584 99.816C74.1253 100.424 73.688 100.957 73.272 101.416L72.168 100.808C72.4667 100.445 72.776 100.04 73.096 99.592C73.4267 99.1333 73.7467 98.6587 74.056 98.168C74.376 97.6667 74.6747 97.1707 74.952 96.68C75.2293 96.1893 75.4693 95.736 75.672 95.32ZM71.4 97.16L72.344 95.864C72.6107 96.12 72.888 96.3973 73.176 96.696C73.464 96.9947 73.7307 97.2933 73.976 97.592C74.2213 97.8907 74.4027 98.168 74.52 98.424L73.496 99.88C73.3787 99.624 73.2027 99.336 72.968 99.016C72.744 98.696 72.4933 98.376 72.216 98.056C71.9387 97.7253 71.6667 97.4267 71.4 97.16ZM75.224 99.096L76.584 98.552C76.7867 98.9147 76.9787 99.2987 77.16 99.704C77.352 100.109 77.5173 100.509 77.656 100.904C77.8053 101.288 77.912 101.635 77.976 101.944L76.52 102.584C76.4667 102.275 76.3707 101.923 76.232 101.528C76.104 101.123 75.9493 100.712 75.768 100.296C75.5973 99.8693 75.416 99.4693 75.224 99.096ZM71.352 100.424C72.0667 100.392 72.9093 100.349 73.88 100.296C74.8507 100.232 75.8373 100.168 76.84 100.104L76.872 101.672C75.9227 101.757 74.9733 101.832 74.024 101.896C73.0853 101.96 72.2373 102.024 71.48 102.088L71.352 100.424ZM75.608 103.112L76.952 102.696C77.144 103.133 77.3147 103.619 77.464 104.152C77.6133 104.685 77.7147 105.139 77.768 105.512L76.344 105.992C76.3013 105.597 76.2107 105.133 76.072 104.6C75.944 104.056 75.7893 103.56 75.608 103.112ZM72.04 102.808L73.576 103.08C73.4907 103.848 73.3627 104.605 73.192 105.352C73.032 106.088 72.84 106.712 72.616 107.224C72.5093 107.149 72.3707 107.069 72.2 106.984C72.0293 106.899 71.8533 106.819 71.672 106.744C71.4907 106.659 71.336 106.595 71.208 106.552C71.4427 106.072 71.624 105.496 71.752 104.824C71.88 104.152 71.976 103.48 72.04 102.808ZM73.784 101.288H75.448V108.44H73.784V101.288ZM87.464 101.752H95.56V103.304H87.464V101.752ZM87.656 96.104H95.512V97.624H87.656V96.104ZM90.36 100.616L92.136 100.984C91.8693 101.539 91.5813 102.109 91.272 102.696C90.9733 103.283 90.6747 103.853 90.376 104.408C90.0773 104.952 89.8 105.437 89.544 105.864L87.864 105.352C88.12 104.947 88.392 104.472 88.68 103.928C88.9787 103.384 89.272 102.824 89.56 102.248C89.8587 101.661 90.1253 101.117 90.36 100.616ZM92.616 102.824L94.392 102.984C94.2427 103.827 94.0187 104.552 93.72 105.16C93.432 105.757 93.0427 106.269 92.552 106.696C92.072 107.112 91.4853 107.459 90.792 107.736C90.0987 108.024 89.272 108.264 88.312 108.456C88.2587 108.189 88.1573 107.907 88.008 107.608C87.8587 107.309 87.704 107.064 87.544 106.872C88.6 106.733 89.4693 106.515 90.152 106.216C90.8453 105.917 91.3893 105.496 91.784 104.952C92.1787 104.408 92.456 103.699 92.616 102.824ZM93.752 93.592L95.368 94.248C95.112 94.6 94.856 94.952 94.6 95.304C94.3547 95.6453 94.1307 95.9387 93.928 96.184L92.696 95.64C92.8773 95.3627 93.0693 95.032 93.272 94.648C93.4747 94.2533 93.6347 93.9013 93.752 93.592ZM90.712 93.384H92.472V100.84H90.712V93.384ZM88.056 94.248L89.432 93.672C89.6453 93.9707 89.8427 94.3067 90.024 94.68C90.2053 95.0533 90.3333 95.3787 90.408 95.656L88.936 96.296C88.8827 96.0187 88.7707 95.688 88.6 95.304C88.4293 94.92 88.248 94.568 88.056 94.248ZM90.76 96.856L91.992 97.608C91.736 98.0347 91.4 98.4613 90.984 98.888C90.5787 99.3147 90.1413 99.7147 89.672 100.088C89.2133 100.451 88.76 100.76 88.312 101.016C88.2053 100.813 88.056 100.573 87.864 100.296C87.6827 100.019 87.5067 99.7947 87.336 99.624C87.7627 99.4427 88.1947 99.208 88.632 98.92C89.0693 98.6213 89.4747 98.296 89.848 97.944C90.232 97.5813 90.536 97.2187 90.76 96.856ZM92.312 97.32C92.4613 97.3947 92.664 97.5067 92.92 97.656C93.1867 97.8053 93.4693 97.9707 93.768 98.152C94.0773 98.3227 94.3547 98.4827 94.6 98.632C94.856 98.7813 95.0373 98.8933 95.144 98.968L94.136 100.296C93.9867 100.157 93.7947 99.9867 93.56 99.784C93.3253 99.5813 93.0747 99.3733 92.808 99.16C92.5413 98.9467 92.2853 98.744 92.04 98.552C91.7947 98.36 91.5813 98.2053 91.4 98.088L92.312 97.32ZM96.616 96.296H102.504V98.072H96.616V96.296ZM96.792 93.384L98.744 93.672C98.5733 94.7707 98.3547 95.8373 98.088 96.872C97.8213 97.896 97.496 98.8453 97.112 99.72C96.7387 100.584 96.3013 101.347 95.8 102.008C95.704 101.88 95.5653 101.731 95.384 101.56C95.2027 101.389 95.0107 101.224 94.808 101.064C94.6053 100.893 94.4347 100.755 94.296 100.648C94.744 100.093 95.128 99.4373 95.448 98.68C95.7787 97.912 96.056 97.08 96.28 96.184C96.504 95.2773 96.6747 94.344 96.792 93.384ZM99.704 97.384L101.672 97.576C101.437 99.4 101.075 101.005 100.584 102.392C100.104 103.779 99.4373 104.973 98.584 105.976C97.7307 106.979 96.632 107.816 95.288 108.488C95.224 108.339 95.128 108.152 95 107.928C94.872 107.704 94.7333 107.48 94.584 107.256C94.4347 107.043 94.296 106.872 94.168 106.744C95.384 106.211 96.3653 105.517 97.112 104.664C97.8693 103.811 98.4507 102.781 98.856 101.576C99.2613 100.36 99.544 98.9627 99.704 97.384ZM97.704 97.72C97.928 99.064 98.2427 100.328 98.648 101.512C99.0533 102.696 99.5867 103.736 100.248 104.632C100.909 105.528 101.725 106.232 102.696 106.744C102.557 106.861 102.403 107.016 102.232 107.208C102.061 107.411 101.896 107.619 101.736 107.832C101.587 108.045 101.464 108.237 101.368 108.408C100.291 107.768 99.4 106.941 98.696 105.928C98.0027 104.915 97.4427 103.741 97.016 102.408C96.5893 101.064 96.2427 99.5973 95.976 98.008L97.704 97.72ZM89.272 105.368L90.296 104.072C90.9253 104.307 91.5493 104.579 92.168 104.888C92.7973 105.197 93.3787 105.517 93.912 105.848C94.456 106.168 94.9093 106.477 95.272 106.776L93.928 108.136C93.5973 107.837 93.1813 107.523 92.68 107.192C92.1787 106.861 91.6347 106.541 91.048 106.232C90.4613 105.912 89.8693 105.624 89.272 105.368Z" fill="white"/>
<path d="M142.33 92.4545V107H139.695V95.0185H139.61L136.208 97.1918V94.777L139.823 92.4545H142.33ZM151.4 107.277C150.23 107.277 149.226 106.981 148.388 106.389C147.555 105.793 146.913 104.933 146.463 103.811C146.018 102.684 145.796 101.328 145.796 99.7415C145.801 98.1553 146.025 96.8059 146.471 95.6932C146.92 94.5758 147.562 93.7235 148.395 93.1364C149.233 92.5492 150.235 92.2557 151.4 92.2557C152.564 92.2557 153.566 92.5492 154.404 93.1364C155.242 93.7235 155.883 94.5758 156.328 95.6932C156.778 96.8106 157.003 98.16 157.003 99.7415C157.003 101.332 156.778 102.691 156.328 103.818C155.883 104.94 155.242 105.797 154.404 106.389C153.57 106.981 152.569 107.277 151.4 107.277ZM151.4 105.054C152.309 105.054 153.026 104.607 153.551 103.712C154.082 102.812 154.347 101.489 154.347 99.7415C154.347 98.5862 154.226 97.6155 153.985 96.8295C153.743 96.0436 153.402 95.4517 152.962 95.054C152.522 94.6515 152.001 94.4503 151.4 94.4503C150.495 94.4503 149.78 94.9001 149.255 95.7997C148.729 96.6946 148.464 98.0085 148.459 99.7415C148.454 100.902 148.57 101.877 148.807 102.668C149.049 103.458 149.39 104.055 149.83 104.457C150.27 104.855 150.793 105.054 151.4 105.054ZM164.739 107.277C163.57 107.277 162.566 106.981 161.728 106.389C160.895 105.793 160.253 104.933 159.803 103.811C159.358 102.684 159.136 101.328 159.136 99.7415C159.14 98.1553 159.365 96.8059 159.81 95.6932C160.26 94.5758 160.902 93.7235 161.735 93.1364C162.573 92.5492 163.575 92.2557 164.739 92.2557C165.904 92.2557 166.906 92.5492 167.744 93.1364C168.582 93.7235 169.223 94.5758 169.668 95.6932C170.118 96.8106 170.343 98.16 170.343 99.7415C170.343 101.332 170.118 102.691 169.668 103.818C169.223 104.94 168.582 105.797 167.744 106.389C166.91 106.981 165.909 107.277 164.739 107.277ZM164.739 105.054C165.648 105.054 166.366 104.607 166.891 103.712C167.422 102.812 167.687 101.489 167.687 99.7415C167.687 98.5862 167.566 97.6155 167.325 96.8295C167.083 96.0436 166.742 95.4517 166.302 95.054C165.862 94.6515 165.341 94.4503 164.739 94.4503C163.835 94.4503 163.12 94.9001 162.594 95.7997C162.069 96.6946 161.804 98.0085 161.799 99.7415C161.794 100.902 161.91 101.877 162.147 102.668C162.388 103.458 162.729 104.055 163.17 104.457C163.61 104.855 164.133 105.054 164.739 105.054ZM180.802 93.624H182.738V108.424H180.802V93.624ZM178.082 94.296L179.922 94.68C179.474 96.84 178.706 99.08 177.858 100.488C177.474 100.2 176.642 99.768 176.178 99.56C177.042 98.296 177.714 96.264 178.082 94.296ZM178.69 96.52H186.098V98.392H178.226L178.69 96.52ZM176.466 101.16H186.866V103.048H176.466V101.16ZM175.282 93.48L177.09 94.04C176.066 96.76 174.434 99.64 172.722 101.48C172.546 101.016 172.018 99.96 171.698 99.496C173.122 98.04 174.482 95.768 175.282 93.48ZM173.698 97.896L175.522 96.072V96.088V108.424H173.698V97.896ZM193.01 96.168L194.77 95.32C195.81 96.488 196.834 98.056 197.298 99.176L195.426 100.184C195.01 99.064 193.986 97.384 193.01 96.168ZM187.81 104.584C189.458 104.024 192.002 103 194.338 102.024L194.786 103.912C192.658 104.872 190.29 105.864 188.482 106.632L187.81 104.584ZM197.186 103.144L198.674 101.8C200.13 103.32 202.178 105.448 203.09 106.84L201.458 108.424C200.61 107 198.658 104.776 197.186 103.144ZM199.362 94.328L201.49 94.52C200.738 101.768 198.802 106.104 193.554 108.472C193.282 108.04 192.482 107.176 192.018 106.76C197.122 104.84 198.77 100.936 199.362 94.328ZM189.634 94.392L191.65 94.312L192.002 104.712L190.002 104.792L189.634 94.392ZM210.946 98.216H217.602V100.152H210.946V98.216ZM204.098 105.72H218.722V107.656H204.098V105.72ZM209.858 93.608H211.922V106.792H209.858V93.608ZM226.779 110.232C225.259 107.768 224.379 105.16 224.379 101.96C224.379 98.776 225.259 96.152 226.779 93.688L228.235 94.312C226.891 96.648 226.283 99.352 226.283 101.96C226.283 104.584 226.891 107.288 228.235 109.624L226.779 110.232ZM229.754 107V105.656C232.986 102.76 234.874 100.536 234.874 98.712C234.874 97.528 234.25 96.792 233.114 96.792C232.234 96.792 231.546 97.352 230.938 98.024L229.642 96.744C230.73 95.576 231.802 94.952 233.418 94.952C235.642 94.952 237.146 96.376 237.146 98.584C237.146 100.744 235.354 103.048 233.194 105.16C233.786 105.096 234.57 105.016 235.13 105.016H237.69V107H229.754ZM243.24 107.224C240.824 107.224 239.224 105.128 239.224 101.032C239.224 96.952 240.824 94.952 243.24 94.952C245.64 94.952 247.24 96.952 247.24 101.032C247.24 105.128 245.64 107.224 243.24 107.224ZM243.24 105.384C244.264 105.384 245.016 104.36 245.016 101.032C245.016 97.72 244.264 96.76 243.24 96.76C242.216 96.76 241.448 97.72 241.448 101.032C241.448 104.36 242.216 105.384 243.24 105.384ZM248.629 107V105.656C251.861 102.76 253.749 100.536 253.749 98.712C253.749 97.528 253.125 96.792 251.989 96.792C251.109 96.792 250.421 97.352 249.813 98.024L248.517 96.744C249.605 95.576 250.677 94.952 252.293 94.952C254.517 94.952 256.021 96.376 256.021 98.584C256.021 100.744 254.229 103.048 252.069 105.16C252.661 105.096 253.445 105.016 254.005 105.016H256.565V107H248.629ZM258.067 107V105.656C261.299 102.76 263.187 100.536 263.187 98.712C263.187 97.528 262.563 96.792 261.427 96.792C260.547 96.792 259.859 97.352 259.251 98.024L257.955 96.744C259.043 95.576 260.115 94.952 261.731 94.952C263.955 94.952 265.459 96.376 265.459 98.584C265.459 100.744 263.667 103.048 261.507 105.16C262.099 105.096 262.883 105.016 263.443 105.016H266.003V107H258.067ZM270.8 93.352L272.752 93.848C271.904 96.232 270.496 98.536 269.072 99.976C268.704 99.64 267.888 99 267.424 98.728C268.864 97.48 270.112 95.432 270.8 93.352ZM271.136 95.176H281.312V97.032H270.208L271.136 95.176ZM270 98.952H280.944V100.744H271.936V104.104H270V98.952ZM267.472 103.16H282.192V105.016H267.472V103.16ZM274.704 96.136H276.688V108.44H274.704V96.136ZM285.12 110.232L283.648 109.624C284.992 107.288 285.616 104.584 285.616 101.96C285.616 99.352 284.992 96.648 283.648 94.312L285.12 93.688C286.624 96.152 287.504 98.776 287.504 101.96C287.504 105.16 286.624 107.768 285.12 110.232Z" fill="#222222"/>
<path d="M0 214C0 211.791 1.79086 210 4 210H125V270H4C1.79086 270 0 268.209 0 266V214Z" fill="#F5A210"/>
<path d="M125 210H296C298.209 210 300 211.791 300 214V266C300 268.209 298.209 270 296 270H125V210Z" fill="#F5A210" fill-opacity="0.15"/>
<path d="M24.85 223.5C24.85 223.715 24.9247 223.897 25.074 224.046C25.2233 224.186 25.4053 224.256 25.62 224.256C25.8253 224.256 26.0027 224.186 26.152 224.046C26.3013 223.897 26.376 223.715 26.376 223.5C26.376 223.295 26.3013 223.117 26.152 222.968C26.0027 222.819 25.8253 222.744 25.62 222.744C25.4053 222.744 25.2233 222.819 25.074 222.968C24.9247 223.117 24.85 223.295 24.85 223.5ZM23.996 223.5C23.996 223.201 24.066 222.931 24.206 222.688C24.3553 222.445 24.5513 222.249 24.794 222.1C25.046 221.951 25.3213 221.876 25.62 221.876C25.9187 221.876 26.1893 221.951 26.432 222.1C26.6747 222.249 26.866 222.445 27.006 222.688C27.1553 222.931 27.23 223.201 27.23 223.5C27.23 223.799 27.1553 224.074 27.006 224.326C26.866 224.569 26.6747 224.765 26.432 224.914C26.1893 225.054 25.9187 225.124 25.62 225.124C25.3213 225.124 25.046 225.054 24.794 224.914C24.5513 224.765 24.3553 224.569 24.206 224.326C24.066 224.074 23.996 223.799 23.996 223.5ZM22.064 222.954C22.0547 223.019 22.0407 223.127 22.022 223.276C22.0033 223.425 21.9847 223.584 21.966 223.752C21.9473 223.911 21.938 224.051 21.938 224.172C21.938 224.452 21.938 224.76 21.938 225.096C21.938 225.432 21.938 225.768 21.938 226.104C21.938 226.431 21.938 226.729 21.938 227C21.938 227.187 21.938 227.448 21.938 227.784C21.938 228.12 21.938 228.498 21.938 228.918C21.938 229.338 21.938 229.777 21.938 230.234C21.938 230.682 21.938 231.121 21.938 231.55C21.938 231.97 21.938 232.353 21.938 232.698C21.938 233.034 21.938 233.3 21.938 233.496C21.938 233.897 21.8167 234.215 21.574 234.448C21.3407 234.691 20.9767 234.812 20.482 234.812C20.23 234.812 19.9733 234.807 19.712 234.798C19.4507 234.789 19.194 234.775 18.942 234.756C18.69 234.737 18.4427 234.714 18.2 234.686L18.032 232.95C18.3307 233.006 18.62 233.048 18.9 233.076C19.1893 233.104 19.418 233.118 19.586 233.118C19.7727 233.118 19.9033 233.081 19.978 233.006C20.0527 232.922 20.0947 232.791 20.104 232.614C20.104 232.53 20.104 232.348 20.104 232.068C20.1133 231.788 20.118 231.457 20.118 231.074C20.118 230.691 20.118 230.285 20.118 229.856C20.118 229.427 20.118 229.016 20.118 228.624C20.118 228.232 20.118 227.891 20.118 227.602C20.118 227.313 20.118 227.112 20.118 227C20.118 226.832 20.118 226.58 20.118 226.244C20.118 225.899 20.118 225.535 20.118 225.152C20.118 224.769 20.118 224.443 20.118 224.172C20.118 223.985 20.104 223.766 20.076 223.514C20.048 223.253 20.02 223.066 19.992 222.954H22.064ZM15.204 225.18C15.4187 225.208 15.6427 225.236 15.876 225.264C16.1093 225.283 16.338 225.292 16.562 225.292C16.674 225.292 16.898 225.292 17.234 225.292C17.5793 225.292 17.99 225.292 18.466 225.292C18.942 225.292 19.4507 225.292 19.992 225.292C20.5427 225.292 21.0933 225.292 21.644 225.292C22.204 225.292 22.722 225.292 23.198 225.292C23.6833 225.292 24.1033 225.292 24.458 225.292C24.8127 225.292 25.06 225.292 25.2 225.292C25.396 225.292 25.6247 225.283 25.886 225.264C26.1567 225.245 26.39 225.222 26.586 225.194V227.028C26.3713 227.009 26.138 227 25.886 227C25.634 226.991 25.41 226.986 25.214 226.986C25.074 226.986 24.8267 226.986 24.472 226.986C24.1267 226.986 23.7113 226.986 23.226 226.986C22.75 226.986 22.2367 226.986 21.686 226.986C21.1353 226.986 20.5847 226.986 20.034 226.986C19.4833 226.986 18.97 226.986 18.494 226.986C18.018 226.986 17.6073 226.986 17.262 226.986C16.926 226.986 16.6927 226.986 16.562 226.986C16.3567 226.986 16.128 226.991 15.876 227C15.6333 227.009 15.4093 227.023 15.204 227.042V225.18ZM18.774 228.974C18.6153 229.291 18.424 229.632 18.2 229.996C17.976 230.36 17.7333 230.724 17.472 231.088C17.22 231.452 16.9727 231.793 16.73 232.11C16.4873 232.418 16.268 232.675 16.072 232.88L14.56 231.844C14.7933 231.629 15.0313 231.377 15.274 231.088C15.526 230.789 15.7687 230.477 16.002 230.15C16.2447 229.823 16.464 229.497 16.66 229.17C16.8653 228.843 17.0427 228.531 17.192 228.232L18.774 228.974ZM24.794 228.19C24.9713 228.414 25.1673 228.68 25.382 228.988C25.606 229.296 25.83 229.627 26.054 229.982C26.278 230.327 26.488 230.668 26.684 231.004C26.88 231.331 27.048 231.62 27.188 231.872L25.536 232.768C25.3867 232.469 25.214 232.147 25.018 231.802C24.8313 231.457 24.6353 231.111 24.43 230.766C24.2247 230.421 24.0193 230.099 23.814 229.8C23.618 229.492 23.436 229.231 23.268 229.016L24.794 228.19ZM29.288 227.518C29.456 227.527 29.6707 227.541 29.932 227.56C30.1933 227.569 30.464 227.579 30.744 227.588C31.0333 227.597 31.2993 227.602 31.542 227.602C31.7753 227.602 32.0647 227.602 32.41 227.602C32.7553 227.602 33.1287 227.602 33.53 227.602C33.9407 227.602 34.3607 227.602 34.79 227.602C35.2287 227.602 35.6627 227.602 36.092 227.602C36.5213 227.602 36.9273 227.602 37.31 227.602C37.6927 227.602 38.0333 227.602 38.332 227.602C38.64 227.602 38.8827 227.602 39.06 227.602C39.3867 227.602 39.6947 227.593 39.984 227.574C40.2733 227.546 40.5113 227.527 40.698 227.518V229.716C40.5393 229.707 40.3013 229.693 39.984 229.674C39.6667 229.655 39.3587 229.646 39.06 229.646C38.8827 229.646 38.64 229.646 38.332 229.646C38.024 229.646 37.6787 229.646 37.296 229.646C36.9133 229.646 36.5073 229.646 36.078 229.646C35.658 229.646 35.2287 229.646 34.79 229.646C34.3513 229.646 33.9267 229.646 33.516 229.646C33.1147 229.646 32.7413 229.646 32.396 229.646C32.06 229.646 31.7753 229.646 31.542 229.646C31.1407 229.646 30.73 229.655 30.31 229.674C29.89 229.683 29.5493 229.697 29.288 229.716V227.518ZM48.006 227.448C48.4353 227.691 48.902 227.98 49.406 228.316C49.9193 228.643 50.4373 228.983 50.96 229.338C51.4827 229.693 51.9727 230.038 52.43 230.374C52.8967 230.71 53.2887 231.009 53.606 231.27L52.276 232.852C51.968 232.572 51.5853 232.25 51.128 231.886C50.68 231.513 50.1947 231.135 49.672 230.752C49.1493 230.36 48.6313 229.987 48.118 229.632C47.614 229.277 47.1613 228.974 46.76 228.722L48.006 227.448ZM54.586 225.068C54.502 225.199 54.418 225.353 54.334 225.53C54.25 225.707 54.18 225.885 54.124 226.062C53.984 226.491 53.7927 226.972 53.55 227.504C53.3167 228.027 53.0367 228.563 52.71 229.114C52.3833 229.655 52.01 230.187 51.59 230.71C50.9273 231.531 50.1293 232.311 49.196 233.048C48.272 233.785 47.138 234.411 45.794 234.924L44.17 233.51C45.15 233.211 45.9993 232.857 46.718 232.446C47.4367 232.035 48.0573 231.597 48.58 231.13C49.112 230.663 49.574 230.197 49.966 229.73C50.2833 229.366 50.582 228.96 50.862 228.512C51.1513 228.055 51.3987 227.602 51.604 227.154C51.8187 226.697 51.968 226.291 52.052 225.936H47.32L47.964 224.34H51.94C52.164 224.34 52.3833 224.326 52.598 224.298C52.822 224.27 53.0087 224.233 53.158 224.186L54.586 225.068ZM49.966 222.912C49.798 223.155 49.63 223.416 49.462 223.696C49.3033 223.976 49.182 224.191 49.098 224.34C48.7807 224.9 48.3793 225.497 47.894 226.132C47.4087 226.757 46.8627 227.369 46.256 227.966C45.6587 228.563 45.024 229.095 44.352 229.562L42.84 228.4C43.6613 227.887 44.3567 227.35 44.926 226.79C45.5047 226.221 45.9853 225.675 46.368 225.152C46.7507 224.62 47.0587 224.149 47.292 223.738C47.404 223.57 47.5207 223.346 47.642 223.066C47.7727 222.777 47.8707 222.515 47.936 222.282L49.966 222.912ZM63.042 233.692C63.07 233.552 63.0933 233.393 63.112 233.216C63.14 233.029 63.154 232.843 63.154 232.656C63.154 232.553 63.154 232.348 63.154 232.04C63.154 231.732 63.154 231.359 63.154 230.92C63.154 230.481 63.154 230.01 63.154 229.506C63.154 228.993 63.154 228.475 63.154 227.952C63.154 227.429 63.154 226.939 63.154 226.482C63.154 226.015 63.154 225.609 63.154 225.264C63.154 224.909 63.154 224.653 63.154 224.494C63.154 224.177 63.1353 223.901 63.098 223.668C63.07 223.435 63.0513 223.309 63.042 223.29H65.128C65.1187 223.309 65.1 223.439 65.072 223.682C65.044 223.915 65.03 224.191 65.03 224.508C65.03 224.667 65.03 224.905 65.03 225.222C65.03 225.53 65.03 225.889 65.03 226.3C65.03 226.701 65.03 227.131 65.03 227.588C65.03 228.045 65.03 228.498 65.03 228.946C65.03 229.385 65.03 229.805 65.03 230.206C65.03 230.598 65.03 230.934 65.03 231.214C65.03 231.494 65.03 231.699 65.03 231.83C65.4127 231.662 65.8093 231.433 66.22 231.144C66.6307 230.855 67.032 230.519 67.424 230.136C67.8253 229.744 68.18 229.324 68.488 228.876L69.566 230.416C69.1833 230.92 68.7167 231.415 68.166 231.9C67.6247 232.385 67.0647 232.829 66.486 233.23C65.9073 233.631 65.352 233.967 64.82 234.238C64.6707 234.322 64.5493 234.397 64.456 234.462C64.3627 234.537 64.2833 234.602 64.218 234.658L63.042 233.692ZM56.56 233.482C57.176 233.053 57.68 232.535 58.072 231.928C58.464 231.321 58.7533 230.724 58.94 230.136C59.0427 229.828 59.1173 229.45 59.164 229.002C59.22 228.545 59.262 228.059 59.29 227.546C59.318 227.023 59.332 226.51 59.332 226.006C59.3413 225.493 59.346 225.021 59.346 224.592C59.346 224.312 59.332 224.074 59.304 223.878C59.2853 223.673 59.2573 223.481 59.22 223.304H61.278C61.2687 223.323 61.2547 223.402 61.236 223.542C61.2267 223.673 61.2127 223.831 61.194 224.018C61.1847 224.195 61.18 224.382 61.18 224.578C61.18 224.989 61.1753 225.469 61.166 226.02C61.1567 226.561 61.138 227.117 61.11 227.686C61.082 228.255 61.04 228.797 60.984 229.31C60.928 229.814 60.8533 230.243 60.76 230.598C60.5453 231.391 60.2233 232.129 59.794 232.81C59.374 233.482 58.8653 234.084 58.268 234.616L56.56 233.482ZM80.472 227.812C80.472 228.68 80.4067 229.469 80.276 230.178C80.1547 230.878 79.94 231.517 79.632 232.096C79.324 232.665 78.8947 233.179 78.344 233.636C77.7933 234.093 77.098 234.509 76.258 234.882L74.76 233.468C75.432 233.235 76.0107 232.973 76.496 232.684C76.9907 232.395 77.3967 232.04 77.714 231.62C78.0313 231.191 78.2647 230.677 78.414 230.08C78.5727 229.473 78.652 228.741 78.652 227.882V224.158C78.652 223.869 78.6427 223.617 78.624 223.402C78.6053 223.178 78.5867 222.996 78.568 222.856H80.57C80.5513 222.996 80.528 223.178 80.5 223.402C80.4813 223.617 80.472 223.869 80.472 224.158V227.812ZM75.418 222.982C75.3993 223.113 75.3807 223.29 75.362 223.514C75.3433 223.729 75.334 223.971 75.334 224.242V229.254C75.334 229.459 75.3387 229.66 75.348 229.856C75.3573 230.043 75.362 230.211 75.362 230.36C75.3713 230.5 75.3807 230.621 75.39 230.724H73.43C73.4487 230.621 73.4627 230.5 73.472 230.36C73.4813 230.211 73.4907 230.043 73.5 229.856C73.5093 229.66 73.514 229.459 73.514 229.254V224.242C73.514 224.037 73.5047 223.827 73.486 223.612C73.4767 223.397 73.458 223.187 73.43 222.982H75.418ZM70.798 225.502C70.8913 225.511 71.0127 225.53 71.162 225.558C71.3113 225.577 71.484 225.595 71.68 225.614C71.876 225.623 72.0907 225.628 72.324 225.628H81.508C81.8813 225.628 82.1847 225.619 82.418 225.6C82.6513 225.581 82.8613 225.558 83.048 225.53V227.392C82.8987 227.373 82.698 227.364 82.446 227.364C82.194 227.355 81.8813 227.35 81.508 227.35H72.324C72.0907 227.35 71.876 227.355 71.68 227.364C71.4933 227.364 71.3253 227.369 71.176 227.378C71.036 227.387 70.91 227.397 70.798 227.406V225.502ZM84.868 228.554C86.128 228.227 87.2667 227.849 88.284 227.42C89.3107 226.981 90.2113 226.524 90.986 226.048C91.4713 225.749 91.9567 225.409 92.442 225.026C92.9367 224.634 93.3987 224.233 93.828 223.822C94.2667 223.411 94.6353 223.019 94.934 222.646L96.446 224.088C96.0167 224.508 95.5453 224.933 95.032 225.362C94.528 225.791 94.0007 226.202 93.45 226.594C92.8993 226.986 92.3533 227.345 91.812 227.672C91.28 227.98 90.6827 228.297 90.02 228.624C89.3667 228.951 88.676 229.259 87.948 229.548C87.22 229.837 86.4873 230.094 85.75 230.318L84.868 228.554ZM90.692 226.944L92.68 226.482V232.782C92.68 232.987 92.6847 233.211 92.694 233.454C92.7033 233.697 92.7173 233.921 92.736 234.126C92.7547 234.341 92.778 234.504 92.806 234.616H90.594C90.6127 234.504 90.6267 234.341 90.636 234.126C90.6547 233.921 90.6687 233.697 90.678 233.454C90.6873 233.211 90.692 232.987 90.692 232.782V226.944ZM102.396 232.656C102.396 232.479 102.396 232.189 102.396 231.788C102.396 231.377 102.396 230.906 102.396 230.374C102.396 229.833 102.396 229.268 102.396 228.68C102.396 228.092 102.396 227.527 102.396 226.986C102.396 226.435 102.396 225.95 102.396 225.53C102.396 225.11 102.396 224.802 102.396 224.606C102.396 224.363 102.382 224.083 102.354 223.766C102.335 223.449 102.303 223.169 102.256 222.926H104.44C104.412 223.169 104.384 223.439 104.356 223.738C104.328 224.027 104.314 224.317 104.314 224.606C104.314 224.867 104.314 225.222 104.314 225.67C104.314 226.118 104.314 226.617 104.314 227.168C104.314 227.709 104.314 228.265 104.314 228.834C104.314 229.394 104.314 229.935 104.314 230.458C104.314 230.981 104.314 231.438 104.314 231.83C104.314 232.213 104.314 232.488 104.314 232.656C104.314 232.787 104.319 232.973 104.328 233.216C104.337 233.449 104.356 233.692 104.384 233.944C104.412 234.196 104.431 234.42 104.44 234.616H102.256C102.293 234.336 102.326 234.009 102.354 233.636C102.382 233.263 102.396 232.936 102.396 232.656ZM103.894 226.552C104.361 226.673 104.883 226.832 105.462 227.028C106.041 227.215 106.624 227.415 107.212 227.63C107.8 227.845 108.351 228.059 108.864 228.274C109.387 228.479 109.821 228.671 110.166 228.848L109.368 230.78C108.976 230.575 108.542 230.369 108.066 230.164C107.59 229.949 107.105 229.744 106.61 229.548C106.125 229.352 105.644 229.17 105.168 229.002C104.701 228.834 104.277 228.685 103.894 228.554V226.552ZM41.288 247.368V248.232H45.656V247.368H41.288ZM41.288 245.256V246.104H45.656V245.256H41.288ZM39.544 243.912H47.48V249.576H39.544V243.912ZM40.888 248.92L42.664 249.352C42.28 250.355 41.7733 251.293 41.144 252.168C40.5147 253.043 39.832 253.763 39.096 254.328C39.0107 254.221 38.8827 254.083 38.712 253.912C38.552 253.741 38.3867 253.576 38.216 253.416C38.0453 253.256 37.8907 253.128 37.752 253.032C38.4453 252.563 39.064 251.965 39.608 251.24C40.1627 250.515 40.5893 249.741 40.888 248.92ZM41.336 250.504H46.888V252.088H40.392L41.336 250.504ZM46.424 250.504H48.232C48.232 250.504 48.2267 250.552 48.216 250.648C48.216 250.733 48.2107 250.835 48.2 250.952C48.2 251.069 48.1947 251.165 48.184 251.24C48.1093 252.659 48.024 253.811 47.928 254.696C47.832 255.571 47.7253 256.248 47.608 256.728C47.4907 257.208 47.352 257.544 47.192 257.736C47.0107 257.949 46.8133 258.099 46.6 258.184C46.3973 258.28 46.1627 258.344 45.896 258.376C45.672 258.419 45.3787 258.435 45.016 258.424C44.6533 258.424 44.2693 258.419 43.864 258.408C43.8533 258.173 43.8 257.901 43.704 257.592C43.6187 257.293 43.5067 257.032 43.368 256.808C43.7307 256.84 44.0613 256.861 44.36 256.872C44.6693 256.883 44.904 256.888 45.064 256.888C45.192 256.888 45.2987 256.877 45.384 256.856C45.4693 256.824 45.5547 256.765 45.64 256.68C45.768 256.552 45.8747 256.28 45.96 255.864C46.0453 255.437 46.1253 254.819 46.2 254.008C46.2853 253.187 46.36 252.12 46.424 250.808V250.504ZM43.64 252.488L44.744 253.672C44.3707 253.832 43.96 253.981 43.512 254.12C43.064 254.248 42.616 254.365 42.168 254.472C41.72 254.568 41.2827 254.659 40.856 254.744C40.824 254.584 40.7653 254.392 40.68 254.168C40.5947 253.933 40.5093 253.736 40.424 253.576C40.808 253.469 41.1973 253.363 41.592 253.256C41.9867 253.139 42.36 253.016 42.712 252.888C43.0747 252.749 43.384 252.616 43.64 252.488ZM39.72 252.44H41.336V255.08C41.336 255.272 41.368 255.395 41.432 255.448C41.5067 255.501 41.6613 255.528 41.896 255.528C41.9493 255.528 42.04 255.528 42.168 255.528C42.296 255.528 42.4347 255.528 42.584 255.528C42.744 255.528 42.8933 255.528 43.032 255.528C43.1707 255.528 43.272 255.528 43.336 255.528C43.464 255.528 43.56 255.507 43.624 255.464C43.6987 255.421 43.752 255.336 43.784 255.208C43.816 255.08 43.8373 254.888 43.848 254.632C44.008 254.749 44.232 254.867 44.52 254.984C44.808 255.091 45.064 255.165 45.288 255.208C45.224 255.677 45.1227 256.045 44.984 256.312C44.856 256.568 44.6747 256.749 44.44 256.856C44.216 256.952 43.912 257 43.528 257C43.4427 257 43.3147 257 43.144 257C42.9733 257 42.7867 257 42.584 257C42.392 257 42.2107 257 42.04 257C41.8693 257 41.7467 257 41.672 257C41.1387 257 40.728 256.941 40.44 256.824C40.1627 256.707 39.9707 256.515 39.864 256.248C39.768 255.971 39.72 255.587 39.72 255.096V252.44ZM33.336 251.592C34.008 251.453 34.808 251.272 35.736 251.048C36.6747 250.813 37.6187 250.573 38.568 250.328L38.792 252.04C37.928 252.285 37.0533 252.536 36.168 252.792C35.2827 253.037 34.472 253.261 33.736 253.464L33.336 251.592ZM33.656 246.44H38.712V248.2H33.656V246.44ZM35.528 243.416H37.368V256.28C37.368 256.749 37.32 257.123 37.224 257.4C37.128 257.677 36.952 257.891 36.696 258.04C36.4293 258.2 36.0987 258.301 35.704 258.344C35.32 258.397 34.8507 258.424 34.296 258.424C34.2747 258.168 34.2107 257.859 34.104 257.496C33.9973 257.133 33.88 256.819 33.752 256.552C34.072 256.563 34.3707 256.573 34.648 256.584C34.936 256.584 35.1333 256.579 35.24 256.568C35.3467 256.568 35.4213 256.547 35.464 256.504C35.5067 256.461 35.528 256.381 35.528 256.264V243.416ZM60.648 244.408L62.056 243.464C62.4187 243.795 62.792 244.168 63.176 244.584C63.5707 245 63.8747 245.363 64.088 245.672L62.584 246.712C62.4667 246.499 62.296 246.259 62.072 245.992C61.8587 245.715 61.624 245.437 61.368 245.16C61.1227 244.883 60.8827 244.632 60.648 244.408ZM49.736 246.808H64.312V248.392H49.736V246.808ZM50.456 244.488H57.432V245.96H50.456V244.488ZM50.168 249.08H57.736V250.44H50.168V249.08ZM49.96 255.624H57.704V257.016H49.96V255.624ZM53.048 243.416H54.872V248.28H53.048V243.416ZM51.816 253.48V254.072H56.104V253.48H51.816ZM51.816 251.992V252.584H56.104V251.992H51.816ZM50.456 251.048H57.512V255.016H50.456V251.048ZM53.24 251.64H54.648V254.68H54.792V258.456H53.112V254.68H53.24V251.64ZM53.08 248.28H54.808V251.4H53.08V248.28ZM58.2 243.416H60.12C60.0987 244.792 60.1147 246.125 60.168 247.416C60.2213 248.707 60.312 249.907 60.44 251.016C60.568 252.115 60.728 253.08 60.92 253.912C61.1227 254.744 61.352 255.395 61.608 255.864C61.8747 256.333 62.1573 256.568 62.456 256.568C62.6267 256.568 62.7547 256.36 62.84 255.944C62.9253 255.528 62.9893 254.856 63.032 253.928C63.2347 254.141 63.48 254.344 63.768 254.536C64.056 254.717 64.3173 254.856 64.552 254.952C64.4667 255.88 64.3333 256.595 64.152 257.096C63.9813 257.597 63.7467 257.944 63.448 258.136C63.1493 258.339 62.76 258.44 62.28 258.44C61.7253 258.44 61.2347 258.243 60.808 257.848C60.392 257.464 60.0347 256.931 59.736 256.248C59.4373 255.555 59.1867 254.739 58.984 253.8C58.7813 252.851 58.6213 251.821 58.504 250.712C58.3973 249.592 58.3173 248.419 58.264 247.192C58.2213 245.955 58.2 244.696 58.2 243.416ZM62.12 249.08L63.816 249.608C63.4107 250.899 62.904 252.093 62.296 253.192C61.6987 254.291 61.0053 255.283 60.216 256.168C59.4267 257.043 58.536 257.811 57.544 258.472C57.416 258.227 57.224 257.965 56.968 257.688C56.7227 257.421 56.488 257.192 56.264 257C57.1813 256.467 58.0133 255.811 58.76 255.032C59.5173 254.243 60.1733 253.347 60.728 252.344C61.2933 251.341 61.7573 250.253 62.12 249.08ZM71.96 243.416H73.944V245.656H71.96V243.416ZM71.96 252.776H73.944V258.44H71.96V252.776ZM65.784 253.8H80.248V255.576H65.784V253.8ZM66.312 244.968H79.752V246.712H66.312V244.968ZM78.136 246.904L79.848 247.72C79.4427 248.093 79.0213 248.456 78.584 248.808C78.1467 249.149 77.7467 249.448 77.384 249.704L75.976 248.952C76.2213 248.771 76.472 248.563 76.728 248.328C76.9947 248.093 77.2507 247.853 77.496 247.608C77.752 247.352 77.9653 247.117 78.136 246.904ZM71.816 246.216L73.432 246.824C73.112 247.24 72.7813 247.656 72.44 248.072C72.1093 248.488 71.8053 248.84 71.528 249.128L70.328 248.6C70.4987 248.376 70.6747 248.125 70.856 247.848C71.0373 247.571 71.2133 247.288 71.384 247C71.5547 246.712 71.6987 246.451 71.816 246.216ZM74.216 247.384L75.704 248.072C75.2667 248.584 74.7867 249.117 74.264 249.672C73.7413 250.216 73.2187 250.739 72.696 251.24C72.1733 251.731 71.6773 252.163 71.208 252.536L70.088 251.912C70.5573 251.517 71.0427 251.064 71.544 250.552C72.056 250.029 72.5467 249.491 73.016 248.936C73.4853 248.381 73.8853 247.864 74.216 247.384ZM69.528 248.776L70.424 247.688C70.7333 247.869 71.064 248.077 71.416 248.312C71.768 248.547 72.104 248.781 72.424 249.016C72.744 249.24 73.0053 249.448 73.208 249.64L72.264 250.888C72.072 250.685 71.8213 250.461 71.512 250.216C71.2027 249.96 70.872 249.709 70.52 249.464C70.168 249.208 69.8373 248.979 69.528 248.776ZM69.384 251.336C69.9173 251.315 70.5253 251.293 71.208 251.272C71.8907 251.24 72.616 251.208 73.384 251.176C74.152 251.133 74.9253 251.096 75.704 251.064L75.688 252.424C74.6213 252.509 73.56 252.595 72.504 252.68C71.448 252.765 70.4987 252.835 69.656 252.888L69.384 251.336ZM73.784 250.264L75.144 249.688C75.3787 249.987 75.608 250.312 75.832 250.664C76.0667 251.005 76.28 251.347 76.472 251.688C76.664 252.029 76.8027 252.339 76.888 252.616L75.448 253.272C75.3627 252.995 75.2293 252.685 75.048 252.344C74.8773 251.992 74.68 251.635 74.456 251.272C74.2427 250.899 74.0187 250.563 73.784 250.264ZM65.608 251.624C66.12 251.464 66.7333 251.245 67.448 250.968C68.1733 250.691 68.9093 250.413 69.656 250.136L69.992 251.544C69.416 251.832 68.8187 252.12 68.2 252.408C67.592 252.696 67.032 252.952 66.52 253.176L65.608 251.624ZM66.088 248.088L67.368 247.064C67.6453 247.213 67.9387 247.389 68.248 247.592C68.568 247.784 68.8667 247.981 69.144 248.184C69.432 248.387 69.6667 248.573 69.848 248.744L68.504 249.88C68.344 249.709 68.1253 249.517 67.848 249.304C67.5813 249.091 67.2933 248.877 66.984 248.664C66.6747 248.451 66.376 248.259 66.088 248.088ZM75.624 251.064L76.936 250.008C77.2987 250.189 77.6933 250.403 78.12 250.648C78.5467 250.893 78.952 251.144 79.336 251.4C79.72 251.645 80.04 251.869 80.296 252.072L78.904 253.24C78.68 253.027 78.3813 252.792 78.008 252.536C77.6347 252.28 77.24 252.019 76.824 251.752C76.408 251.485 76.008 251.256 75.624 251.064ZM87 249.92C86.752 249.92 86.54 249.832 86.364 249.656C86.188 249.48 86.1 249.268 86.1 249.02C86.1 248.772 86.188 248.56 86.364 248.384C86.54 248.208 86.752 248.12 87 248.12C87.248 248.12 87.46 248.208 87.636 248.384C87.812 248.56 87.9 248.772 87.9 249.02C87.9 249.268 87.812 249.48 87.636 249.656C87.46 249.832 87.248 249.92 87 249.92ZM87 252.092L90.96 248.132L91.308 248.48L87.348 252.44L91.308 256.4L90.96 256.748L87 252.788L83.028 256.76L82.68 256.412L86.652 252.44L82.692 248.48L83.04 248.132L87 252.092ZM84.48 252.44C84.48 252.688 84.392 252.9 84.216 253.076C84.04 253.252 83.828 253.34 83.58 253.34C83.332 253.34 83.12 253.252 82.944 253.076C82.768 252.9 82.68 252.688 82.68 252.44C82.68 252.192 82.768 251.98 82.944 251.804C83.12 251.628 83.332 251.54 83.58 251.54C83.828 251.54 84.04 251.628 84.216 251.804C84.392 251.98 84.48 252.192 84.48 252.44ZM89.52 252.44C89.52 252.192 89.608 251.98 89.784 251.804C89.96 251.628 90.172 251.54 90.42 251.54C90.668 251.54 90.88 251.628 91.056 251.804C91.232 251.98 91.32 252.192 91.32 252.44C91.32 252.688 91.232 252.9 91.056 253.076C90.88 253.252 90.668 253.34 90.42 253.34C90.172 253.34 89.96 253.252 89.784 253.076C89.608 252.9 89.52 252.688 89.52 252.44ZM87 254.96C87.248 254.96 87.46 255.048 87.636 255.224C87.812 255.4 87.9 255.612 87.9 255.86C87.9 256.108 87.812 256.32 87.636 256.496C87.46 256.672 87.248 256.76 87 256.76C86.752 256.76 86.54 256.672 86.364 256.496C86.188 256.32 86.1 256.108 86.1 255.86C86.1 255.612 86.188 255.4 86.364 255.224C86.54 255.048 86.752 254.96 87 254.96Z" fill="white"/>
<path d="M186.499 250L195.262 232.654V232.513H185.09V229.394H199.126V232.583L190.372 250H186.499ZM200.341 246.177V243.208L209.084 229.394H211.56V233.62H210.05L204.164 242.947V243.108H216.369V246.177H200.341ZM210.171 250V245.271L210.211 243.943V229.394H213.733V250H210.171ZM222.966 243.336C222.165 243.336 221.455 243.124 220.835 242.701C220.216 242.278 219.732 241.666 219.384 240.865C219.037 240.049 218.863 239.082 218.863 237.964C218.863 236.846 219.037 235.894 219.384 235.108C219.732 234.307 220.216 233.703 220.835 233.295C221.455 232.872 222.165 232.66 222.966 232.66C224.175 232.66 225.157 233.121 225.912 234.043C226.683 234.964 227.068 236.272 227.068 237.964C227.068 239.082 226.895 240.049 226.547 240.865C226.2 241.666 225.716 242.278 225.096 242.701C224.492 243.124 223.782 243.336 222.966 243.336ZM222.966 241.432C223.464 241.432 223.88 241.168 224.212 240.639C224.56 240.095 224.734 239.203 224.734 237.964C224.734 236.725 224.56 235.848 224.212 235.335C223.88 234.806 223.464 234.541 222.966 234.541C222.482 234.541 222.067 234.806 221.719 235.335C221.387 235.848 221.22 236.725 221.22 237.964C221.22 239.203 221.387 240.095 221.719 240.639C222.067 241.168 222.482 241.432 222.966 241.432ZM235.228 250.113C234.428 250.113 233.717 249.902 233.098 249.479C232.478 249.056 231.987 248.444 231.624 247.643C231.277 246.842 231.103 245.882 231.103 244.764C231.103 243.631 231.277 242.671 231.624 241.885C231.987 241.084 232.478 240.48 233.098 240.072C233.717 239.649 234.428 239.437 235.228 239.437C236.029 239.437 236.74 239.649 237.359 240.072C237.979 240.48 238.462 241.084 238.81 241.885C239.157 242.671 239.331 243.631 239.331 244.764C239.331 245.882 239.157 246.842 238.81 247.643C238.462 248.444 237.979 249.056 237.359 249.479C236.74 249.902 236.029 250.113 235.228 250.113ZM235.228 248.232C235.727 248.232 236.143 247.96 236.475 247.416C236.808 246.872 236.974 245.988 236.974 244.764C236.974 243.51 236.808 242.626 236.475 242.112C236.143 241.598 235.727 241.341 235.228 241.341C234.73 241.341 234.307 241.598 233.959 242.112C233.627 242.626 233.46 243.51 233.46 244.764C233.46 245.988 233.627 246.872 233.959 247.416C234.307 247.96 234.73 248.232 235.228 248.232ZM223.532 250.113L232.69 232.66H234.684L225.504 250.113H223.532Z" fill="#F5A210"/>
<path d="M0 4C0 1.79086 1.79086 0 4 0H126V60H4C1.79086 60 0 58.2091 0 56V4Z" fill="#F5A210"/>
<path d="M125 0H296C298.209 0 300 1.79086 300 4V56C300 58.2091 298.209 60 296 60H125V0Z" fill="#F5A210" fill-opacity="0.15"/>
<path d="M45.384 38.048C45.2987 38.1973 45.208 38.3787 45.112 38.592C45.016 38.7947 44.9307 38.9973 44.856 39.2C44.7173 39.6693 44.52 40.208 44.264 40.816C44.0187 41.4133 43.7093 42.0373 43.336 42.688C42.9733 43.328 42.552 43.9467 42.072 44.544C41.304 45.4613 40.408 46.2933 39.384 47.04C38.3707 47.7867 37.112 48.4587 35.608 49.056L33.72 47.36C34.808 47.04 35.7467 46.672 36.536 46.256C37.3253 45.84 38.0133 45.3973 38.6 44.928C39.1867 44.448 39.7093 43.9413 40.168 43.408C40.5413 42.992 40.8827 42.5227 41.192 42C41.5013 41.4667 41.768 40.9387 41.992 40.416C42.216 39.8933 42.3653 39.4347 42.44 39.04H37.048L37.784 37.232C37.9333 37.232 38.1627 37.232 38.472 37.232C38.792 37.232 39.1493 37.232 39.544 37.232C39.9493 37.232 40.344 37.232 40.728 37.232C41.1227 37.232 41.464 37.232 41.752 37.232C42.0507 37.232 42.2533 37.232 42.36 37.232C42.6053 37.232 42.8507 37.216 43.096 37.184C43.352 37.152 43.5707 37.104 43.752 37.04L45.384 38.048ZM40.168 35.52C39.976 35.7973 39.7893 36.096 39.608 36.416C39.4267 36.736 39.288 36.9813 39.192 37.152C38.8293 37.792 38.3813 38.4587 37.848 39.152C37.3253 39.8347 36.728 40.5013 36.056 41.152C35.384 41.792 34.6693 42.3787 33.912 42.912L32.104 41.584C32.808 41.1467 33.4267 40.6987 33.96 40.24C34.504 39.7813 34.9733 39.328 35.368 38.88C35.7627 38.4213 36.0987 37.984 36.376 37.568C36.664 37.1413 36.9093 36.7627 37.112 36.432C37.24 36.2293 37.3733 35.968 37.512 35.648C37.6507 35.3173 37.7573 35.0187 37.832 34.752L40.168 35.52ZM49.448 36.512C49.8533 36.512 50.3707 36.512 51 36.512C51.6293 36.5013 52.2907 36.48 52.984 36.448C53.6773 36.4053 54.3173 36.3413 54.904 36.256C55.3093 36.2027 55.704 36.1387 56.088 36.064C56.4827 35.9893 56.856 35.9147 57.208 35.84C57.5707 35.7547 57.896 35.664 58.184 35.568C58.4827 35.472 58.7333 35.3813 58.936 35.296L60.248 37.056C59.9707 37.12 59.7307 37.1787 59.528 37.232C59.3253 37.2853 59.1547 37.328 59.016 37.36C58.6853 37.4453 58.328 37.5307 57.944 37.616C57.56 37.6907 57.1653 37.76 56.76 37.824C56.3547 37.888 55.944 37.952 55.528 38.016C54.92 38.1013 54.2747 38.1653 53.592 38.208C52.9093 38.2507 52.248 38.288 51.608 38.32C50.968 38.3413 50.4133 38.3573 49.944 38.368L49.448 36.512ZM50.136 47.536C51.0747 47.1093 51.8427 46.592 52.44 45.984C53.048 45.3653 53.496 44.656 53.784 43.856C54.0827 43.0453 54.232 42.1387 54.232 41.136C54.232 41.136 54.232 41.0187 54.232 40.784C54.232 40.5387 54.232 40.176 54.232 39.696C54.232 39.2053 54.232 38.5867 54.232 37.84L56.328 37.6C56.328 37.8773 56.328 38.176 56.328 38.496C56.328 38.8053 56.328 39.1147 56.328 39.424C56.328 39.7333 56.328 40.016 56.328 40.272C56.328 40.5173 56.328 40.72 56.328 40.88C56.328 41.0293 56.328 41.104 56.328 41.104C56.328 42.1707 56.1947 43.184 55.928 44.144C55.672 45.104 55.24 45.9893 54.632 46.8C54.024 47.6 53.2027 48.3093 52.168 48.928L50.136 47.536ZM48.248 40.336C48.472 40.3573 48.712 40.3787 48.968 40.4C49.224 40.4213 49.4747 40.432 49.72 40.432C49.8693 40.432 50.152 40.432 50.568 40.432C50.984 40.432 51.4853 40.432 52.072 40.432C52.6693 40.432 53.3093 40.432 53.992 40.432C54.6747 40.432 55.3573 40.432 56.04 40.432C56.7227 40.432 57.3627 40.432 57.96 40.432C58.5573 40.432 59.0693 40.432 59.496 40.432C59.9227 40.432 60.2107 40.432 60.36 40.432C60.4773 40.432 60.6267 40.4267 60.808 40.416C60.9893 40.4053 61.1707 40.3947 61.352 40.384C61.544 40.3627 61.6987 40.3467 61.816 40.336V42.4C61.6027 42.3787 61.368 42.3627 61.112 42.352C60.8667 42.3413 60.632 42.336 60.408 42.336C60.2587 42.336 59.9707 42.336 59.544 42.336C59.128 42.336 58.616 42.336 58.008 42.336C57.4107 42.336 56.7653 42.336 56.072 42.336C55.3893 42.336 54.7013 42.336 54.008 42.336C53.3253 42.336 52.6853 42.336 52.088 42.336C51.4907 42.336 50.984 42.336 50.568 42.336C50.152 42.336 49.88 42.336 49.752 42.336C49.5067 42.336 49.2453 42.3413 48.968 42.352C48.6907 42.3627 48.4507 42.3787 48.248 42.4V40.336ZM65.512 36.64C65.8107 36.672 66.1467 36.6987 66.52 36.72C66.8933 36.7307 67.2133 36.736 67.48 36.736H75.544C75.7787 36.736 76.0347 36.736 76.312 36.736C76.6 36.7253 76.8133 36.7147 76.952 36.704C76.9413 36.8853 76.9307 37.12 76.92 37.408C76.9093 37.6853 76.904 37.9413 76.904 38.176V46.464C76.904 46.7413 76.9093 47.0667 76.92 47.44C76.9413 47.8133 76.9573 48.1173 76.968 48.352H74.648C74.6587 48.1173 74.664 47.8613 74.664 47.584C74.6747 47.296 74.68 47.008 74.68 46.72V38.8H67.496C67.1547 38.8 66.792 38.8053 66.408 38.816C66.0347 38.8267 65.736 38.8427 65.512 38.864V36.64ZM65.304 45.328C65.5813 45.3493 65.8907 45.3707 66.232 45.392C66.584 45.4133 66.9413 45.424 67.304 45.424H75.944V47.52H67.368C67.0587 47.52 66.7013 47.5307 66.296 47.552C65.9013 47.5733 65.5707 47.5947 65.304 47.616V45.328ZM83.56 35.472C83.976 35.5253 84.4773 35.6053 85.064 35.712C85.6613 35.808 86.2907 35.92 86.952 36.048C87.624 36.176 88.2907 36.32 88.952 36.48C89.624 36.6293 90.2427 36.7787 90.808 36.928C91.384 37.0773 91.8747 37.2213 92.28 37.36L91.464 39.36C91.0907 39.2213 90.6267 39.0773 90.072 38.928C89.5173 38.768 88.9147 38.608 88.264 38.448C87.6133 38.288 86.9573 38.1387 86.296 38C85.6347 37.8613 85 37.7333 84.392 37.616C83.7947 37.4987 83.2667 37.4133 82.808 37.36L83.56 35.472ZM82.824 39.776C83.4 39.872 84.0613 39.9947 84.808 40.144C85.5547 40.2933 86.3227 40.4587 87.112 40.64C87.9013 40.8107 88.6533 40.992 89.368 41.184C90.0827 41.3653 90.6907 41.5467 91.192 41.728L90.408 43.728C89.9493 43.5467 89.368 43.36 88.664 43.168C87.9707 42.976 87.2293 42.784 86.44 42.592C85.6613 42.4 84.888 42.2293 84.12 42.08C83.352 41.92 82.6747 41.7973 82.088 41.712L82.824 39.776ZM82.008 44.352C82.552 44.4373 83.1707 44.5493 83.864 44.688C84.5573 44.8267 85.2773 44.9813 86.024 45.152C86.7813 45.3227 87.5227 45.4987 88.248 45.68C88.9733 45.8613 89.6453 46.0427 90.264 46.224C90.8933 46.4053 91.4267 46.5813 91.864 46.752L90.984 48.752C90.5573 48.5707 90.0293 48.384 89.4 48.192C88.7707 48.0107 88.088 47.8293 87.352 47.648C86.616 47.456 85.8747 47.28 85.128 47.12C84.3813 46.9493 83.6667 46.8 82.984 46.672C82.312 46.544 81.72 46.4427 81.208 46.368L82.008 44.352Z" fill="white"/>
<path d="M165.452 47.2216V44.2884L174.092 30.6364H176.538V34.8125H175.047L169.23 44.0298V44.1889H181.291V47.2216H165.452ZM175.166 51V46.3267L175.206 45.0142V30.6364H178.686V51H175.166ZM186.151 51.2188C185.548 51.2188 185.03 51.0066 184.6 50.5824C184.169 50.1581 183.957 49.6411 183.963 49.0312C183.957 48.4347 184.169 47.9242 184.6 47.5C185.03 47.0758 185.548 46.8636 186.151 46.8636C186.734 46.8636 187.241 47.0758 187.672 47.5C188.11 47.9242 188.332 48.4347 188.338 49.0312C188.332 49.4356 188.226 49.8035 188.02 50.1349C187.821 50.4664 187.556 50.7315 187.225 50.9304C186.9 51.1226 186.542 51.2188 186.151 51.2188ZM198.784 30.358C199.758 30.3646 200.706 30.5369 201.627 30.875C202.555 31.2064 203.391 31.75 204.133 32.5057C204.875 33.2547 205.465 34.259 205.903 35.5185C206.34 36.7779 206.559 38.3357 206.559 40.1918C206.566 41.9418 206.38 43.5062 206.002 44.8849C205.631 46.2571 205.097 47.4171 204.401 48.3651C203.705 49.313 202.867 50.0355 201.886 50.5327C200.905 51.0298 199.801 51.2784 198.575 51.2784C197.289 51.2784 196.149 51.0265 195.154 50.5227C194.167 50.0189 193.368 49.3295 192.758 48.4545C192.148 47.5795 191.774 46.5786 191.634 45.4517H195.264C195.449 46.2604 195.827 46.9034 196.397 47.3807C196.974 47.8513 197.7 48.0866 198.575 48.0866C199.987 48.0866 201.074 47.4735 201.836 46.2472C202.598 45.0208 202.98 43.3172 202.98 41.1364H202.84C202.516 41.7197 202.095 42.2235 201.578 42.6477C201.061 43.0653 200.474 43.3868 199.818 43.6122C199.168 43.8376 198.479 43.9503 197.749 43.9503C196.556 43.9503 195.482 43.6652 194.528 43.0952C193.58 42.5251 192.828 41.7429 192.271 40.7486C191.721 39.7543 191.442 38.6174 191.436 37.3381C191.436 36.0123 191.74 34.8224 192.35 33.7685C192.967 32.7079 193.825 31.8726 194.926 31.2628C196.026 30.6463 197.312 30.3447 198.784 30.358ZM198.794 33.3409C198.078 33.3409 197.431 33.5166 196.855 33.8679C196.285 34.2126 195.834 34.6832 195.502 35.2798C195.177 35.8698 195.015 36.5294 195.015 37.2585C195.022 37.9811 195.184 38.6373 195.502 39.2273C195.827 39.8172 196.268 40.2846 196.825 40.6293C197.388 40.974 198.031 41.1463 198.754 41.1463C199.291 41.1463 199.791 41.0436 200.255 40.8381C200.719 40.6326 201.124 40.3475 201.468 39.983C201.82 39.6117 202.091 39.1908 202.284 38.7202C202.482 38.2495 202.579 37.7524 202.572 37.2287C202.572 36.5327 202.406 35.8897 202.075 35.2997C201.75 34.7098 201.302 34.2358 200.732 33.8778C200.169 33.5199 199.523 33.3409 198.794 33.3409Z" fill="#F5A210"/>
<path d="M216.765 54.232C215.245 51.768 214.365 49.16 214.365 45.96C214.365 42.776 215.245 40.152 216.765 37.688L218.221 38.312C216.877 40.648 216.269 43.352 216.269 45.96C216.269 48.584 216.877 51.288 218.221 53.624L216.765 54.232ZM224.444 51V43.72C224.444 43.032 224.508 41.96 224.54 41.256H224.476C224.172 41.896 223.852 42.552 223.516 43.192L221.692 46.136H228.044V47.944H219.404V46.328L223.804 39.16H226.636V51H224.444ZM231.466 51C231.69 46.904 232.362 44.264 234.634 41.128H229.306V39.16H237.162V40.584C234.41 43.944 234.058 46.376 233.85 51H231.466ZM247.335 37.624H249.271V52.424H247.335V37.624ZM244.615 38.296L246.455 38.68C246.007 40.84 245.239 43.08 244.391 44.488C244.007 44.2 243.175 43.768 242.711 43.56C243.575 42.296 244.247 40.264 244.615 38.296ZM245.223 40.52H252.631V42.392H244.759L245.223 40.52ZM242.999 45.16H253.399V47.048H242.999V45.16ZM241.815 37.48L243.623 38.04C242.599 40.76 240.967 43.64 239.255 45.48C239.079 45.016 238.551 43.96 238.231 43.496C239.655 42.04 241.015 39.768 241.815 37.48ZM240.231 41.896L242.055 40.072V40.088V52.424H240.231V41.896ZM256.231 54.232L254.759 53.624C256.103 51.288 256.727 48.584 256.727 45.96C256.727 43.352 256.103 40.648 254.759 38.312L256.231 37.688C257.735 40.152 258.615 42.776 258.615 45.96C258.615 49.16 257.735 51.768 256.231 54.232Z" fill="#222222"/>
<path d="M186.392 15.224V15.336L181.896 18.6L183.672 23.992L183.592 24.04L179 20.696L174.408 24.04L174.328 23.992L176.104 18.6L171.608 15.336V15.224H177.192L178.952 9.864H179.048L180.808 15.224H186.392ZM203.032 15.224V15.336L198.536 18.6L200.312 23.992L200.232 24.04L195.64 20.696L191.048 24.04L190.968 23.992L192.744 18.6L188.248 15.336V15.224H193.832L195.592 9.864H195.688L197.448 15.224L203.032 15.224ZM219.672 15.224V15.336L215.176 18.6L216.952 23.992L216.872 24.04L212.28 20.696L207.688 24.04L207.608 23.992L209.384 18.6L204.888 15.336V15.224H210.472L212.232 9.864H212.328L214.088 15.224H219.672ZM236.312 15.224V15.336L231.816 18.6L233.592 23.992L233.512 24.04L228.92 20.696L224.328 24.04L224.248 23.992L226.024 18.6L221.528 15.336V15.224H227.112L228.872 9.864H228.968L230.728 15.224H236.312ZM252.952 15.224V15.336L248.456 18.6L250.232 23.992L250.152 24.04L245.56 20.696L240.968 24.04L240.888 23.992L242.664 18.6L238.168 15.336V15.224H243.752L245.512 9.864H245.608L247.368 15.224H252.952Z" fill="#FFD15C"/>
<path fill-rule="evenodd" clip-rule="evenodd" d="M92.0579 14.2412C95.8382 14.2412 96.9334 17.5151 97.3397 18.5081C96.8541 18.7126 89.7804 21.6254 89.7804 21.6254C89.7804 21.6254 90.5521 23.3244 92.4413 23.3244C94.4278 23.3244 95.2679 21.7457 95.2679 21.7457C95.2679 21.7457 96.7682 22.7384 97.2284 23.0488C96.9502 23.404 95.6073 25.5572 92.4413 25.5572C89.4058 25.5572 86.8945 23.1768 86.8945 19.9254C86.8945 16.2989 89.5503 14.2413 92.0579 14.2413V14.2412ZM89.389 19.708C89.3942 19.2441 89.3431 17.6539 91.2161 16.6968C92.4438 16.0363 94.0565 16.6917 94.4066 17.632C94.0928 17.7632 89.7995 19.535 89.389 19.708Z" fill="#E94235"/>
<path fill-rule="evenodd" clip-rule="evenodd" d="M83.2305 8.64844H85.7186V25.2067H83.2305V8.64844Z" fill="#34A853"/>
<path fill-rule="evenodd" clip-rule="evenodd" d="M79.175 14.5932L81.4956 14.5954V25.0777C81.4956 27.682 80.099 30.6178 76.1072 30.6167C73.4918 30.6123 71.8126 28.8751 71.1464 27.2761C71.5587 27.103 73.0231 26.4792 73.3101 26.3805C73.5148 26.7994 74.4532 28.7135 76.7647 28.3427C79.3138 27.9337 79.1933 25.3673 79.1535 24.2021C78.4666 24.9204 77.5353 25.7052 75.4557 25.5113C73.3052 25.2728 70.6953 23.152 70.6953 19.8995C70.6953 16.7246 73.3199 14.2549 75.9967 14.2549C77.8521 14.2549 78.7063 15.0652 79.175 15.6046V14.5932ZM76.3073 16.4773C78.2879 16.4773 79.3287 18.2562 79.3287 19.8996C79.3287 21.9499 77.9331 23.3198 76.3073 23.3198C74.6875 23.3198 73.175 21.9644 73.175 19.8995C73.175 18.1012 74.4326 16.4773 76.3073 16.4773Z" fill="#4285F4"/>
<path fill-rule="evenodd" clip-rule="evenodd" d="M63.9904 14.2412C67.1671 14.2412 69.6804 16.5936 69.6804 20.0024C69.6804 22.9349 67.309 25.5521 63.9904 25.5521C60.8138 25.5521 58.3359 23.065 58.3359 20.0024C58.3359 16.5549 60.901 14.2412 63.9904 14.2412ZM63.9904 16.4792C66.1596 16.4792 67.1855 18.298 67.1855 20.0024C67.1855 21.8713 65.7567 23.3196 63.9904 23.3196C62.2682 23.3196 60.8352 21.8713 60.8352 20.0024C60.8352 17.8204 62.2159 16.4792 63.9904 16.4792Z" fill="#FABB05"/>
<path fill-rule="evenodd" clip-rule="evenodd" d="M51.633 14.2412C54.8096 14.2412 57.323 16.5936 57.323 20.0024C57.323 22.9349 54.9514 25.5521 51.633 25.5521C48.4563 25.5521 45.9785 23.065 45.9785 20.0024C45.9785 16.5549 48.5436 14.2412 51.633 14.2412ZM51.633 16.4792C53.8022 16.4792 54.8281 18.298 54.8281 20.0024C54.8281 21.8713 53.3991 23.3196 51.633 23.3196C49.9107 23.3196 48.4777 21.8713 48.4777 20.0024C48.4777 17.8204 49.8585 16.4792 51.633 16.4792Z" fill="#E94235"/>
<path fill-rule="evenodd" clip-rule="evenodd" d="M42.9197 10.4204C42.495 10.8457 41.2394 12.1069 41.2394 12.1069C41.2394 12.1069 39.7958 10.405 36.7694 10.405C33.5725 10.405 30.6315 13.0414 30.6315 16.8376C30.6315 20.186 33.3011 23.1448 36.9578 23.1448C40.6125 23.1354 42.4616 20.702 42.6452 18.4017H36.9727L36.9578 16.0175H44.9812C45.7331 20.452 43.1801 25.4712 36.9578 25.5574C31.792 25.5574 28 21.2968 28 16.8376C28 11.8671 32.1962 8 36.7694 8C40.595 8.00014 42.3924 9.96875 42.9197 10.4204Z" fill="#4285F4"/>
</svg>
